<svg width="368" height="365" viewBox="0 0 368 365" fill="none" xmlns="http://www.w3.org/2000/svg">
<path d="M368 84.7227H328.879V95.0718H368V84.7227Z" fill="#EBEBEB"/>
<path d="M165.272 324.304C165.276 320.83 164.478 317.402 162.942 314.286C161.406 311.17 159.171 308.451 156.413 306.339C153.655 304.227 150.446 302.779 147.038 302.109C143.629 301.438 140.111 301.562 136.758 302.472C133.406 303.382 130.308 305.053 127.706 307.354C125.103 309.656 123.067 312.527 121.754 315.743C120.442 318.96 119.889 322.436 120.138 325.901C120.388 329.366 121.433 332.727 123.192 335.723L123.256 335.803C124.125 337.267 125.21 338.312 126.312 339.824L139.419 357.225C139.799 357.73 140.291 358.139 140.856 358.421C141.421 358.703 142.044 358.85 142.676 358.85C143.308 358.85 143.93 358.703 144.496 358.421C145.061 358.139 145.553 357.73 145.933 357.225L158.799 340.13C159.975 338.744 161.07 337.291 162.08 335.779L162.128 335.723C164.176 332.266 165.262 328.323 165.272 324.304ZM142.636 334.139C140.668 334.139 138.745 333.555 137.109 332.462C135.473 331.369 134.198 329.815 133.445 327.996C132.693 326.178 132.496 324.178 132.88 322.248C133.265 320.318 134.213 318.546 135.605 317.155C136.997 315.765 138.77 314.818 140.7 314.435C142.63 314.052 144.63 314.25 146.448 315.004C148.265 315.758 149.818 317.034 150.91 318.671C152.002 320.308 152.584 322.232 152.583 324.2C152.583 325.506 152.325 326.799 151.825 328.005C151.326 329.212 150.593 330.308 149.669 331.231C148.745 332.154 147.649 332.886 146.442 333.385C145.235 333.884 143.942 334.14 142.636 334.139Z" fill="#E0E0E0"/>
<path d="M81.3937 35.5264H42.2729V45.8755H81.3937V35.5264Z" fill="#EBEBEB"/>
<path d="M64.3462 56.7802C64.3428 56.7185 64.3428 56.6568 64.3462 56.5952V56.0645C64.3462 55.574 64.3462 54.8985 64.3462 54.022C64.3462 52.2368 64.3462 49.6717 64.2819 46.431L64.4025 46.5517L25.2335 46.6321L25.4346 46.431V49.0766C25.4346 49.9531 25.4346 50.8296 25.4346 51.69V56.7802L25.2335 56.5872L53.1126 56.6756L61.3388 56.7319H63.5662H64.1452H64.3542C64.3542 56.7319 64.2979 56.7319 64.1773 56.7319H63.6144H61.4352L53.2493 56.7882L25.2335 56.9731H25.0405V56.7802C25.0405 55.1129 25.0405 53.4162 25.0405 51.69V46.4471L25.2416 46.2461L64.3623 46.3265H64.4829V46.4471C64.4829 49.7199 64.4346 52.3092 64.4186 54.1105C64.4186 54.9709 64.4186 55.6463 64.4186 56.1208C64.4186 56.3298 64.4186 56.4987 64.4186 56.6354C64.4186 56.7721 64.3542 56.7882 64.3462 56.7802Z" fill="#E0E0E0"/>
<path d="M363.666 308.97H324.545V319.319H363.666V308.97Z" fill="#EBEBEB"/>
<path d="M346.618 330.215C346.611 330.154 346.611 330.092 346.618 330.031C346.618 329.894 346.618 329.717 346.618 329.5C346.618 329.009 346.618 328.334 346.618 327.465C346.618 325.672 346.578 323.107 346.554 319.866L346.674 319.987L307.554 320.067C307.642 319.979 307.353 320.268 307.747 319.866V330.207L307.554 330.014L335.433 330.103L343.659 330.159H345.886H346.465H346.674H346.489H345.935H343.747L335.569 330.215L307.481 330.441H307.28V319.874C307.674 319.48 307.393 319.77 307.481 319.673L346.602 319.754H346.723V319.874C346.723 323.147 346.674 325.736 346.658 327.546C346.658 328.398 346.658 329.074 346.658 329.556C346.658 329.765 346.658 329.926 346.658 330.063C346.649 330.115 346.636 330.166 346.618 330.215Z" fill="#E0E0E0"/>
<path d="M260.038 40.3514C260.034 40.2898 260.034 40.2281 260.038 40.1665V39.6358C260.038 39.1452 260.038 38.4698 260.038 37.6013C260.038 35.8162 260.038 33.243 259.974 30.0023L260.094 30.1229L220.973 30.2034L221.174 30.0023V35.2533C221.174 36.9795 221.174 38.6762 221.174 40.3434L220.981 40.1504L248.86 40.2389L257.087 40.2951H259.314H259.901H260.038C260.038 40.2951 259.982 40.2951 259.861 40.2951H259.298H257.119L248.933 40.3514L220.917 40.4399H220.724V40.2389C220.724 38.5743 220.724 36.8776 220.724 35.1487V30.0104L220.925 29.8174L260.046 29.8898H260.166V30.0104C260.166 33.2832 260.118 35.8725 260.102 37.6817C260.102 38.5422 260.102 39.2096 260.102 39.6921V40.1987C260.038 40.3032 260.038 40.3595 260.038 40.3514Z" fill="#E0E0E0"/>
<path d="M265.345 30.0021C265.339 29.9379 265.339 29.8732 265.345 29.8091V29.2623C265.345 28.7476 265.345 28.0561 265.345 27.1876C265.345 25.3703 265.297 22.8051 265.265 19.6529L265.41 19.7977L241.905 19.854C241.728 20.0309 242.146 19.6127 242.098 19.6529V24.9763C242.098 26.7132 242.098 28.3858 242.098 29.994L241.913 29.8091L258.727 29.8975L263.624 29.9458H264.943H265.418C265.276 29.9573 265.133 29.9573 264.991 29.9458H263.705L258.88 30.0021L241.937 30.0905H241.744V29.8975C241.744 28.2893 241.744 26.6167 241.744 24.8798V19.661L241.945 19.46L265.45 19.5162H265.595V19.661C265.595 22.8775 265.53 25.4427 265.514 27.2761C265.514 28.1365 265.514 28.82 265.514 29.3186C265.514 29.8171 265.353 30.0181 265.345 30.0021Z" fill="#E0E0E0"/>
<path d="M39.2574 334.775C39.2574 334.775 39.2574 334.702 39.2574 334.582V334.051C39.2574 333.569 39.2574 332.885 39.2574 332.017C39.2574 330.231 39.2574 327.658 39.185 324.426L39.3056 324.546L0.184948 324.619L0.38598 324.426V329.669C0.38598 331.389 0.38598 333.094 0.38598 334.759L0.19299 334.558L28.072 334.654L36.2982 334.702H38.5256H39.1127H39.3137H39.1368H38.5739H36.3947L28.2087 334.759L0.19299 334.847H0V334.654C0 332.99 0 331.285 0 329.564V324.321L0.201031 324.12L39.3217 324.201H39.4423V324.321C39.4423 327.586 39.3941 330.183 39.378 331.984C39.378 332.845 39.378 333.512 39.378 333.995V334.501C39.3585 334.6 39.3173 334.694 39.2574 334.775Z" fill="#E0E0E0"/>
<path d="M44.5327 324.425C44.5268 324.358 44.5268 324.291 44.5327 324.224C44.5327 324.079 44.5327 323.894 44.5327 323.677C44.5327 323.171 44.5327 322.479 44.5327 321.602C44.5327 319.785 44.4845 317.22 44.4523 314.076L44.5971 314.213L21.0925 314.269L21.2855 314.076V319.391C21.2855 321.12 21.2855 322.801 21.2855 324.409L21.1005 324.216L37.9148 324.304L42.8119 324.361H44.1307H44.6051C44.4633 324.372 44.3207 324.372 44.1789 324.361H42.8923L38.0676 324.409L21.1246 324.497H20.9316V324.312C20.9316 322.704 20.9316 321.024 20.9316 319.295V313.979L21.1327 313.778L44.6373 313.835H44.782V313.979C44.782 317.196 44.7177 319.753 44.7016 321.594C44.7016 322.455 44.7016 323.13 44.7016 323.637C44.7016 324.144 44.5729 324.433 44.5327 324.425Z" fill="#E0E0E0"/>
<path d="M332.023 61.0479H20.9234C15.2255 61.0479 10.6064 65.6669 10.6064 71.3648V281.893C10.6064 287.591 15.2255 292.21 20.9234 292.21H332.023C337.721 292.21 342.34 287.591 342.34 281.893V71.3648C342.34 65.6669 337.721 61.0479 332.023 61.0479Z" fill="#263238"/>
<path d="M342.34 71.3647L342.292 70.6409C342.279 70.344 342.244 70.0483 342.188 69.7564C342.128 69.3453 342.036 68.9393 341.914 68.5422C341.529 67.1981 340.873 65.947 339.987 64.8657C339.1 63.7843 338.002 62.8956 336.76 62.2539C335.894 61.8108 334.971 61.4888 334.018 61.297C332.955 61.1221 331.877 61.0574 330.801 61.104H323.331H304.699L185.97 61.1764H103.949H22.202C21.1914 61.1364 20.1792 61.1902 19.1785 61.3372C18.183 61.506 17.2199 61.8288 16.3238 62.2941C14.5133 63.2234 13.0231 64.6744 12.0459 66.4595C11.5716 67.3585 11.2252 68.3193 11.0166 69.3141C10.8508 70.3291 10.7862 71.3581 10.8236 72.3859V91.307C10.8236 99.7932 10.8236 108.371 10.8236 117.039V170.111C10.8236 206.176 10.8236 243.512 10.8236 281.756C10.8167 284.11 11.634 286.392 13.1337 288.206C14.6334 290.02 16.7208 291.252 19.0337 291.687C20.1966 291.86 21.3735 291.919 22.5478 291.864H116.373H220.379H314.461H330.825C331.712 291.893 332.599 291.853 333.479 291.744C335.627 291.446 337.622 290.464 339.167 288.943C340.713 287.422 341.727 285.443 342.059 283.3C342.159 282.444 342.194 281.581 342.164 280.719C342.164 279.851 342.164 278.99 342.164 278.122V272.967C342.164 259.292 342.164 246.176 342.164 233.621C342.164 183.5 342.22 142.932 342.236 114.892C342.236 100.884 342.236 89.9641 342.276 82.6144C342.276 78.9315 342.276 76.117 342.276 74.2193C342.276 72.3216 342.276 71.3647 342.276 71.3647C342.276 71.3647 342.276 72.3296 342.276 74.2193C342.276 76.109 342.276 78.9315 342.276 82.6144C342.276 89.9963 342.276 100.884 342.276 114.892C342.276 142.932 342.324 183.5 342.357 233.621C342.357 246.155 342.357 259.27 342.357 272.967C342.357 274.68 342.357 276.393 342.357 278.122V280.719C342.383 281.597 342.345 282.476 342.244 283.349C341.991 285.133 341.284 286.822 340.192 288.256C339.099 289.689 337.657 290.818 336.004 291.535C335.167 291.888 334.289 292.133 333.391 292.266C332.494 292.377 331.591 292.42 330.689 292.395H314.494H220.411H116.405H22.5639C21.3625 292.449 20.1588 292.387 18.9694 292.21C16.5492 291.754 14.3649 290.465 12.7949 288.568C11.2249 286.67 10.3682 284.283 10.3733 281.821C10.3733 243.576 10.3733 206.233 10.3733 170.176C10.3733 152.147 10.3733 134.456 10.3733 117.103V72.4663C10.3388 71.4113 10.4088 70.3554 10.5824 69.3141C10.7995 68.2777 11.1594 67.2764 11.6519 66.3389C12.6781 64.4805 14.2308 62.967 16.1148 61.9885C17.0496 61.5075 18.0532 61.1739 19.09 60.9995C20.1146 60.8475 21.151 60.791 22.1859 60.8306H58.2831H103.957H185.978L304.707 60.903H323.339H330.801C331.878 60.8666 332.955 60.9366 334.018 61.112C334.982 61.3056 335.913 61.6359 336.784 62.0931C338.034 62.7434 339.137 63.6436 340.025 64.7377C340.913 65.8318 341.567 67.0966 341.946 68.4537C342.064 68.8511 342.15 69.2571 342.204 69.6679C342.258 69.9627 342.29 70.261 342.3 70.5605C342.34 71.1154 342.34 71.3647 342.34 71.3647Z" fill="#263238"/>
<path d="M325.671 167.756C327.421 167.756 329.131 168.275 330.585 169.247C332.04 170.219 333.174 171.6 333.843 173.216C334.513 174.833 334.688 176.611 334.346 178.327C334.005 180.043 333.163 181.619 331.926 182.856C330.689 184.093 329.113 184.935 327.397 185.277C325.681 185.618 323.902 185.443 322.286 184.773C320.67 184.104 319.288 182.97 318.316 181.515C317.344 180.061 316.826 178.351 316.826 176.601C316.826 174.255 317.758 172.005 319.416 170.347C321.075 168.688 323.325 167.756 325.671 167.756Z" fill="#455A64"/>
<path d="M28.1366 152.944V200.17C28.1376 200.603 28.0533 201.031 27.8885 201.431C27.7237 201.831 27.4816 202.195 27.1761 202.501C26.8706 202.807 26.5077 203.05 26.1082 203.216C25.7086 203.382 25.2803 203.467 24.8477 203.467C24.4147 203.467 23.986 203.382 23.586 203.216C23.186 203.05 22.8226 202.807 22.5164 202.501C22.2103 202.195 21.9674 201.832 21.8017 201.432C21.6361 201.032 21.5508 200.603 21.5508 200.17V152.968C21.5508 152.093 21.8981 151.255 22.5164 150.637C23.1347 150.018 23.9733 149.671 24.8477 149.671C25.7172 149.671 26.5513 150.015 27.1676 150.628C27.7839 151.242 28.1323 152.074 28.1366 152.944Z" fill="#455A64"/>
<path d="M311.309 68.5332H34.272V285.117H311.309V68.5332Z" fill="#EBEBEB"/>
<path d="M212.892 224.88L234.314 262.634L286.984 261.854L284.001 220.884L212.892 224.88Z" fill="#E0E0E0"/>
<path d="M143.271 97.3868L135.535 157.061L151.513 160.873L182.753 157.769L177.02 92.5781L143.271 97.3868Z" fill="#E0E0E0"/>
<path d="M94.7418 219.517H57.8164V175.057L97.9423 175.459L94.7418 219.517Z" fill="#F5F5F5"/>
<path d="M246.754 220.884C246.754 219.622 253.259 175.459 253.259 175.459C253.259 175.459 278.718 168.487 278.814 169.484C278.911 170.481 283.88 219.71 283.88 219.71L246.754 220.884Z" fill="#F5F5F5"/>
<path d="M62.0625 107.776C62.1349 108.853 79.697 144.171 79.697 144.171L100.033 138.783V98.1504L79.0617 97.668L62.0625 107.776Z" fill="#E0E0E0"/>
<path d="M186.252 181.466H158.131V194.734H186.252V181.466Z" fill="#E0E0E0"/>
<path d="M186.38 199.133L158.059 200.564L156.62 227.454L188.962 224.881L186.38 199.133Z" fill="#E0E0E0"/>
<path d="M299.826 149.268L295.894 94.6836H311.237L311.309 148.182L299.826 149.268Z" fill="#E0E0E0"/>
<path d="M236.992 85.7422L243.385 153.763L276.925 150.756L271.071 92.7381L244.518 85.7422H236.992Z" fill="#E0E0E0"/>
<path d="M82.8893 97.9092L34.4648 97.1775L34.5131 93.961L80.2678 94.6525L85.5509 68.5586L88.7111 69.1939L82.8893 97.9092Z" fill="white"/>
<path d="M57.5835 150.451L34.1191 97.8287L34.8509 97.499L58.0419 149.494L99.9368 138.389L100.138 139.169L57.5835 150.451Z" fill="white"/>
<path d="M97.9506 174.655H34.4971V176.264H97.9506V174.655Z" fill="white"/>
<path d="M58.2109 149.977H57.4067V219.525H58.2109V149.977Z" fill="white"/>
<path d="M94.9593 219.164H34.4971V219.968H94.9593V219.164Z" fill="white"/>
<path d="M91.8232 282.439L34.2397 269.733L34.9313 266.589L88.8881 278.498L98.1436 149.717L99.5347 96.1546L101.698 68.75L104.898 68.9993L102.743 96.3637L101.36 149.878L91.8232 282.439Z" fill="white"/>
<path d="M101.006 99.8622L81.418 97.8841L81.7477 94.6837L99.0605 96.4367L101.923 90.3253L127.728 96.5814L243.763 83.3535L284.186 93.8554L311.189 93.0754L311.285 96.2839L283.824 97.088L243.53 86.6183L127.527 99.8381L103.724 94.0725L101.006 99.8622Z" fill="white"/>
<path d="M235.915 223.384L232.722 222.966L241.761 153.746L234.813 85.8058V68.5332H238.029V85.7254L245.001 153.787L235.915 223.384Z" fill="white"/>
<path d="M93.3751 232.907L93.1821 229.698L282.851 218.167L308.664 165.609L311.55 167.025L284.918 221.263L283.985 221.319L93.3751 232.907Z" fill="white"/>
<path d="M188.342 226.818L176.216 92.6496L175.557 68.9037L177.165 68.8555L177.824 92.5611L189.942 226.673L188.342 226.818Z" fill="white"/>
<path d="M162.884 284.257L148.86 226.988V162.207L133.075 158.283L139.926 96.7914L139.291 68.5665L142.507 68.4941L143.15 96.9361L143.142 97.0406L136.581 155.838L152.076 159.698V226.593L166.012 283.493L162.884 284.257Z" fill="white"/>
<path d="M150.468 175.057H97.9424V175.861H150.468V175.057Z" fill="white"/>
<path d="M99.8242 149.436L99.6621 150.224L134.743 157.444L134.905 156.656L99.8242 149.436Z" fill="white"/>
<path d="M150.379 202.084L137.899 199.325V175.459H138.704V198.682L150.556 201.296L150.379 202.084Z" fill="white"/>
<path d="M130.896 284.217L123.884 261.71H91.791V258.493H126.248L133.967 283.26L130.896 284.217Z" fill="white"/>
<path d="M234.081 263.044L212.546 225.073L213.246 224.679L234.547 262.231L311.132 261.09L311.148 261.894L234.081 263.044Z" fill="white"/>
<path d="M271.762 262.635H270.958V284.314H271.762V262.635Z" fill="white"/>
<path d="M286.582 261.887L283.599 220.916L268.224 68.5746L269.028 68.4941L284.403 220.844L287.386 261.822L286.582 261.887Z" fill="white"/>
<path d="M311.28 147.767L150.438 160.538L150.502 161.34L311.344 148.568L311.28 147.767Z" fill="white"/>
<path d="M296.688 96.0076L295.086 96.1514L299.863 149.356L301.465 149.212L296.688 96.0076Z" fill="white"/>
<path d="M298.517 125.897L274.952 131.729L275.145 132.509L298.71 126.677L298.517 125.897Z" fill="white"/>
<path d="M288.158 128.579L283.985 104.921L272.221 103.675L272.301 102.879L284.669 104.19L288.947 128.434L288.158 128.579Z" fill="white"/>
<path d="M208.514 89.8324L206.911 89.9697L212.497 155.122L214.099 154.985L208.514 89.8324Z" fill="white"/>
<path d="M239.757 125.455L211.257 131.727L211.43 132.512L239.93 126.241L239.757 125.455Z" fill="white"/>
<path d="M233.536 262.54L230.608 285.237L232.203 285.443L235.131 262.746L233.536 262.54Z" fill="white"/>
<path d="M101.143 176.825L97.9429 226.745L147.839 224.317V204.728L134.772 201.842V178.972L101.143 176.825Z" fill="#E0E0E0"/>
<path d="M87.4005 188.985C87.4014 187.242 87.0005 185.522 86.229 183.96C85.4575 182.397 84.3361 181.033 82.952 179.974C81.5678 178.915 79.9582 178.189 78.248 177.853C76.5379 177.517 74.7733 177.58 73.0914 178.037C71.4094 178.493 69.8554 179.332 68.55 180.486C67.2446 181.641 66.223 183.081 65.5645 184.695C64.9061 186.309 64.6284 188.052 64.7532 189.791C64.878 191.529 65.4019 193.215 66.2841 194.718V194.758C66.7184 195.49 67.2571 196.013 67.812 196.785L74.3897 205.502C74.5809 205.755 74.8281 205.96 75.1121 206.102C75.396 206.243 75.7089 206.316 76.0261 206.316C76.3433 206.316 76.6562 206.243 76.9401 206.102C77.2241 205.96 77.4714 205.755 77.6625 205.502L84.0955 196.93C84.6841 196.234 85.2344 195.506 85.744 194.75C86.8074 193.014 87.3799 191.021 87.4005 188.985ZM76.0623 193.922C75.074 193.924 74.1074 193.632 73.285 193.084C72.4625 192.536 71.8212 191.756 71.4423 190.843C71.0633 189.93 70.9638 188.926 71.1562 187.956C71.3486 186.987 71.8244 186.096 72.5232 185.398C73.2221 184.699 74.1126 184.223 75.082 184.031C76.0514 183.838 77.0562 183.938 77.9689 184.317C78.8817 184.696 79.6616 185.337 80.2096 186.159C80.7577 186.982 81.0495 187.948 81.0479 188.937C81.0457 190.258 80.5198 191.525 79.5853 192.46C78.6508 193.394 77.3839 193.92 76.0623 193.922Z" fill="#FFBA49"/>
<path d="M194.1 149.091C194.104 147.347 193.706 145.625 192.936 144.06C192.166 142.495 191.046 141.128 189.661 140.066C188.277 139.005 186.667 138.277 184.955 137.94C183.244 137.602 181.477 137.664 179.794 138.121C178.11 138.578 176.555 139.417 175.248 140.573C173.942 141.729 172.92 143.17 172.262 144.786C171.604 146.401 171.327 148.147 171.454 149.887C171.58 151.627 172.107 153.314 172.992 154.817V154.865C173.426 155.597 173.973 156.12 174.528 156.892L181.122 165.592C181.313 165.845 181.56 166.051 181.844 166.192C182.128 166.333 182.441 166.407 182.758 166.407C183.075 166.407 183.388 166.333 183.672 166.192C183.956 166.051 184.203 165.845 184.394 165.592L190.884 157.028C191.46 156.333 191.997 155.605 192.492 154.849C193.537 153.11 194.093 151.121 194.1 149.091ZM182.762 154.029C181.774 154.029 180.809 153.736 179.988 153.187C179.166 152.639 178.526 151.859 178.148 150.946C177.771 150.034 177.672 149.03 177.864 148.061C178.057 147.092 178.533 146.203 179.231 145.504C179.929 144.806 180.819 144.33 181.788 144.138C182.756 143.945 183.76 144.044 184.673 144.422C185.585 144.8 186.365 145.44 186.914 146.261C187.463 147.082 187.756 148.048 187.756 149.035C187.756 149.692 187.626 150.342 187.375 150.948C187.123 151.554 186.755 152.105 186.29 152.569C185.826 153.033 185.274 153.401 184.667 153.651C184.061 153.901 183.41 154.03 182.754 154.029H182.762Z" fill="#FFBA49"/>
<path d="M147.026 247.308C147.03 246.111 146.758 244.929 146.23 243.855C145.703 242.781 144.934 241.843 143.985 241.114C143.036 240.386 141.931 239.886 140.757 239.654C139.583 239.422 138.371 239.465 137.216 239.778C136.061 240.091 134.994 240.666 134.097 241.46C133.201 242.253 132.5 243.242 132.049 244.35C131.597 245.459 131.408 246.656 131.495 247.85C131.583 249.044 131.944 250.201 132.552 251.232C132.85 251.73 133.228 252.092 133.606 252.615L138.117 258.598C138.248 258.769 138.417 258.909 138.611 259.004C138.805 259.1 139.018 259.15 139.234 259.15C139.451 259.15 139.664 259.1 139.858 259.004C140.052 258.909 140.221 258.769 140.352 258.598L144.791 252.72C145.195 252.241 145.573 251.742 145.925 251.224C146.635 250.04 147.015 248.688 147.026 247.308ZM139.25 250.693C138.573 250.695 137.91 250.495 137.345 250.12C136.781 249.744 136.34 249.21 136.08 248.584C135.819 247.958 135.75 247.269 135.882 246.604C136.013 245.939 136.339 245.328 136.817 244.848C137.296 244.368 137.906 244.041 138.571 243.908C139.236 243.776 139.925 243.843 140.551 244.102C141.178 244.361 141.713 244.8 142.09 245.364C142.467 245.927 142.668 246.59 142.668 247.268C142.669 247.717 142.581 248.162 142.41 248.578C142.239 248.993 141.987 249.371 141.67 249.689C141.352 250.008 140.975 250.26 140.56 250.432C140.145 250.604 139.7 250.693 139.25 250.693Z" fill="#FFBA49"/>
<path d="M288.078 106.168C288.07 104.23 287.339 102.366 286.028 100.94C284.718 99.5135 282.922 98.6276 280.993 98.4555C279.063 98.2835 277.139 98.8378 275.597 100.01C274.055 101.182 273.006 102.887 272.655 104.792C272.323 106.615 272.66 108.497 273.604 110.092C273.901 110.59 274.279 110.952 274.657 111.483L279.168 117.457C279.3 117.629 279.469 117.768 279.663 117.864C279.856 117.96 280.07 118.01 280.286 118.01C280.502 118.01 280.716 117.96 280.909 117.864C281.103 117.768 281.272 117.629 281.404 117.457L285.842 111.579C286.247 111.101 286.625 110.602 286.976 110.084C287.686 108.9 288.067 107.548 288.078 106.168ZM280.302 109.553C279.624 109.554 278.96 109.355 278.396 108.979C277.831 108.603 277.391 108.068 277.131 107.442C276.87 106.816 276.802 106.126 276.934 105.461C277.066 104.796 277.392 104.185 277.872 103.705C278.351 103.225 278.962 102.899 279.628 102.767C280.293 102.635 280.982 102.704 281.609 102.964C282.235 103.224 282.77 103.665 283.146 104.229C283.521 104.794 283.721 105.457 283.72 106.135C283.72 107.042 283.36 107.911 282.719 108.552C282.078 109.193 281.208 109.553 280.302 109.553Z" fill="#FFBA49"/>
<path d="M122.533 109.866C122.535 107.747 122.049 105.656 121.112 103.755C120.175 101.854 118.812 100.195 117.129 98.9072C115.447 97.6188 113.49 96.7358 111.411 96.3267C109.332 95.9176 107.186 95.9934 105.141 96.5482C103.096 97.1031 101.206 98.122 99.6191 99.5259C98.0318 100.93 96.7895 102.681 95.9889 104.643C95.1883 106.605 94.8508 108.725 95.0028 110.838C95.1547 112.952 95.792 115.002 96.865 116.829L96.9052 116.878C97.4279 117.77 98.0953 118.405 98.7628 119.338L106.764 129.945C106.996 130.251 107.297 130.5 107.641 130.671C107.986 130.842 108.365 130.931 108.75 130.931C109.135 130.931 109.514 130.842 109.859 130.671C110.203 130.5 110.504 130.251 110.736 129.945L118.609 119.491C119.326 118.645 119.994 117.759 120.611 116.837C121.862 114.726 122.525 112.319 122.533 109.866ZM108.742 115.864C107.541 115.864 106.367 115.508 105.368 114.841C104.37 114.173 103.591 113.225 103.132 112.115C102.673 111.005 102.553 109.784 102.788 108.606C103.023 107.428 103.602 106.346 104.452 105.497C105.302 104.649 106.384 104.071 107.562 103.838C108.741 103.604 109.962 103.726 111.071 104.187C112.18 104.647 113.128 105.427 113.794 106.426C114.46 107.426 114.815 108.6 114.813 109.801C114.811 111.41 114.17 112.952 113.032 114.089C111.894 115.226 110.351 115.864 108.742 115.864Z" fill="#FFBA49"/>
<path d="M48.5533 330.092C48.5533 330.092 30.4444 309.306 23.6255 288.511C16.8065 267.716 20.0551 270.129 20.0551 270.129C20.0551 270.129 29.2543 290.304 36.2422 300.058C43.23 309.812 55.6699 324.134 55.6699 324.134L48.5533 330.092Z" fill="#455A64"/>
<path d="M52.1155 273.343C51.9955 273.128 51.8037 272.961 51.5736 272.873C51.3435 272.784 51.0897 272.779 50.8563 272.859C50.6229 272.938 50.4247 273.097 50.2963 273.307C50.1679 273.518 50.1173 273.767 50.1535 274.011C51.2551 281.32 53.6353 298.456 53.5388 309.569C53.4182 324.043 53.5388 329.592 53.5388 329.592H61.0574C61.0574 329.592 59.7226 299.743 58.0259 290.64C56.8438 284.263 54.3108 277.179 52.1155 273.343Z" fill="#455A64"/>
<path d="M56.2085 327.164C59.3628 320.027 61.449 312.465 62.4003 304.721C63.0194 299.406 61.9178 292.217 60.2693 282.631C59.6361 279.126 59.3185 275.571 59.3205 272.009C59.3314 271.614 59.4723 271.235 59.7211 270.928C59.9699 270.622 60.3128 270.406 60.6967 270.315C61.0806 270.223 61.4839 270.261 61.8443 270.422C62.2046 270.582 62.5018 270.858 62.6898 271.205C63.5984 272.813 66.2199 278.354 66.8873 281.827C68.7127 291.292 70.7712 296.02 69.1951 305.002C67.619 313.984 61.7972 327.815 61.7972 327.815L56.2085 327.164Z" fill="#455A64"/>
<path d="M63.0273 327.775C63.0273 327.775 82.8571 285.156 84.2321 278.828C85.6072 272.499 90.2792 257.92 90.834 258.724C91.3889 259.528 92.2091 267.248 88.6307 276.045C85.0523 284.842 69.7981 329.037 69.7981 329.037H63.0273" fill="#455A64"/>
<path d="M54.0375 325.871C53.8427 325.757 53.6572 325.628 53.4826 325.485C53.1288 325.219 52.5981 324.841 51.9468 324.311C50.628 323.273 48.7785 321.697 46.6154 319.606C41.0302 314.099 36.1934 307.88 32.2296 301.112C28.2764 294.361 24.9856 287.243 22.4032 279.858C21.4061 277.028 20.6824 274.712 20.2079 273.104C19.9667 272.3 19.7978 271.672 19.6772 271.246C19.6117 271.03 19.5606 270.81 19.5244 270.587C19.6218 270.792 19.7025 271.004 19.7657 271.222C19.9104 271.672 20.1114 272.284 20.3687 273.056C20.8834 274.664 21.6553 276.948 22.6846 279.762C25.3409 287.099 28.6567 294.18 32.5915 300.919C36.5461 307.653 41.3276 313.866 46.8245 319.413C48.9474 321.52 50.7647 323.129 52.0513 324.238C52.6865 324.793 53.2012 325.187 53.5389 325.477C53.7173 325.592 53.8843 325.724 54.0375 325.871Z" fill="#263238"/>
<path d="M56.2085 305.421C56.1176 305.008 56.0585 304.588 56.0316 304.166C55.9351 303.282 55.8145 302.132 55.6698 300.749C55.3562 297.87 54.8657 293.889 54.158 289.491C53.4504 285.092 52.6784 281.192 52.0673 278.354C51.7778 276.995 51.5366 275.861 51.3436 274.992C51.2312 274.585 51.1585 274.168 51.1265 273.746C51.2825 274.138 51.4089 274.541 51.5044 274.952C51.7296 275.756 52.0271 276.874 52.3648 278.289C53.0483 281.112 53.8766 285.044 54.5762 289.419C55.2758 293.793 55.7261 297.798 55.9673 300.676C56.0879 302.124 56.1603 303.298 56.2005 304.11C56.2445 304.546 56.2472 304.984 56.2085 305.421Z" fill="#263238"/>
<path d="M60.8563 270.826C60.9523 271 61.0305 271.183 61.0895 271.373L61.6846 272.981C61.9499 273.665 62.2474 274.509 62.5369 275.514C62.8264 276.519 63.2124 277.645 63.5019 278.932C63.6547 279.567 63.8235 280.234 63.9924 280.934C64.1613 281.634 64.2738 282.373 64.4266 283.129C64.7483 284.641 64.9493 286.281 65.2307 288.002C65.6575 291.752 65.8161 295.528 65.7052 299.3C65.5486 303.079 65.1214 306.841 64.4266 310.558C64.0648 312.263 63.7431 313.887 63.3169 315.383C63.1079 316.123 62.939 316.854 62.7219 317.538C62.5048 318.221 62.2877 318.873 62.0866 319.5C61.7087 320.762 61.2825 321.856 60.8804 322.837C60.4784 323.818 60.1648 324.638 59.8512 325.306L59.1435 326.842C59.0734 327.026 58.9816 327.202 58.8701 327.364C58.9202 327.175 58.9847 326.989 59.0631 326.809L59.6984 325.241C59.9879 324.566 60.3256 323.738 60.6633 322.749C61.001 321.76 61.4674 320.666 61.8052 319.412L62.4083 317.441C62.6173 316.758 62.7782 316.034 62.9712 315.294C63.3893 313.807 63.6868 312.19 64.0406 310.47C64.7071 306.776 65.1236 303.042 65.287 299.292C65.3928 295.534 65.2451 291.773 64.8448 288.034C64.6196 286.322 64.4266 284.681 64.1211 283.21C63.9763 282.454 63.8718 281.714 63.7109 281.022L63.2526 279.02C62.9792 277.734 62.6254 276.608 62.352 275.603C62.0786 274.598 61.8052 273.745 61.5479 273.046C61.2905 272.346 61.1538 271.847 61.0252 271.437C60.9455 271.241 60.8888 271.036 60.8563 270.826Z" fill="#263238"/>
<path d="M90.5689 259.609C90.5725 259.674 90.5725 259.738 90.5689 259.802C90.5689 259.955 90.5126 260.132 90.4805 260.357C90.392 260.84 90.2794 261.563 90.0865 262.48C89.7005 264.313 89.0652 266.951 88.0761 270.151C87.0871 273.352 85.7281 277.107 84.1198 281.232C82.5116 285.357 80.6621 289.853 78.9011 294.637C77.14 299.422 75.7409 304.086 74.4462 308.307C73.1516 312.529 71.9454 316.349 70.7633 319.485C69.8569 321.969 68.8126 324.402 67.6353 326.77C67.2332 327.614 66.8312 328.242 66.6301 328.676L66.3487 329.166C66.3191 329.223 66.2841 329.277 66.2441 329.327C66.2441 329.327 66.2441 329.263 66.3165 329.142L66.5497 328.636C66.7668 328.193 67.1046 327.55 67.4905 326.698C68.2947 325.009 69.3641 322.524 70.4899 319.38C71.6157 316.236 72.8058 312.432 74.0683 308.195C75.3308 303.957 76.7139 299.277 78.5071 294.484C80.3003 289.692 82.1417 285.197 83.758 281.08C85.3743 276.962 86.7654 273.231 87.7786 270.055C88.7918 266.879 89.4834 264.249 89.9176 262.432C90.1347 261.523 90.2714 260.824 90.384 260.333C90.4403 260.116 90.4805 259.931 90.5126 259.786C90.522 259.725 90.541 259.665 90.5689 259.609Z" fill="#263238"/>
<path d="M29.4071 250.193C29.1324 249.934 28.7795 249.772 28.4035 249.734C28.0276 249.696 27.6495 249.784 27.3283 249.983C27.0071 250.182 26.7608 250.482 26.6277 250.835C26.4947 251.189 26.4823 251.577 26.5926 251.938C27.27 254.139 28.103 256.289 29.0854 258.371C31.8114 264.161 39.8205 284.956 43.5597 296.374C47.2989 307.793 52.5739 329.07 52.5739 329.07L60.6152 327.775C60.6152 327.775 53.2896 292.772 46.1409 280.163C40.3754 270.031 34.6259 255.38 29.4071 250.193Z" fill="#455A64"/>
<path d="M45.7627 303.49C45.9282 303.799 46.0654 304.122 46.1728 304.455C46.414 305.082 46.7357 305.999 47.0975 307.141C47.8373 309.425 48.7058 312.617 49.6466 316.155C50.5874 319.693 51.3112 322.926 51.8338 325.266L52.4369 328.04C52.5164 328.378 52.5622 328.723 52.5736 329.069C52.4265 328.753 52.3159 328.422 52.2439 328.08C52.051 327.349 51.8017 326.432 51.5122 325.338C50.9011 322.926 50.0969 319.766 49.2044 316.26C48.3118 312.754 47.4433 309.529 46.792 307.229L45.9878 304.503C45.8743 304.175 45.7988 303.835 45.7627 303.49Z" fill="#263238"/>
<path d="M56.5945 328.426C56.5685 328.356 56.5522 328.283 56.5463 328.209C56.5463 328.04 56.49 327.831 56.4578 327.581C56.3694 327.026 56.297 326.198 56.1281 325.169C55.8387 323.062 55.324 320.039 54.4475 316.324C53.426 311.996 52.1752 307.725 50.7003 303.53C49.092 298.786 47.0013 293.663 44.6694 288.356C39.9572 277.758 35.253 268.365 32.1572 261.41C30.5972 257.944 29.3829 255.113 28.5868 253.143C28.1848 252.162 27.8953 251.39 27.6862 250.868L27.4691 250.273C27.439 250.206 27.4174 250.136 27.4048 250.063C27.4048 250.063 27.4048 250.12 27.5093 250.256L27.7666 250.835L28.7396 253.079C29.6161 255.033 30.8625 257.839 32.4708 261.281C35.631 268.197 40.3753 277.565 45.0955 288.179C47.4355 293.494 49.4861 298.633 51.1104 303.393C52.5733 307.61 53.8002 311.906 54.7853 316.259C55.4466 319.18 55.9619 322.132 56.3292 325.105C56.4739 326.158 56.5222 326.986 56.5785 327.517C56.5785 327.782 56.5785 327.991 56.6347 328.152C56.6372 328.245 56.6236 328.338 56.5945 328.426Z" fill="#263238"/>
<path d="M60.6151 327.775C60.4946 327.332 60.4059 326.881 60.3497 326.425C60.1889 325.492 59.9798 324.245 59.7225 322.75C59.1757 319.646 58.3314 315.376 57.1171 310.688C55.9029 306 54.568 301.899 53.5307 298.923L52.2763 295.401C52.1017 294.978 51.9592 294.543 51.8501 294.099C52.0786 294.497 52.2723 294.914 52.4291 295.345C52.7748 296.149 53.2332 297.339 53.8122 298.819C55.2587 302.672 56.4988 306.599 57.5272 310.583C58.561 314.559 59.393 318.585 60.02 322.645C60.2452 324.205 60.4221 325.468 60.5105 326.352C60.5888 326.822 60.6238 327.299 60.6151 327.775Z" fill="#263238"/>
<path d="M77.0354 326.626H45.7871V364.701H77.0354V326.626Z" fill="#FFBA49"/>
<g opacity="0.3">
<path d="M77.0354 326.627H45.7871V364.702H77.0354V326.627Z" fill="black"/>
</g>
<path d="M67.0724 326.626H39.3462V364.701H67.0724V326.626Z" fill="#FFBA49"/>
<path d="M187.498 246.416C187.498 246.416 187.498 274.689 187.144 276.281C186.79 277.873 185.962 286.349 188.029 290.281C190.095 294.213 195.009 302.182 199.287 303.292C203.564 304.402 205.985 303.292 205.985 303.292C205.985 303.292 208.614 284.877 207.754 279.594C206.894 274.311 204.94 262.78 204.94 262.78L191.688 247.743L187.498 246.416Z" fill="#FFBE9D"/>
<path d="M220.805 207.61L233.293 203.774L256.91 202.198L271.199 204.908L255.68 229.78L233.293 228.091L220.805 207.61Z" fill="#FFBE9D"/>
<path d="M270.243 156.283C270.375 162.263 269.24 168.203 266.911 173.712C264.583 179.221 261.114 184.175 256.733 188.247C254.718 182.42 252.705 176.587 250.694 170.749" fill="#263238"/>
<path d="M224.713 121.479C229.9 118.649 236.164 118.263 241.954 119.404C247.743 120.546 253.147 123.184 258.261 126.143C261.124 127.8 263.987 129.625 266.053 132.222C269.817 136.959 273.532 144.734 273.901 150.773C274.191 155.655 272.293 167.877 270.259 172.316C268.361 176.385 259.5 179.481 255.125 180.486L215.007 133.798C215.728 131.204 216.957 128.779 218.623 126.664C220.29 124.549 222.36 122.787 224.713 121.479Z" fill="#263238"/>
<path d="M217.789 127.8L227.439 126.079C222.18 138.607 220.757 167.25 217.741 180.502C214.195 175.356 205.961 159.684 206.403 153.444C206.845 147.204 206.355 126.714 217.789 127.8Z" fill="#263238"/>
<path d="M263.424 148.634C263.252 145.121 261.958 141.755 259.732 139.031C257.506 136.307 254.465 134.368 251.056 133.501L228.894 127.872C219.317 126.842 212.916 138.623 212.289 148.24C211.598 158.919 211.163 170.185 212.41 178.162C214.919 194.188 227.198 196.263 227.198 196.263C227.198 196.263 227.198 203.886 227.198 208.566L246.995 224.254L258.51 206.25L263.464 148.859C263.48 148.554 263.448 148.996 263.424 148.634Z" fill="#FFBE9D"/>
<path d="M217.106 160.31C217.099 160.847 217.302 161.365 217.671 161.754C218.041 162.143 218.548 162.372 219.084 162.393C219.345 162.414 219.608 162.382 219.857 162.3C220.106 162.218 220.336 162.087 220.534 161.915C220.732 161.742 220.893 161.532 221.009 161.297C221.124 161.062 221.191 160.805 221.207 160.544C221.213 160.007 221.01 159.489 220.641 159.1C220.271 158.711 219.765 158.482 219.229 158.461C218.967 158.439 218.704 158.47 218.454 158.552C218.205 158.633 217.974 158.764 217.776 158.937C217.578 159.109 217.417 159.32 217.302 159.556C217.186 159.792 217.12 160.048 217.106 160.31Z" fill="#263238"/>
<path d="M214.694 154.481C214.951 154.755 216.511 153.605 218.714 153.613C220.918 153.621 222.542 154.739 222.783 154.465C222.904 154.345 222.646 153.862 221.939 153.347C220.984 152.681 219.846 152.327 218.682 152.334C217.529 152.324 216.402 152.682 215.466 153.355C214.806 153.878 214.573 154.336 214.694 154.481Z" fill="#263238"/>
<path d="M236.389 160.311C236.384 160.839 236.582 161.348 236.943 161.733C237.304 162.118 237.8 162.349 238.327 162.378C238.588 162.4 238.852 162.369 239.101 162.287C239.351 162.206 239.581 162.075 239.779 161.902C239.977 161.73 240.139 161.519 240.254 161.283C240.369 161.047 240.435 160.791 240.45 160.528C240.458 159.993 240.257 159.475 239.889 159.086C239.521 158.696 239.015 158.467 238.479 158.446C238.219 158.428 237.958 158.463 237.711 158.548C237.464 158.633 237.237 158.766 237.042 158.939C236.848 159.113 236.69 159.324 236.577 159.56C236.465 159.795 236.401 160.051 236.389 160.311Z" fill="#263238"/>
<path d="M235.697 154.481C235.955 154.755 237.515 153.605 239.718 153.613C241.921 153.621 243.554 154.738 243.787 154.465C243.908 154.344 243.65 153.862 242.943 153.347C241.988 152.681 240.85 152.327 239.686 152.334C238.533 152.325 237.406 152.683 236.469 153.355C235.81 153.878 235.577 154.336 235.697 154.481Z" fill="#263238"/>
<path d="M228.79 171.859C228.79 171.73 227.423 171.489 225.195 171.199C224.633 171.143 224.094 171.022 224.005 170.644C223.956 170.059 224.088 169.472 224.383 168.964L226.064 164.67C228.396 158.55 230.085 153.525 229.843 153.412C229.602 153.299 227.503 158.237 225.171 164.324L223.563 168.65C223.212 169.331 223.107 170.112 223.266 170.862C223.35 171.057 223.478 171.231 223.64 171.37C223.801 171.51 223.992 171.611 224.198 171.666C224.51 171.753 224.832 171.799 225.155 171.802C227.391 171.971 228.782 171.979 228.79 171.859Z" fill="#263238"/>
<path d="M248.459 190.521C248.459 190.521 243.24 201.53 227.206 199.994V196.231C234.682 196.332 242.04 194.355 248.459 190.521Z" fill="#EB996E"/>
<path d="M236.397 146.488C236.614 147.091 238.809 146.809 241.415 147.131C244.02 147.453 246.103 148.16 246.448 147.622C246.609 147.364 246.239 146.818 245.395 146.214C244.273 145.488 242.994 145.039 241.664 144.904C240.339 144.736 238.993 144.89 237.74 145.354C236.783 145.732 236.3 146.206 236.397 146.488Z" fill="#263238"/>
<path d="M215.417 147.718C215.803 148.224 217.331 147.718 219.164 147.718C220.998 147.718 222.55 148.064 222.904 147.533C223.064 147.284 222.815 146.777 222.14 146.303C221.232 145.728 220.173 145.437 219.098 145.467C218.024 145.497 216.983 145.847 216.109 146.471C215.457 146.954 215.248 147.469 215.417 147.718Z" fill="#263238"/>
<path d="M216.615 133.564C217.596 131.152 220.242 129.704 222.839 129.543C225.458 129.539 228.023 130.287 230.229 131.698C239.774 137.215 244.704 150.539 254.112 156.248C256.436 157.656 259.451 156.369 261.421 158.227C263.391 160.084 264.678 163.051 263.584 165.536C264.936 163.859 266.038 161.996 266.857 160.004C267.262 159.004 267.448 157.929 267.402 156.851C267.356 155.773 267.08 154.718 266.592 153.756C265.788 152.34 264.332 151.263 263.938 149.679C263.592 148.288 264.139 146.832 264.083 145.393C263.921 143.934 263.416 142.535 262.611 141.308C258.92 134.77 253.838 128.868 247.293 125.225C243.024 122.753 238.161 121.493 233.229 121.583C228.277 121.7 223.53 123.585 219.848 126.898C217.733 128.86 215.522 130.918 216.631 133.564" fill="#263238"/>
<path d="M261.229 160.245C261.397 159.787 269.752 156.771 269.865 165.657C269.969 174.285 261.261 172.588 261.245 172.339C261.229 172.09 261.229 160.245 261.229 160.245Z" fill="#FFBE9D"/>
<path d="M263.874 169.042C263.914 169.042 264.026 169.147 264.284 169.259C264.645 169.404 265.048 169.404 265.41 169.259C266.318 168.914 267.074 167.458 267.098 165.906C267.116 165.164 266.965 164.427 266.656 163.751C266.572 163.483 266.425 163.238 266.226 163.039C266.027 162.841 265.783 162.693 265.514 162.609C265.34 162.573 265.159 162.595 264.999 162.672C264.839 162.749 264.709 162.877 264.63 163.035C264.517 163.277 264.573 163.446 264.533 163.462C264.493 163.478 264.34 163.317 264.412 162.963C264.455 162.748 264.571 162.554 264.742 162.416C264.972 162.243 265.259 162.163 265.546 162.191C265.905 162.254 266.242 162.408 266.524 162.639C266.805 162.87 267.023 163.17 267.154 163.51C267.533 164.257 267.721 165.085 267.701 165.922C267.701 167.659 266.785 169.3 265.538 169.67C265.307 169.739 265.064 169.755 264.826 169.717C264.588 169.68 264.361 169.589 264.163 169.452C263.898 169.251 263.85 169.058 263.874 169.042Z" fill="#EB996E"/>
<path d="M264.662 155.807C264.478 155.728 264.303 155.631 264.139 155.518C263.809 155.308 263.295 155.027 262.692 154.601C260.993 153.352 259.43 151.929 258.028 150.355C255.993 147.995 254.092 145.522 252.335 142.949C250.207 139.809 247.824 136.851 245.21 134.104C243.812 132.733 242.27 131.517 240.61 130.477C239.052 129.524 237.383 128.765 235.641 128.217C232.692 127.269 229.589 126.89 226.498 127.1C224.411 127.224 222.351 127.627 220.371 128.298C219.663 128.515 219.14 128.748 218.762 128.893C218.579 128.975 218.387 129.04 218.191 129.086C218.364 128.984 218.544 128.895 218.73 128.821C219.251 128.563 219.788 128.34 220.338 128.153C222.318 127.419 224.392 126.969 226.498 126.818C229.627 126.573 232.775 126.93 235.77 127.872C237.541 128.42 239.24 129.181 240.828 130.139C242.512 131.196 244.078 132.431 245.5 133.822C248.133 136.591 250.522 139.583 252.64 142.764C254.384 145.338 256.263 147.818 258.269 150.194C259.639 151.773 261.161 153.214 262.812 154.496C263.407 154.947 263.898 155.244 264.212 155.477C264.37 155.575 264.521 155.685 264.662 155.807Z" fill="#455A64"/>
<path d="M264.863 170.572C265.287 170.498 265.723 170.588 266.083 170.824C266.443 171.059 266.7 171.423 266.803 171.841C266.905 172.259 266.844 172.7 266.634 173.075C266.423 173.45 266.077 173.731 265.667 173.861C265.252 174.006 264.797 173.984 264.398 173.8C263.999 173.616 263.687 173.284 263.527 172.874C263.368 172.465 263.373 172.009 263.543 171.604C263.713 171.198 264.033 170.875 264.437 170.701" fill="white"/>
<path d="M264.453 170.7C264.071 170.993 263.79 171.398 263.648 171.858C263.586 172.094 263.584 172.343 263.643 172.58C263.702 172.818 263.82 173.037 263.986 173.217C264.18 173.443 264.436 173.606 264.722 173.687C265.009 173.768 265.313 173.763 265.596 173.672C265.88 173.581 266.13 173.408 266.315 173.176C266.501 172.943 266.614 172.661 266.64 172.364C266.669 172.123 266.639 171.879 266.55 171.653C266.462 171.427 266.318 171.227 266.133 171.07C265.757 170.775 265.3 170.601 264.823 170.571C264.823 170.571 264.959 170.483 265.233 170.475C265.478 170.478 265.721 170.532 265.945 170.633C266.169 170.734 266.37 170.88 266.536 171.061C266.702 171.243 266.828 171.456 266.909 171.689C266.989 171.921 267.02 172.167 267.002 172.413C266.975 172.783 266.838 173.137 266.608 173.429C266.378 173.721 266.066 173.937 265.712 174.05C265.357 174.163 264.978 174.166 264.621 174.061C264.265 173.955 263.949 173.745 263.713 173.458C263.517 173.232 263.384 172.959 263.324 172.666C263.265 172.373 263.283 172.07 263.375 171.785C263.49 171.412 263.721 171.085 264.034 170.853C264.3 170.7 264.445 170.676 264.453 170.7Z" fill="#263238"/>
<path d="M262.491 158.251C262.628 160.607 262.732 163.076 261.647 165.191C260.561 167.306 257.803 168.713 255.76 167.539C254.088 166.59 253.581 164.443 253.3 162.537C252.496 157.045 252.11 151.48 251.241 145.988L262.491 158.251Z" fill="#263238"/>
<path d="M218.771 129.465C218.771 129.513 219.534 129.32 220.918 129.272C222.871 129.24 224.811 129.596 226.627 130.317C227.881 130.804 229.08 131.421 230.205 132.159C231.492 133.027 232.727 133.969 233.904 134.981C236.619 137.28 239.049 139.896 241.141 142.773C242.243 144.309 243.216 145.893 244.261 147.365C245.258 148.793 246.422 150.096 247.727 151.249C249.96 153.153 252.408 154.791 255.02 156.13C257.232 157.304 259.041 158.116 260.352 158.687L261.823 159.314C261.992 159.396 262.171 159.458 262.354 159.499C262.203 159.387 262.038 159.295 261.864 159.226L260.432 158.51C259.178 157.899 257.36 157.03 255.181 155.832C252.625 154.458 250.225 152.811 248.025 150.919C246.755 149.777 245.624 148.49 244.655 147.083C243.618 145.636 242.645 144.052 241.543 142.492C239.43 139.58 236.964 136.941 234.202 134.635C233.009 133.621 231.754 132.682 230.446 131.821C229.29 131.078 228.055 130.466 226.764 129.996C224.903 129.287 222.914 128.977 220.926 129.087C220.384 129.116 219.847 129.188 219.317 129.304C219.129 129.335 218.946 129.389 218.771 129.465Z" fill="#455A64"/>
<path d="M262.724 152.921C262.971 153.124 263.241 153.296 263.528 153.435L265.715 154.722L266.455 155.14C266.743 155.311 267.064 155.418 267.396 155.454C267.601 155.474 267.808 155.426 267.983 155.317C268.074 155.25 268.149 155.164 268.205 155.066C268.26 154.967 268.294 154.858 268.305 154.746C268.283 154.348 268.14 153.966 267.895 153.652C267.091 152.406 266.286 151.039 265.362 149.592L265.016 149.913C266.707 151.16 268.78 151.777 270.878 151.658C271.152 151.657 271.423 151.611 271.682 151.522C271.829 151.48 271.965 151.406 272.08 151.306C272.195 151.206 272.287 151.082 272.35 150.943C272.399 150.796 272.412 150.639 272.387 150.486C272.362 150.333 272.299 150.189 272.205 150.066C272.058 149.872 271.893 149.692 271.714 149.527C270.576 148.425 269.587 147.179 268.771 145.82C268.055 144.54 267.432 143.21 266.906 141.84C266.943 142.239 267.035 142.632 267.179 143.006C267.511 144.04 267.945 145.04 268.474 145.989C269.266 147.405 270.251 148.704 271.401 149.849C271.722 150.155 272.044 150.5 271.915 150.774C271.787 151.047 271.328 151.184 270.87 151.184C268.883 151.28 266.923 150.696 265.313 149.527L264.284 148.771L264.976 149.849L267.565 153.87C267.758 154.099 267.883 154.377 267.927 154.674C267.922 154.731 267.906 154.787 267.878 154.838C267.85 154.889 267.811 154.933 267.765 154.967C267.718 155.002 267.665 155.025 267.608 155.037C267.551 155.049 267.493 155.048 267.436 155.036C266.882 154.929 266.354 154.714 265.884 154.4L263.625 153.242C263.34 153.097 263.037 152.989 262.724 152.921Z" fill="#455A64"/>
<path d="M237.201 175.935C237.039 175.278 236.651 174.699 236.106 174.298C235.561 173.897 234.893 173.699 234.218 173.74C233.725 173.804 233.256 173.988 232.851 174.275C232.446 174.563 232.117 174.945 231.894 175.388C231.682 175.837 231.562 176.323 231.54 176.819C231.518 177.314 231.594 177.809 231.765 178.275L231.813 178.484C232.272 178.983 232.873 179.328 233.535 179.471C234.198 179.615 234.888 179.551 235.512 179.288C236.124 178.993 236.621 178.505 236.927 177.898C237.232 177.292 237.328 176.602 237.201 175.935Z" fill="#EB996E"/>
<path d="M230.205 178.532C230.205 178.194 232.44 178.298 234.129 176.465C235.818 174.632 235.681 172.235 235.995 172.235C236.139 172.235 236.405 172.79 236.381 173.795C236.334 175.106 235.827 176.359 234.949 177.334C234.109 178.279 232.931 178.857 231.668 178.942C230.728 178.958 230.189 178.684 230.205 178.532Z" fill="#263238"/>
<path d="M204.956 298.612L206.001 304.7L205.02 308.013C205.02 308.013 194.912 320.879 191.672 330.351C188.431 339.824 188.182 364.776 188.182 364.776L303.332 364.703C303.332 364.703 299.312 327.641 284.838 315.973V313.312L288.416 308.013C288.416 308.013 289.622 303.911 284.395 304.523C282.321 304.764 204.956 298.612 204.956 298.612Z" fill="#455A64"/>
<path d="M285.48 312.411H284.676L282.336 312.355C280.31 312.307 277.375 312.267 273.74 312.291C270.105 312.315 265.787 312.395 260.987 312.492C256.186 312.588 250.911 312.685 245.362 312.596C240.146 312.525 234.937 312.193 229.754 311.599C225.522 311.112 221.326 310.346 217.194 309.307C214.409 308.613 211.667 307.754 208.984 306.734C208.027 306.388 207.311 306.051 206.813 305.85L206.258 305.6C206.129 305.544 206.065 305.512 206.073 305.504L206.274 305.56L206.845 305.769C207.351 305.946 208.075 306.26 209.04 306.573C211.739 307.519 214.484 308.324 217.266 308.986C221.395 309.977 225.582 310.708 229.803 311.173C234.563 311.728 239.83 312.033 245.371 312.138C250.911 312.242 256.178 312.138 260.979 312.066C265.779 311.993 270.105 311.929 273.74 311.953C277.375 311.977 280.318 312.05 282.344 312.154C283.357 312.194 284.145 312.251 284.676 312.291L285.287 312.339C285.416 312.387 285.488 312.403 285.48 312.411Z" fill="#263238"/>
<path d="M285.481 317.751C285.414 317.764 285.346 317.764 285.28 317.751H284.668L282.328 317.695C280.302 317.647 277.367 317.606 273.732 317.631C270.098 317.655 265.779 317.735 260.979 317.832C256.178 317.928 250.903 318.025 245.355 317.936C239.806 317.848 234.523 317.51 229.747 316.939C225.514 316.451 221.318 315.686 217.186 314.647C214.4 313.951 211.659 313.089 208.976 312.066C208.019 311.72 207.303 311.391 206.805 311.19L206.25 310.94C206.121 310.884 206.057 310.852 206.065 310.844L206.266 310.9L206.837 311.109C207.344 311.286 208.067 311.592 209.032 311.913C211.731 312.859 214.476 313.665 217.259 314.326C221.387 315.317 225.574 316.047 229.795 316.513C234.555 317.068 239.822 317.373 245.363 317.478C250.903 317.582 256.17 317.478 260.971 317.405C265.771 317.333 270.098 317.269 273.732 317.293C277.367 317.317 280.31 317.389 282.336 317.494C283.35 317.534 284.138 317.59 284.668 317.631L285.28 317.679C285.416 317.735 285.489 317.743 285.481 317.751Z" fill="#263238"/>
<path d="M209.885 324.006C209.949 323.437 210.101 322.881 210.335 322.358C210.812 321.063 211.421 319.821 212.152 318.651C212.876 317.478 213.716 316.381 214.661 315.378C215.027 314.937 215.458 314.555 215.94 314.244C216.036 314.333 214.171 316.158 212.506 318.868C210.842 321.578 210.005 324.006 209.885 324.006Z" fill="#263238"/>
<path d="M213.978 331.413C213.927 331.192 213.913 330.964 213.937 330.738C213.944 330.122 213.984 329.507 214.058 328.896C214.303 326.879 214.74 324.889 215.361 322.954C215.969 321.021 216.727 319.139 217.628 317.325C217.966 316.554 218.384 315.821 218.875 315.138C218.595 315.926 218.267 316.697 217.894 317.446C217.085 319.283 216.374 321.162 215.763 323.074C215.151 324.991 214.68 326.951 214.355 328.937C214.106 330.44 214.042 331.421 213.978 331.413Z" fill="#263238"/>
<path d="M216.704 302.296C216.824 302.661 216.902 303.039 216.937 303.422C217.126 304.318 217.378 305.199 217.693 306.059C218.409 308.086 219.366 309.573 219.301 309.638C218.393 308.658 217.722 307.484 217.339 306.204C217.005 305.322 216.786 304.4 216.688 303.462C216.596 303.078 216.601 302.677 216.704 302.296Z" fill="#263238"/>
<path d="M220.113 304.707C220.524 305.546 220.811 306.44 220.966 307.361C221.257 308.249 221.412 309.176 221.424 310.111C220.717 308.386 220.275 306.564 220.113 304.707Z" fill="#263238"/>
<path d="M240.691 303.904C240.97 306.631 240.97 309.379 240.691 312.106C240.412 309.379 240.412 306.631 240.691 303.904Z" fill="#263238"/>
<path d="M243.264 306.003C243.866 308.059 243.809 310.252 243.103 312.275C242.983 312.275 243.216 310.86 243.256 309.139C243.296 307.418 243.151 306.019 243.264 306.003Z" fill="#263238"/>
<path d="M250.22 324.988C249.923 323.829 249.697 322.653 249.544 321.466C249.251 320.302 249.036 319.12 248.901 317.928C249.444 319.013 249.8 320.182 249.954 321.385C250.249 322.562 250.339 323.781 250.22 324.988Z" fill="#263238"/>
<path d="M181.234 244.808C181.009 244.076 189.468 219.88 194.486 216.213C199.504 212.546 222.156 207.295 222.156 207.295C222.156 207.295 231.693 216.704 244.478 214.75C257.264 212.796 267.082 203.773 267.082 203.773C267.082 203.773 291.278 206.942 295.388 209.869C299.497 212.796 310.666 239.324 310.666 239.324L290.949 255.752L289.204 270.629C289.204 270.629 290.121 301.612 288.062 304.788C286.003 307.964 205.43 299.883 205.43 299.883C205.43 299.883 201.321 299.151 204.513 291.841C207.706 284.532 209.997 279.643 209.997 279.643C209.997 279.643 204.288 273.298 203.371 262.073C202.455 250.847 200.211 249.641 200.211 249.641L181.234 244.808Z" fill="#FFBA49"/>
<path d="M289.1 270.057C288.979 270.057 290.193 259.958 291.809 247.542C293.426 235.126 294.817 225.026 294.929 225.067C295.042 225.107 293.812 235.158 292.203 247.614C290.595 260.07 289.212 270.074 289.1 270.057Z" fill="#263238"/>
<path d="M202.736 253.759C202.631 253.799 201.128 250.18 199.367 245.669C197.605 241.158 196.279 237.475 196.383 237.435C196.488 237.395 197.991 241.013 199.761 245.516C201.53 250.019 202.848 253.718 202.736 253.759Z" fill="#263238"/>
<g opacity="0.3">
<path d="M228.283 266.648C227.919 264.553 227.046 262.579 225.742 260.899C223.853 258.76 220.861 257.851 218.015 257.867C215.161 258.02 212.342 258.575 209.644 259.516L204.505 267.557C204.673 268.043 204.948 268.485 205.31 268.849C205.672 269.214 206.112 269.493 206.596 269.664C207.564 270.001 208.579 270.182 209.604 270.203C214.921 270.589 220.239 270.811 225.557 270.87C226.244 270.941 226.936 270.813 227.552 270.5C228.677 269.712 228.597 267.999 228.283 266.648Z" fill="black"/>
</g>
<path d="M193.167 229.779C193.338 230.044 193.478 230.327 193.585 230.624C193.834 231.17 194.172 231.975 194.574 232.98C195.378 234.982 196.456 237.804 197.541 240.884C198.627 243.964 199.528 246.843 200.131 248.926C200.436 249.955 200.678 250.799 200.822 251.386C200.926 251.682 200.991 251.99 201.015 252.303C200.87 252.026 200.754 251.735 200.669 251.434L199.865 249.022C199.19 246.972 198.257 244.141 197.163 241.037C196.07 237.933 195.057 235.127 194.317 233.1C193.971 232.151 193.682 231.347 193.448 230.688C193.319 230.397 193.225 230.092 193.167 229.779Z" fill="#263238"/>
<path d="M193.127 232.336L202.141 265.217C202.298 265.755 202.628 266.226 203.08 266.558C203.532 266.889 204.081 267.062 204.642 267.05H224.19C224.566 267.063 224.941 266.99 225.285 266.837C225.629 266.684 225.933 266.455 226.176 266.167C226.418 265.879 226.592 265.539 226.684 265.174C226.776 264.809 226.784 264.428 226.707 264.059L218.802 231.194C218.658 230.64 218.331 230.151 217.874 229.805C217.418 229.459 216.858 229.277 216.285 229.289H195.619C195.239 229.276 194.86 229.351 194.513 229.508C194.166 229.666 193.86 229.901 193.619 230.196C193.378 230.491 193.208 230.837 193.123 231.208C193.037 231.58 193.039 231.966 193.127 232.336Z" fill="#263238"/>
<path d="M199.913 238.481C199.913 238.481 197.581 237.371 195.74 238.481C193.898 239.59 190.915 244.495 190.915 244.495L189.074 252.295L190.336 262.894L190.835 267.807L202.736 269.158V265.226L216.366 255.037C216.366 255.037 221.15 253.711 220.78 252.287C220.41 250.864 219.799 249.875 218.448 250.132C217.097 250.39 202.495 254.153 202.495 254.153C202.495 254.153 200.163 254.643 200.283 254.024C200.404 253.405 207.158 250.221 208.26 249.481C209.362 248.741 214.524 247.519 213.889 245.187C213.812 244.766 213.641 244.369 213.389 244.024C213.136 243.679 212.809 243.395 212.431 243.195C212.054 242.995 211.636 242.882 211.209 242.867C210.781 242.851 210.356 242.932 209.965 243.104L198.176 247.398L196.214 247.889L196.464 244.817L198.546 241.995C198.733 242.054 198.929 242.074 199.123 242.056C199.318 242.037 199.507 241.98 199.679 241.887C199.851 241.794 200.002 241.667 200.124 241.514C200.246 241.361 200.335 241.186 200.388 240.997C200.553 240.576 200.596 240.116 200.512 239.671C200.428 239.226 200.221 238.813 199.913 238.481Z" fill="#FFBE9D"/>
<path d="M198.33 247.342C197.424 247.861 196.453 248.255 195.443 248.516C194.479 248.921 193.465 249.192 192.427 249.32C193.335 248.805 194.305 248.411 195.314 248.146C196.279 247.745 197.293 247.475 198.33 247.342Z" fill="#EB996E"/>
<path d="M201.016 254.426C200.17 254.892 199.263 255.236 198.322 255.447C197.419 255.792 196.471 256.003 195.507 256.074C197.254 255.269 199.11 254.727 201.016 254.466V254.426Z" fill="#EB996E"/>
<path d="M215.618 255.158C215.409 255.324 215.18 255.462 214.935 255.568C214.476 255.81 213.809 256.139 212.965 256.525C210.778 257.513 208.542 258.388 206.266 259.147C203.989 259.912 201.673 260.553 199.327 261.069C198.426 261.27 197.718 261.406 197.18 261.487C196.916 261.548 196.646 261.578 196.375 261.575C197.316 261.251 198.274 260.983 199.246 260.771C201.023 260.313 203.468 259.629 206.122 258.745C208.775 257.86 211.139 256.935 212.844 256.244C213.748 255.83 214.674 255.468 215.618 255.158Z" fill="#EB996E"/>
<path d="M194.035 260.924C193.995 261.028 193.231 260.626 192.99 259.693C192.749 258.761 193.151 258.029 193.239 258.085C193.328 258.141 193.167 258.793 193.392 259.565C193.617 260.337 194.1 260.827 194.035 260.924Z" fill="#EB996E"/>
<path d="M191.687 254.725C191.687 254.773 191.47 254.725 191.197 254.588C190.855 254.353 190.598 254.014 190.465 253.621C190.331 253.229 190.329 252.803 190.457 252.409C190.57 252.111 190.714 251.975 190.763 251.999C190.811 252.023 190.586 252.714 190.867 253.486C191.149 254.258 191.687 254.612 191.687 254.725Z" fill="#EB996E"/>
<path d="M190.329 247.133C190.335 247.263 190.322 247.393 190.288 247.519C190.232 247.816 190.16 248.17 190.079 248.612C189.878 249.626 189.597 251.025 189.275 252.681V252.633C189.798 256.364 190.513 261.768 191.293 267.831V267.879V267.936C191.141 268.346 190.972 268.78 190.811 269.222C189.057 274.183 188.239 279.426 188.399 284.686C188.443 286.278 188.575 287.867 188.793 289.446C188.865 289.969 188.921 290.395 188.97 290.733C189.003 290.883 189.016 291.037 189.01 291.191C188.956 291.048 188.916 290.9 188.889 290.749C188.825 290.459 188.72 290.033 188.624 289.47C188.351 287.89 188.176 286.295 188.101 284.694C187.851 279.387 188.637 274.083 190.417 269.077C190.578 268.635 190.747 268.193 190.899 267.783V267.887C190.095 261.816 189.452 256.412 189.018 252.665L189.975 248.645C190.087 248.21 190.176 247.84 190.248 247.567C190.264 247.42 190.291 247.275 190.329 247.133Z" fill="#EB996E"/>
<path d="M204.698 264.074C203.926 264.871 202.998 265.5 201.972 265.923C201.004 266.467 199.933 266.803 198.828 266.912C198.828 266.8 200.179 266.333 201.787 265.545C203.396 264.757 204.626 263.969 204.698 264.074Z" fill="#EB996E"/>
<path d="M280.141 280.785C280.141 280.785 283.253 281.589 283.559 283.615C283.864 285.642 281.379 320.605 281.379 320.605H284.339C284.339 320.605 285.521 285.971 285.472 283.495C285.424 281.018 284.25 280.857 283.808 280.68C282.604 280.333 281.323 280.37 280.141 280.785Z" fill="#263238"/>
<path d="M278.573 280.721L292.814 281.268L289.976 264.076L290.949 255.753L309.822 239.992C309.822 239.992 316.424 278.285 317.019 282.707C317.726 288.015 316.697 295.051 314.124 297.568C311.929 299.707 296.111 297.568 290 297.568C286.623 297.568 278.549 297.624 278.549 297.624L275.719 284.42L278.573 280.721Z" fill="#FFBE9D"/>
<path d="M314.124 281.315C314.067 281.388 313.102 280.511 311.245 279.707C308.838 278.62 306.2 278.144 303.565 278.324C302.122 278.421 300.701 278.724 299.344 279.225C298.097 279.675 297.02 280.27 296.063 280.64C295.309 280.961 294.513 281.172 293.699 281.267C293.404 281.323 293.101 281.323 292.806 281.267C293.891 281.147 294.95 280.853 295.942 280.399C296.875 279.997 297.928 279.386 299.207 278.895C300.595 278.358 302.056 278.036 303.541 277.938C306.241 277.751 308.942 278.278 311.373 279.466C312.101 279.827 312.795 280.253 313.448 280.736C313.695 280.902 313.922 281.097 314.124 281.315Z" fill="#EB996E"/>
<path d="M263.89 312.426C263.367 313.093 257.353 364.911 257.353 364.911L319.857 364.702L309.95 312.587L263.89 312.426Z" fill="#FFBA49"/>
<path d="M274.255 364.776C274.142 364.776 273.491 353.132 272.808 338.754C272.124 324.377 271.666 312.749 271.786 312.749C271.907 312.749 272.542 324.393 273.226 338.771C273.909 353.148 274.368 364.768 274.255 364.776Z" fill="#263238"/>
<path d="M248.78 281.588C250.507 281.338 252.215 280.975 253.895 280.503C254.681 280.12 255.442 279.685 256.17 279.2L264.211 278.549L278.565 280.72C278.565 280.72 280.977 282.457 280.632 287.788C280.338 291.359 279.57 294.874 278.348 298.242C278.348 298.242 271.915 303.477 270.194 303.798C268.473 304.12 258.663 303.573 257.69 302.809C257.115 302.374 256.634 301.827 256.275 301.201C255.751 300.934 255.329 300.502 255.073 299.972C254.817 299.442 254.742 298.843 254.859 298.266C254.859 298.266 251.49 293.916 251.056 292.066C250.622 290.217 251.161 289.782 251.161 289.782C251.161 289.782 250.188 287.282 250.943 286.413C251.134 286.201 251.365 286.03 251.623 285.909C251.881 285.789 252.16 285.722 252.445 285.712C252.73 285.702 253.013 285.75 253.279 285.853C253.545 285.955 253.787 286.11 253.991 286.309C254.755 287.177 259.54 286.526 259.54 286.526L263.777 283.695C261.597 284.249 259.38 284.65 257.143 284.893C254.868 284.958 248.016 286.486 248.78 281.588Z" fill="#FFBE9D"/>
<path d="M265.418 291.843C265.418 291.907 264.541 292.06 263.174 292.534C262.491 292.767 261.678 293.073 260.762 293.338C259.755 293.677 258.703 293.866 257.642 293.901C256.554 293.936 255.479 293.656 254.546 293.097C253.808 292.63 253.153 292.043 252.608 291.36C252.243 290.91 251.907 290.438 251.603 289.945C251.386 289.599 251.281 289.398 251.305 289.382C251.329 289.366 251.876 290.09 252.833 291.167C253.381 291.799 254.024 292.342 254.739 292.776C255.619 293.276 256.622 293.521 257.634 293.483C259.805 293.427 261.654 292.599 263.094 292.229C263.84 291.967 264.626 291.836 265.418 291.843Z" fill="#EB996E"/>
<path d="M268.345 288.013C268.385 288.013 268.538 288.109 268.65 288.407C268.787 288.794 268.787 289.217 268.65 289.605C268.519 289.996 268.254 290.33 267.902 290.546C267.629 290.707 267.436 290.707 267.412 290.658C267.388 290.61 267.999 290.232 268.256 289.468C268.513 288.704 268.24 288.061 268.345 288.013Z" fill="#EB996E"/>
<path d="M268.023 297.527C267.365 297.718 266.688 297.839 266.005 297.889C264.75 298.066 263.013 298.275 261.1 298.476C260.193 298.598 259.28 298.668 258.366 298.685C257.605 298.7 256.849 298.581 256.13 298.331C255.442 298.146 254.847 297.714 254.458 297.117C254.994 297.52 255.591 297.835 256.227 298.05C256.921 298.25 257.644 298.334 258.366 298.299C259.17 298.299 260.094 298.163 261.051 298.066C262.973 297.857 264.71 297.696 265.973 297.6C266.652 297.507 267.339 297.483 268.023 297.527Z" fill="#EB996E"/>
<path d="M271.738 294.085C271.786 294.085 271.939 294.246 272.044 294.608C272.181 295.08 272.181 295.582 272.044 296.055C271.909 296.529 271.648 296.957 271.288 297.293C271.006 297.535 270.781 297.607 270.757 297.567C270.733 297.527 271.376 296.924 271.642 295.959C271.75 295.34 271.782 294.711 271.738 294.085Z" fill="#EB996E"/>
<path d="M269.43 301.909C268.808 302.091 268.164 302.189 267.516 302.198C264.406 302.446 261.276 302.251 258.221 301.619C257.578 301.532 256.95 301.356 256.355 301.097C256.999 301.117 257.639 301.195 258.269 301.33C259.443 301.507 261.067 301.708 262.868 301.82C264.67 301.933 266.31 301.933 267.5 301.909C268.142 301.848 268.788 301.848 269.43 301.909Z" fill="#EB996E"/>
<path d="M283.036 280.488C283.036 280.488 285.851 282.595 286.373 283.874C286.896 285.152 292.517 312.42 292.517 312.42H294.929C294.929 312.42 289.196 282.876 287.797 281.735C287.294 281.328 286.755 280.968 286.188 280.657C285.715 280.407 285.194 280.261 284.66 280.229C284.126 280.197 283.592 280.28 283.092 280.472L283.036 280.488Z" fill="#263238"/>
<path d="M228.123 285.843C227.322 285.949 226.511 285.949 225.71 285.843C221.885 285.484 218.197 284.234 214.943 282.192C214.251 281.799 213.611 281.321 213.037 280.769C213.077 280.713 213.841 281.227 215.096 281.935C216.742 282.869 218.473 283.645 220.266 284.251C222.059 284.852 223.903 285.288 225.774 285.553C227.222 285.73 228.123 285.779 228.123 285.843Z" fill="#263238"/>
<g opacity="0.3">
<path d="M242.218 285.408C240.743 285.28 239.257 285.336 237.796 285.577C230.277 286.381 222.517 286.381 215.626 282.529C216.616 284.597 218.309 286.244 220.402 287.177C222.786 287.992 225.289 288.402 227.808 288.391C233.857 288.638 239.915 288.369 245.917 287.587C245.5 286.973 244.952 286.459 244.313 286.082C243.673 285.705 242.958 285.475 242.218 285.408Z" fill="black"/>
</g>
<path d="M219.261 208.213C219.261 205.36 218.128 202.623 216.11 200.605C214.092 198.588 211.355 197.454 208.502 197.454H142.998C140.196 197.531 137.535 198.697 135.581 200.706C133.626 202.715 132.533 205.407 132.533 208.209C132.533 211.012 133.626 213.704 135.581 215.712C137.535 217.721 140.196 218.888 142.998 218.964H182.151C185.826 222.511 192.106 227.295 192.106 227.295V218.57L209.29 218.916C215.168 218.739 219.261 213.842 219.261 208.213Z" fill="white"/>
<path d="M219.261 208.213C219.261 208.213 219.261 208.406 219.261 208.8C219.246 209.378 219.181 209.954 219.068 210.521C218.891 211.446 218.599 212.346 218.2 213.199C217.634 214.362 216.866 215.416 215.932 216.311C214.748 217.424 213.31 218.23 211.742 218.659C211.305 218.775 210.862 218.869 210.416 218.94C209.948 218.994 209.479 219.024 209.008 219.029L206.041 218.98L192.114 218.731L192.266 218.578C192.266 221.328 192.266 224.247 192.266 227.287V227.633L192.001 227.424C188.785 224.939 185.351 222.237 182.014 219.093L182.143 219.149H158.421H145.515C144.405 219.149 143.319 219.189 142.177 219.109C139.986 218.936 137.896 218.111 136.177 216.742C134.457 215.372 133.187 213.519 132.528 211.422C132.265 210.543 132.108 209.636 132.062 208.72C132.021 207.809 132.086 206.897 132.255 206.002C132.443 205.115 132.738 204.254 133.131 203.437C133.902 201.829 135.054 200.436 136.489 199.377C137.923 198.319 139.594 197.628 141.357 197.365C142.212 197.248 143.076 197.203 143.939 197.229H161.131L194.574 197.277H207.44C208.357 197.247 209.274 197.295 210.182 197.422C211.026 197.555 211.852 197.784 212.643 198.105C214.022 198.681 215.268 199.535 216.302 200.614C217.131 201.467 217.805 202.458 218.296 203.541C218.495 203.973 218.67 204.416 218.819 204.868C218.931 205.286 219.028 205.672 219.1 206.01C219.2 206.54 219.257 207.078 219.269 207.618C219.269 207.98 219.269 208.165 219.269 208.165C219.269 208.165 219.269 207.98 219.221 207.618C219.187 207.078 219.117 206.541 219.012 206.01C218.931 205.672 218.827 205.294 218.706 204.884C218.559 204.438 218.382 204.003 218.175 203.581C217.68 202.515 217.003 201.544 216.173 200.711C215.146 199.67 213.918 198.849 212.563 198.298C211.786 197.99 210.977 197.771 210.15 197.647C209.252 197.526 208.346 197.483 207.44 197.518H194.574H161.131H143.939C143.097 197.488 142.255 197.531 141.422 197.647C139.291 197.982 137.313 198.957 135.749 200.441C134.185 201.926 133.11 203.851 132.665 205.962C132.331 207.697 132.42 209.486 132.922 211.18C133.194 212.026 133.567 212.836 134.032 213.593C134.9 215.014 136.095 216.207 137.517 217.073C138.94 217.939 140.549 218.452 142.21 218.57C143.287 218.651 144.421 218.57 145.515 218.611H158.429H182.151H182.223L182.279 218.659C185.584 221.787 189.01 224.497 192.21 226.99L191.937 227.118C191.937 224.079 191.937 221.16 191.937 218.409V218.257H192.098L206.017 218.57C208.06 218.57 209.989 218.82 211.646 218.289C213.184 217.928 214.612 217.203 215.811 216.174C216.739 215.303 217.504 214.274 218.071 213.134C218.732 211.776 219.12 210.3 219.213 208.792C219.237 208.398 219.261 208.213 219.261 208.213Z" fill="#263238"/>
<path d="M205.124 211.565C204.953 211.577 204.781 211.577 204.61 211.565C203.836 211.462 203.111 211.132 202.525 210.616C201.939 210.101 201.519 209.424 201.318 208.671C201.117 207.917 201.143 207.121 201.394 206.382C201.645 205.643 202.109 204.995 202.727 204.52C203.346 204.045 204.091 203.764 204.87 203.712C205.648 203.66 206.424 203.84 207.101 204.229C207.777 204.618 208.323 205.198 208.669 205.897C209.016 206.596 209.148 207.382 209.048 208.155C208.915 209.101 208.444 209.967 207.723 210.593C207.002 211.22 206.079 211.565 205.124 211.565ZM205.124 204.464C204.361 204.464 203.623 204.743 203.05 205.248C202.477 205.752 202.108 206.449 202.012 207.207C201.907 208.033 202.133 208.868 202.64 209.529C203.148 210.191 203.896 210.625 204.722 210.737C205.551 210.844 206.388 210.618 207.05 210.108C207.712 209.599 208.144 208.847 208.252 208.019C208.306 207.609 208.279 207.192 208.172 206.793C208.066 206.394 207.881 206.02 207.629 205.692C207.378 205.364 207.064 205.089 206.706 204.882C206.347 204.676 205.952 204.542 205.542 204.489C205.401 204.472 205.259 204.464 205.116 204.464H205.124Z" fill="#263238"/>
<path d="M210.496 212.489C210.402 212.488 210.311 212.453 210.239 212.393L207.657 210.238C207.617 210.204 207.583 210.162 207.559 210.116C207.534 210.069 207.519 210.018 207.514 209.965C207.509 209.912 207.515 209.859 207.53 209.809C207.546 209.758 207.571 209.711 207.605 209.671C207.639 209.63 207.68 209.596 207.727 209.572C207.774 209.547 207.825 209.532 207.878 209.527C207.93 209.522 207.984 209.528 208.034 209.543C208.085 209.559 208.131 209.585 208.172 209.618L210.753 211.773C210.835 211.842 210.887 211.941 210.898 212.047C210.908 212.154 210.877 212.261 210.81 212.344C210.771 212.39 210.723 212.427 210.669 212.452C210.615 212.477 210.556 212.49 210.496 212.489Z" fill="#263238"/>
<path d="M143.786 211.429L144.316 210.231C144.878 210.593 145.53 210.791 146.198 210.802C146.873 210.802 147.131 210.609 147.131 210.335C147.131 209.427 143.914 210.086 143.914 207.963C143.914 206.942 144.718 206.106 146.447 206.106C147.17 206.097 147.883 206.269 148.522 206.604L148.023 207.811C147.533 207.529 146.98 207.377 146.415 207.368C145.732 207.368 145.49 207.593 145.49 207.883C145.49 208.751 148.707 208.1 148.707 210.207C148.707 211.204 147.903 212.056 146.174 212.056C145.335 212.075 144.507 211.858 143.786 211.429Z" fill="#263238"/>
<path d="M154.915 206.193V211.919H153.307V209.683H151.103V211.919H149.495V206.193H151.103V208.348H153.307V206.193H154.915Z" fill="#263238"/>
<path d="M155.759 209.056C155.711 208.412 155.857 207.768 156.18 207.209C156.503 206.649 156.986 206.199 157.568 205.918C158.15 205.638 158.803 205.538 159.442 205.634C160.081 205.729 160.676 206.015 161.151 206.454C161.625 206.893 161.956 207.464 162.101 208.094C162.246 208.723 162.198 209.382 161.963 209.984C161.728 210.586 161.318 211.103 160.785 211.468C160.252 211.833 159.622 212.03 158.976 212.032C158.566 212.063 158.154 212.009 157.765 211.873C157.377 211.738 157.021 211.524 156.719 211.245C156.417 210.966 156.176 210.627 156.011 210.251C155.846 209.874 155.76 209.468 155.759 209.056ZM160.487 209.056C160.476 208.752 160.376 208.458 160.199 208.21C160.022 207.962 159.776 207.772 159.491 207.663C159.207 207.554 158.897 207.532 158.6 207.598C158.302 207.664 158.031 207.816 157.82 208.035C157.608 208.254 157.466 208.531 157.41 208.83C157.355 209.129 157.389 209.439 157.508 209.719C157.627 209.999 157.825 210.238 158.079 210.406C158.333 210.575 158.631 210.664 158.935 210.665C159.145 210.667 159.352 210.627 159.545 210.546C159.738 210.465 159.913 210.346 160.058 210.195C160.204 210.045 160.317 209.866 160.39 209.67C160.464 209.474 160.497 209.265 160.487 209.056Z" fill="#263238"/>
<path d="M168.126 208.316C168.126 209.611 167.145 210.423 165.585 210.423H164.588V211.919H162.98V206.193H165.601C167.145 206.193 168.126 207.006 168.126 208.316ZM166.518 208.316C166.518 207.786 166.188 207.472 165.513 207.472H164.588V209.145H165.481C166.156 209.145 166.486 208.839 166.486 208.316H166.518Z" fill="#263238"/>
</svg>
