<svg width="170" height="39" viewBox="0 0 170 39" fill="none" xmlns="http://www.w3.org/2000/svg">
    <g clip-path="url(#clip0_262_2237)">
        <path d="M27.3503 13.2499V13.1836L30.1479 11.5504L33.3646 9.67582L33.4024 9.65452L31.6935 7.83673L30.1479 8.73852L28.5385 9.68529L27.355 10.3788V3.23072L27.2863 3.15734H24.9194V7.25447H22.7892V0.461431L21.0566 1.4721L20.3608 1.87921L18.195 3.14078L15.118 4.93726V1.4721H12.6872V3.77984L12.0884 3.14078L10.5168 1.48394L9.13214 0.0117188L8.4481 0.411724L7.13445 1.17624L6.97586 1.26855L7.13445 1.4366L7.17944 1.48394L8.75104 3.14078L12.0979 6.69114L12.6044 7.2308H7.13445V7.06985L4.70363 4.48518L3.54384 3.25202L1.38759 4.50885L3.95097 7.2308H0.111816V9.66162H4.70363V13.2428H0.111816V15.6736H4.70363V20.6133H7.13445V15.6807H12.6872V17.9174L12.7488 17.9837H12.6872V23.0631H20.3631V23.4678L19.6152 23.9033L18.7773 24.3933L15.1157 26.5235V29.3378L20.3631 26.2702V29.1105L15.1157 32.1709V34.9828L20.3631 31.9224V38.7013L22.7916 37.2811L24.9218 36.0385L27.3526 34.6183V27.8584L30.1503 26.2276V23.4725L30.1077 23.4276L28.6473 24.2844L27.3621 25.0323V23.0512H30.1598V20.5612L34.6025 17.9718L37.2321 16.4381V13.2499H27.3503ZM7.12735 13.2499V10.6226L8.21141 11.7729L9.59842 13.2499H7.12735ZM12.6801 12.9777L10.3653 10.5184L9.56765 9.66872H12.6801V12.9777ZM22.7868 9.66398H24.9171V11.7753L22.7868 13.0179V9.66398ZM15.9891 7.23317L20.3631 4.6911V7.2379H15.9938L15.9583 7.2592L15.9394 7.2379L15.9891 7.23317ZM24.9194 33.2219L22.7892 34.4645V30.5046L23.9182 29.849L24.7561 29.3591L24.9218 29.262L24.9194 33.2219ZM24.9194 26.4454L23.0448 27.5365L22.7868 27.688V24.8477L23.4756 24.4477L24.9194 23.6051V26.4454ZM25.1561 17.0274C25.1095 17.3026 25.03 17.5712 24.9194 17.8275V20.6157H22.7892V19.7873C22.4395 19.9028 22.0735 19.9612 21.7052 19.9601C21.2437 19.9612 20.7866 19.8703 20.3608 19.6926V20.6157H15.1133V15.5623L15.2246 15.6807H18.3016C18.3005 15.6641 18.3005 15.6475 18.3016 15.631C18.4326 15.1018 18.6858 14.6108 19.041 14.1973C19.3961 13.7837 19.8433 13.4592 20.3466 13.2499H15.0991V9.66872H20.3631V13.0652L20.4886 13.2002C20.7689 13.0954 21.0617 13.0278 21.3596 12.999C21.4752 12.9874 21.5914 12.9819 21.7075 12.9824C22.0234 12.9828 22.3377 13.025 22.6425 13.1078L22.7916 13.1552C22.8785 13.1818 22.9639 13.2134 23.0472 13.2499C23.7493 13.5412 24.3369 14.054 24.7206 14.7102C24.7983 14.8408 24.8664 14.9769 24.9242 15.1174C25.0019 15.2994 25.0637 15.4879 25.1088 15.6807C25.1689 15.9407 25.1991 16.2067 25.1987 16.4736C25.1966 16.6608 25.18 16.8475 25.149 17.0322L25.1561 17.0274ZM30.155 17.7375L29.7692 17.9742L27.3621 19.3802V15.6807H33.7101L30.155 17.7375Z" fill="#010038"/>
        <path d="M22.4578 16.199C22.4578 15.9391 22.5611 15.6899 22.7449 15.5061C22.9286 15.3223 23.1779 15.2191 23.4377 15.2191C23.6976 15.2191 23.9469 15.3223 24.1307 15.5061C24.3144 15.6899 24.4177 15.9391 24.4177 16.199C24.4172 16.2489 24.4133 16.2988 24.4058 16.3481H25.2153C25.1837 15.465 24.8196 14.6265 24.1959 14.0006C23.5721 13.3746 22.7349 13.0076 21.8519 12.9729V16.3481H22.4697C22.4622 16.2988 22.4583 16.2489 22.4578 16.199Z" fill="#CC9933"/>
        <path d="M22.6804 18.315C22.6804 18.497 22.608 18.6716 22.4793 18.8004C22.3506 18.9291 22.176 19.0014 21.9939 19.0014H21.9206C21.7495 18.98 21.5925 18.8956 21.4803 18.7647V19.141V19.96C20.634 19.9042 19.8366 19.5434 19.236 18.9445C18.6354 18.3456 18.2723 17.5493 18.214 16.7031H18.8767C18.8731 16.7536 18.8731 16.8042 18.8767 16.8546C18.8767 17.1145 18.98 17.3637 19.1637 17.5475C19.3475 17.7313 19.5967 17.8345 19.8566 17.8345C20.1165 17.8345 20.3658 17.7313 20.5495 17.5475C20.7333 17.3637 20.8365 17.1145 20.8365 16.8546C20.8366 16.8038 20.8318 16.7531 20.8223 16.7031H21.4922V17.4676V17.844C21.5902 17.7348 21.7203 17.6594 21.8637 17.6286H21.93H22.0034C22.1838 17.6311 22.356 17.7045 22.4827 17.8329C22.6093 17.9614 22.6804 18.1346 22.6804 18.315Z" fill="#CC9933"/>
        <path d="M22.8129 16.4831C22.7709 16.3943 22.7491 16.2973 22.749 16.1991C22.7435 16.1054 22.7572 16.0116 22.7892 15.9234C22.8213 15.8352 22.8711 15.7545 22.9355 15.6862C22.9998 15.6179 23.0775 15.5635 23.1637 15.5263C23.2499 15.4892 23.3427 15.47 23.4366 15.47C23.5304 15.47 23.6233 15.4892 23.7094 15.5263C23.7956 15.5635 23.8733 15.6179 23.9376 15.6862C24.002 15.7545 24.0518 15.8352 24.0839 15.9234C24.1159 16.0116 24.1296 16.1054 24.1241 16.1991C24.1236 16.2963 24.1021 16.3922 24.0613 16.4804C24.0205 16.5686 23.9612 16.647 23.8875 16.7104H22.9738C22.9049 16.6467 22.85 16.5693 22.8129 16.4831Z" fill="#CC9933"/>
        <path d="M25.2106 16.7126C25.1511 17.5746 24.7754 18.3843 24.1556 18.9863C23.5357 19.5883 22.7153 19.9401 21.8519 19.9742V19.2831C21.8989 19.2907 21.9464 19.2947 21.9939 19.2949C22.2538 19.2949 22.5031 19.1917 22.6868 19.0079C22.8706 18.8241 22.9738 18.5749 22.9738 18.315C22.9738 18.0551 22.8706 17.8059 22.6868 17.6221C22.5031 17.4383 22.2538 17.3351 21.9939 17.3351C21.9467 17.3314 21.8992 17.3314 21.8519 17.3351V16.7031L25.2106 16.7126Z" fill="#CC9933"/>
        <path d="M20.5336 16.786C20.5359 16.8112 20.5359 16.8366 20.5336 16.8618C20.5363 17.0337 20.4743 17.2004 20.36 17.3289C20.2457 17.4574 20.0873 17.5383 19.9161 17.5555C19.745 17.5728 19.5737 17.5252 19.436 17.4221C19.2983 17.3191 19.2043 17.1681 19.1726 16.999C19.1629 16.9539 19.1582 16.9079 19.1584 16.8618C19.1597 16.7644 19.1814 16.6683 19.2222 16.5798C19.263 16.4914 19.3219 16.4124 19.3951 16.3481H20.3111C20.4179 16.4438 20.4924 16.5704 20.5241 16.7103C20.5241 16.734 20.5241 16.76 20.5241 16.7837L20.5336 16.786Z" fill="#CC9933"/>
        <path d="M20.3631 14.7149C20.3631 14.9748 20.4664 15.2241 20.6501 15.4078C20.8339 15.5916 21.0831 15.6948 21.343 15.6948C21.393 15.6944 21.4428 15.6905 21.4921 15.683V16.3481H18.2187C18.2503 15.481 18.6026 14.6564 19.2073 14.0342C19.8121 13.4119 20.6263 13.0363 21.4921 12.98V13.7469C21.4428 13.7394 21.393 13.7354 21.343 13.735C21.0831 13.735 20.8339 13.8383 20.6501 14.022C20.4664 14.2058 20.3631 14.455 20.3631 14.7149Z" fill="#CC9933"/>
        <path d="M20.7324 14.386C20.6786 14.4874 20.6501 14.6003 20.6495 14.715C20.6495 14.8053 20.6674 14.8948 20.702 14.9782C20.7366 15.0617 20.7874 15.1374 20.8514 15.2012C20.9154 15.265 20.9913 15.3155 21.0749 15.3498C21.1584 15.3842 21.2479 15.4017 21.3383 15.4014H21.414C21.5834 15.3789 21.7385 15.2946 21.8495 15.1647V14.2511C21.7862 14.1774 21.7078 14.1181 21.6196 14.0772C21.5314 14.0364 21.4355 14.015 21.3383 14.0144C21.213 14.0154 21.0904 14.0505 20.9837 14.116C20.8769 14.1815 20.79 14.2748 20.7324 14.386Z" fill="#CC9933"/>
        <path d="M35.2273 28.843H32.7965V34.8881H35.2273V28.843Z" fill="#010038"/>
        <path d="M57.9402 22.5614H47.7294L46.0489 25.236H41.1044L50.1199 11.418H55.5899L64.5841 25.236H59.5994L57.9402 22.5614ZM56.139 19.7045L52.8253 14.3979L49.5116 19.7045H56.139Z" fill="#CC9933"/>
        <path d="M66.2055 25.236V17.9838H64.151V14.9068H66.196C66.3191 11.2783 68.9724 9.75879 73.3488 9.75879C75.0402 9.77813 76.7272 9.93646 78.3927 10.2322L77.6826 13.0725C76.1924 12.8652 74.6901 12.7569 73.1855 12.7482C70.8541 12.7482 70.0446 13.3139 70.0446 14.8784V14.921H76.4353V17.998H70.0446V25.2502L66.2055 25.236Z" fill="#CC9933"/>
        <path d="M77.6732 14.9045H81.0365L81.3395 16.6655C83.4461 15.572 86.0733 14.6394 88.9373 14.6394V18.0856C86.0402 18.0856 83.8721 18.4288 81.5028 19.2809V25.2361H77.6732V14.9045Z" fill="#CC9933"/>
        <path d="M94.3456 13.5861H90.5184V10.4263H94.3456V13.5861ZM90.5184 14.9045H94.3456V25.236H90.5184V14.9045Z" fill="#CC9933"/>
        <path d="M96.535 11.418H110.434C113.837 11.418 116.209 12.6346 116.209 16.3411C116.209 20.2513 113.842 21.6904 110.434 21.6904H100.646V25.2407H96.535V11.418ZM100.646 14.9447V18.185H109.967C111.286 18.185 111.953 17.74 111.953 16.5636C111.953 15.3092 111.286 14.9447 109.967 14.9447H100.646Z" fill="#CC9933"/>
        <path d="M117.766 14.9045H121.13L121.433 16.6655C123.542 15.572 126.166 14.6394 129.03 14.6394V18.0856C126.133 18.0856 123.965 18.4288 121.596 19.2809V25.2361H117.766V14.9045Z" fill="#CC9933"/>
        <path d="M134.448 13.5861H130.619V10.4263H134.448V13.5861ZM130.619 14.9045H134.448V25.236H130.619V14.9045Z" fill="#CC9933"/>
        <path d="M152.228 25.2361H136.304V22.6017L141.431 19.7614C143.679 18.6466 146.617 17.8561 147.873 17.5531H136.512V14.9045H152.233V17.5579L147.675 20.1615C145 21.5579 142.103 22.2917 141.009 22.6112H152.233L152.228 25.2361Z" fill="#CC9933"/>
        <path d="M168.882 21.9744L169.651 24.7295C167.727 25.2171 164.648 25.5201 161.994 25.5201C156.117 25.5201 153.566 23.92 153.566 20.0762C153.566 16.2323 156.442 14.6465 161.751 14.6465C166.674 14.6465 169.895 15.9246 169.895 19.288C169.895 19.7732 169.834 20.6845 169.793 20.9448H157.353C157.698 22.223 158.995 22.507 162.338 22.507C164.53 22.5127 166.719 22.3346 168.882 21.9744ZM157.334 18.9566H166.106C165.883 17.7187 164.87 17.1933 161.609 17.1933C158.773 17.1933 157.644 17.6193 157.334 18.9566Z" fill="#CC9933"/>
    </g>
    <defs>
        <clipPath id="clip0_262_2237">
            <rect width="169.79" height="38.7014" fill="white" transform="translate(0.104736)"/>
        </clipPath>
    </defs>
</svg>
