<svg width="20" height="20" viewBox="0 0 20 20" fill="none" xmlns="http://www.w3.org/2000/svg">
<path d="M9.14314 10.2942L9.1419 10.0065C9.1419 8.81068 9.21193 7.72049 9.31741 7.00981L9.40982 6.56787C9.46123 6.33382 9.52882 6.06731 9.5993 5.93126C9.85725 5.4336 10.3616 5.1257 10.9015 5.1257H10.9484C11.3004 5.13734 12.0396 5.44614 12.0396 5.45688C13.2292 5.95601 15.5242 7.46242 16.5842 8.53637L16.8922 8.8588C16.9729 8.94618 17.0635 9.04961 17.1198 9.13022C17.3077 9.37905 17.4016 9.68695 17.4016 9.99485C17.4016 10.3386 17.2962 10.6581 17.0967 10.9195L16.7802 11.261L16.7093 11.3339C15.7476 12.3766 13.2363 14.0817 11.9226 14.6035L11.7243 14.6796C11.4856 14.7651 11.1512 14.8671 10.9484 14.8765C10.6905 14.8765 10.4441 14.8166 10.2092 14.6984C9.91575 14.5328 9.68173 14.2715 9.55231 13.9636C9.46988 13.7505 9.34046 13.1106 9.34046 13.0989C9.22181 12.4537 9.15302 11.4355 9.14314 10.2942ZM2.77539 10.0008C2.77539 9.31962 3.32232 8.76736 3.99689 8.76736L7.00277 9.0332C7.53197 9.0332 7.961 9.46641 7.961 10.0008C7.961 10.536 7.53197 10.9683 7.00277 10.9683L3.99689 11.2342C3.32232 11.2342 2.77539 10.6819 2.77539 10.0008Z" fill="#010038"/>
</svg>
