<svg width="14" height="14" viewBox="0 0 14 14" fill="none" xmlns="http://www.w3.org/2000/svg">
<path fill-rule="evenodd" clip-rule="evenodd" d="M12.1994 9.51697L11.7509 5.90342C11.4776 4.614 10.7043 4.08337 9.9671 4.08337H4.0435C3.29596 4.08337 2.49687 4.57685 2.26487 5.90342L1.81119 9.51697C1.44 12.1701 2.80619 12.8334 4.58998 12.8334H9.42578C11.2044 12.8334 12.5294 11.8729 12.1994 9.51697ZM5.30658 7.08671C5.02185 7.08671 4.79104 6.84914 4.79104 6.55608C4.79104 6.26303 5.02185 6.02546 5.30658 6.02546C5.59131 6.02546 5.82213 6.26303 5.82213 6.55608C5.82213 6.84914 5.59131 7.08671 5.30658 7.08671ZM8.16785 6.55608C8.16785 6.84914 8.39867 7.08671 8.68339 7.08671C8.96812 7.08671 9.19894 6.84914 9.19894 6.55608C9.19894 6.26303 8.96812 6.02546 8.68339 6.02546C8.39867 6.02546 8.16785 6.26303 8.16785 6.55608Z" fill="#2E2E2E"/>
<path opacity="0.4" d="M9.9011 3.95171C9.90293 3.99696 9.89424 4.04201 9.8757 4.08335H9.03738C9.02115 4.04132 9.01254 3.99675 9.01198 3.95171C9.01198 2.83317 8.10209 1.92641 6.9797 1.92641C5.8573 1.92641 4.94741 2.83317 4.94741 3.95171C4.95511 3.99526 4.95511 4.03981 4.94741 4.08335H4.08878C4.08109 4.03981 4.08109 3.99526 4.08878 3.95171C4.15401 2.39513 5.43925 1.16669 7.00256 1.16669C8.56586 1.16669 9.8511 2.39513 9.91634 3.95171H9.9011Z" fill="#2E2E2E"/>
</svg>
