<svg width="12" height="17" viewBox="0 0 12 17" fill="none" xmlns="http://www.w3.org/2000/svg">
<path d="M4.32129 12.1777L3.45927 14.8206L1.73617 15.6184V14.4374L2.43822 12.1777L2.75722 11.3417L3.30461 11.4152L4.32129 12.1777Z" fill="#FFC66C"/>
<path d="M10.7185 4.70618C10.7185 4.70618 6.50276 8.22471 1.15787 4.70618L0.501746 5.69245V6.48748L0.626721 7.2375L0.782941 7.70626L0.751698 8.30003C0.751698 8.30003 0.845429 8.14377 0.751698 8.80004C0.657966 9.45631 1.54467 9.63444 1.54467 9.63444L1.86398 9.87382V10.4804L2.23078 11.1679C2.23078 11.1679 2.27859 11.1367 2.45418 11.2639C2.62977 11.3911 3.02844 11.4551 3.02844 11.4551C3.02844 11.4551 3.33151 11.3276 3.52303 11.5176C3.71456 11.7076 4.04949 12.0123 4.04949 12.0123L4.70374 12.4111H5.2302L5.91756 12.178H6.4109L7.46382 12.4751L8.02215 11.8845L8.54861 11.4376L9.20286 11.2145L9.91491 11.0389L10.4951 9.88976C10.4951 9.88976 10.7497 9.30006 10.7982 9.26881C10.8466 9.23756 11.1016 8.96567 11.1016 8.96567C11.1016 8.96567 11.3306 8.55004 11.3746 8.48566C11.4187 8.42128 11.0844 7.52813 11.2918 7.00155C11.4993 6.47498 11.857 5.94809 11.3746 5.59714C10.8922 5.24619 10.7185 4.70618 10.7185 4.70618Z" fill="#FFB954"/>
<path d="M3.32661 6.11475C3.35153 6.03693 3.39786 5.96772 3.46031 5.91504C3.52275 5.86237 3.59878 5.82836 3.67966 5.81692L5.01253 5.62348L5.60897 4.41563C5.64487 4.34229 5.70068 4.28053 5.77002 4.23742C5.83937 4.19431 5.91944 4.1716 6.00108 4.17188C6.08277 4.17159 6.16288 4.19434 6.23224 4.2375C6.30159 4.28067 6.35737 4.34252 6.3932 4.41595L6.98902 5.62411L8.32157 5.81817C8.40231 5.83006 8.47811 5.86429 8.54041 5.91701C8.60271 5.96973 8.64903 6.03883 8.67412 6.1165C8.69921 6.19416 8.70208 6.27731 8.68241 6.35652C8.66273 6.43574 8.62129 6.50787 8.56277 6.56476L7.59796 7.50478L7.82698 8.83107C7.83781 8.89388 7.83479 8.95829 7.81814 9.01981C7.80148 9.08133 7.77159 9.13847 7.73055 9.18722C7.68951 9.23598 7.63832 9.27518 7.58055 9.30208C7.52279 9.32898 7.45985 9.34293 7.39613 9.34296C7.32503 9.34281 7.25503 9.32544 7.1921 9.29234L6.00077 8.66638L4.80851 9.2914C4.73632 9.32945 4.65493 9.34656 4.57353 9.34077C4.49214 9.33498 4.41399 9.30654 4.34791 9.25865C4.28183 9.21076 4.23046 9.14534 4.19961 9.06978C4.16876 8.99422 4.15965 8.91154 4.17332 8.83107L4.4014 7.50354L3.43721 6.56288C3.37853 6.50613 3.33704 6.43399 3.31747 6.35472C3.29791 6.27546 3.30108 6.19229 3.32661 6.11475ZM4.90724 7.12509C4.95787 7.17467 4.99569 7.23582 5.01746 7.30327C5.03923 7.37072 5.04429 7.44245 5.03221 7.51229L4.85193 8.56263L5.79519 8.06699C5.85784 8.03414 5.92753 8.01697 5.99827 8.01697C6.06902 8.01697 6.1387 8.03414 6.20136 8.06699L7.1443 8.56294L6.96433 7.5126C6.95225 7.44276 6.95731 7.37103 6.97908 7.30358C7.00085 7.23614 7.03868 7.17499 7.08931 7.1254L7.8526 6.38163L6.79843 6.22819C6.72819 6.21802 6.66148 6.19092 6.60406 6.14922C6.54663 6.10751 6.50021 6.05246 6.46881 5.9888L6.00077 5.03315L5.52899 5.9888C5.49758 6.05246 5.45116 6.10751 5.39374 6.14922C5.33631 6.19092 5.2696 6.21802 5.19937 6.22819L4.1452 6.381L4.90724 7.12509Z" fill="black"/>
<path d="M0.156454 6.81414C0.0316553 6.61304 -0.0208778 6.3754 0.00752258 6.14042C0.035923 5.90544 0.143559 5.68716 0.312674 5.5216L0.774146 5.06659C0.817633 5.02405 0.851338 4.97255 0.87292 4.91567C0.894503 4.85879 0.903442 4.79789 0.899121 4.7372L0.852881 4.08781C0.834984 3.85089 0.898726 3.61499 1.0335 3.41935C1.16828 3.2237 1.36597 3.08011 1.59367 3.01247L2.2048 2.82809C2.26357 2.81065 2.3178 2.78054 2.36368 2.73988C2.40956 2.69923 2.44598 2.64901 2.47038 2.59277L2.72595 2.00244C2.82193 1.7847 2.98886 1.60594 3.1995 1.49531C3.41013 1.38469 3.65204 1.34875 3.88573 1.39336L4.5056 1.51524C4.56567 1.52689 4.62755 1.52526 4.68692 1.51047C4.74629 1.49568 4.80171 1.46808 4.84929 1.42961L5.34482 1.03022C5.53106 0.881223 5.76245 0.800049 6.00094 0.800049C6.23943 0.800049 6.47082 0.881223 6.65706 1.03022L7.15071 1.42867C7.19828 1.46716 7.2537 1.49475 7.31308 1.50949C7.37247 1.52424 7.43436 1.52577 7.4944 1.51399L8.11646 1.39336C8.35036 1.34855 8.59254 1.3845 8.80335 1.49532C9.01416 1.60615 9.18111 1.78527 9.27686 2.00338L9.5315 2.59277C9.55574 2.64889 9.59197 2.69904 9.63762 2.73968C9.68328 2.78033 9.73728 2.81051 9.79582 2.82809L10.407 3.01247C10.6347 3.08011 10.8323 3.2237 10.9671 3.41935C11.1019 3.61499 11.1656 3.85089 11.1477 4.08781L11.1028 4.7372C11.0984 4.79789 11.1074 4.85879 11.129 4.91567C11.1505 4.97255 11.1842 5.02405 11.2277 5.06659L11.6873 5.5216C11.8564 5.68716 11.9641 5.90544 11.9925 6.14042C12.0209 6.3754 11.9683 6.61304 11.8435 6.81414L11.5021 7.36884C11.4703 7.42055 11.4501 7.47851 11.4428 7.53876C11.4355 7.59901 11.4413 7.66013 11.4599 7.71791L11.6598 8.33918C11.7331 8.56456 11.7273 8.80822 11.6433 9.02984C11.5594 9.25146 11.4023 9.43778 11.198 9.55797L10.645 9.88641C10.5926 9.91747 10.5476 9.95959 10.5131 10.0098C10.4786 10.0601 10.4555 10.1173 10.4454 10.1774L10.3363 10.8161C10.305 11.006 10.2215 11.1833 10.0952 11.3285C9.96893 11.4736 9.80481 11.5808 9.62117 11.638L10.6835 15.5966C10.6986 15.653 10.6976 15.7125 10.6806 15.7684C10.6637 15.8243 10.6314 15.8743 10.5874 15.9128C10.5435 15.9512 10.4896 15.9766 10.432 15.986C10.3744 15.9954 10.3152 15.9885 10.2614 15.966L8.66011 15.2978L7.6075 16.6772C7.57833 16.7154 7.54074 16.7464 7.49766 16.7677C7.45458 16.789 7.40717 16.8001 7.35911 16.8C7.33876 16.8001 7.31846 16.7981 7.2985 16.7941C7.24123 16.7828 7.18829 16.7557 7.14565 16.7158C7.10302 16.6759 7.07241 16.6249 7.05729 16.5685L5.99688 12.6102L4.93677 16.5685C4.92163 16.6249 4.89097 16.676 4.84828 16.7158C4.80559 16.7557 4.75257 16.7828 4.69525 16.7941C4.6753 16.7981 4.65499 16.8001 4.63464 16.8C4.58664 16.8 4.53929 16.7889 4.49626 16.7676C4.45324 16.7463 4.4157 16.7154 4.38656 16.6772L3.33396 15.2978L1.73271 15.966C1.67882 15.9885 1.6197 15.9954 1.56207 15.986C1.50443 15.9766 1.45059 15.9512 1.40664 15.9128C1.36269 15.8743 1.33039 15.8243 1.31342 15.7684C1.29645 15.7125 1.29547 15.653 1.3106 15.5966L2.3729 11.6358C2.19091 11.5777 2.0285 11.4704 1.90357 11.3258C1.77865 11.1812 1.69606 11.005 1.66491 10.8164L1.55587 10.1777C1.54574 10.1176 1.52264 10.0604 1.48815 10.0102C1.45367 9.95991 1.40865 9.91778 1.35622 9.88673L0.803204 9.55828C0.598982 9.43809 0.441894 9.25177 0.357924 9.03015C0.273952 8.80853 0.268129 8.56488 0.341417 8.33949L0.541379 7.71823C0.559922 7.66044 0.565753 7.59933 0.558473 7.53908C0.551192 7.47882 0.530972 7.42086 0.4992 7.36915L0.156454 6.81414ZM7.49658 15.7925L8.21519 14.8522L7.98524 14.0643C7.96204 13.9848 7.97138 13.8993 8.01123 13.8266C8.05107 13.7539 8.11815 13.7 8.1977 13.6768C8.27725 13.6536 8.36275 13.663 8.43541 13.7028C8.50807 13.7427 8.56192 13.8098 8.58512 13.8893L8.81726 14.6856L9.91517 15.1438L8.99348 11.7027L8.72603 11.7162C8.66505 11.7192 8.60547 11.7356 8.5515 11.7642C8.49752 11.7927 8.45045 11.8328 8.41359 11.8815L8.02742 12.3899C7.92912 12.5183 7.80254 12.6222 7.65753 12.6937C7.51251 12.7651 7.35298 12.8021 7.19133 12.8018C7.03925 12.8027 6.88884 12.77 6.75079 12.7062L6.65706 12.6624L7.49658 15.7925ZM2.07889 15.1438L3.17868 14.6847L3.41426 13.8893C3.4251 13.8491 3.44388 13.8114 3.46951 13.7785C3.49514 13.7456 3.52708 13.7182 3.56347 13.6979C3.59985 13.6775 3.63994 13.6646 3.68137 13.66C3.7228 13.6554 3.76473 13.6591 3.8047 13.671C3.84467 13.6828 3.88186 13.7026 3.91409 13.729C3.94632 13.7554 3.97294 13.7881 3.99237 13.825C4.0118 13.8619 4.02365 13.9023 4.02723 13.9438C4.0308 13.9853 4.02604 14.0272 4.0132 14.0668L3.78075 14.8525L4.49748 15.7919L5.33544 12.6652L5.25108 12.7062C5.03448 12.8062 4.79031 12.8295 4.55871 12.7723C4.3271 12.7151 4.12183 12.5808 3.97665 12.3915L3.59047 11.883C3.55343 11.8342 3.5061 11.794 3.45185 11.7655C3.39759 11.7369 3.33772 11.7206 3.27647 11.7177L3.00121 11.704L2.07889 15.1438ZM0.689475 6.48725L1.03003 7.04133C1.10916 7.16988 1.15952 7.31404 1.17764 7.4639C1.19577 7.61376 1.18122 7.76578 1.13501 7.90948L0.935365 8.53044C0.905764 8.62108 0.908029 8.71913 0.941784 8.80831C0.975539 8.89749 1.03876 8.97245 1.12095 9.02076L1.67397 9.34921C1.8043 9.42652 1.91624 9.53128 2.00202 9.65621C2.08781 9.78114 2.14538 9.92325 2.17075 10.0727L2.27979 10.7114C2.29533 10.8059 2.34292 10.8922 2.41455 10.9558C2.48617 11.0194 2.57749 11.0563 2.67315 11.0605L3.30678 11.0918C3.45914 11.0991 3.60805 11.1397 3.74301 11.2108C3.87797 11.2819 3.99569 11.3818 4.08787 11.5033L4.47405 12.0118C4.53261 12.0877 4.61523 12.1414 4.70835 12.1641C4.80146 12.1868 4.89953 12.1772 4.98645 12.1368L5.55915 11.8693C5.69757 11.8045 5.84856 11.7708 6.00141 11.7708C6.15426 11.7708 6.30524 11.8045 6.44366 11.8693L7.01636 12.1368C7.10333 12.1772 7.20145 12.1869 7.29462 12.1641C7.38778 12.1414 7.47046 12.0877 7.52908 12.0118L7.91525 11.5033C8.00743 11.3818 8.12515 11.2819 8.26011 11.2108C8.39507 11.1397 8.54398 11.0991 8.69635 11.0918L9.32997 11.0605C9.4256 11.0562 9.51686 11.0192 9.58846 10.9557C9.66007 10.8921 9.70768 10.8059 9.72334 10.7114L9.83238 10.0727C9.85768 9.92323 9.91523 9.7811 10.001 9.65616C10.0868 9.53122 10.1988 9.42647 10.3292 9.34921L10.8822 9.02076C10.9643 8.97237 11.0274 8.8974 11.0612 8.80824C11.0949 8.71909 11.0972 8.62109 11.0678 8.53044L10.8681 7.90948C10.8218 7.76579 10.8072 7.61376 10.8254 7.46388C10.8435 7.31401 10.8939 7.16984 10.9731 7.04133L11.3124 6.48725C11.3626 6.40637 11.3837 6.3108 11.3724 6.21628C11.361 6.12176 11.3178 6.03393 11.2499 5.96724L10.7884 5.51254C10.6807 5.40657 10.5972 5.27843 10.5438 5.137C10.4905 4.99557 10.4685 4.84422 10.4794 4.69345L10.5257 4.04406C10.5327 3.94886 10.507 3.85413 10.4527 3.77557C10.3985 3.69701 10.3191 3.63936 10.2276 3.61217L9.61648 3.42779C9.47116 3.38388 9.33716 3.30879 9.22384 3.20775C9.11051 3.10671 9.0206 2.98215 8.96036 2.84278L8.70447 2.25213C8.67146 2.17698 8.61733 2.11305 8.54866 2.06811C8.47999 2.02317 8.39974 1.99916 8.31767 1.999C8.29093 1.99912 8.26426 2.00174 8.238 2.00681L7.61781 2.12869C7.46797 2.15825 7.31347 2.15453 7.16522 2.11781C7.01697 2.08109 6.87859 2.01226 6.75985 1.91619L6.2662 1.51743C6.19118 1.45751 6.09803 1.42487 6.00203 1.42487C5.90603 1.42487 5.81288 1.45751 5.73786 1.51743L5.24421 1.91619C5.12548 2.01228 4.9871 2.08112 4.83885 2.11784C4.6906 2.15456 4.53609 2.15827 4.38625 2.12869L3.76637 2.00681C3.6723 1.98887 3.57492 2.00335 3.49014 2.04791C3.40535 2.09247 3.33818 2.16446 3.29959 2.25213L3.0437 2.84246C2.98355 2.98193 2.89367 3.10658 2.78034 3.20768C2.66701 3.30879 2.53296 3.38391 2.38758 3.42779L1.77395 3.61217C1.68236 3.63938 1.60284 3.69713 1.54861 3.77582C1.49438 3.8545 1.46872 3.94938 1.47588 4.04468L1.52212 4.69408C1.53299 4.84484 1.51098 4.99617 1.45763 5.13759C1.40428 5.27901 1.32085 5.40716 1.21312 5.51316L0.751963 5.96661C0.683894 6.03335 0.640608 6.1213 0.629247 6.21595C0.617887 6.31061 0.639132 6.4063 0.689475 6.48725Z" fill="black"/>
<path d="M6.00078 2.73724C6.69758 2.73719 7.3827 2.91625 7.99039 3.25726C8.06261 3.29791 8.11572 3.3656 8.13804 3.44542C8.16037 3.52524 8.15008 3.61066 8.10943 3.6829C8.06879 3.75513 8.00112 3.80825 7.92131 3.83058C7.84151 3.85291 7.75611 3.84262 7.68389 3.80196C6.97145 3.40229 6.13989 3.26976 5.33854 3.42815C4.5372 3.58654 3.81855 4.02549 3.31165 4.66617C2.80475 5.30685 2.5428 6.1073 2.57284 6.92377C2.60288 7.74025 2.92294 8.51927 3.47555 9.12095C4.02816 9.72263 4.77712 10.1076 5.58794 10.2066C6.39876 10.3057 7.21833 10.1123 7.89947 9.66138C8.58062 9.21042 9.07872 8.53134 9.30434 7.7461C9.52996 6.96086 9.46832 6.12088 9.13048 5.37701C9.11302 5.3396 9.10313 5.29909 9.10141 5.25784C9.09968 5.21659 9.10615 5.1754 9.12043 5.13667C9.13471 5.09793 9.15652 5.0624 9.18461 5.03214C9.21269 5.00189 9.2465 4.9775 9.28406 4.96038C9.32163 4.94327 9.36221 4.93377 9.40347 4.93243C9.44473 4.9311 9.48584 4.93795 9.52443 4.9526C9.56303 4.96725 9.59834 4.98941 9.62832 5.01778C9.6583 5.04616 9.68237 5.0802 9.69912 5.11794C9.93996 5.64585 10.0639 6.21958 10.0625 6.79986C10.0625 9.04024 8.24003 10.8625 6.00078 10.8625C4.92393 10.8612 3.89154 10.4328 3.13009 9.67119C2.36864 8.90957 1.94032 7.87695 1.93907 6.79986C1.93907 4.56042 3.76091 2.73724 6.00078 2.73724Z" fill="black"/>
</svg>
