<svg width="26" height="27" viewBox="0 0 26 27" fill="none" xmlns="http://www.w3.org/2000/svg">
<rect y="0.449272" width="26" height="26" rx="4" fill="#010038"/>
<path fill-rule="evenodd" clip-rule="evenodd" d="M20.4973 10.7306H17.3213C15.8433 10.7332 14.646 11.9006 14.6433 13.3417C14.6413 14.786 15.84 15.9586 17.3213 15.9606H20.5V16.19C20.5 18.7095 18.9727 20.1993 16.388 20.1993H9.61267C7.02733 20.1993 5.5 18.7095 5.5 16.19V10.7027C5.5 8.18324 7.02733 6.69927 9.61267 6.69927H16.3853C18.97 6.69927 20.4973 8.18324 20.4973 10.7027V10.7306ZM9.05467 10.7248H13.2847H13.2873H13.2927C13.6093 10.7235 13.8653 10.4719 13.864 10.1625C13.8627 9.85376 13.604 9.60415 13.2873 9.60545H9.05467C8.74 9.60675 8.48467 9.85571 8.48333 10.1632C8.482 10.4719 8.738 10.7235 9.05467 10.7248Z" fill="#CC9933"/>
<path opacity="0.4" d="M16.0281 13.6718C16.1849 14.3852 16.8104 14.8871 17.5244 14.874H19.9619C20.259 14.874 20.5 14.628 20.5 14.3238V12.4251C20.4994 12.1216 20.259 11.8749 19.9619 11.8743H17.4671C16.6548 11.8769 15.9987 12.5511 16 13.382C16 13.4792 16.0096 13.5765 16.0281 13.6718Z" fill="#CC9933"/>
<circle cx="17.5" cy="13.3743" r="0.75" fill="#CC9933"/>
</svg>
