<svg width="32" height="33" viewBox="0 0 32 33" fill="none" xmlns="http://www.w3.org/2000/svg">
<path d="M21.389 12.6757V12.6305L23.126 11.6178L25.1218 10.454L25.1479 10.4367L24.0883 9.30937L23.1295 9.86694L22.1325 10.4488L21.3942 10.8796V6.45028L21.3508 6.40511H19.8865V8.94633H18.5647V4.74281L17.4895 5.36988L17.057 5.62174L15.7125 6.40511L13.8018 7.52027V5.36988H12.2941V6.80115L11.9207 6.40511L10.948 5.36292L10.0795 4.44927L9.65911 4.7046L8.84273 5.1788L8.74546 5.23612L8.84273 5.33861L8.87226 5.36988L9.84671 6.41207L11.9224 8.61805L12.2368 8.95329H8.84273V8.85254L7.33676 7.25103L6.61591 6.48502L5.27842 7.26319L6.86951 8.95329H4.48636V10.461H7.33676V12.6826H4.48636V14.1903H7.33676V17.2561H8.84273V14.1834H12.2941V15.5643L12.3323 15.606H12.2941V18.7569H17.057V19.007L16.5932 19.278L16.0721 19.5819L13.8018 20.9055V22.6425L17.057 20.7457V22.507L13.8018 24.4056V26.1425L17.057 24.244V28.4493L18.5647 27.5704L19.8865 26.7991L21.3942 25.9202V21.7271L23.1312 20.7162V19.0139L23.1052 18.9861L22.195 19.5211L21.389 19.9901V18.7569H23.126V17.2109L25.8826 15.6042L27.5136 14.6524V12.6757H21.389ZM8.84273 12.6757V11.0464L9.51495 11.7603L10.3834 12.6757H8.84273ZM12.2889 12.502L10.8524 10.9751L10.3574 10.454H12.2941L12.2889 12.502ZM18.5595 10.4488H19.8813V11.7585L18.5595 12.5297V10.4488ZM14.3403 8.94113L17.0518 7.3622V8.94113H14.3403L14.3195 8.95502L14.3073 8.94113H14.3403ZM19.8813 25.0639L18.5595 25.8351V23.3807L19.2543 22.9725L19.7754 22.6703L19.8778 22.6095L19.8813 25.0639ZM19.8813 20.8586L18.721 21.543L18.5612 21.635V19.8737L18.9868 19.6254L19.883 19.1043L19.8813 20.8586ZM20.0237 15.0171C19.9962 15.1878 19.9483 15.3545 19.8813 15.5139V17.2509H18.5595V16.7298C18.0661 16.8914 17.531 16.8705 17.0518 16.6707V17.2439H13.7966V14.1104L13.8644 14.1834H15.7751C15.7751 14.1729 15.7751 14.1625 15.7751 14.1538C15.8593 13.8114 16.027 13.4951 16.2632 13.2332C16.4788 12.9913 16.7459 12.8008 17.0448 12.6757H13.7966V10.454H17.0518V12.561L17.1299 12.6444C17.3066 12.5792 17.4912 12.5377 17.6788 12.5211C17.7483 12.5211 17.8212 12.5089 17.8942 12.5089C18.0903 12.5087 18.2856 12.5356 18.4743 12.5888L18.5681 12.6166C18.622 12.634 18.6741 12.6531 18.7262 12.6757C19.1634 12.8558 19.5295 13.1743 19.7684 13.5824C19.8169 13.6631 19.8592 13.7472 19.8952 13.8342C19.9427 13.9468 19.981 14.0629 20.0098 14.1816C20.047 14.3434 20.0657 14.5089 20.0654 14.6749C20.0604 14.7916 20.0465 14.9078 20.0237 15.0223V15.0171ZM23.1243 15.4739L22.8863 15.6129L21.3925 16.4814V14.1834H25.3216L23.1243 15.4739Z" fill="#010038"/>
<path d="M18.3545 14.5047C18.3545 14.3435 18.4185 14.1888 18.5326 14.0748C18.6466 13.9608 18.8012 13.8968 18.9624 13.8968C19.1237 13.8968 19.2783 13.9608 19.3923 14.0748C19.5063 14.1888 19.5704 14.3435 19.5704 14.5047C19.5702 14.5356 19.5673 14.5664 19.5617 14.5968H20.0654C20.044 14.0508 19.8175 13.533 19.4312 13.1467C19.0448 12.7603 18.527 12.5338 17.981 12.5124V14.5968H18.3649C18.3588 14.5664 18.3553 14.5356 18.3545 14.5047Z" fill="#CC9933"/>
<path d="M18.4917 15.8213C18.4922 15.8922 18.4749 15.9621 18.4413 16.0246C18.4045 16.092 18.3502 16.1483 18.2843 16.1877C18.2183 16.2271 18.143 16.2482 18.0662 16.2487H18.0262C17.9207 16.2383 17.8231 16.188 17.7535 16.108V16.3424V16.8496C17.2284 16.8155 16.7337 16.5918 16.3611 16.2203C15.9886 15.8487 15.7637 15.3545 15.7282 14.8295H16.1381C16.1354 14.8607 16.1354 14.8921 16.1381 14.9233C16.1381 15.0846 16.2021 15.2392 16.3162 15.3532C16.4302 15.4672 16.5848 15.5313 16.746 15.5313C16.9073 15.5313 17.0619 15.4672 17.1759 15.3532C17.2899 15.2392 17.354 15.0846 17.354 14.9233C17.3538 14.8919 17.3509 14.8605 17.3453 14.8295H17.7604V15.3002V15.5347C17.8203 15.4664 17.9008 15.4194 17.9897 15.401H18.0314H18.0766C18.1866 15.4041 18.2912 15.4496 18.3685 15.5279C18.4458 15.6062 18.49 15.7113 18.4917 15.8213Z" fill="#CC9933"/>
<path d="M18.5734 14.6819C18.5437 14.6168 18.5308 14.5453 18.536 14.4739C18.5412 14.4025 18.5642 14.3336 18.6029 14.2734C18.6416 14.2133 18.6948 14.1638 18.7577 14.1295C18.8205 14.0953 18.8909 14.0774 18.9624 14.0774C19.0752 14.0788 19.1829 14.1243 19.2625 14.2042C19.342 14.2841 19.3871 14.392 19.388 14.5047C19.388 14.5647 19.3753 14.6241 19.3508 14.6789C19.3263 14.7337 19.2904 14.7826 19.2456 14.8226H18.6776C18.6338 14.7831 18.5984 14.7353 18.5734 14.6819Z" fill="#CC9933"/>
<path d="M20.062 14.8243C20.0251 15.3592 19.7919 15.8617 19.4072 16.2352C19.0225 16.6087 18.5134 16.8269 17.9776 16.8479V16.4189C18.007 16.4215 18.0367 16.4215 18.0662 16.4189C18.2274 16.4189 18.382 16.3548 18.496 16.2408C18.61 16.1268 18.6741 15.9722 18.6741 15.8109C18.6741 15.6497 18.61 15.4951 18.496 15.381C18.382 15.267 18.2274 15.203 18.0662 15.203C18.0367 15.2004 18.007 15.2004 17.9776 15.203V14.8104L20.062 14.8243Z" fill="#CC9933"/>
<path d="M17.1577 14.8695C17.1586 14.8851 17.1586 14.9008 17.1577 14.9164C17.16 15.0234 17.1219 15.1273 17.0509 15.2075C16.98 15.2876 16.8814 15.3381 16.7749 15.3488C16.6684 15.3596 16.5618 15.3298 16.4763 15.2654C16.3908 15.201 16.3327 15.1068 16.3135 15.0015C16.308 14.9735 16.3051 14.945 16.3049 14.9164C16.3048 14.8563 16.3175 14.797 16.3421 14.7422C16.3666 14.6874 16.4025 14.6385 16.4473 14.5985H17.0153C17.0823 14.657 17.1287 14.7356 17.1473 14.8226C17.1483 14.8376 17.1483 14.8527 17.1473 14.8677L17.1577 14.8695Z" fill="#CC9933"/>
<path d="M17.0518 13.5841C17.0518 13.7453 17.1158 13.9 17.2298 14.014C17.3438 14.128 17.4985 14.192 17.6597 14.192C17.6903 14.1946 17.7211 14.1946 17.7518 14.192V14.6055H15.7212C15.7428 14.0687 15.9621 13.5588 16.3369 13.174C16.7118 12.7892 17.2157 12.5566 17.7518 12.5211V12.997C17.7211 12.9953 17.6904 12.9953 17.6597 12.997C17.502 12.9969 17.3505 13.0581 17.237 13.1676C17.1236 13.2772 17.0572 13.4265 17.0518 13.5841Z" fill="#CC9933"/>
<path d="M17.2845 13.3896C17.2488 13.4545 17.2307 13.5277 17.232 13.6018C17.2332 13.6759 17.2538 13.7484 17.2917 13.8121C17.3296 13.8759 17.3835 13.9286 17.4481 13.965C17.5126 14.0015 17.5856 14.0205 17.6597 14.0201H17.6996C17.8037 14.0078 17.8999 13.9585 17.9706 13.8811V13.3131C17.9255 13.2611 17.8683 13.2209 17.8041 13.1959C17.7399 13.171 17.6706 13.1621 17.6022 13.1699C17.5337 13.1778 17.4682 13.2022 17.4114 13.2411C17.3545 13.28 17.308 13.3321 17.2758 13.393L17.2845 13.3896Z" fill="#CC9933"/>
<path d="M26.2752 22.3507H24.7675V26.1009H26.2752V22.3507Z" fill="#010038"/>
</svg>
