<svg width="43" height="44" viewBox="0 0 43 44" fill="none" xmlns="http://www.w3.org/2000/svg">
<path d="M31.1067 14.7738V14.6926L34.2415 12.8724L37.8434 10.7806L37.8905 10.7494L35.9782 8.72317L34.2478 9.72536L32.4485 10.7713L31.1162 11.5455V3.58418L31.0378 3.50301H28.3952V8.07064H26.0096V0.515151L24.0691 1.64224L23.2886 2.09495L20.8622 3.50301L17.414 5.50741V1.64224H14.693V4.21485L14.019 3.50301L12.2635 1.62974L10.6961 -0.0124664L9.93747 0.446474L8.46412 1.2988L8.28857 1.40184L8.46412 1.58605L8.51741 1.64224L10.276 3.51551L14.0221 7.48058L14.5895 8.08315H8.46412V7.90206L5.74625 5.02347L4.44531 3.64663L2.03151 5.04533L4.90299 8.08315H0.602051V10.7931H5.74625V14.7863H0.602051V17.4963H5.74625V23.0068H8.46412V17.4838H14.693V19.9659L14.7619 20.0408H14.693V25.7043H23.2886V26.1539L22.4516 26.6409L21.5111 27.1873L17.414 29.5663V32.6884L23.2886 29.2791V32.4449L17.414 35.8574V38.9795L23.2886 35.567V43.1256L26.0096 41.5458L28.3952 40.1596L31.1162 38.5798V31.0431L34.251 29.226V26.1664L34.2039 26.1164L32.5613 27.078L31.1067 27.921V25.7043H34.2415V22.9256L39.2165 20.0377L42.16 18.3268V14.7738H31.1067ZM8.46412 14.7738V11.8453L9.67729 13.1285L11.2447 14.7738H8.46412ZM14.6836 14.4616L12.0911 11.7173L11.1977 10.7806H14.693L14.6836 14.4616ZM26.0002 10.7713H28.3857V13.1253L26.0002 14.5115V10.7713ZM18.3857 8.06129L23.2792 5.22329V8.06129H18.3857L18.3481 8.08625L18.3262 8.06129H18.3857ZM28.3857 37.0407L26.0002 38.4269V34.0153L27.2541 33.2816L28.1945 32.7384L28.3795 32.6291L28.3857 37.0407ZM28.3857 29.482L26.2917 30.7121L26.0033 30.8776V27.7118L26.7713 27.2653L28.3889 26.3287L28.3857 29.482ZM28.6428 18.9824C28.593 19.2892 28.5067 19.5889 28.3857 19.8753V22.9974H26.0002V22.0608C25.1097 22.3513 24.1441 22.3137 23.2792 21.9546V22.9849H17.4046V17.3527L17.5268 17.4838H20.9751C20.9751 17.4651 20.9751 17.4463 20.9751 17.4307C21.1271 16.8152 21.4297 16.2467 21.856 15.776C22.2451 15.3412 22.7272 14.9988 23.2666 14.7738H17.4046V10.7806H23.2792V14.5677L23.4202 14.7176C23.7391 14.6004 24.0722 14.5258 24.4108 14.4959C24.5362 14.4959 24.6679 14.4741 24.7995 14.4741C25.1535 14.4737 25.5059 14.522 25.8466 14.6177L26.0158 14.6677C26.113 14.6989 26.2071 14.7332 26.3011 14.7738C27.0901 15.0976 27.7508 15.6701 28.182 16.4035C28.2694 16.5486 28.3459 16.6999 28.4108 16.8562C28.4965 17.0585 28.5656 17.2673 28.6177 17.4807C28.6848 17.7715 28.7184 18.069 28.718 18.3674C28.709 18.5771 28.6839 18.7859 28.6428 18.9918V18.9824ZM34.2384 19.8035L33.809 20.0533L31.113 21.6143V17.4838H38.2039L34.2384 19.8035Z" fill="white"/>
<path d="M25.63 18.0614C25.63 17.7716 25.7456 17.4936 25.9514 17.2887C26.1572 17.0838 26.4362 16.9686 26.7272 16.9686C27.0182 16.9686 27.2973 17.0838 27.503 17.2887C27.7088 17.4936 27.8244 17.7716 27.8244 18.0614C27.824 18.1169 27.8187 18.1723 27.8087 18.2269H28.7178C28.6791 17.2455 28.2704 16.3148 27.5731 15.6204C26.8759 14.9259 25.9414 14.5189 24.9561 14.4803V18.2269H25.6489C25.6378 18.1723 25.6315 18.117 25.63 18.0614Z" fill="#CC9933"/>
<path d="M25.8781 20.4279C25.8789 20.5554 25.8477 20.681 25.7872 20.7932C25.7206 20.9144 25.6228 21.0157 25.5037 21.0865C25.3846 21.1573 25.2487 21.1951 25.1101 21.196H25.038C24.8475 21.1774 24.6714 21.0869 24.5458 20.9431V21.3646V22.2762C23.5982 22.2148 22.7053 21.8128 22.033 21.145C21.3607 20.4771 20.9547 19.5888 20.8906 18.6452H21.6304C21.6257 18.7013 21.6257 18.7577 21.6304 18.8138C21.6304 19.1036 21.746 19.3816 21.9518 19.5865C22.1576 19.7914 22.4366 19.9066 22.7276 19.9066C23.0186 19.9066 23.2977 19.7914 23.5034 19.5865C23.7092 19.3816 23.8248 19.1036 23.8248 18.8138C23.8244 18.7573 23.8191 18.7009 23.8091 18.6452H24.5583V19.4913V19.9128C24.6663 19.7899 24.8116 19.7055 24.9721 19.6724H25.0474H25.1289C25.3274 19.678 25.5161 19.7597 25.6557 19.9004C25.7953 20.0412 25.8749 20.2301 25.8781 20.4279Z" fill="#CC9933"/>
<path d="M26.0255 18.3798C25.9719 18.2628 25.9487 18.1343 25.9581 18.006C25.9674 17.8777 26.0089 17.7538 26.0788 17.6457C26.1487 17.5376 26.2447 17.4486 26.3581 17.387C26.4715 17.3255 26.5985 17.2933 26.7277 17.2934C26.9311 17.2958 27.1255 17.3776 27.2691 17.5212C27.4127 17.6648 27.4941 17.8587 27.4957 18.0614C27.4957 18.1693 27.4728 18.276 27.4285 18.3744C27.3842 18.4729 27.3195 18.5609 27.2386 18.6327H26.2136C26.1346 18.5617 26.0706 18.4758 26.0255 18.3798Z" fill="#CC9933"/>
<path d="M28.712 18.6359C28.6454 19.5973 28.2246 20.5005 27.5303 21.1718C26.836 21.8432 25.9171 22.2353 24.9502 22.2731V21.5019C25.0034 21.5066 25.0569 21.5066 25.1101 21.5019C25.4011 21.5019 25.6801 21.3868 25.8859 21.1819C26.0917 20.977 26.2073 20.699 26.2073 20.4092C26.2073 20.1194 26.0917 19.8415 25.8859 19.6365C25.6801 19.4316 25.4011 19.3165 25.1101 19.3165C25.0569 19.3118 25.0034 19.3118 24.9502 19.3165V18.6109L28.712 18.6359Z" fill="#CC9933"/>
<path d="M23.4703 18.717C23.4719 18.7451 23.4719 18.7732 23.4703 18.8013C23.4744 18.9937 23.4056 19.1805 23.2776 19.3246C23.1496 19.4686 22.9717 19.5594 22.7795 19.5787C22.5873 19.598 22.3949 19.5444 22.2406 19.4287C22.0862 19.313 21.9814 19.1436 21.9468 18.9543C21.9368 18.9039 21.9316 18.8527 21.9312 18.8013C21.9311 18.6934 21.954 18.5867 21.9983 18.4883C22.0426 18.3898 22.1073 18.3018 22.1882 18.23H23.2133C23.3343 18.3351 23.4179 18.4764 23.4515 18.6327C23.4533 18.6598 23.4533 18.6869 23.4515 18.7139L23.4703 18.717Z" fill="#CC9933"/>
<path d="M23.2792 16.4067C23.2792 16.6965 23.3948 16.9744 23.6005 17.1793C23.8063 17.3843 24.0854 17.4994 24.3764 17.4994C24.4316 17.5041 24.4872 17.5041 24.5425 17.4994V18.2425H20.8779C20.9168 17.2776 21.3126 16.3612 21.9891 15.6696C22.6656 14.9779 23.5751 14.5599 24.5425 14.4959V15.3514C24.4872 15.3483 24.4317 15.3483 24.3764 15.3514C24.0918 15.3512 23.8183 15.4612 23.6135 15.6581C23.4088 15.855 23.2889 16.1234 23.2792 16.4067Z" fill="#CC9933"/>
<path d="M23.6994 16.057C23.635 16.1738 23.6023 16.3053 23.6046 16.4385C23.6069 16.5717 23.6441 16.702 23.7125 16.8166C23.7809 16.9311 23.8782 17.0258 23.9946 17.0913C24.1111 17.1569 24.2428 17.191 24.3766 17.1903H24.4487C24.6365 17.1683 24.8101 17.0796 24.9377 16.9406V15.9196C24.8562 15.8261 24.753 15.7538 24.6372 15.709C24.5213 15.6641 24.3962 15.6481 24.2727 15.6622C24.1492 15.6764 24.031 15.7203 23.9284 15.7902C23.8258 15.86 23.7418 15.9538 23.6838 16.0632L23.6994 16.057Z" fill="#CC9933"/>
<path d="M39.9251 32.1639H37.2041V38.9046H39.9251V32.1639Z" fill="white"/>
</svg>
