<svg width="113" height="57" viewBox="0 0 113 57" fill="none" xmlns="http://www.w3.org/2000/svg">
<mask id="mask0_734_18334" style="mask-type:luminance" maskUnits="userSpaceOnUse" x="0" y="0" width="113" height="58">
<path d="M112.528 0.44928H0.52832V57.0149H112.528V0.44928Z" fill="white"/>
</mask>
<g mask="url(#mask0_734_18334)">
<path d="M112.528 0.44928H0.52832V57.0149H112.528V0.44928Z" fill="#A8DFF7"/>
<path d="M55.2404 127.298C87.4827 127.298 113.62 100.896 113.62 68.3281C113.62 35.76 87.4827 9.35837 55.2404 9.35837C22.998 9.35837 -3.13965 35.76 -3.13965 68.3281C-3.13965 100.896 22.998 127.298 55.2404 127.298Z" fill="#77B2C6"/>
<path d="M20.9961 18.7483V3.24927H24.7481V18.7483H20.9961ZM22.7321 18.7483V15.6937H27.1561C27.9681 15.6937 28.6401 15.524 29.1721 15.1846C29.7041 14.8452 30.1241 14.3361 30.4041 13.6291C30.6841 12.9503 30.8241 12.0735 30.8241 11.0553C30.8241 10.2351 30.7401 9.52806 30.5721 8.93412C30.4041 8.34018 30.1521 7.85937 29.8161 7.46341C29.4801 7.06745 29.0601 6.78462 28.5281 6.61492C27.9961 6.41694 27.4081 6.3321 26.7081 6.3321H22.7321V3.24927H26.5681C28.4721 3.24927 30.0401 3.56038 31.2441 4.15432C32.4481 4.77654 33.3441 5.62503 33.9041 6.75634C34.4641 7.88765 34.7441 9.24523 34.7441 10.8291C34.7441 12.0452 34.6041 13.0917 34.3241 13.9967C34.0441 14.9018 33.6521 15.6371 33.1481 16.2311C32.6441 16.825 32.0841 17.3058 31.4401 17.6735C30.7961 18.0412 30.1241 18.2957 29.4241 18.4654C28.7241 18.6351 28.0241 18.6917 27.3241 18.6917H22.7321V18.7483Z" fill="white"/>
<path d="M41.6884 19.0876C40.4564 19.0876 39.3643 18.8331 38.4123 18.3523C37.4603 17.8715 36.7043 17.1361 36.1723 16.1745C35.6403 15.2129 35.3604 13.9967 35.3604 12.526C35.3604 11.0836 35.6403 9.86744 36.1723 8.90582C36.7043 7.9442 37.4603 7.23713 38.4123 6.75633C39.3643 6.27552 40.4844 6.04926 41.7164 6.04926C42.9484 6.04926 44.0684 6.3038 45.0204 6.78461C45.9724 7.26542 46.7284 8.00077 47.2604 8.96239C47.7924 9.924 48.0723 11.1402 48.0723 12.5826C48.0723 14.0816 47.7923 15.2977 47.2324 16.2594C46.6723 17.221 45.9164 17.9563 44.9364 18.4089C43.9844 18.8331 42.8924 19.0876 41.6884 19.0876ZM41.8004 16.3159C42.3604 16.3159 42.8084 16.1745 43.2004 15.92C43.5644 15.6654 43.8444 15.2695 44.0404 14.7321C44.2364 14.1947 44.3204 13.5442 44.3204 12.7523C44.3204 11.9321 44.2084 11.225 44.0124 10.6594C43.8163 10.0937 43.5084 9.64117 43.1164 9.35835C42.7244 9.04724 42.2204 8.90582 41.6044 8.90582C41.0724 8.90582 40.6244 9.04724 40.2323 9.30178C39.8403 9.55633 39.5603 9.95229 39.3923 10.4897C39.1963 11.027 39.1123 11.6775 39.1123 12.4977C39.1123 13.7705 39.3363 14.7321 39.8123 15.3826C40.2884 16.0048 40.9604 16.3159 41.8004 16.3159Z" fill="white"/>
<path d="M49.1084 18.7482V11.2816V6.36037H52.1324L52.1884 10.0089H52.6644C52.8604 9.13208 53.1404 8.39673 53.5324 7.80279C53.8964 7.20885 54.3724 6.75633 54.9604 6.4735C55.5204 6.19067 56.2204 6.04926 56.9764 6.04926C58.4044 6.04926 59.5244 6.55835 60.2524 7.57653C61.0084 8.59471 61.3724 10.2068 61.3724 12.4412V18.7765H57.6204V12.8371C57.6204 11.5644 57.4244 10.6311 57.0884 10.0371C56.7244 9.4432 56.1924 9.16037 55.4644 9.16037C54.8764 9.16037 54.4004 9.33006 54.0084 9.69774C53.6164 10.0654 53.3364 10.5462 53.1684 11.1402C52.9724 11.7341 52.8884 12.4129 52.8884 13.1482V18.7765H49.1084V18.7482Z" fill="white"/>
<path d="M65.7402 19.0876C65.0682 19.0876 64.4522 18.9462 63.9202 18.6634C63.3882 18.3806 62.9962 17.9846 62.6882 17.4755C62.3802 16.9382 62.2402 16.3159 62.2402 15.5523C62.2402 14.8452 62.3802 14.2796 62.6602 13.7988C62.9402 13.3462 63.3322 12.9786 63.8362 12.6957C64.3682 12.4129 64.9842 12.1866 65.7122 12.0169C66.4402 11.8472 67.2802 11.6775 68.2042 11.5361C68.6522 11.4513 69.0162 11.3947 69.3242 11.3099C69.6322 11.2533 69.8562 11.1402 69.9962 10.9705C70.1642 10.8008 70.2202 10.5745 70.2202 10.2917C70.2202 9.89573 70.0802 9.55634 69.8002 9.27351C69.5202 8.99068 69.0722 8.84927 68.4562 8.84927C68.0362 8.84927 67.6442 8.93411 67.2802 9.07553C66.9442 9.24522 66.6362 9.47149 66.3842 9.75432C66.1322 10.0654 65.9642 10.4048 65.8242 10.8291L62.5202 9.83916C62.7162 9.18866 62.9962 8.623 63.3602 8.11391C63.7242 7.6331 64.1722 7.23714 64.6762 6.89775C65.1802 6.58664 65.7682 6.33209 66.4402 6.19068C67.0842 6.04926 67.8122 5.96442 68.5402 5.96442C69.7722 5.96442 70.7802 6.1624 71.5642 6.55836C72.3482 6.95432 72.9362 7.57654 73.3002 8.42502C73.6922 9.27351 73.8602 10.3483 73.8602 11.6493V13.5442C73.8602 14.1099 73.8602 14.6755 73.8882 15.2412C73.9162 15.8068 73.9442 16.3725 73.9722 16.9664C74.0002 17.5321 74.0562 18.126 74.1122 18.6917H70.8082C70.7522 18.324 70.6962 17.8998 70.6122 17.3907C70.5562 16.8816 70.5002 16.3725 70.4722 15.8351H70.0242C69.8002 16.4291 69.4922 16.9664 69.0722 17.4755C68.6522 17.9563 68.1762 18.3523 67.5882 18.6351C67.1402 18.9462 66.4682 19.0876 65.7402 19.0876ZM67.4482 16.4008C67.7282 16.4008 68.0082 16.3442 68.2882 16.2594C68.5682 16.1462 68.8482 16.0048 69.1002 15.8351C69.3522 15.6654 69.6042 15.4392 69.8282 15.1563C70.0522 14.9018 70.2202 14.5907 70.3042 14.2796L70.2482 12.4129L70.7522 12.526C70.4442 12.724 70.1362 12.8654 69.7722 12.9786C69.4082 13.0917 69.0442 13.1765 68.6802 13.2331C68.3162 13.2897 67.9522 13.3745 67.6162 13.4311C67.2802 13.4876 66.9442 13.6008 66.6922 13.7139C66.4122 13.827 66.2162 13.9685 66.0482 14.1664C65.8802 14.3644 65.8242 14.619 65.8242 14.9301C65.8242 15.3543 65.9642 15.722 66.2722 15.9765C66.6082 16.2594 66.9722 16.4008 67.4482 16.4008Z" fill="white"/>
<path d="M80.3003 19.0594C78.8723 19.0594 77.8083 18.6634 77.1083 17.8998C76.4363 17.1361 76.1003 15.8917 76.1003 14.1947V9.30179H74.3643L74.4203 6.36038H75.6803C76.1843 6.33209 76.5483 6.27553 76.8003 6.13412C77.0523 5.9927 77.2203 5.73816 77.2763 5.3422L77.5843 3.61694H79.6843V6.36038H82.6243V9.44321H79.6843V14.025C79.6843 14.5624 79.8243 14.9584 80.0763 15.1846C80.3283 15.4392 80.7203 15.5523 81.2523 15.5523C81.5323 15.5523 81.8123 15.524 82.0923 15.4674C82.3443 15.4109 82.5683 15.326 82.7363 15.2129V18.72C82.2323 18.8897 81.7843 18.9745 81.3643 19.0028C80.9723 19.0311 80.6363 19.0594 80.3003 19.0594Z" fill="white"/>
<path d="M89.5679 19.0876C88.5319 19.0876 87.6359 18.9462 86.8239 18.6634C86.0119 18.3806 85.3399 17.9846 84.7799 17.4472C84.2199 16.9099 83.7719 16.2594 83.4919 15.4674C83.1839 14.6755 83.0439 13.7987 83.0439 12.7806C83.0439 11.7907 83.1839 10.8856 83.4639 10.0654C83.7439 9.24521 84.164 8.50986 84.696 7.91592C85.228 7.32198 85.8999 6.84117 86.6839 6.53006C87.4679 6.19067 88.336 6.04926 89.316 6.04926C90.296 6.04926 91.1639 6.21895 91.9199 6.53006C92.6759 6.84117 93.2919 7.32198 93.7679 7.94421C94.2439 8.56643 94.6079 9.33006 94.8599 10.2351C95.0839 11.1402 95.1679 12.1583 95.0839 13.3179L85.4799 13.3745V11.3947L92.9279 11.3381L91.6119 12.2432C91.7239 11.4513 91.6679 10.8291 91.4719 10.32C91.2759 9.83915 90.968 9.47148 90.576 9.24522C90.184 9.01895 89.764 8.90582 89.316 8.90582C88.784 8.90582 88.308 9.04724 87.8879 9.35835C87.4679 9.66946 87.16 10.0937 86.936 10.6594C86.712 11.225 86.5999 11.9038 86.5999 12.724C86.5999 13.9967 86.8799 14.9301 87.4119 15.524C87.9719 16.0897 88.6719 16.4008 89.5119 16.4008C89.9319 16.4008 90.2679 16.3442 90.5479 16.2311C90.8279 16.1179 91.0519 15.9765 91.2199 15.7785C91.3879 15.6089 91.5279 15.4109 91.6399 15.1846C91.7519 14.9583 91.8079 14.7604 91.8919 14.5624L95.1399 15.2695C95.0279 15.8351 94.8319 16.3725 94.5519 16.8533C94.2719 17.3341 93.9079 17.7301 93.4599 18.0695C93.0119 18.4089 92.4519 18.6634 91.808 18.8614C91.2199 18.9745 90.4639 19.0876 89.5679 19.0876Z" fill="white"/>
<path d="M72.5999 44.6836H37.8799V47.0877H72.5999V44.6836Z" fill="#961F43"/>
<path d="M42.8359 47.0877H37.8799V43.1846H72.5999V47.0877H69.7439" stroke="#791E25" stroke-width="1.8939" stroke-miterlimit="10"/>
<path d="M69.7439 47.0876H42.8359" stroke="#791E25" stroke-width="1.8939" stroke-miterlimit="10"/>
<path d="M99.6759 41.6008C99.9559 28.5341 89.6799 17.7018 76.7159 17.419C67.5039 17.221 59.4399 22.4533 55.4359 30.1745C51.7679 22.2836 43.9279 16.7119 34.7159 16.5139C21.7799 16.2311 11.0559 26.6109 10.7759 39.7058C10.7479 40.8372 10.8319 41.9685 10.9719 43.0715H10.9439C10.9439 43.0715 10.9719 43.5523 11.1399 44.4008C11.1679 44.4856 11.1679 44.5422 11.1679 44.627C12.3439 50.7361 18.9519 73.8998 54.1199 93.3867C95.9239 72.4574 99.3679 44.9382 99.3679 44.9382H99.3399C99.5359 43.8634 99.6479 42.7604 99.6759 41.6008Z" fill="#CF2B5D"/>
<path d="M84.5555 46.2109C84.7235 37.5563 77.9195 30.4008 69.3515 30.2028C63.2475 30.0897 57.8995 33.5402 55.2675 38.6594C52.8315 33.427 47.6515 29.7503 41.5475 29.6089C32.9795 29.4392 25.8955 36.2836 25.6995 44.9664C25.6715 45.7301 25.7275 46.4654 25.8395 47.1725C25.8395 47.1725 25.8675 47.4836 25.9795 48.0493C25.9795 48.1058 26.0075 48.1341 26.0075 48.1907C26.7915 52.2351 31.1595 67.5644 54.4275 80.4897C82.0915 66.6311 84.3875 48.4169 84.3875 48.4169H84.3595C84.4715 47.6816 84.5555 46.9462 84.5555 46.2109Z" fill="#E02E65"/>
<g opacity="0.35">
<path d="M16.5995 45.3907C16.5995 45.3058 16.5715 45.2493 16.5715 45.1644C16.4035 44.3159 16.3755 43.8351 16.3755 43.8351H16.4035C16.2635 42.7321 16.1795 41.6291 16.2075 40.4695C16.4875 27.4028 27.1835 17.023 40.1475 17.2776C38.4115 16.825 36.6195 16.5705 34.7715 16.5139C21.8355 16.2311 11.1115 26.6109 10.8315 39.7058C10.8035 40.8372 10.8875 41.9685 11.0275 43.0715H10.9995C10.9995 43.0715 11.0275 43.5523 11.1955 44.4008C11.2235 44.4856 11.2235 44.5422 11.2235 44.627C12.3995 50.7361 19.0075 73.8998 54.1755 93.3867C54.9035 93.019 55.6035 92.6513 56.3315 92.2836C23.9635 73.221 17.7195 51.3018 16.5995 45.3907Z" fill="#961F43"/>
</g>
<path d="M57.8164 85.8351C62.0724 83.1765 66.1604 80.32 70.0804 77.2371C73.9724 74.126 77.6964 70.7604 81.0284 67.0836C81.4484 66.6311 81.8684 66.1785 82.2604 65.6977C82.6804 65.2169 83.0724 64.7644 83.4924 64.2836L84.6684 62.8412C85.0604 62.3604 85.4244 61.8513 85.8164 61.3705C87.3004 59.3624 88.7284 57.2977 89.9884 55.1482C91.2764 52.9987 92.3964 50.7644 93.4044 48.4735C93.9084 47.3139 94.3284 46.1543 94.7484 44.9664C95.1404 43.7785 95.5044 42.5624 95.7284 41.3462L95.8124 41.4594H95.7844L95.7004 41.4311L95.7284 41.3462C95.9244 40.2432 96.0924 39.1402 96.1484 38.0089C96.1484 39.1402 96.0644 40.2432 95.8964 41.3745L95.8124 41.2614H95.8404H95.9244V41.3462C95.7564 42.619 95.4484 43.8351 95.1124 45.0513C94.7764 46.2674 94.3564 47.4553 93.9084 48.6432C93.0124 50.9907 91.8924 53.2816 90.6324 55.4876C88.1404 59.8715 85.0884 63.9725 81.6724 67.6493C78.2844 71.3826 74.4764 74.72 70.5004 77.7462C66.4404 80.7725 62.2124 83.4594 57.8164 85.8351Z" fill="#F792B4"/>
<path d="M99.6759 41.6008C99.9559 28.5341 89.6799 17.7018 76.7159 17.419C67.5039 17.221 59.4399 22.4533 55.4359 30.1745C51.7679 22.2836 43.9279 16.7119 34.7159 16.5139C21.7799 16.2311 11.0559 26.6109 10.7759 39.7058C10.7479 40.8372 10.8319 41.9685 10.9719 43.0715H10.9439C10.9439 43.0715 10.9719 43.5523 11.1399 44.4008C11.1679 44.4856 11.1679 44.5422 11.1679 44.627C12.3439 50.7361 18.9519 73.8998 54.1199 93.3867C95.9239 72.4574 99.3679 44.9382 99.3679 44.9382H99.3399C99.5359 43.8634 99.6479 42.7604 99.6759 41.6008Z" stroke="#791E25" stroke-width="2" stroke-miterlimit="10"/>
<path d="M99.1626 60.2843C102.853 56.2851 102.635 50.0215 98.6755 46.294C94.7164 42.5666 88.5154 42.7869 84.8252 46.786C81.135 50.7852 81.3531 57.0488 85.3123 60.7763C89.2714 64.5037 95.4724 64.2834 99.1626 60.2843Z" fill="#E48321" stroke="#791E25" stroke-miterlimit="10"/>
<path d="M101.075 57.26C103.772 52.5206 102.155 46.4697 97.4635 43.7449C92.7715 41.0202 86.7811 42.6533 84.0835 47.3927C81.386 52.1321 83.0028 58.183 87.6948 60.9078C92.3868 63.6326 98.3772 61.9994 101.075 57.26Z" fill="#FBA928" stroke="#791E25" stroke-miterlimit="10"/>
<g opacity="0.4">
<path d="M101.244 57.0149C101.104 57.2695 100.964 57.4958 100.824 57.722L90.7725 42.5907C92.2285 42.3079 93.7405 42.3644 95.1965 42.7604L102.336 53.5079C102.196 54.724 101.832 55.8836 101.244 57.0149Z" fill="#FCDB34"/>
<path d="M99.3394 59.5321C98.6114 60.2392 97.7714 60.8048 96.8754 61.2574L86.0674 44.9665C86.8234 44.2877 87.6634 43.722 88.5874 43.326L99.3394 59.5321Z" fill="#FCDB34"/>
<path d="M94.5239 62.0493C93.7399 62.219 92.9559 62.2756 92.1719 62.219L83.3799 48.9826C83.5479 48.5301 83.7439 48.0776 83.9679 47.625C84.1079 47.3422 84.2759 47.0877 84.4439 46.8331L94.5239 62.0493Z" fill="#FCDB34"/>
</g>
<path d="M94.9123 59.7598C98.9828 58.4634 101.242 54.0794 99.9587 49.9679C98.6753 45.8563 94.3352 43.5742 90.2647 44.8705C86.1943 46.1669 83.9349 50.5509 85.2183 54.6624C86.5017 58.774 90.8419 61.0562 94.9123 59.7598Z" fill="#FBA928"/>
<path d="M94.8885 51.8109C94.6925 51.2452 94.4685 50.8776 93.9925 50.623C93.4885 50.3402 93.0965 50.3968 92.8165 50.8776C92.2565 51.924 95.1685 53.3664 94.0485 55.4594C93.4885 56.5058 92.4805 56.9866 91.2485 56.6473L90.6325 57.7786L89.5965 57.2129L90.1845 56.1382C89.5965 55.7139 88.9805 55.0351 88.7285 54.2715L89.9885 53.5644C90.3245 54.2715 90.6885 54.7523 91.1925 55.0351C91.8085 55.3745 92.2005 55.2614 92.4525 54.7523C93.0405 53.621 90.1845 52.122 91.2485 50.1422C91.8085 49.0675 92.8445 48.6715 93.9645 49.0109L94.5525 47.8796L95.5885 48.4452L95.0005 49.5483C95.6445 50.0291 95.9525 50.6513 96.1205 51.3018L94.8885 51.8109Z" fill="#E48321" stroke="#E48321" stroke-width="0.4816" stroke-miterlimit="10"/>
<path d="M96.0085 47.3988C98.1925 48.5866 99.5365 50.7361 99.7605 53.0553C100.041 50.227 98.6405 47.3705 96.0085 45.9563C92.5085 44.0614 88.1685 45.3907 86.2925 48.8978C85.5925 50.227 85.3405 51.6695 85.4805 53.0553C85.5645 52.122 85.8445 51.2169 86.2925 50.3402C88.1405 46.8331 92.5085 45.5038 96.0085 47.3988Z" fill="#E48321"/>
<path d="M98.9765 56.421C97.1005 59.9563 92.7605 61.2574 89.2605 59.3624C86.9365 58.0897 85.5645 55.7139 85.4805 53.225C85.7605 55.4877 87.0765 57.5806 89.2045 58.7402C92.7045 60.6351 97.0445 59.3058 98.9205 55.7988C99.3965 54.922 99.6485 54.017 99.7325 53.0836C99.7605 53.3382 99.7605 53.5927 99.7605 53.8473C99.6765 54.6957 99.3965 55.5725 98.9765 56.421Z" fill="#F8D732"/>
<path d="M98.546 56.3775C100.746 53.0533 99.8622 48.5568 96.5712 46.3343C93.2803 44.1118 88.8288 45.0049 86.6285 48.329C84.4282 51.6532 85.3124 56.1497 88.6033 58.3722C91.8942 60.5947 96.3457 59.7017 98.546 56.3775Z" stroke="#791E25" stroke-width="0.4596" stroke-miterlimit="10"/>
<path d="M92.8995 50.4533C92.9555 50.3402 93.0395 50.2554 93.0955 50.1705C93.3475 49.9442 93.6555 49.9725 94.0475 50.1705C94.4955 50.4251 94.7475 50.7927 94.9435 51.3584L96.2315 50.8776C96.2315 50.8493 96.2315 50.8493 96.2035 50.821C96.0075 50.1705 95.6995 49.5766 95.0835 49.124L95.6715 48.021L94.6355 47.4554L94.0475 48.5867C93.3475 48.3887 92.7035 48.4453 92.1715 48.7846C91.8355 48.9826 91.5555 49.2937 91.3315 49.718C90.2955 51.6695 93.1515 53.1968 92.5635 54.3281C92.5075 54.4129 92.4515 54.4978 92.3955 54.5543C92.1435 54.8372 91.7795 54.8655 91.2755 54.6109C90.7715 54.3281 90.4075 53.8473 90.0715 53.1402L88.9795 53.7624L88.8115 53.8473C89.0635 54.5826 89.6515 55.2614 90.2675 55.6857L89.6795 56.7887L90.7155 57.3543L91.3315 56.223C92.1155 56.4493 92.7875 56.3362 93.3195 55.9685C93.6555 55.7422 93.9075 55.4311 94.1315 55.0352C95.2515 52.9422 92.3675 51.4715 92.8995 50.4533Z" fill="#E48321"/>
<path d="M94.9123 59.7598C98.9828 58.4634 101.242 54.0794 99.9587 49.9679C98.6753 45.8563 94.3352 43.5742 90.2647 44.8705C86.1943 46.1669 83.9349 50.5509 85.2183 54.6624C86.5017 58.774 90.8419 61.0562 94.9123 59.7598Z" stroke="#791E25" stroke-miterlimit="10"/>
<g opacity="0.4">
<path d="M96.2315 50.821L94.3555 48.021L94.6635 47.4554L95.6995 48.021L95.1115 49.124C95.7275 49.5766 96.0355 50.1705 96.2315 50.821Z" fill="#FCDB34"/>
<path d="M94.1311 55.0069C93.9351 55.4028 93.6551 55.714 93.3191 55.9402L92.3951 54.5261C92.4511 54.4695 92.5071 54.3847 92.5631 54.2998C93.1511 53.1685 90.2951 51.6695 91.3311 49.6897C91.5551 49.2938 91.8351 48.9826 92.1711 48.7564L93.0951 50.1705C93.0111 50.2271 92.9551 50.3402 92.8991 50.4533C92.3671 51.4715 95.2511 52.9422 94.1311 55.0069Z" fill="#FCDB34"/>
<path d="M88.9795 53.7341L90.2675 55.6574C89.6795 55.2331 89.0915 54.5543 88.8115 53.819L88.9795 53.7341Z" fill="#FCDB34"/>
<path d="M91.024 56.7887L90.744 57.3261L89.708 56.7604L90.268 55.6857L91.024 56.7887Z" fill="#FCDB34"/>
</g>
<path d="M94.9715 51.3584C94.7755 50.7927 94.5515 50.425 94.0755 50.1705C93.5715 49.8877 93.1795 49.9442 92.8995 50.425C92.3395 51.4715 95.2515 52.9139 94.1315 55.0069C93.5715 56.0533 92.5635 56.5341 91.3315 56.1947L90.7155 57.3261L89.6795 56.7604L90.2675 55.6856C89.6795 55.2614 89.0635 54.5826 88.8115 53.819L90.0715 53.1119C90.4075 53.819 90.7715 54.2998 91.2755 54.5826C91.8915 54.922 92.2835 54.8089 92.5355 54.2998C93.1235 53.1685 90.2675 51.6695 91.3315 49.6897C91.8915 48.6149 92.9275 48.219 94.0475 48.5584L94.6355 47.4271L95.6715 47.9927L95.0835 49.0957C95.7275 49.5766 96.0355 50.1988 96.2035 50.8493L94.9715 51.3584Z" stroke="#791E25" stroke-width="0.4816" stroke-miterlimit="10"/>
<path d="M11.5983 49.5793C16.702 49.1836 20.5218 44.6836 20.1301 39.5283C19.7383 34.373 15.2833 30.5146 10.1796 30.9103C5.07587 31.3061 1.25607 35.806 1.64783 40.9613C2.0396 46.1166 6.49458 49.975 11.5983 49.5793Z" fill="#E48321" stroke="#791E25" stroke-miterlimit="10"/>
<path d="M17.1162 45.3724C20.4817 41.4766 20.0834 35.5626 16.2265 32.1631C12.3697 28.7637 6.51484 29.166 3.14937 33.0618C-0.216088 36.9576 0.182257 42.8716 4.0391 46.2711C7.89595 49.6705 13.7508 49.2682 17.1162 45.3724Z" fill="#FBA928" stroke="#791E25" stroke-miterlimit="10"/>
<g opacity="0.4">
<path d="M17.6642 33.7665C17.8042 33.9927 17.9442 34.1907 18.0842 34.417L1.2002 36.7362C1.5642 35.3786 2.2362 34.1059 3.1882 33.0028L15.1722 31.3624C16.0962 31.9846 16.9642 32.7766 17.6642 33.7665Z" fill="#FCDB34"/>
<path d="M18.9799 36.4533C19.2599 37.3867 19.3999 38.32 19.3999 39.2816L1.2279 41.7988C0.975896 40.8655 0.863895 39.9038 0.891895 38.9705L18.9799 36.4533Z" fill="#FCDB34"/>
<path d="M19.092 41.6291C18.896 42.3644 18.616 43.0715 18.252 43.722L3.49602 45.7584C3.18802 45.419 2.88002 45.0796 2.60002 44.6836C2.43202 44.4574 2.26402 44.2028 2.12402 43.9483L19.092 41.6291Z" fill="#FCDB34"/>
</g>
<path d="M16.0407 34.9261C18.3927 38.2351 17.6367 42.8453 14.3607 45.1927C11.0847 47.5402 6.52074 46.8048 4.19674 43.4958C1.84474 40.1867 2.60074 35.5766 5.87674 33.2291C9.15274 30.8533 13.6887 31.617 16.0407 34.9261Z" fill="#FBA928"/>
<path d="M10.6367 37.019C10.0767 36.9624 9.6567 36.9907 9.2647 37.2735C8.8167 37.6129 8.7047 37.9523 9.0127 38.3766C9.6567 39.2816 12.0927 37.4149 13.3527 39.225C13.9967 40.1301 13.9967 41.2048 13.1847 42.1099L13.8847 43.0998L12.9607 43.7503L12.2887 42.7887C11.7007 43.1281 10.8607 43.3543 10.1327 43.2695L10.0767 41.8836C10.8047 41.8836 11.3647 41.7988 11.8127 41.4594C12.3447 41.0917 12.4287 40.6958 12.1207 40.2432C11.4207 39.2533 8.9567 41.0917 7.7527 39.3665C7.0807 38.4331 7.1927 37.3867 7.9207 36.5665L7.2207 35.5766L8.1447 34.9261L8.8167 35.8877C9.4887 35.5483 10.1327 35.52 10.7767 35.6614L10.6367 37.019Z" fill="#E48321" stroke="#E48321" stroke-width="0.455" stroke-miterlimit="10"/>
<path d="M7.38864 34.2473C9.29264 32.8614 11.6726 32.6351 13.7166 33.3988C11.4486 31.9846 8.48064 32.0129 6.18464 33.6533C3.13264 35.8594 2.43264 40.1301 4.61664 43.2129C5.42864 44.3725 6.54864 45.1927 7.75264 45.6452C7.02464 45.1927 6.35264 44.5705 5.82064 43.8069C3.66464 40.7523 4.33664 36.4533 7.38864 34.2473Z" fill="#E48321"/>
<path d="M16.2089 35.4634C18.3929 38.5462 17.6929 42.817 14.6409 45.023C12.6249 46.4937 10.0489 46.6634 7.9209 45.7018C9.9369 46.4089 12.2329 46.1543 14.0809 44.7968C17.1329 42.5907 17.8329 38.32 15.6489 35.2372C15.1169 34.4735 14.4449 33.8513 13.7169 33.3988C13.9409 33.4836 14.1649 33.5685 14.3609 33.6816C15.0609 34.1341 15.6769 34.7281 16.2089 35.4634Z" fill="#F8D732"/>
<path d="M10.1324 46.0695C13.8747 46.0695 16.9084 43.0051 16.9084 39.2251C16.9084 35.445 13.8747 32.3806 10.1324 32.3806C6.39016 32.3806 3.35645 35.445 3.35645 39.2251C3.35645 43.0051 6.39016 46.0695 10.1324 46.0695Z" stroke="#791E25" stroke-width="0.4343" stroke-miterlimit="10"/>
<path d="M8.67611 38.1786C8.59211 38.0655 8.56411 37.9806 8.53611 37.8958C8.45211 37.5846 8.59211 37.3301 8.95611 37.0756C9.34811 36.7927 9.76811 36.7362 10.3281 36.821L10.4681 35.52C10.4401 35.52 10.4401 35.52 10.4121 35.52C9.79611 35.4069 9.15211 35.4351 8.50811 35.7745L7.83611 34.8129L6.91211 35.4634L7.61211 36.4533C7.13611 36.9624 6.94011 37.5564 6.99611 38.1503C7.02411 38.518 7.16411 38.8857 7.44411 39.2533C8.64811 40.9503 11.1121 39.1402 11.8121 40.1301C11.8681 40.2149 11.9241 40.2998 11.9521 40.3564C12.0921 40.6958 11.9521 41.0069 11.5321 41.318C11.0841 41.6574 10.5241 41.7422 9.79611 41.7422L9.85211 42.9584V43.1281C10.5801 43.2129 11.3921 42.9867 12.0081 42.6473L12.6801 43.6089L13.6041 42.9584L12.9041 41.9685C13.4081 41.4028 13.6041 40.7806 13.5201 40.1584C13.4641 39.7907 13.3241 39.423 13.0721 39.0836C11.7281 37.1887 9.32011 39.0836 8.67611 38.1786Z" fill="#E48321"/>
<path d="M16.0407 34.9261C18.3927 38.2351 17.6367 42.8453 14.3607 45.1927C11.0847 47.5402 6.52074 46.8048 4.19674 43.4958C1.84474 40.1867 2.60074 35.5766 5.87674 33.2291C9.15274 30.8533 13.6887 31.617 16.0407 34.9261Z" stroke="#791E25" stroke-miterlimit="10"/>
<g opacity="0.4">
<path d="M10.3568 35.4917L7.22077 35.916L6.88477 35.4351L7.80877 34.7846L8.48077 35.7463C9.12477 35.3786 9.74077 35.3786 10.3568 35.4917Z" fill="#FCDB34"/>
<path d="M13.0164 38.9988C13.2684 39.3382 13.4084 39.7058 13.4644 40.0735L11.8964 40.2998C11.8684 40.2149 11.8124 40.1584 11.7564 40.0735C11.0564 39.0836 8.59243 40.922 7.38843 39.1968C7.13643 38.8291 6.99643 38.4614 6.94043 38.0937L8.50843 37.8675C8.53643 37.9523 8.59243 38.0654 8.64843 38.1503C9.32043 39.0836 11.7284 37.1887 13.0164 38.9988Z" fill="#FCDB34"/>
<path d="M9.79688 42.9018L11.9529 42.5907C11.3649 42.9301 10.5249 43.1564 9.79688 43.0715V42.9018Z" fill="#FCDB34"/>
<path d="M13.2405 42.421L13.5485 42.8735L12.6525 43.5523L11.9805 42.5907L13.2405 42.421Z" fill="#FCDB34"/>
</g>
<path d="M10.3001 36.7927C9.74011 36.7362 9.32011 36.7645 8.92811 37.0473C8.48011 37.3867 8.36811 37.7261 8.67611 38.1503C9.32011 39.0554 11.7561 37.1887 13.0161 38.9988C13.6601 39.9038 13.6601 40.9786 12.8481 41.8836L13.5481 42.8735L12.6241 43.524L11.9801 42.5907C11.3921 42.9301 10.5521 43.1564 9.82411 43.0715L9.76811 41.6857C10.4961 41.6857 11.0561 41.6008 11.5041 41.2614C12.0361 40.8937 12.1201 40.4978 11.8121 40.0453C11.1121 39.0554 8.64811 40.8937 7.44411 39.1685C6.77211 38.2352 6.88411 37.1887 7.61211 36.3685L6.91211 35.3786L7.83611 34.7281L8.50811 35.6897C9.18011 35.3503 9.82411 35.322 10.4681 35.4634L10.3001 36.7927Z" stroke="#791E25" stroke-width="0.455" stroke-miterlimit="10"/>
<mask id="mask1_734_18334" style="mask-type:luminance" maskUnits="userSpaceOnUse" x="42" y="28" width="28" height="20">
<path d="M69.7439 28.3644H42.8359V47.0877H69.7439V28.3644Z" fill="white"/>
</mask>
<g mask="url(#mask1_734_18334)">
<path d="M68.6268 47.4268C70.5364 40.749 66.7252 33.7719 60.1141 31.843C53.5031 29.9141 46.5958 33.7638 44.6862 40.4416C42.7766 47.1194 46.5878 54.0965 53.1988 56.0254C59.8099 57.9543 66.7172 54.1046 68.6268 47.4268Z" fill="#E48321" stroke="#791E25" stroke-miterlimit="10"/>
<path d="M66.7751 48.4251C70.0418 42.3068 67.7797 34.6721 61.7226 31.3725C55.6655 28.0728 48.1072 30.3578 44.8405 36.476C41.5739 42.5943 43.836 50.229 49.8931 53.5286C55.9501 56.8282 63.5085 54.5433 66.7751 48.4251Z" fill="#FBA928" stroke="#791E25" stroke-miterlimit="10"/>
<g opacity="0.4">
<path d="M66.7477 36.425C66.9157 36.7362 67.0557 37.0473 67.1957 37.3584L44.2637 37.6695C44.9637 35.916 46.0837 34.3321 47.5397 33.0311L63.8077 32.8331C64.9837 33.7665 65.9917 34.9826 66.7477 36.425Z" fill="#FCDB34"/>
<path d="M68.092 40.2149C68.316 41.4877 68.344 42.7887 68.176 44.0614L43.48 44.3725C43.284 43.0998 43.284 41.7988 43.48 40.526L68.092 40.2149Z" fill="#FCDB34"/>
</g>
<path d="M63.0692 49.0905C66.6998 45.0362 66.3891 38.7765 62.3753 35.1092C58.3615 31.4419 52.1644 31.7557 48.5338 35.8101C44.9032 39.8644 45.2138 46.1241 49.2276 49.7914C53.2415 53.4587 59.4385 53.1449 63.0692 49.0905Z" fill="#FBA928"/>
<path d="M56.8359 39.5927C56.1079 39.3948 55.5479 39.3948 54.9879 39.7342C54.3439 40.1018 54.1199 40.5544 54.4559 41.1766C55.1559 42.4776 58.7119 40.3847 60.1399 43.015C60.8679 44.3443 60.6719 45.7584 59.4399 46.8331L60.2239 48.2756L58.9079 49.0109L58.1519 47.6251C57.2839 47.9645 56.1359 48.1342 55.1839 47.9079L55.3239 46.0695C56.3039 46.2109 57.0599 46.1544 57.7039 45.7867C58.4599 45.3624 58.6279 44.8533 58.2919 44.2311C57.5359 42.817 53.9239 44.8251 52.5799 42.3362C51.8519 40.9786 52.1319 39.621 53.2799 38.6311L52.5239 37.217L53.8399 36.4816L54.5959 37.8675C55.5479 37.4998 56.4159 37.6129 57.2279 37.8675L56.8359 39.5927Z" fill="#E48321" stroke="#E48321" stroke-width="0.6123" stroke-miterlimit="10"/>
<path d="M52.9719 35.3503C55.7439 33.823 58.9359 33.9079 61.5399 35.2655C58.7399 33.0028 54.7919 32.522 51.4599 34.3604C47.0359 36.7927 45.4119 42.3927 47.8199 46.8614C48.7159 48.5301 50.0599 49.8028 51.6279 50.623C50.7039 49.8877 49.9199 48.9544 49.3319 47.8513C46.9239 43.4109 48.5479 37.8109 52.9719 35.3503Z" fill="#E48321"/>
<path d="M64.5352 38.4332C66.9432 42.9018 65.3192 48.5018 60.8952 50.9342C57.9552 52.5746 54.4832 52.3766 51.8232 50.7362C54.3992 52.0089 57.5072 52.0372 60.2232 50.5382C64.6472 48.1059 66.2712 42.5059 63.8632 38.0372C63.2752 36.9342 62.4912 36.0008 61.5672 35.2655C61.8472 35.4069 62.1272 35.5766 62.3792 35.7463C63.2192 36.4816 63.9752 37.3867 64.5352 38.4332Z" fill="#F8D732"/>
<path d="M63.6554 47.1874C66.2425 42.8168 64.8322 37.1552 60.5053 34.5419C56.1784 31.9286 50.5734 33.3531 47.9862 37.7238C45.3991 42.0944 46.8094 47.756 51.1363 50.3693C55.4632 52.9826 61.0682 51.558 63.6554 47.1874Z" stroke="#791E25" stroke-width="0.5844" stroke-miterlimit="10"/>
<path d="M54.0353 40.8089C53.9513 40.6675 53.9233 40.5261 53.8953 40.4129C53.8393 39.9887 54.0633 39.6493 54.5673 39.3665C55.1273 39.0554 55.6873 39.0554 56.4153 39.2251L56.8073 37.4998C56.7793 37.4998 56.7513 37.4715 56.7233 37.4715C55.9113 37.217 55.0713 37.1321 54.1473 37.4998L53.3913 36.114L52.0753 36.8493L52.8313 38.2634C52.1313 38.8574 51.7393 39.621 51.7393 40.4129C51.7393 40.922 51.8513 41.4311 52.1313 41.9402C53.4753 44.4291 57.0593 42.3927 57.8433 43.8352C57.8993 43.9483 57.9553 44.0614 57.9833 44.1746C58.0953 44.6554 57.8713 45.0513 57.2553 45.3907C56.6113 45.7584 55.8553 45.815 54.8753 45.6735L54.7633 47.2857L54.7353 47.5119C55.6873 47.7382 56.8353 47.5968 57.6753 47.2291C57.6753 47.2291 57.6753 47.2291 57.7033 47.2291L58.4593 48.615L59.7753 47.8796L58.9913 46.4372C59.7753 45.7584 60.1393 44.9665 60.1113 44.118C60.1113 43.6089 59.9713 43.0998 59.6913 42.619C58.2913 40.017 54.7353 42.1099 54.0353 40.8089Z" fill="#E48321"/>
<path d="M63.0692 49.0905C66.6998 45.0362 66.3891 38.7765 62.3753 35.1092C58.3615 31.4419 52.1644 31.7557 48.5338 35.8101C44.9032 39.8644 45.2138 46.1241 49.2276 49.7914C53.2415 53.4587 59.4385 53.1449 63.0692 49.0905Z" stroke="#791E25" stroke-miterlimit="10"/>
<g opacity="0.4">
<path d="M56.7242 37.4998L52.4682 37.5564L52.0762 36.8493L53.3922 36.114L54.1482 37.4998C55.0722 37.1604 55.9122 37.2453 56.7242 37.4998Z" fill="#FCDB34"/>
<path d="M59.7202 42.6473C60.0002 43.1564 60.1402 43.6655 60.1402 44.1463L58.0122 44.1745C57.9842 44.0614 57.9282 43.9483 57.8722 43.8351C57.1162 42.421 53.5042 44.4291 52.1602 41.9402C51.8802 41.4311 51.7402 40.8937 51.7682 40.4129L53.8962 40.3846C53.9242 40.5261 53.9522 40.6392 54.0362 40.7806C54.7362 42.1099 58.2922 40.017 59.7202 42.6473Z" fill="#FCDB34"/>
</g>
<path d="M56.4443 39.2251C55.7163 39.0271 55.1563 39.0271 54.5963 39.3665C53.9523 39.7342 53.7283 40.1867 54.0643 40.8089C54.7643 42.1099 58.3203 40.017 59.7483 42.6473C60.4763 43.9766 60.2803 45.3907 59.0483 46.4655L59.8323 47.9079L58.5163 48.6432L57.7603 47.2574C56.8923 47.5968 55.7443 47.7665 54.7923 47.5402L54.9323 45.7018C55.9123 45.8432 56.6683 45.7867 57.3123 45.419C58.0683 44.9948 58.2363 44.4857 57.9003 43.8634C57.1443 42.4493 53.5323 44.4574 52.1883 41.9685C51.4603 40.6109 51.7403 39.2533 52.8883 38.2634L52.1323 36.8493L53.4483 36.114L54.2043 37.4998C55.1563 37.1321 56.0243 37.2453 56.8363 37.4998L56.4443 39.2251Z" stroke="#791E25" stroke-width="0.6123" stroke-miterlimit="10"/>
</g>
</g>
</svg>
