<?xml version="1.0" encoding="UTF-8"?>
<!DOCTYPE svg PUBLIC "-//W3C//DTD SVG 1.1//EN" "http://www.w3.org/Graphics/SVG/1.1/DTD/svg11.dtd">
<!-- Creator: CorelDRAW 2021 (64-Bit) -->
<svg xmlns="http://www.w3.org/2000/svg" xml:space="preserve" width="1.95893in" height="1.69744in" version="1.1" style="shape-rendering:geometricPrecision; text-rendering:geometricPrecision; image-rendering:optimizeQuality; fill-rule:evenodd; clip-rule:evenodd"
viewBox="0 0 18.88 16.36"
 xmlns:xlink="http://www.w3.org/1999/xlink"
 xmlns:xodm="http://www.corel.com/coreldraw/odm/2003">
 <defs>
  <style type="text/css">
   <![CDATA[
    .fil14 {fill:#040404}
    .fil4 {fill:#2B2B2B}
    .fil16 {fill:#663701}
    .fil6 {fill:#676967}
    .fil1 {fill:#8B8C8C}
    .fil9 {fill:#955A27}
    .fil5 {fill:#ABABAB}
    .fil0 {fill:#AE7748}
    .fil3 {fill:#B49472}
    .fil10 {fill:#D6AA75}
    .fil2 {fill:#D6D9D8}
    .fil8 {fill:#D9C7A8}
    .fil13 {fill:#F49754}
    .fil15 {fill:#F5B738}
    .fil7 {fill:#FDE5AA}
    .fil11 {fill:#FDFDFD}
    .fil12 {fill:#FEF4D3}
   ]]>
  </style>
 </defs>
 <g id="Layer_x0020_1">
  <metadata id="CorelCorpID_0Corel-Layer"/>
  <g id="_2566559768912">
   <g>
    <path class="fil0" d="M9.35 3.91l0.07 -0.39 -0.34 0.06c-0.26,0.06 -0.08,-0.02 -0.16,0.18l0.42 0.15zm0.02 0.17c-0.2,-0.03 -0.14,-0.06 -0.13,0.17 0.21,0 0.15,0.05 0.13,-0.17z"/>
    <path class="fil0" d="M8.52 9.86l0.17 0.08 0 -0.24 0.06 -0.06 -0.38 -0.04c0.12,0.33 -0.15,0.22 0.15,0.26z"/>
    <path class="fil0" d="M8.43 4.73l-0.15 0.05 0.15 -0.05zm0.21 0.53l-0.08 -0.41c-0.17,0.12 -0.07,0.19 0.08,0.41zm-0.52 -0.18l0.07 0.12 0.28 -0.04c-0.13,-0.15 0.24,-0.16 -0.35,-0.08z"/>
    <path class="fil0" d="M9.71 4.16l-0.02 -0.34c-0.43,0 -0.02,0.31 0.02,0.34z"/>
    <path class="fil0" d="M8.9 4.45l0.08 -0.34 -0.08 0.34zm-0.33 0.2c0.19,0.01 0.15,0.05 0.34,-0.03 0.27,-0.11 0.09,-0 0.25,-0.18 -0.04,0.01 -0.1,-0.02 -0.12,0.03 -0.14,0.31 0.08,-0.16 -0.47,0.18z"/>
   </g>
   <g>
    <path class="fil1" d="M6.27 1.73c0.19,0.29 0.13,0.3 0.46,0.49 0.05,-0.79 -0.05,-0.29 -0.18,-0.39 -0.19,-0.05 -0.22,0.01 -0.04,-0.07 -0.25,-0.45 -0.03,-0.13 -0.28,-0.29l-0.01 0.1c0.2,0.14 0.23,0.05 0.04,0.15z"/>
    <path class="fil1" d="M2.6 12.82l-0.13 0 0.02 0.5c-0.25,-0.2 -0.23,0.33 -0.18,-0.44l-0.13 0c0.02,0.61 -0.14,0.5 0.38,0.55l0.04 -0.61z"/>
    <path class="fil1" d="M1.29 14.48c0.26,-0.16 0.14,0.08 0.15,-0.27 0.01,-0.58 -0.08,-0.27 -0.15,-0.36l-0 0.63z"/>
    <path class="fil1" d="M5.53 6.58l-0.14 -0.02c-0.13,0.13 -0.01,0.22 -0.17,0l-0.17 0.24c0.15,-0.01 -0.04,0.12 0.26,-0.04 0.18,-0.09 0.11,-0.08 0.22,-0.18z"/>
    <path class="fil1" d="M3.45 12.25l0.01 -0.59c-0.1,0.1 -0.13,-0.19 -0.11,0.28 0.01,0.23 0.04,0.21 0.1,0.31z"/>
    <path class="fil1" d="M13.17 5.66l0.18 0.19 0.25 0.07 -0.25 -0.07 0.01 -0.21c0.15,-0.16 0.13,-0.1 -0.09,-0.1l-0.11 0.13zm0.41 -0.01l0.11 0.16 -0.11 -0.16z"/>
    <path class="fil1" d="M11.47 11.48l-0 -0.33c-0.38,-0.02 -0,0.32 0,0.33z"/>
    <path class="fil1" d="M10.34 13.84l0.14 0.16c0.01,-0.2 -0.03,-0.15 0.17,-0.08l-0.05 -0.21c-0.16,0.14 -0.13,0.08 -0.26,0.14l-0.11 -0.2 0.11 0.2z"/>
    <path class="fil1" d="M12.9 3.04l0 -0.16 -0.15 -0.01c0,0.24 -0.07,0.2 0.15,0.16z"/>
    <path class="fil1" d="M12.49 14.47c0.15,-0.19 0.15,0.05 0.17,-0.49l-0.17 0.49z"/>
    <polygon class="fil1" points="3.1,13.47 3.22,13.47 3.07,13.09 "/>
    <polygon class="fil1" points="1.54,13.51 1.67,13.51 1.68,13.18 "/>
    <path class="fil1" d="M5 3.65l-0.38 -0.1 0.38 0.1zm-0.24 0.12l-0.23 -0.14c0,0.24 -0.05,0.16 0.23,0.14z"/>
    <polygon class="fil1" points="5.24,11.59 5.29,11.37 5.13,11.37 "/>
    <polygon class="fil1" points="5.87,6.34 5.86,6.18 5.71,6.32 "/>
    <path class="fil1" d="M11.87 6.78c-0.1,-0.27 -0.03,-0.26 -0.1,0.04l0.1 -0.04z"/>
    <polygon class="fil1" points="11.24,11.58 11.11,11.5 11.12,11.58 "/>
    <polygon class="fil1" points="6.51,12.04 6.64,11.76 "/>
    <polygon class="fil1" points="11.75,13.96 11.62,13.41 "/>
    <polygon class="fil1" points="5.51,12.7 5.36,12.43 "/>
    <polygon class="fil1" points="5.39,12.17 5.25,11.89 "/>
    <polygon class="fil1" points="15.57,12.93 15.43,13.07 "/>
    <polygon class="fil1" points="5.63,13.22 5.49,12.94 "/>
   </g>
   <g>
    <polygon class="fil2" points="1.3,13.84 0.78,13.58 0.75,13.07 0.66,13.07 0.65,13.85 "/>
    <path class="fil2" d="M15.56 14.51c0.15,-0.18 0.07,0.05 0.17,-0.29 0.01,-0.05 0.07,-0.43 0.08,-0.47 -0.4,-0 -0.37,-0.05 -0.65,0.1l0.4 -0.04 -0 0.71z"/>
    <path class="fil2" d="M1.29 12.48l-0.02 0.03 0.02 -0.03c-0.02,-0.02 -0.07,-0.08 -0.08,-0.06l-0.36 -0.19c-0.02,-0.01 -0.07,-0.03 -0.1,-0.04l0.06 -0.4c-0.13,0.17 -0.17,-0.18 -0.15,0.53 0.3,0.18 0.18,0.11 0.63,0.17z"/>
    <path class="fil2" d="M13.07 3.03l-0.17 0.01c-0.22,0.04 -0.15,0.07 -0.15,-0.16 -0.16,0.14 -0.17,-0.23 -0.11,0.26 0.74,0.13 0.25,0.01 0.43,-0.11z"/>
   </g>
   <g>
    <path class="fil3" d="M17.88 15.76l0.12 0.51 0.09 -0.01 0.1 -0.55 0.15 -0.17 0.04 -0.01 -0.24 0.12c-0.15,0.22 -0.04,0.21 -0.19,-0.01l-0.09 -0.16 -0.17 -0.01 0.03 0.13 0.15 0.16z"/>
    <path class="fil3" d="M16.96 15.77l0.23 -0.1c-0.01,-0.01 -0.04,-0.04 -0.06,-0.06l0.29 -0.03 -0.26 -0.19 -0.19 0.38zm0.15 0.48l0.22 0c-0.25,-0.19 -0.1,-0.14 -0.19,-0.25 -0.03,0.03 -0.09,0.02 -0.1,0.07 -0,0.05 -0.04,0.07 -0.07,0.09l0.13 0.08z"/>
    <path class="fil3" d="M8.37 4.04l0.12 -0.01c-0.03,-0.07 -0.19,-0.32 -0.12,0.01z"/>
   </g>
   <g>
    <path class="fil4" d="M4.54 3.64l0.23 0.14 0.49 0.04c0.61,-0.06 0.27,0.03 0.33,-0.16l-0.59 0 -0.38 -0.1 -0.33 -0.06c0.2,0.25 -0.06,0.09 0.25,0.14zm1.46 0.25c-0.02,-0.01 -0.06,-0.06 -0.07,-0.04 -0.01,0.02 -0.06,-0.02 -0.07,-0.02 -0.26,0.03 -0.08,0 -0.19,0.08l0.33 -0.02z"/>
    <path class="fil4" d="M13.45 2.76l-0.55 0.12 0 0.16 0.17 -0.01 0.12 -0.05c0,-0.24 -0.04,-0.15 0.24,-0.11l0.2 0.02 0.22 -0.18 -0 -0.04 -0.13 -0.01 -0.27 0.11z"/>
    <path class="fil4" d="M5.86 6.18l0.02 0.17 -0.16 -0.03 -0.11 -0.01c0.01,0.19 0.06,0.15 -0.12,0.15l-0.09 0.11 -0.17 0c0.17,0.22 0.04,0.13 0.17,0l0.14 0.02 0.09 -0.01 0.11 -0.12 0.14 -0.1 0.41 -0.21 -0.42 0.05z"/>
    <path class="fil4" d="M13.6 5.92l0.05 0.02c0.24,0.01 0.19,0.07 0.18,-0.16l-0.13 0.04 -0.11 -0.16 -0.22 -0.02 -0.01 0.21 0.25 0.07zm0.25 0.12l-0.02 0 0.02 -0z"/>
    <path class="fil4" d="M12.1 7.07l0.15 -0c0.08,0.12 0.08,0.17 0.17,0.27l0.07 0.02 0 -0.12 -0.09 -0.16 -0.16 -0 -0.37 -0.28 -0.1 0.04c0.19,0.06 0.16,0.06 0.33,0.25z"/>
    <path class="fil4" d="M13.6 13.91l0.17 0 0.01 -0.46c-0.27,0.29 -0.18,0.05 -0.19,0.46z"/>
    <path class="fil4" d="M12.39 11.54c0.25,-0.2 0.15,0.31 0.22,-0.37 -0.29,0.1 -0.22,-0.19 -0.22,0.37z"/>
    <path class="fil4" d="M15.55 11.55c-0.33,0 -0.24,-0.08 -0.24,0.25 0.33,0.01 0.25,0.09 0.24,-0.25z"/>
    <path class="fil4" d="M6.01 1.35l0.17 0.01 0.02 0.12 0.03 0.1 0.04 0.15c0.19,-0.1 0.16,-0.01 -0.04,-0.15l0.01 -0.1 0 -0.09 -0.05 -0.04 -0.07 -0.1 -0.12 -0.16 -0.1 0.11 0.12 0.14zm0.54 0.49l-0.04 -0.07c-0.18,0.08 -0.16,0.02 0.04,0.07z"/>
    <path class="fil4" d="M9.07 11.34c-0.1,-0.21 0.2,-0.14 -0.31,-0.18 0.12,0.2 -0.23,0.16 0.31,0.18z"/>
    <path class="fil4" d="M12.12 13.07c-0.04,0.24 -0.1,0.21 0.13,0.16l0.14 -0.28 -0.27 0.12z"/>
    <polygon class="fil4" points="4.85,12.04 4.97,12.02 5,11.82 4.81,11.82 "/>
    <path class="fil4" d="M5.29 11.37c0.05,-0.23 0.09,-0.16 -0.17,-0.16l0.01 0.16 0.16 0z"/>
    <path class="fil4" d="M10.66 13.92c-0.21,-0.07 -0.16,-0.12 -0.17,0.08 0.24,0.05 0.22,0.13 0.17,-0.08z"/>
    <path class="fil4" d="M2.47 11.81c-0.02,-0.04 -0.06,-0.2 -0.07,-0.13 -0.01,0.03 -0.06,-0.01 -0.07,0 -0.02,0.02 -0.04,0.09 -0.07,0.13l0.21 0z"/>
   </g>
   <g>
    <path class="fil5" d="M14.29 14.48l-0.01 -3.33c-0.23,0.4 -0.11,2.02 -0.11,2.56 -0,0.03 -0,0.38 -0,0.38 0.05,0.51 0.02,0.21 0.13,0.38z"/>
    <path class="fil5" d="M17.33 12.49l-0.02 0.04c-0.29,0.52 -0.08,0.23 -0.01,0.39l0.01 -0.39c0.28,-0.36 0.33,-0.67 0.02,-0.96l0.01 0.92z"/>
    <path class="fil5" d="M8.4 14.46c0.16,-0.2 0.15,0.28 0.13,-0.37l0 -0.9 -0.09 0.01 -0.04 1.25z"/>
    <path class="fil5" d="M5.26 3.81l0.41 0.1c0.1,-0.07 -0.07,-0.04 0.19,-0.08 0.01,-0 0.06,0.05 0.07,0.02 0.01,-0.03 0.05,0.03 0.07,0.04 0.4,-0.32 -0.11,-0.22 -0.4,-0.24 -0.06,0.19 0.28,0.1 -0.33,0.16z"/>
    <path class="fil5" d="M4.01 11.96l0.13 0c-0.14,-0.29 -0.05,-0.08 0.1,-0.16l0.11 0.26c0.21,0.13 -0.31,0.13 0.27,0.11 0.57,-0.02 0.2,-0 0.36,-0.14l-0.12 0.02 -0.51 0.02c0.02,-0.52 0.03,-0.19 -0.11,-0.26 -0.04,-0.04 0.13,-0.3 -0.17,-0.02 -0.09,0.08 -0.05,-0.04 -0.06,0.18z"/>
    <path class="fil5" d="M13.62 14.45c0.21,-0.05 0.14,-0.35 0.15,-0.54l-0.17 0 0.02 0.54z"/>
    <polygon class="fil5" points="3.95,13.78 4.08,13.78 4.09,13.22 3.99,13.2 3.98,13.28 "/>
    <path class="fil5" d="M10.25 12.05c0.25,0 0.16,0.04 0.1,-0.26l0.15 -0.03 0.1 0.14 0.01 -0.17 -0.11 0.03 -0.03 -0.09c-0.21,0 -0.2,-0.06 -0.13,0.12l-0.1 0.26z"/>
    <polygon class="fil5" points="13.25,11.88 13.39,11.88 13.41,11.17 "/>
    <polygon class="fil5" points="13.02,11.89 13.16,11.89 12.99,11.19 "/>
    <path class="fil5" d="M11.79 0.77l0.22 0.01 -0.02 -0.09 -0.2 0.09 -0.17 0.33c0.22,-0.13 0.14,0.29 0.17,-0.33zm0.19 0.23c-0.17,0.08 -0.12,-0.02 -0.22,0.21l0.22 -0.21z"/>
    <polygon class="fil5" points="2.32,12.06 2.44,12.06 2.47,11.81 2.27,11.81 "/>
    <polygon class="fil5" points="1.67,12.16 1.8,12.16 1.82,11.57 "/>
    <path class="fil5" d="M10.98 11.27c0.01,0.19 -0.04,0.14 0.16,0.14 0.03,-0.24 0.08,-0.19 -0.16,-0.14l-0.15 -0.1c0,0.19 -0.04,0.14 0.15,0.1z"/>
    <path class="fil5" d="M17.23 11.28c-0.01,0.21 -0.07,0.17 0.11,0.17 0.02,-0.21 0.07,-0.17 -0.11,-0.17 0.02,-0.22 0.06,-0.16 -0.17,-0.12l0.17 0.12z"/>
    <path class="fil5" d="M12.41 7.33c-0.1,-0.1 -0.09,-0.15 -0.17,-0.27l-0.15 0c0.18,0.26 -0.2,0.08 0.32,0.26zm-0.01 -0.27l0.09 0.16 -0.09 -0.16z"/>
    <path class="fil5" d="M13.42 2.87c-0.28,-0.04 -0.24,-0.12 -0.24,0.11 0.28,0.02 0.24,0.1 0.24,-0.11z"/>
    <path class="fil5" d="M13.88 12.14l0.18 -0.73c-0.09,0.14 -0.04,-0.13 -0.13,0.27 -0.04,0.17 -0.04,0.29 -0.04,0.45z"/>
    <path class="fil5" d="M13.65 5.94l0.19 0.11 0.02 -0c0.46,0 0.12,0.06 0.09,-0.09 -0.08,-0.38 0.09,0.01 -0.11,-0.18 0,0.23 0.06,0.17 -0.18,0.16z"/>
    <path class="fil5" d="M5.89 11.67c0.02,-0.28 0.1,-0.24 -0.11,-0.24l-0.02 0.24 0.13 0z"/>
    <polygon class="fil5" points="13.78,13.2 13.95,12.78 13.8,12.78 "/>
    <polygon class="fil5" points="12.63,13.45 12.73,13.45 12.7,13.28 12.75,13.1 12.65,13.1 "/>
    <path class="fil5" d="M6.53 12.43l-0.13 0 0.01 0.2c0.2,0 0.13,0.04 0.12,-0.2z"/>
    <polygon class="fil5" points="13.15,12.93 13.27,12.93 13.28,12.72 13.14,12.72 "/>
    <path class="fil5" d="M4.56 14.45c0.54,-0.17 0.17,-0.01 0.32,-0.24 -0.22,0.1 -0.21,0.11 -0.32,0.24z"/>
    <path class="fil5" d="M3.2 14.47c0.38,0.01 0.09,-0.15 -0,-0.21l0 0.21z"/>
    <polygon class="fil5" points="4.81,11.82 5,11.82 4.84,11.57 "/>
    <path class="fil5" d="M13.72 2.65c-0.31,-0.03 -0.27,-0.13 -0.27,0.11l0.27 -0.11zm0.13 0.05l-0 -0.04 0 0.04 -0.22 0.18 0.22 -0.18z"/>
    <polygon class="fil5" points="12.12,12.84 12.26,12.53 12.13,12.53 "/>
    <polygon class="fil5" points="11.35,1.67 11.32,1.46 11.2,1.75 "/>
    <polygon class="fil5" points="9.7,14.03 9.71,13.82 9.58,13.82 "/>
    <polygon class="fil5" points="6.26,13.18 6.41,12.98 6.28,12.98 "/>
    <polygon class="fil5" points="6.02,11.93 5.93,11.93 5.92,12.01 5.94,12.18 "/>
    <polygon class="fil5" points="11.22,13.94 11.1,13.94 11.13,14.13 "/>
    <path class="fil5" d="M3.6 12.54l-0.13 -0.14c-0.01,0.2 -0.06,0.16 0.13,0.14z"/>
    <polygon class="fil5" points="13.03,5.69 13.03,5.56 12.87,5.57 "/>
    <path class="fil5" d="M5.6 6.3l-0.12 0.15c0.18,0 0.13,0.04 0.12,-0.15zm0.13 0.14l-0.11 0.12 0.11 -0.12z"/>
    <polygon class="fil5" points="4.99,13.97 4.87,13.97 4.86,14.11 "/>
    <polygon class="fil5" points="6,11.58 6.15,11.17 "/>
   </g>
   <g>
    <path class="fil6" d="M7.91 14.48l0.01 -3.32c-0.08,0.13 -0.08,0.01 -0.12,0.26 -0.08,0.46 -0.07,2.74 0.1,3.06z"/>
    <path class="fil6" d="M9.58 13.82l0.13 0 -0.01 -2.17c-0.2,0.34 -0.14,0.25 -0.13,1.04 0,0.38 -0,0.75 0.01,1.13z"/>
    <path class="fil6" d="M12.01 0.77l-0.22 -0.01c-0.03,0.62 0.05,0.2 -0.17,0.33l-0.31 0.37 0.04 0.21c0.17,-0.13 0.09,-0.04 0.24,-0.21 0.02,-0.02 0.15,-0.22 0.17,-0.26 0.1,-0.23 0.05,-0.13 0.22,-0.21l0.03 -0.22 0.11 -0.21 -0.13 0.11 0.02 0.09z"/>
    <path class="fil6" d="M14.98 13.81l-0.04 -0.73 0.48 -0.01 0.14 -0.14c0,-0.09 0.01,-0.18 -0.01,-0.24 -0.13,-0.45 0,-0.08 -0.12,-0.28l0.02 0.41c-0.03,0.02 -0.08,0 -0.09,0.04 -0.08,0.23 0.05,-0.03 -0.27,0.13 -0.37,0.19 -0.3,0.54 -0.11,0.82z"/>
    <path class="fil6" d="M12.26 12.53l-0.14 0.31 0 0.23 0.27 -0.12 0.01 -0.76c-0.13,0.13 -0.11,-0.22 -0.14,0.34z"/>
    <path class="fil6" d="M2.05 14.47c0.18,-0.23 0.15,-0.23 0.12,-0.52l0.42 0c-0.04,0.48 -0.09,0.35 0.16,0.51l-0.16 -0.51c-0.25,-0.19 0.5,-0.18 -0.44,-0.15l-0.1 0.66z"/>
    <path class="fil6" d="M9.31 12.7c0.27,-0.26 0.21,-0.76 0.01,-1.05l-0.01 1.05z"/>
    <path class="fil6" d="M16.73 11.77l-0.01 0.56 -0.27 -0.05c-0.05,0.42 0.23,0.08 0.27,0.05 0.08,-0.07 0.17,0.24 0.14,-0.28 -0.02,-0.28 -0.05,-0.19 -0.13,-0.28 0.03,-0.15 0.04,-0.12 -0.13,-0.03 -0.45,0.22 0.14,-0.38 -0.13,0.11l0.27 -0.08z"/>
    <path class="fil6" d="M4.86 12.98c-0.27,-0.55 -0.42,-0.52 -0.73,-1.02l-0.13 0c0.18,0.27 0.22,0.32 0.41,0.54 0.08,0.09 0.09,0.1 0.18,0.2 0.02,0.02 0.04,0.05 0.06,0.07l0.13 0.14c0.01,0.02 0.05,0.05 0.07,0.07z"/>
    <path class="fil6" d="M4.09 13.22l0.28 0.23c-0.23,-0.46 -0.43,-0.7 -0.77,-0.91 0.2,0.29 0.31,0.35 0.49,0.67z"/>
    <path class="fil6" d="M3.47 13.86l0.02 -0.56 0.5 -0.02 0.01 -0.08 -0.61 0.01c-0.04,0.48 -0.07,0.32 0.09,0.64z"/>
    <path class="fil6" d="M12.12 11.84c0,-0.15 0.03,-0.25 -0.02,-0.4 -0.11,-0.34 0.07,-0.04 -0.16,-0.26 0.01,0.07 0.04,0.31 0.05,0.36 0.08,0.26 0.08,0.2 0.13,0.3z"/>
    <path class="fil6" d="M0.75 13.07c0.11,0 0.2,0.01 0.27,-0.01 0.32,-0.12 0.1,0.11 0.28,-0.17 -0.02,0 -0.37,0.06 -0.38,0.06 -0.21,0.06 -0.16,0.05 -0.27,0.11l0.09 0.01z"/>
    <path class="fil6" d="M10.15 14.45l-0.14 -0.15c-0.02,-0.02 -0.06,-0.05 -0.07,-0.07 -0.11,-0.09 -0.12,-0.08 -0.24,-0.16 0.36,0.55 -0.22,-0.21 0.11,0.31 0.28,0.06 0.02,-0.03 0.35,0.07z"/>
    <path class="fil6" d="M3.9 14.46c-0.03,-0.02 -0.06,-0.05 -0.08,-0.06 -0.02,-0.01 -0.06,-0.05 -0.08,-0.06 -0.02,-0.02 -0.06,-0.05 -0.08,-0.06 -0.03,-0.03 -0.2,-0.16 -0.22,-0.18l0.09 0.31 0.36 0.06z"/>
    <path class="fil6" d="M12.73 13.45l0.16 0.44c0,-0.37 0.06,-0.42 -0.19,-0.6l0.03 0.16z"/>
    <path class="fil6" d="M8.72 11.76l0.1 0.2c0.06,-0.27 0.14,-0.26 -0.1,-0.2 0.02,-0.17 0.04,-0.16 -0.14,-0.05 -0.01,0.01 -0.05,0.04 -0.07,0.05 -0.02,0.01 -0.05,0.05 -0.06,0.09l0.27 -0.09z"/>
    <path class="fil6" d="M12.7 5.58l0.17 -0.01 0.02 -0.15c0.05,-0.18 0.08,-0.13 -0.1,-0.12l-0.04 0.15 -0.04 0.13z"/>
    <path class="fil6" d="M10.71 14.48l0.35 -0.08c0.1,-0.14 0.01,-0.06 0.07,-0.27 -0.02,0.02 -0.18,0.14 -0.21,0.16 -0.01,0 -0.07,0.28 -0.14,0.12 -0.01,-0.02 -0.05,0.04 -0.07,0.07z"/>
    <path class="fil6" d="M3.12 12.63l-0.17 -0.73c-0,0.34 -0.05,0.51 0.17,0.73z"/>
    <path class="fil6" d="M13.03 5.69l0.14 -0.02 0 -0.13c0.03,-0.18 0.06,-0.13 -0.14,-0.12l-0 0.14 -0 0.13z"/>
    <path class="fil6" d="M6.64 11.43c0.47,0 0.04,-0.25 0.02,-0.27l-0.02 0.27z"/>
    <polygon class="fil6" points="4.32,13.76 4.08,13.78 3.95,13.78 4.06,13.98 "/>
    <polygon class="fil6" points="13.25,12.39 13.39,11.88 13.25,11.88 "/>
    <path class="fil6" d="M12.49 7.22l-0 0.12 0.29 0.17c-0.15,-0.28 0,-0.13 -0.28,-0.29z"/>
    <path class="fil6" d="M8.78 12.35c-0.21,0 -0.14,-0.05 -0.14,0.19 0.22,-0.01 0.15,0.04 0.14,-0.19z"/>
    <polygon class="fil6" points="3.22,13.96 3.22,13.47 3.1,13.47 "/>
    <polygon class="fil6" points="2.47,12.82 2.6,12.82 2.42,12.37 "/>
    <path class="fil6" d="M8.53 13.19l0.42 -0.14c-0.48,0.01 -0.22,-0.07 -0.51,0.15l0.09 -0.01z"/>
    <polygon class="fil6" points="13.15,12.3 13.16,11.89 13.02,11.89 "/>
    <path class="fil6" d="M9.07 13.11c0.26,-0.11 0.13,0.1 0.26,-0.3 -0.14,0.12 -0.16,0.14 -0.26,0.3z"/>
    <polygon class="fil6" points="5.92,12.01 5.93,11.93 5.89,11.67 5.76,11.67 "/>
    <polygon class="fil6" points="13.8,12.78 13.95,12.78 13.91,12.42 "/>
    <polygon class="fil6" points="2.18,12.88 2.31,12.88 2.34,12.48 "/>
    <path class="fil6" d="M6.2 1.48l-0.02 -0.12 -0.17 -0.01c0.01,0.2 -0.03,0.14 0.19,0.14z"/>
    <polygon class="fil6" points="1.55,13.84 1.67,13.51 1.54,13.51 "/>
    <polygon class="fil6" points="1.68,12.45 1.8,12.16 1.67,12.16 "/>
    <polygon class="fil6" points="13.27,12.93 13.15,12.93 13.21,13.19 "/>
    <polygon class="fil6" points="11.24,11.81 11.24,11.58 11.12,11.58 "/>
    <polygon class="fil6" points="6.39,12.43 6.53,12.43 6.54,12.22 "/>
    <polygon class="fil6" points="11.1,13.94 11.22,13.94 11.24,13.72 "/>
    <polygon class="fil6" points="6.41,12.98 6.39,12.78 6.28,12.98 "/>
    <path class="fil6" d="M4.66 11.28c0,-0.2 0.04,-0.14 -0.16,-0.13l0.16 0.13z"/>
    <path class="fil6" d="M10.1 11.16c-0.22,-0 -0.18,-0.06 -0.18,0.12l0.18 -0.12z"/>
    <path class="fil6" d="M17.35 12.96l-0.05 -0.03c-0.07,-0.16 -0.28,0.12 0.01,-0.39l0.02 -0.04 -0.23 0.33 0.25 0.13z"/>
    <path class="fil6" d="M9.21 1.17l-0.13 0c0.12,0.28 0.01,0.28 0.13,0z"/>
    <polygon class="fil6" points="4.99,13.97 4.98,13.77 4.87,13.97 "/>
    <polygon class="fil6" points="10.61,11.73 10.48,11.67 10.5,11.76 "/>
    <polygon class="fil6" points="9.35,11.51 9.22,11.36 "/>
    <polygon class="fil6" points="11.6,12.5 11.5,12.13 "/>
    <polygon class="fil6" points="5,13.33 4.86,13.06 "/>
    <polygon class="fil6" points="12.75,13.1 12.65,13.1 "/>
   </g>
   <g>
    <path class="fil7" d="M16.96 15.77c-0.04,-0.01 -0.08,-0.01 -0.11,-0.02 -0.02,-0.01 -0.08,-0.02 -0.11,-0.02 -0.03,-0.01 -0.17,-0.05 -0.21,-0.07l-0.09 -0.26 -0.22 0.1c0.27,0.05 0.19,0.02 0.31,0.17l0.19 0.61 0.38 -0.02 -0.13 -0.08c0.03,-0.03 0.06,-0.05 0.07,-0.09 0.01,-0.05 0.07,-0.04 0.1,-0.07 0.09,0.11 -0.06,0.06 0.19,0.25l0.15 0.01c0.07,-0.24 0.07,-0.09 0.04,-0.35 -0,-0.03 -0.06,-0.15 -0.06,-0.21 -0,-0.06 -0.03,-0.08 -0.04,-0.11l-0.29 0.03c0.02,0.02 0.05,0.05 0.06,0.06l-0.23 0.1z"/>
    <path class="fil7" d="M8.04 15.47c0.34,0.1 0.17,-0.13 0.32,0.29 0.01,-0.02 0.12,-0.15 0.17,-0.2 0.01,-0.01 0.06,-0.03 0.07,-0.07 0.01,-0.05 0.05,-0.05 0.12,-0.06l-0.29 0.82 0.46 0.01 0.1 -0.89 -0.96 0.09 -0.44 -0.14 0.01 0.07c0.35,0.25 0.18,-0.31 0.34,0.35l0.08 -0.29z"/>
    <path class="fil7" d="M12.5 15.47l0.22 0.78 0.38 -0.02 -0.06 -0.71 0.05 -0.15 -0.05 0.02 0 0.13 -0.29 0.15c-0.21,-0.36 -0.08,0.24 -0.16,-0.14 -0.01,-0.05 -0.07,-0.03 -0.09,-0.06z"/>
    <path class="fil7" d="M9.14 15.96c0.46,0.23 0.11,-0.02 0.32,0.28 0.16,-0.17 0.07,-0.06 0.28,-0.16l-0.03 -0.58 0.15 -0.13c-0.21,-0.03 -0.17,-0.08 -0.15,0.13 -0.12,-0.03 -0.13,-0 -0.31,-0.1 -0.1,0.52 0.26,-0.47 -0.07,0.16 -0.01,0.02 -0.07,0.08 -0.08,0.1 -0.01,0.03 -0.27,-0.02 0.18,0.04 0,0.32 0.07,0.2 -0.29,0.26z"/>
    <path class="fil7" d="M11.98 4.61c0.38,-0.33 0.32,-1.04 -0.04,-1.37l0.04 1.37z"/>
    <path class="fil7" d="M11.22 2.13l-0.06 0.18 0.2 -0.07 -0.04 0.16 0.19 -0.06 -0.04 0.18 0.15 -0.03 -0.04 0.17 0.15 -0.02 0.06 0.27c0.04,0.39 -0.01,-0.03 0.23,0.16l-0.05 -0.36c-0.06,-0.29 -0.03,0 -0.24,-0.07 0.09,-0.25 0.14,-0.22 -0.11,-0.15 0.08,-0.26 0.15,-0.24 -0.1,-0.15 0.08,-0.25 0.1,-0.19 -0.15,-0.11 0.08,-0.28 0.12,-0.23 -0.14,-0.11 0.13,-0.21 0.1,-0.11 -0.19,-0.12l0.03 0.13 0.16 -0.01z"/>
    <path class="fil7" d="M8.42 1.99c0.12,-0 0.25,0.02 0.38,-0.02 0.28,-0.08 0.11,-0.01 0.25,-0.13l1.11 0.04c-0.16,-0.16 -0.73,-0.35 -1.11,-0.04 -0.41,-0.09 -0.4,-0.04 -0.63,0.15z"/>
    <path class="fil7" d="M5.89 16.24l0.05 -0.82 0.32 -0.03 0.18 0.07 0.02 0.44 -0.11 0.15c0.2,0.06 0.14,0.07 0.11,-0.15l0.08 -0.02 -0.06 -0.41 -0.05 -0.01 -0.18 -0.07c-0.23,-0.28 -0.21,-0.23 -0.32,0.03 -0.19,0.07 -0.13,-0.25 -0.18,0.33 -0.03,0.36 0.05,0.35 0.13,0.49z"/>
    <path class="fil7" d="M7.35 15.41c-0.03,0.03 -0.09,0.02 -0.11,0.09 -0.15,0.48 -0.03,-0.23 -0.38,0.38l0.52 -0.21c0.02,-0.03 0.06,-0.07 0.09,-0.11l-0.11 0.53 0.3 -0.19 -0.19 -0.34c0.08,-0.24 0.12,-0.18 -0.13,-0.15l-0.01 -0.09 -0.16 0.04 0.17 0.05z"/>
    <path class="fil7" d="M8.05 7.47l-0.28 -0.5c-0.19,0.04 -0.15,0.08 -0.14,-0.1 -0.18,-0.01 -0.14,0.03 -0.1,-0.15 -0.19,-0.01 -0.15,0.04 -0.1,-0.16 -0.2,0.01 -0.15,0.05 -0.11,-0.15 -0.02,-0.02 -0.07,-0.08 -0.08,-0.06 -0.02,0.02 -0.07,-0.05 -0.09,-0.06 -0.02,-0.02 -0.07,-0.04 -0.1,-0.07 0.01,0.04 0.03,0.06 0.04,0.12l0.24 0.45c0.02,0.02 0.04,0.05 0.05,0.07 0.02,0.02 0.04,0.05 0.06,0.07l0.6 0.54z"/>
    <path class="fil7" d="M15.51 15.79c0.06,0.02 0.21,-0.24 0.05,0.13 -0.4,0.08 -0.1,0 0.17,0.33l0.03 -0.02c-0.06,-0.36 -0.02,-0.52 -0.02,-0.87l-0.04 -0.02c-0.06,0.13 -0.09,0.21 -0.12,0.26 -0.01,0.02 -0.03,0.1 -0.04,0.09 -0.01,-0.02 -0.03,0.06 -0.04,0.08z"/>
    <path class="fil7" d="M7.03 2.52l-0.06 0.23c0.3,-0.11 0.07,-0.04 0.38,-0.05 -0.13,-0.33 -0.16,-0.28 0.15,-0.12 -0.06,-0.24 -0.09,-0.19 0.14,-0.11l-0.02 -0.16 -0.17 -0.02c-0.1,0.07 -0.02,0.03 -0.24,0.15 -0.02,0.01 -0.15,0.07 -0.19,0.08z"/>
    <path class="fil7" d="M13.4 16.02c0.14,-0.32 0.17,-0.02 0,-0.43 -0.35,0.27 -0.26,0.24 0,0.43z"/>
    <polygon class="fil7" points="7.95,16.22 8.36,16.23 8.15,15.94 "/>
    <path class="fil7" d="M9.89 16.24l0.35 0.02 -0.14 -0.25c-0.22,0.14 -0.11,-0.2 -0.21,0.24z"/>
    <path class="fil7" d="M14.54 16.29c0.01,-0.07 0.05,-0.17 -0.08,-0.43l-0.29 0.15c0.35,0.07 0.18,-0.02 0.37,0.28z"/>
    <path class="fil7" d="M8 9.07l0.16 0.02c0.02,-0.54 0.02,-0.2 -0.15,-0.32l-0 0.3z"/>
    <path class="fil7" d="M6.04 15.79c0.14,0.17 0.42,-0.28 0.13,-0.1 -0,0 -0.33,-0.15 -0.13,0.1z"/>
   </g>
   <g>
    <path class="fil8" d="M11.19 15.96c0.11,0.12 0.2,-0.05 0.41,0.3l0.26 0.01 -0.01 -0.93 -0.2 0 -0.19 0.27 -0.1 -0.1c0.01,-0.21 0.05,-0.16 -0.15,-0.11l-0.03 -0.12c-0.3,0.05 -0.29,-0.06 -0.23,0.17 -0,0 -0.17,0.07 -0.1,0.42 0.12,0.6 -0.05,0.16 0.25,0.35l-0.16 -0.77 0.25 -0.05 0.15 0.11 0.31 0.31c-0.03,0.02 -0.06,0.05 -0.09,0.06 -0.03,0.01 -0.07,0.02 -0.1,0.02 -0.73,0.15 -0.05,0.03 -0.24,-0.15l-0.05 0.21z"/>
    <path class="fil8" d="M11.15 6.1l-0.05 0.28c0.18,-0.12 0.12,-0.05 0.27,-0.19 0.14,-0.13 0.07,-0.06 0.18,-0.21 0.07,-0.11 0.15,-0.33 0.23,-0.58 -0.46,0.37 -0.17,0.48 -0.63,0.7z"/>
    <path class="fil8" d="M17.87 15.48l0.09 0.16c0.15,0.22 0.03,0.23 0.19,0.01l0.24 -0.12 0.02 -0.2 -0.26 0.06 -0 0.26 -0.19 -0.01 -0.09 -0.16 -0.17 -0.01 0.17 0.01zm0.47 0.06l-0.15 0.17c0.19,0 0.13,0.04 0.15,-0.17zm-0.46 0.22l-0.15 -0.16 0.15 0.16z"/>
    <path class="fil8" d="M6.11 1.26l0.07 0.1 0.05 0.04 -0.12 -0.14c-0.18,-0.4 -0.07,-0.17 -0.26,-0.28 -0.03,0.17 -0.05,0.13 -0.01,0.22 0.14,0.27 -0.04,0 0.16,0.16l-0.12 -0.14 0.1 -0.11 0.12 0.16z"/>
    <polygon class="fil8" points="12.63,5.42 12.7,5.58 12.75,5.44 12.63,5.42 12.64,5.31 "/>
   </g>
   <g>
    <path class="fil9" d="M9.76 8.15c0.2,-0.22 0.06,0.27 0.18,-0.29l0.01 -1.82 -0.08 -0.41c-0.28,0.15 -0.17,2.12 -0.12,2.52z"/>
    <path class="fil9" d="M8.69 9.7l0 0.24 0.75 0.01 0.61 -0.11c-0.04,-0.34 0.04,-0.07 -0.09,-0.18l-1.28 0.04z"/>
    <path class="fil9" d="M8.49 4.03l-0.12 0.01c-0.06,-0.33 0.09,-0.08 0.12,-0.01zm-0.22 0.12l0.34 0.35 0.07 -0.74 0 -0.2 -0.46 0.09 0.05 0.5zm0.12 0.27c0.05,-0.2 0.09,-0.18 -0.09,-0.1l0.09 0.1z"/>
    <path class="fil9" d="M8.45 9.09c0.74,0.11 0.96,0.07 1.63,-0.1l0.08 -0.12 -0.53 -0c-0.42,0.2 -0.29,-0.02 -0.95,0.11l-0.23 0.11z"/>
    <path class="fil9" d="M8.74 10.39l1.02 0.02c-0.46,-0.3 -0.35,-0.12 -0.85,-0.19l-0.34 -0.05 0.18 0.22zm1.23 -0.1l0 -0.15 -0.31 -0 0.3 0.15z"/>
    <path class="fil9" d="M7.93 4.75l-0.06 0.07 -0.04 0.27 0.35 0.1 -0.07 -0.12c-0.02,-0.02 -0.16,-0.06 -0.18,-0.33zm0.35 0.03l-0.06 -0.01 0.06 0.01z"/>
   </g>
   <g>
    <path class="fil10" d="M7.35 15.41l-0.17 -0.05 -0.1 0.02 -0.33 0.08 -0.09 0.46 -0.06 0.11 0.25 0.29 0.45 -0.04 0.08 -0.19 0.11 -0.53c-0.03,0.03 -0.07,0.08 -0.09,0.11l-0.52 0.21c0.34,-0.61 0.23,0.1 0.38,-0.38 0.02,-0.06 0.07,-0.05 0.11,-0.09z"/>
    <path class="fil10" d="M7.93 16.3l0.02 -0.08 0.2 -0.29 0.2 0.29 0.07 0.02 0.29 -0.82c-0.07,0.01 -0.11,0.01 -0.12,0.06 -0.01,0.05 -0.06,0.06 -0.07,0.07 -0.04,0.05 -0.15,0.18 -0.17,0.2 -0.15,-0.43 0.03,-0.19 -0.32,-0.29l-0.08 0.29c-0.16,-0.66 0,-0.11 -0.34,-0.35 0.08,0.38 0.2,0.64 0.32,0.9z"/>
    <path class="fil10" d="M8.04 8.25l-0.04 0.53c0.17,0.12 0.18,-0.22 0.15,0.32l-0.16 -0.02 -0.02 0.44c0.3,-0.04 0.24,-0.09 0.12,0.2 0.24,-0 0.2,-0.3 0.13,0.23l0.29 -0.09c-0.3,-0.04 -0.03,0.07 -0.15,-0.26l0.01 -0.17c-0.29,0.09 -0.19,0.04 -0.22,-0.34l0.22 0.01 0.07 -0.01 0.23 -0.11c0.66,-0.13 0.52,0.09 0.95,-0.11l-1.43 -0.05 -0.07 -0.2c0.64,-0.76 -0.4,0.33 0.16,-0.51l-0.24 0.14z"/>
    <path class="fil10" d="M9.71 15.49l0.03 0.58c0.06,0.2 -0.15,0.14 0.14,0.16 0.1,-0.44 -0.01,-0.1 0.21,-0.24l0.14 0.25c0.17,-0.3 0.25,-0.37 0,-0.8l-0.39 -0.09 -0.15 0.13z"/>
    <path class="fil10" d="M8.9 10.21c0.51,0.07 0.39,-0.11 0.85,0.19l-1.02 -0.02c0.15,0.17 -0.05,0.11 0.26,0.21 0.44,0.15 0.74,-0.09 0.97,-0.31l-0.3 -0.15 0.31 0 0.08 -0.3 -0.61 0.11c0.16,0.18 -0.14,-0.6 0.13,0.34l-0.67 -0.07z"/>
    <path class="fil10" d="M13.4 15.58c0.17,0.41 0.14,0.11 0,0.43 -0.26,-0.19 -0.35,-0.16 0,-0.43zm-0.35 -0.06l0.06 0.71 0.41 0.05c0,-0.22 -0.05,-0.18 0.16,-0.13l-0.02 -0.58 -0.56 -0.19 -0.05 0.15z"/>
    <path class="fil10" d="M12.2 15.45l-0.17 0.82c0.41,-0.17 0.27,-0.2 0.69,-0.02l-0.22 -0.78 -0.04 -0.09 -0.07 -0.04c0,0.22 0.04,0.15 -0.19,0.11z"/>
    <path class="fil10" d="M6.04 15.79c-0.2,-0.25 0.13,-0.1 0.13,-0.1 0.29,-0.18 0.01,0.27 -0.13,0.1zm-0.16 0.45l0.16 0.08 0.07 -0.24 0.22 -0.01 0.11 -0.15 -0.02 -0.44 -0.18 -0.07 -0.32 0.03 -0.05 0.82z"/>
    <path class="fil10" d="M15.99 16.23c0.48,-0.14 0.24,-0.13 0.73,0.03l-0.19 -0.61c-0.13,-0.15 -0.05,-0.11 -0.31,-0.17l-0.23 0.74z"/>
    <path class="fil10" d="M8.89 16.26l0.56 -0c-0.39,-0.1 -0.17,0.04 -0.31,-0.3 0.36,-0.06 0.29,0.06 0.29,-0.26 -0.45,-0.06 -0.18,-0.01 -0.18,-0.04 0,-0.01 0.06,-0.08 0.08,-0.1 0.33,-0.63 -0.03,0.36 0.07,-0.16l-0.41 -0.02 -0.1 0.89z"/>
    <path class="fil10" d="M11.1 16.22l-0.01 0.04 0.1 -0.3 0.05 -0.21c0.19,0.18 -0.49,0.3 0.24,0.15 0.02,-0 0.07,-0.01 0.1,-0.02 0.03,-0.01 0.07,-0.05 0.09,-0.06l-0.31 -0.31 -0.15 -0.11 -0.25 0.05 0.16 0.77z"/>
    <path class="fil10" d="M15.1 15.87l0.41 -0.08 0.05 0.13c0.16,-0.37 0.01,-0.12 -0.05,-0.13 0.01,-0.03 0.03,-0.1 0.04,-0.08 0.01,0.02 0.03,-0.07 0.04,-0.09 0.03,-0.06 0.06,-0.13 0.12,-0.26l-0.56 -0.01 -0.05 0.52z"/>
    <path class="fil10" d="M13.89 15.87l0.52 0c-0.06,-0.36 -0.17,-0.33 0.11,-0.3l-0.03 -0.15c-0.53,-0.1 -0.41,-0.16 -0.57,0.19l-0.03 0.25z"/>
    <path class="fil10" d="M8.67 3.75l-0.07 0.74 0.29 -0.04 0.08 -0.34 -0.05 -0.35c0.08,-0.2 -0.1,-0.12 0.16,-0.18l-0.41 0.18z"/>
    <path class="fil10" d="M9.73 3.67l-0.31 -0.15 -0.07 0.39 0.02 0.17c0.03,0.21 0.08,0.17 -0.13,0.17l0.2 0.19c0.28,-0.12 0.14,-0.02 0.27,-0.27 -0.04,-0.03 -0.45,-0.34 -0.02,-0.34l0.04 -0.16 0.08 0 0.18 -0.21 -0.26 0.21z"/>
    <path class="fil10" d="M13.91 16.29l0.63 0.01c-0.2,-0.3 -0.03,-0.2 -0.37,-0.28l0.29 -0.15 -0.05 0.01 -0.52 0 0.02 0.41z"/>
    <path class="fil10" d="M15.73 16.26c-0.27,-0.33 -0.57,-0.25 -0.17,-0.33l-0.05 -0.13 -0.41 0.08 0.01 0.41 0.63 -0.02z"/>
    <path class="fil10" d="M8.22 4.77l0.06 0.01 0.15 -0.05 -0.04 -0.31 -0.09 -0.1 -0.02 -0.17 -0.05 -0.5 -0.27 0.24c0.26,0.22 0.11,-0.12 0.23,0.28 0.03,0.1 0.03,0.44 0.03,0.6z"/>
    <path class="fil10" d="M10.37 4.45c-0.12,-0.19 0.09,-0.1 -0.26,-0.25l-0.22 -0.29c-0.02,-0.02 -0.06,-0.06 -0.08,-0.1l0.24 0.7c0.01,0.02 0.03,0.06 0.05,0.09l0.28 -0.16z"/>
    <path class="fil10" d="M6.75 3.27l0.28 0 0.05 -0.13 -0.02 -0.29 -0.21 0.07c-0.26,0.04 -0,0.01 -0.11,0.35z"/>
    <path class="fil10" d="M9.45 16.26l0.01 -0.02c-0.21,-0.3 0.14,-0.05 -0.32,-0.28 0.14,0.34 -0.08,0.21 0.31,0.3z"/>
    <path class="fil10" d="M10.3 4.78l0.07 -0.04c-0.01,0 -0.09,0.02 -0.07,0.04z"/>
   </g>
   <g>
    <path class="fil11" d="M10.25 12.05l-0.01 1.58 0.11 0.2c0.13,-0.06 0.11,0 0.26,-0.14l0 -1.8 -0.1 -0.14 -0.15 0.03c0.05,0.31 0.15,0.26 -0.1,0.26z"/>
    <path class="fil11" d="M8.63 12.54c0,-0.24 -0.07,-0.19 0.14,-0.19l0.04 -0.39 -0.1 -0.2 -0.27 0.09 0.03 0.46c0.05,0.29 -0.05,0.13 0.16,0.23z"/>
    <path class="fil11" d="M2.34 12.48l-0.03 0.4c-0.05,0.77 -0.07,0.24 0.18,0.44l-0.02 -0.5 -0.05 -0.45 0.02 -0.31 -0.13 0 0.02 0.42z"/>
    <polygon class="fil11" points="16.46,12.28 16.73,12.33 16.73,11.77 16.47,11.84 "/>
   </g>
   <g>
    <path class="fil12" d="M10.05 9.84l-0.08 0.3 -0 0.15c-0.23,0.22 -0.53,0.46 -0.97,0.31 -0.3,-0.1 -0.1,-0.04 -0.26,-0.21l-0.18 -0.22 -0.26 0.02 -0.06 -0.25c0.07,-0.53 0.11,-0.24 -0.13,-0.23 0.11,-0.29 0.17,-0.23 -0.12,-0.2 -0.07,0.29 -0.15,0.27 0.12,0.2 -0.29,0.81 0.14,0.45 0.19,0.48l0.19 0.37c0,0.01 0.01,0.05 0.02,0.06 0.17,0.38 -0.19,-0.02 0.09,0.1 0.01,0 0.05,0.01 0.06,0.01 0.86,0.31 1.43,0.03 1.71,-0.82 0.41,-1.22 -0.06,-1.11 -0.01,-1.94 0.03,-0.37 0.15,-0.41 0.35,-0.65l0.38 -0.68c0.01,-0.03 0.02,-0.08 0.03,-0.13l-0.67 0.69c-0.79,1.35 0.49,1.88 -0.4,2.64z"/>
    <path class="fil12" d="M15.74 15.38c-0,0.34 -0.04,0.51 0.02,0.87l0.23 -0.01 0.23 -0.74 0.22 -0.1 0.09 0.26c0.04,0.02 0.18,0.06 0.21,0.07 0.02,0.01 0.08,0.02 0.11,0.02 0.02,0.01 0.07,0.01 0.11,0.02l0.19 -0.38 0.26 0.19c0.01,0.04 0.04,0.05 0.04,0.11 0,0.06 0.06,0.18 0.06,0.21 0.03,0.27 0.03,0.11 -0.04,0.35l0.52 0.01 -0.12 -0.51 -0.15 -0.16 -0.03 -0.13 0.17 0.01 0.09 0.16 0.19 0.01 0 -0.26c-0.74,-0.37 -0.32,-0.06 -1.16,-0.15 -0.51,-0.05 0.15,-0.16 -0.56,-0.03 -0.28,0.05 -0.46,0.11 -0.68,0.16z"/>
    <path class="fil12" d="M13.05 15.39l-0.59 -0.02 0.04 0.09c0.03,0.03 0.08,0.01 0.09,0.06 0.09,0.39 -0.04,-0.21 0.16,0.14l0.29 -0.15 -0 -0.13 0.05 -0.02 0.56 0.19 0.26 0.06c0.16,-0.35 0.04,-0.29 0.57,-0.19l0.03 0.15c-0.29,-0.03 -0.17,-0.06 -0.11,0.3 0.26,0 0.15,0.04 0.11,-0.3 0.34,0.05 0.07,-0.11 -0.03,-0.15 -0.02,-0.03 -0.05,-0.11 -0.06,-0.09 -0.02,0.06 -0.09,-0.13 -0.11,-0.16 -0.05,-0.08 -0.08,-0.15 -0.07,-0.23 -0.03,0.02 -0.07,0.02 -0.08,0.06 -0.11,0.3 -0.94,0.04 -0.95,0.04l-0.17 0.35z"/>
    <path class="fil12" d="M18.34 15.54c-0.02,0.22 0.04,0.17 -0.15,0.17l-0.1 0.55 0.79 0.09c-0.12,-0.56 -0.18,-0.37 -0.04,-0.74l-0.37 -0.22c-0.01,-0.01 -0.04,-0.05 -0.07,-0.07l-0.02 0.2 -0.04 0.01z"/>
    <path class="fil12" d="M6.48 15.48l0.06 0.41 -0.08 0.02c0.03,0.23 0.1,0.21 -0.11,0.15l-0.22 0.01 -0.07 0.24c0.44,-0.13 0.38,-0.13 0.48,-0.43l0.12 0.04 0.09 -0.46 0.33 -0.08c-0.12,-0.52 0.01,-0.14 -0.22,-0.29 -0.04,0.05 -0.03,0.06 -0.16,0.19 -0.17,0.17 -0.08,0.07 -0.22,0.19zm0.36 0.85l-0.25 -0.29 -0.06 0.16 0.31 0.13z"/>
    <path class="fil12" d="M11.87 16.27l0.16 -0.01 0.17 -0.82c0.24,0.04 0.19,0.11 0.19,-0.11 -0.31,-0.06 -0.32,-0.17 -0.19,0.11 -0.25,-0.2 0.07,-0.05 -0.35,-0.1l0.01 0.93z"/>
    <path class="fil12" d="M7.48 15.56l0.19 0.34 -0.3 0.19 -0.08 0.19 0.65 0.02c-0.12,-0.26 -0.24,-0.52 -0.32,-0.9l-0.01 -0.07 -0.26 -0.01 0.01 0.09c0.25,-0.03 0.2,-0.08 0.13,0.15z"/>
    <path class="fil12" d="M13.68 16.14c-0.22,-0.05 -0.16,-0.1 -0.16,0.13 0.28,0.04 0.27,0.12 0.16,-0.13 -0,0.32 -0.06,0.08 0.23,0.14l-0.02 -0.41 0.03 -0.25 -0.26 -0.06 0.02 0.58z"/>
    <path class="fil12" d="M7.45 2.28l-0.34 0.04 -0.08 0.2c0.04,-0.02 0.17,-0.07 0.19,-0.08 0.22,-0.13 0.14,-0.09 0.24,-0.15l0.17 0.02c0.56,-0.25 0.19,-0.09 0.36,-0.34 -0.44,0.06 -0.34,0.01 -0.53,0.32z"/>
    <path class="fil12" d="M11.09 16.27l0.51 -0c-0.21,-0.35 -0.3,-0.18 -0.41,-0.3l-0.1 0.3z"/>
    <path class="fil12" d="M11.36 15.52l0.1 0.1 0.19 -0.27 -0.48 -0.06 0.03 0.12c0.2,-0.05 0.16,-0.09 0.15,0.11z"/>
   </g>
   <g>
    <path class="fil13" d="M8.13 8.61c0.43,-0.18 0.6,-0.13 1.06,-0.13 0.34,0 0.68,0 1.03,0l-0.07 0.38 -0.08 0.12 -0.03 0.48 -1.67 -0.04 0 -0.33 -0.22 -0.01c0.03,0.38 -0.07,0.43 0.22,0.34l-0.01 0.17 0.38 0.04 -0.06 0.06 1.28 -0.04c0.13,0.11 0.06,-0.15 0.09,0.18 0.88,-0.76 -0.4,-1.29 0.4,-2.64l0.67 -0.69 -0.02 -0.12 0.05 -0.28c0.46,-0.22 0.17,-0.33 0.63,-0.7l0.2 -0.78 -0.04 -1.37 0.07 -0.16c-0.25,-0.19 -0.19,0.23 -0.23,-0.16l-0.06 -0.27 -0.15 0.02 0.04 -0.17 -0.15 0.03 0.04 -0.18 -0.19 0.06 0.04 -0.16 -0.2 0.07 0.06 -0.18 -0.16 0.01 -0.03 -0.13 -0 -0.02 0.03 0.15 0.11 0.18 0.16 0.09 0.15 0.13 0.1 0.14 0.05 0.47c-0.03,0.4 0.05,0.16 0.1,0.54l0 0.42c-0,0.04 -0.01,0.07 -0.02,0.11 -0.16,1.52 -0.24,0.81 -0.56,1.89 -0.32,0.3 -0.47,0.42 -1,0.55l-0.06 -1.41 -0.15 0.8 -0.01 1.82 0.07 0.36 -1.57 -0.02c0.5,-0.51 0.02,-1.77 0.36,-2.43l0.02 2.41c0.11,-0.84 -0.06,-1.19 0.06,-2 0.16,-1.08 -0.17,-0.31 -0.19,-1.51 0.43,0.1 0.39,0.06 0.62,0.25 -0.18,-0.07 -0.16,-0.16 0.08,-0.15l0.2 0.02c0.01,-0.03 0.06,0 0.13,0l-0.13 3.35 0.16 0c-0.05,-0.4 -0.17,-2.37 0.12,-2.52l0.05 -0.93c-0.43,-0.28 -0.36,-0.02 -0.77,-0.26 -0.16,0.18 0.03,0.07 -0.25,0.18 -0.19,0.08 -0.15,0.04 -0.34,0.03l-0.02 0.2 0.08 0.41c0.17,0.42 0.21,0.37 -0.09,0.58 0.02,0.68 0.17,1.55 0,2.09 -0.27,-0.21 -0.31,-0.21 -0.38,-0.6 -0.01,-0.09 0.01,-0.51 0.01,-0.63l-0.4 0.27 -0.14 -0.1 -0.1 -0.15 -0.1 -0.16 -0.11 -0.15c-0.2,-0.36 0.01,-0.17 -0.37,-0.27 -0.14,-0.98 -0.88,-2.16 0.08,-2.88l-0.28 0c-0.63,0.53 -0.25,2.27 0.21,2.88l0.11 0.08c0.03,0.03 0.07,0.05 0.1,0.07 0.02,0.01 0.07,0.09 0.09,0.06 0.02,-0.02 0.06,0.03 0.08,0.06 -0.04,0.2 -0.08,0.16 0.11,0.15 -0.05,0.2 -0.1,0.16 0.1,0.16 -0.04,0.18 -0.08,0.14 0.1,0.15 -0.01,0.18 -0.05,0.14 0.14,0.1l0.28 0.5c0.16,0.33 0.29,0.47 -0.01,0.78l0.24 -0.14c-0.56,0.83 0.48,-0.25 -0.16,0.51z"/>
    <path class="fil13" d="M8.13 8.61l0.07 0.2 1.43 0.05 0.53 0 0.07 -0.38c-0.35,-0 -0.69,0 -1.03,-0 -0.46,-0.01 -0.63,-0.06 -1.06,0.13z"/>
    <path class="fil13" d="M10.35 4.46c0.4,0.08 0.2,-0.06 0.39,0.21 -0.13,0.21 0.08,0.14 -0.18,0.22 -0.35,0.12 -0.16,0.04 -0.51,-0.01l-0.04 0.4c0.35,-0.1 0.63,-0.11 0.97,-0.23l-0.02 -0.89c-0.22,0.04 -0.15,0.03 -0.18,0.02 -0.01,-0 -0.04,-0.02 -0.06,-0.03l-0.18 -0.1c-0.03,-0.01 -0.08,-0.04 -0.12,-0.06l-0.07 0.47z"/>
    <path class="fil13" d="M8.3 10.19l0.26 -0.02 0.34 0.05 0.67 0.07c-0.27,-0.94 0.03,-0.16 -0.13,-0.34l-0.75 -0.01 -0.17 -0.08 -0.29 0.09 0.06 0.25z"/>
    <path class="fil13" d="M10.52 5.94l0.39 0c-0.71,-0.57 -0.25,-0.12 -0.39,0z"/>
    <path class="fil13" d="M7.41 5.72l0.04 -0.28c-0.08,0.06 -0.47,0.14 -0.04,0.28z"/>
   </g>
   <g>
    <path class="fil14" d="M11.47 11.48l0.03 0.65 0.11 0.37 0.01 0.91 0.13 0.55 0 0.5 0.74 0.01 0.17 -0.49 -0.03 -0.53 0.02 -0.34 0.1 0 -0.05 0.18c0.25,0.18 0.19,0.24 0.19,0.6l-0.01 0.59 0.74 -0.02 -0.02 -0.54c0,-0.41 -0.09,-0.17 0.19,-0.46l-0.01 -0.26 0.02 -0.42 0.11 -0.36 -0.03 -0.28c0.01,-0.17 0,-0.28 0.04,-0.45 0.1,-0.4 0.05,-0.14 0.13,-0.27 -0.12,-0.26 -0.01,-0.16 -0.28,-0.25l-0.37 0.01 -0.02 0.7 -0.14 0.52 0.03 0.33 -0.01 0.21 -0.06 0.26 -0.06 -0.26 -0.01 -0.21 0.01 -0.42 -0.13 -0.4 -0.04 -0.71 -0.38 -0.02c-0.07,0.69 0.03,0.17 -0.22,0.37l0.01 0.65 -0.01 0.76 -0.14 0.28c-0.23,0.05 -0.17,0.08 -0.13,-0.16l-0 -0.23 0.01 -0.31 -0.01 -0.69c-0.05,-0.09 -0.05,-0.03 -0.13,-0.3 -0.02,-0.06 -0.04,-0.29 -0.05,-0.36l-0.47 -0.03 0 0.33z"/>
    <path class="fil14" d="M16.46 12.28l0.01 -0.44c0.27,-0.49 -0.32,0.11 0.13,-0.11 0.17,-0.09 0.17,-0.12 0.13,0.03 0.08,0.09 0.11,-0 0.13,0.28 0.04,0.52 -0.06,0.21 -0.14,0.28 -0.04,0.03 -0.32,0.37 -0.27,-0.05zm0.89 0.68l-0.25 -0.13 0.23 -0.33 -0.01 -0.92 0.01 -0.11c-0.18,0 -0.13,0.04 -0.11,-0.17l-0.17 -0.12 -1.26 -0 0.02 3.3 0.65 0.01 -0 -1.53c0.9,0.41 -0.56,1.53 0.9,1.53l-0.02 -1.52z"/>
    <path class="fil14" d="M10.25 12.05l0.1 -0.26c-0.07,-0.18 -0.08,-0.12 0.13,-0.12l0.14 0.05 -0.01 0.17 -0 1.8 0.05 0.21c0.05,0.21 0.06,0.13 -0.17,0.08l-0.14 -0.16 -0.11 -0.2 0.01 -1.58zm-0.32 -0.77l-0.22 0.36 0.01 2.17 -0.01 0.21 -0 0.05c0.12,0.08 0.13,0.07 0.24,0.16 0.02,0.02 0.06,0.05 0.07,0.07l0.14 0.15 0.56 0.02c0.02,-0.02 0.06,-0.09 0.07,-0.07 0.07,0.15 0.13,-0.12 0.14,-0.12 0.03,-0.02 0.19,-0.14 0.21,-0.16l-0.03 -0.19 0.14 -0.22 -0 -1.91 -0.12 -0.22 -0.01 -0.08 0.03 -0.09c-0.19,0 -0.14,0.05 -0.16,-0.14 -0.2,0.05 -0.15,0.09 -0.15,-0.1l-0.72 -0.01 -0.18 0.12z"/>
    <path class="fil14" d="M2.18 12.88l0.15 -0.4 -0.02 -0.42 -0.05 -0.25c0.02,-0.04 0.04,-0.11 0.07,-0.13 0.01,-0.01 0.06,0.03 0.07,0 0.02,-0.06 0.05,0.09 0.07,0.13l-0.03 0.25 -0.02 0.31 0.18 0.45 -0.04 0.61c-0.51,-0.06 -0.36,0.05 -0.38,-0.55zm-0.37 -1.3l-0.01 0.59 -0.13 0.29 0 0.73 -0.01 0.34 -0.12 0.33 -0.02 0.64 0.53 -0 0.1 -0.66c0.94,-0.03 0.19,-0.04 0.44,0.15l0.16 0.51 0.45 0 -0 -0.21 0.02 -0.3 -0.11 -0.49 -0.03 -0.38 0.05 -0.46c-0.21,-0.22 -0.17,-0.4 -0.17,-0.73l0.01 -0.72 -1.03 -0.01 -0.12 0.41z"/>
    <path class="fil14" d="M3.46 11.66l-0.01 0.59 0.02 0.16 0.13 0.14c0.34,0.21 0.54,0.44 0.77,0.91l-0.05 0.31 -0.27 0.22 -0.1 -0.2 0.03 -0.5 -0.5 0.02 -0.02 0.56 -0.02 0.24c0.02,0.02 0.19,0.15 0.22,0.18 0.02,0.02 0.06,0.05 0.08,0.06 0.02,0.02 0.06,0.05 0.08,0.06 0.02,0.01 0.05,0.04 0.08,0.06l0.66 -0.01c0.11,-0.13 0.1,-0.14 0.32,-0.24l-0.02 -0.1 0.01 -0.15 0.11 -0.2 0.02 -0.44 -0.13 -0.27 -0 -0.08c-0.02,-0.02 -0.06,-0.05 -0.07,-0.07l-0.13 -0.14c-0.02,-0.02 -0.04,-0.05 -0.06,-0.07 -0.09,-0.1 -0.1,-0.11 -0.18,-0.2 -0.2,-0.22 -0.24,-0.27 -0.41,-0.54 0.01,-0.22 -0.04,-0.1 0.06,-0.18 0.3,-0.28 0.13,-0.01 0.17,0.02 0.14,0.07 0.12,-0.27 0.11,0.26l0.51 -0.02 -0.05 -0.21 0.04 -0.25 -0.19 -0.29 -0.16 -0.13c-0.68,0 -0.84,-0.04 -1.03,0.51z"/>
    <path class="fil14" d="M1.29 14.48l0 -0.63 -0.65 0 0.01 -0.78c0.11,-0.06 0.05,-0.05 0.27,-0.11 0.01,-0 0.36,-0.06 0.38,-0.06l-0.03 -0.39 0.02 -0.03c-0.44,-0.06 -0.33,0.02 -0.63,-0.17 -0.02,-0.71 0.03,-0.36 0.15,-0.53 0.63,-0.01 0.46,0.17 0.5,-0.49 -0.03,-0.02 -0.08,-0.07 -0.09,-0.04l-0.43 -0.1c-0.21,-0.02 -0.57,0.01 -0.8,0l0.01 3.33 1.29 -0.01z"/>
    <path class="fil14" d="M14.29 14.48l1.27 0.03 0 -0.71 -0.4 0.04 -0.19 -0.03c-0.19,-0.28 -0.26,-0.63 0.11,-0.82 0.32,-0.16 0.19,0.1 0.27,-0.13 0.01,-0.04 0.06,-0.03 0.09,-0.04l-0.02 -0.41c-0.46,0.01 -0.25,0.04 -0.53,-0.1 0.01,-0.64 -0.18,-0.53 0.41,-0.52 0,-0.33 -0.08,-0.25 0.24,-0.25l0 -0.37 -1.27 -0.02 0.01 3.33z"/>
    <path class="fil14" d="M8.45 11.85c0.01,-0.03 0.05,-0.07 0.06,-0.09 0.01,-0.01 0.05,-0.04 0.07,-0.05 0.18,-0.11 0.16,-0.12 0.14,0.05 0.25,-0.06 0.16,-0.08 0.1,0.2l-0.04 0.39c0.01,0.23 0.07,0.18 -0.14,0.19 -0.22,-0.1 -0.11,0.05 -0.16,-0.23l-0.03 -0.46zm-0.54 2.63l0.5 -0.02 0.04 -1.25c0.29,-0.22 0.03,-0.14 0.51,-0.15l0.12 0.05c0.1,-0.16 0.12,-0.19 0.26,-0.3l-0.03 -0.1 0.01 -1.05 0.03 -0.14 -0.13 -0.15 -0.16 -0.02c-0.54,-0.01 -0.19,0.02 -0.31,-0.18l-0.84 -0 -0.01 3.32z"/>
    <path class="fil14" d="M5.29 11.37l-0.05 0.22 0.02 0.3 0.13 0.28 -0.02 0.26 0.14 0.27 -0.01 0.24 0.13 0.28 -0.01 1.26 0.52 -0c0.15,-0.29 0.08,-0.05 0.1,-0.5 0.01,-0.23 0,-0.55 0.01,-0.79l0.02 -0.2 0.11 -0.2 0.02 -0.16 -0.01 -0.2 0.15 -0.21 -0.03 -0.18 0.13 -0.27 -0 -0.34 0.02 -0.27 -0.51 0.01 -0.14 0.41 0.01 0.35 -0.08 0.25 -0.02 -0.16 -0.16 -0.34 0.02 -0.24 -0 -0.27 -0.65 0.05c0.26,0 0.22,-0.07 0.17,0.16z"/>
    <polygon class="fil14" points="9.08,1.17 9.21,1.17 9.15,0 "/>
    <polygon class="fil14" points="13.03,5.56 13.03,5.41 12.89,5.42 12.87,5.57 "/>
    <polygon class="fil14" points="12.75,5.44 12.79,5.29 12.64,5.31 12.63,5.42 "/>
    <polygon class="fil14" points="13.28,5.54 13.18,5.54 13.17,5.66 "/>
   </g>
   <g>
    <path class="fil15" d="M7.79 6.83c-0,-0.04 -0.01,-0.09 -0.01,-0.12l0.01 -1.02c0.41,0.1 0.32,0.15 0.32,0.38 -0.02,0.44 -0.18,0.6 -0.32,0.77zm-0.38 -1.11c-0.43,-0.14 -0.04,-0.23 0.04,-0.28l-0.04 0.28zm-0.13 -2.2c0,-0.04 -0,-0.05 0.11,0.04 0.42,0.34 -0.06,-0.48 0.05,0.07 0.06,0.34 -0.16,0.25 -0.16,-0.11zm4.34 -0.38l-0.05 -0.47 -0.1 -0.14 -0.15 -0.13 -0.16 -0.09 -0.11 -0.18 -0.03 -0.15 -0.87 -0.1 -1.11 -0.04c-0.14,0.12 0.03,0.05 -0.25,0.13 -0.13,0.03 -0.26,0.02 -0.38,0.02l-0.12 0 -0.13 0.38c-0.2,0.09 -0.15,0.15 -0.53,0.1 0.03,0.22 0.07,0.17 -0.14,0.11 0.05,0.24 0.09,0.19 -0.15,0.12l0.19 0.31c-0.27,0.12 -0.01,0.03 -0.45,0.13l-0.05 0.13c-0.96,0.72 -0.22,1.9 -0.08,2.88 0.38,0.1 0.17,-0.09 0.37,0.27l0.11 0.15 0.1 0.16 0.1 0.15 0.14 0.1 0.4 -0.27c-0,0.12 -0.02,0.54 -0.01,0.63 0.07,0.39 0.11,0.38 0.38,0.6 0.17,-0.54 0.02,-1.41 -0,-2.09l-0.03 -0.28 -0 -0.18c-1.11,0.49 -0.12,-0.17 -1.1,0.06 0.25,-0.39 0.2,-0.08 0.25,-0.63l0.2 0.03 0.06 -0.07 0.28 0.01c-0.01,-0.16 -0,-0.5 -0.03,-0.6 -0.12,-0.4 0.03,-0.07 -0.23,-0.28l0.27 -0.24 0.46 -0.09 -0 0.2 0.41 -0.18 0.34 -0.06 0.31 0.15 0.26 -0.21c0.02,-0.37 -0.06,-0.03 0.15,-0.2 0.62,-0.52 0.66,-0.29 1.2,-0.49l0.28 0.37zm-2.88 -0.18c-0.01,0.02 -0.05,0.05 -0.07,0.07l-0.24 0.23c-0.06,-0.15 -0.04,0.01 -0.04,-0.23 -0,-0.03 0.04,-0.24 0.04,-0.28 0.39,0.1 0.12,0.02 0.38,0.13 -0.02,0.03 -0.05,0.06 -0.07,0.08z"/>
    <path class="fil15" d="M10.52 5.94c0.14,-0.12 -0.31,-0.57 0.39,0l-0.39 0zm-0.53 -2.48l-0.18 0.21c0.4,0.01 0.28,0.11 0.29,0.53 0.36,0.15 0.14,0.06 0.26,0.25l-0.02 0 0.07 -0.47c0.04,0.02 0.09,0.05 0.12,0.06l0.18 0.1c0.01,0.01 0.05,0.02 0.06,0.03 0.02,0.01 -0.04,0.03 0.18,-0.02l0.02 0.89c-0.33,0.13 -0.61,0.14 -0.97,0.23l0.09 -0.04 0.06 1.41c0.52,-0.12 0.68,-0.25 1,-0.55 0.33,-1.08 0.41,-0.37 0.56,-1.89 0,-0.04 0.01,-0.07 0.02,-0.11l-0 -0.42c-0.05,-0.38 -0.13,-0.14 -0.1,-0.54l-0.28 -0.37c-0.53,0.19 -0.58,-0.03 -1.2,0.49 -0.21,0.18 -0.13,-0.17 -0.15,0.2z"/>
    <path class="fil15" d="M8.82 8.18l0.77 -0.03 0.13 -3.35c-0.08,0 -0.12,-0.03 -0.13,-0l-0.2 -0.02c-0.24,-0.01 -0.26,0.08 -0.08,0.15 -0.22,-0.19 -0.18,-0.16 -0.62,-0.25 0.02,1.2 0.35,0.43 0.19,1.51 -0.12,0.8 0.05,1.15 -0.06,2z"/>
    <path class="fil15" d="M8.45 9.09l-0.07 0.01 -0 0.33 1.67 0.04 0.03 -0.48c-0.66,0.16 -0.89,0.2 -1.63,0.1z"/>
    <path class="fil15" d="M7.62 2.31l0.02 0.16c-0.24,-0.08 -0.2,-0.13 -0.14,0.11 -0.31,-0.16 -0.27,-0.22 -0.15,0.12 -0.32,0.02 -0.08,-0.05 -0.38,0.05l0.1 0.1 0.02 0.29c0.44,-0.1 0.18,-0.01 0.45,-0.13l-0.19 -0.31c0.24,0.07 0.2,0.12 0.15,-0.12 0.21,0.06 0.17,0.1 0.14,-0.11 0.38,0.05 0.33,-0.01 0.53,-0.1l0.13 -0.38 -0.32 -0.02c-0.17,0.25 0.19,0.09 -0.36,0.34z"/>
    <path class="fil15" d="M8.51 5.56l-0.05 -0.4 -0.28 0.04 -0.35 -0.1 0.04 -0.27 -0.2 -0.03c-0.06,0.56 -0,0.24 -0.25,0.63 0.98,-0.23 -0.01,0.44 1.1,-0.06l0 0.18z"/>
    <path class="fil15" d="M7.79 6.83c0.14,-0.17 0.3,-0.33 0.32,-0.77 0.01,-0.22 0.1,-0.28 -0.32,-0.38l-0.01 1.02c0,0.03 0,0.08 0.01,0.12z"/>
    <path class="fil15" d="M8.43 3.27l0.24 -0.23c0.02,-0.02 0.05,-0.06 0.07,-0.07 0.02,-0.02 0.05,-0.05 0.07,-0.08 -0.26,-0.11 0,-0.03 -0.38,-0.13 -0,0.04 -0.04,0.26 -0.04,0.28 0,0.24 -0.02,0.07 0.04,0.23z"/>
    <path class="fil15" d="M7.28 3.52c0,0.36 0.22,0.46 0.16,0.11 -0.1,-0.55 0.37,0.27 -0.05,-0.07 -0.11,-0.09 -0.11,-0.08 -0.11,-0.04z"/>
   </g>
   <path class="fil16" d="M10.3 4.78c-0.02,-0.01 0.06,-0.03 0.07,-0.04l-0.07 0.04zm-0.2 -0.58c-0.01,-0.42 0.11,-0.52 -0.29,-0.53l-0.08 0 -0.04 0.16 0.02 0.34c-0.13,0.25 0.01,0.15 -0.27,0.27l-0.2 -0.19c-0.01,-0.23 -0.08,-0.2 0.13,-0.17l-0.02 -0.17 -0.42 -0.15 0.05 0.35 -0.08 0.34 -0.29 0.04 -0.34 -0.35 0.02 0.17c0.19,-0.08 0.14,-0.1 0.09,0.1l0.04 0.31 -0.15 0.05 -0.06 -0.01 -0.28 -0.01c0.02,0.26 0.17,0.3 0.18,0.33 0.59,-0.08 0.22,-0.07 0.35,0.08l0.05 0.4 0.03 0.28c0.3,-0.21 0.26,-0.17 0.09,-0.58 -0.15,-0.23 -0.25,-0.29 -0.08,-0.41l0.02 -0.2c0.55,-0.34 0.34,0.13 0.47,-0.18 0.02,-0.05 0.08,-0.02 0.12,-0.03 0.41,0.24 0.34,-0.02 0.77,0.26l-0.05 0.93 0.08 0.41 0.15 -0.8 -0.09 0.04 0.04 -0.4c0.35,0.05 0.16,0.13 0.51,0.01 0.26,-0.09 0.05,-0.01 0.18,-0.22 -0.19,-0.27 0.01,-0.13 -0.39,-0.21l0.02 -0 -0.28 0.16c-0.02,-0.03 -0.04,-0.07 -0.05,-0.09l-0.24 -0.7c0.02,0.04 0.07,0.07 0.08,0.1l0.22 0.29zm-0.16 3.66c-0.12,0.56 0.02,0.08 -0.18,0.29l-0.16 -0 -0.77 0.03 -0.02 -2.41c-0.33,0.66 0.15,1.92 -0.36,2.43l1.57 0.02 -0.07 -0.36z"/>
  </g>
 </g>
</svg>
