<svg width="27" height="26" viewBox="0 0 27 26" fill="none" xmlns="http://www.w3.org/2000/svg">
<g clip-path="url(#clip0_108_15722)">
<path d="M11.9717 0.00222778H14.1014C14.1332 0.0137295 14.1659 0.0222332 14.1992 0.0276325C15.2689 0.104694 16.3225 0.33111 17.3294 0.700286C21.4106 2.2082 24.1279 5.03198 25.4812 9.17164C25.7734 10.0647 25.9189 10.9882 26.0199 11.92V14.0504C25.9563 14.476 25.9151 14.9047 25.835 15.3265C25.1929 18.7171 23.4906 21.4623 20.7066 23.4923C17.7098 25.678 14.3421 26.4287 10.6956 25.779C7.29867 25.173 4.55915 23.4402 2.52913 20.6563C0.343484 17.6595 -0.462553 14.2797 0.255831 10.6478C1.27211 5.50285 4.38448 2.13642 9.36553 0.500204C10.2103 0.221362 11.09 0.0987746 11.9717 0.00222778ZM13.0693 2.05321C7.2034 2.071 2.15755 6.69 2.11626 12.9528C2.07815 18.8181 6.73781 23.8639 13.0038 23.9052C18.8697 23.9439 23.9155 19.2836 23.9568 13.0176C23.9949 7.15241 19.3353 2.14785 13.0693 2.05321Z" fill="#CC9933"/>
<path d="M12.0033 14.8864C12.0033 14.4976 12.0033 14.1089 12.0033 13.7202C12.0033 12.9999 12.3927 12.5985 13.1219 12.5623C13.5513 12.5426 13.9628 12.3845 14.2948 12.1116C14.6268 11.8386 14.8616 11.4655 14.9639 11.048C15.2504 9.93263 14.5117 8.82488 13.3366 8.61019C12.2606 8.41265 11.177 9.24219 11.0665 10.3449C11.0455 10.5449 11.0366 10.7495 10.9661 10.9419C10.8022 11.3904 10.3119 11.6889 9.86216 11.6146C9.32861 11.5256 8.97292 11.1312 8.95831 10.6148C8.90559 8.56636 10.4942 6.74849 12.5318 6.52427C14.8223 6.2702 16.8339 7.8321 17.093 10.113C17.2068 11.0324 17.0004 11.963 16.5087 12.7481C16.0169 13.5332 15.2697 14.125 14.3929 14.424C14.1388 14.5103 14.0486 14.6291 14.0632 14.8946C14.0861 15.3164 14.0727 15.7394 14.0677 16.165C14.069 16.3006 14.0436 16.4352 13.9929 16.561C13.9422 16.6869 13.8671 16.8015 13.7721 16.8983C13.6771 16.9951 13.5639 17.0722 13.439 17.1252C13.3141 17.1782 13.1801 17.2061 13.0444 17.2073C12.4683 17.2143 12.0091 16.7532 12.0033 16.1567C12.0002 15.7331 12.0033 15.3088 12.0033 14.8864Z" fill="#CC9933"/>
<path d="M14.3237 19.187C14.3222 19.4413 14.2454 19.6894 14.103 19.9C13.9606 20.1107 13.759 20.2745 13.5236 20.3706C13.2882 20.4668 13.0296 20.4911 12.7805 20.4404C12.5313 20.3898 12.3027 20.2664 12.1236 20.086C11.9444 19.9055 11.8228 19.676 11.7739 19.4265C11.7251 19.1769 11.7513 18.9185 11.8492 18.6838C11.9471 18.4492 12.1124 18.2488 12.3241 18.1079C12.5358 17.9671 12.7845 17.8921 13.0388 17.8925C13.3806 17.8945 13.7077 18.0319 13.9485 18.2745C14.1893 18.5171 14.3242 18.8452 14.3237 19.187Z" fill="#CC9933"/>
</g>
<defs>
<clipPath id="clip0_108_15722">
<rect width="26.0194" height="26.0022" fill="white" transform="translate(0 0.00222778)"/>
</clipPath>
</defs>
</svg>
