<svg width="21" height="20" viewBox="0 0 21 20" fill="none" xmlns="http://www.w3.org/2000/svg">
<path fill-rule="evenodd" clip-rule="evenodd" d="M5.46484 5C5.46484 3.34315 6.80799 2 8.46484 2C9.2332 2 9.93409 2.28885 10.4648 2.7639C10.9956 2.28885 11.6965 2 12.4648 2C14.1217 2 15.4648 3.34315 15.4648 5C15.4648 5.35064 15.4047 5.68722 15.2941 6H16.4648C17.5694 6 18.4648 6.89543 18.4648 8C18.4648 9.10457 17.5694 10 16.4648 10H11.4648V9C11.4648 8.44772 11.0171 8 10.4648 8C9.91256 8 9.46484 8.44771 9.46484 9V10H4.46484C3.36027 10 2.46484 9.10457 2.46484 8C2.46484 6.89543 3.36027 6 4.46484 6H5.63555C5.525 5.68722 5.46484 5.35064 5.46484 5ZM9.46484 6V5C9.46484 4.44772 9.01713 4 8.46484 4C7.91256 4 7.46484 4.44772 7.46484 5C7.46484 5.55228 7.91256 6 8.46484 6H9.46484ZM12.4648 6C13.0171 6 13.4648 5.55228 13.4648 5C13.4648 4.44772 13.0171 4 12.4648 4C11.9126 4 11.4648 4.44772 11.4648 5V6H12.4648Z" fill="#676767"/>
<path d="M9.46484 11H3.46484V16C3.46484 17.1046 4.36027 18 5.46484 18H9.46484V11Z" fill="#676767"/>
<path d="M11.4648 18H15.4648C16.5694 18 17.4648 17.1046 17.4648 16V11H11.4648V18Z" fill="#676767"/>
</svg>
