<svg width="24" height="25" viewBox="0 0 24 25" fill="none" xmlns="http://www.w3.org/2000/svg">
<path opacity="0.4" d="M16.34 2.79987H7.67C4.28 2.79987 2 5.17987 2 8.71987V16.8899C2 20.4199 4.28 22.7999 7.67 22.7999H16.34C19.73 22.7999 22 20.4199 22 16.8899V8.71987C22 5.17987 19.73 2.79987 16.34 2.79987Z" fill="#CC9933"/>
<path fill-rule="evenodd" clip-rule="evenodd" d="M11.1251 8.98932C11.1251 9.47132 11.5161 9.86432 11.9951 9.86432C12.4881 9.86432 12.8801 9.47132 12.8801 8.98932C12.8801 8.50732 12.4881 8.11432 12.0051 8.11432C11.5201 8.11432 11.1251 8.50732 11.1251 8.98932ZM12.8701 12.1621C12.8701 11.6801 12.4771 11.2871 11.9951 11.2871C11.5131 11.2871 11.1201 11.6801 11.1201 12.1621V16.5821C11.1201 17.0641 11.5131 17.4571 11.9951 17.4571C12.4771 17.4571 12.8701 17.0641 12.8701 16.5821V12.1621Z" fill="#CC9933"/>
</svg>
