<svg width="21" height="20" viewBox="0 0 21 20" fill="none" xmlns="http://www.w3.org/2000/svg">
<path fill-rule="evenodd" clip-rule="evenodd" d="M5.46484 9V7C5.46484 4.23858 7.70342 2 10.4648 2C13.2263 2 15.4648 4.23858 15.4648 7V9C16.5694 9 17.4648 9.89543 17.4648 11V16C17.4648 17.1046 16.5694 18 15.4648 18H5.46484C4.36027 18 3.46484 17.1046 3.46484 16V11C3.46484 9.89543 4.36027 9 5.46484 9ZM13.4648 7V9H7.46484V7C7.46484 5.34315 8.80799 4 10.4648 4C12.1217 4 13.4648 5.34315 13.4648 7Z" fill="#676767"/>
</svg>
