<svg width="170" height="40" viewBox="0 0 170 40" fill="none" xmlns="http://www.w3.org/2000/svg">
<g clip-path="url(#clip0_130_2837)">
<path d="M27.3503 13.75V13.6837L30.1479 12.0505L33.3646 10.1759L33.4024 10.1546L31.6935 8.33685L30.1479 9.23864L28.5385 10.1854L27.355 10.8789V3.73084L27.2863 3.65746H24.9194V7.75459H22.7892V0.961553L21.0566 1.97222L20.3608 2.37933L18.195 3.6409L15.118 5.43738V1.97222H12.6872V4.27996L12.0884 3.6409L10.5168 1.98406L9.13214 0.511841L8.4481 0.911846L7.13445 1.67636L6.97586 1.76867L7.13445 1.93672L7.17944 1.98406L8.75104 3.6409L12.0979 7.19127L12.6044 7.73092H7.13445V7.56997L4.70363 4.9853L3.54384 3.75214L1.38759 5.00897L3.95097 7.73092H0.111816V10.1617H4.70363V13.7429H0.111816V16.1737H4.70363V21.1134H7.13445V16.1808H12.6872V18.4175L12.7488 18.4838H12.6872V23.5632H20.3631V23.9679L19.6152 24.4034L18.7773 24.8934L15.1157 27.0236V29.8379L20.3631 26.7704V29.6107L15.1157 32.6711V35.483L20.3631 32.4225V39.2014L22.7916 37.7812L24.9218 36.5386L27.3526 35.1185V28.3586L30.1503 26.7278V23.9727L30.1077 23.9277L28.6473 24.7845L27.3621 25.5325V23.5514H30.1598V21.0614L34.6025 18.472L37.2321 16.9382V13.75H27.3503ZM7.12735 13.75V11.1227L8.21141 12.273L9.59842 13.75H7.12735ZM12.6801 13.4778L10.3653 11.0186L9.56765 10.1688H12.6801V13.4778ZM22.7868 10.1641H24.9171V12.2754L22.7868 13.518V10.1641ZM15.9891 7.73329L20.3631 5.19122V7.73802H15.9938L15.9583 7.75932L15.9394 7.73802L15.9891 7.73329ZM24.9194 33.722L22.7892 34.9646V31.0048L23.9182 30.3491L24.7561 29.8592L24.9218 29.7621L24.9194 33.722ZM24.9194 26.9455L23.0448 28.0367L22.7868 28.1881V25.3478L23.4756 24.9478L24.9194 24.1052V26.9455ZM25.1561 17.5276C25.1095 17.8027 25.03 18.0713 24.9194 18.3276V21.1158H22.7892V20.2874C22.4395 20.403 22.0735 20.4613 21.7052 20.4602C21.2437 20.4614 20.7866 20.3704 20.3608 20.1927V21.1158H15.1133V16.0624L15.2246 16.1808H18.3016C18.3005 16.1642 18.3005 16.1476 18.3016 16.1311C18.4326 15.602 18.6858 15.1109 19.041 14.6974C19.3961 14.2839 19.8433 13.9594 20.3466 13.75H15.0991V10.1688H20.3631V13.5654L20.4886 13.7003C20.7689 13.5955 21.0617 13.5279 21.3596 13.4991C21.4752 13.4875 21.5914 13.482 21.7075 13.4825C22.0234 13.4829 22.3377 13.5251 22.6425 13.608L22.7916 13.6553C22.8785 13.6819 22.9639 13.7135 23.0472 13.75C23.7493 14.0413 24.3369 14.5542 24.7206 15.2104C24.7983 15.3409 24.8664 15.477 24.9242 15.6175C25.0019 15.7995 25.0637 15.988 25.1088 16.1808C25.1689 16.4408 25.1991 16.7068 25.1987 16.9737C25.1966 17.1609 25.18 17.3477 25.149 17.5323L25.1561 17.5276ZM30.155 18.2376L29.7692 18.4743L27.3621 19.8803V16.1808H33.7101L30.155 18.2376Z" fill="#010038"/>
<path d="M22.4577 16.6991C22.4577 16.4393 22.561 16.19 22.7447 16.0063C22.9285 15.8225 23.1777 15.7192 23.4376 15.7192C23.6975 15.7192 23.9468 15.8225 24.1305 16.0063C24.3143 16.19 24.4175 16.4393 24.4175 16.6991C24.4171 16.7491 24.4132 16.7989 24.4057 16.8483H25.2152C25.1836 15.9652 24.8195 15.1266 24.1957 14.5007C23.572 13.8748 22.7348 13.5077 21.8518 13.473V16.8483H22.4696C22.4621 16.7989 22.4581 16.7491 22.4577 16.6991Z" fill="#CC9933"/>
<path d="M22.6802 18.8152C22.6802 18.9972 22.6079 19.1718 22.4792 19.3005C22.3504 19.4293 22.1759 19.5016 21.9938 19.5016H21.9204C21.7494 19.4801 21.5924 19.3957 21.4802 19.2649V19.6412V20.4602C20.6339 20.4043 19.8365 20.0435 19.2359 19.4447C18.6353 18.8458 18.2722 18.0495 18.2139 17.2033H18.8766C18.873 17.2537 18.873 17.3043 18.8766 17.3548C18.8766 17.6147 18.9798 17.8639 19.1636 18.0477C19.3474 18.2314 19.5966 18.3347 19.8565 18.3347C20.1164 18.3347 20.3656 18.2314 20.5494 18.0477C20.7332 17.8639 20.8364 17.6147 20.8364 17.3548C20.8365 17.3039 20.8317 17.2532 20.8222 17.2033H21.492V17.9678V18.3441C21.5901 18.235 21.7201 18.1596 21.8636 18.1288H21.9299H22.0033C22.1837 18.1312 22.3559 18.2047 22.4825 18.3331C22.6092 18.4616 22.6802 18.6347 22.6802 18.8152Z" fill="#CC9933"/>
<path d="M22.8127 16.9832C22.7707 16.8944 22.7489 16.7974 22.7487 16.6991C22.7432 16.6055 22.757 16.5116 22.789 16.4234C22.8211 16.3352 22.8709 16.2545 22.9352 16.1862C22.9996 16.118 23.0773 16.0636 23.1635 16.0264C23.2496 15.9892 23.3425 15.97 23.4363 15.97C23.5302 15.97 23.6231 15.9892 23.7092 16.0264C23.7954 16.0636 23.873 16.118 23.9374 16.1862C24.0018 16.2545 24.0516 16.3352 24.0837 16.4234C24.1157 16.5116 24.1294 16.6055 24.1239 16.6991C24.1233 16.7963 24.1019 16.8923 24.0611 16.9805C24.0203 17.0687 23.961 17.1471 23.8872 17.2104H22.9736C22.9046 17.1468 22.8498 17.0694 22.8127 16.9832Z" fill="#CC9933"/>
<path d="M25.2104 17.2128C25.151 18.0748 24.7753 18.8845 24.1554 19.4865C23.5356 20.0884 22.7152 20.4402 21.8518 20.4744V19.7832C21.8988 19.7909 21.9462 19.7949 21.9938 19.7951C22.2537 19.7951 22.5029 19.6918 22.6867 19.5081C22.8705 19.3243 22.9737 19.075 22.9737 18.8152C22.9737 18.5553 22.8705 18.306 22.6867 18.1223C22.5029 17.9385 22.2537 17.8353 21.9938 17.8353C21.9465 17.8316 21.8991 17.8316 21.8518 17.8353V17.2033L25.2104 17.2128Z" fill="#CC9933"/>
<path d="M20.5334 17.2861C20.5357 17.3113 20.5357 17.3367 20.5334 17.3619C20.5361 17.5338 20.4741 17.7006 20.3598 17.829C20.2455 17.9575 20.0871 18.0384 19.916 18.0556C19.7448 18.0729 19.5735 18.0253 19.4358 17.9222C19.2981 17.8192 19.2041 17.6682 19.1724 17.4992C19.1628 17.454 19.158 17.408 19.1582 17.3619C19.1595 17.2645 19.1812 17.1684 19.222 17.0799C19.2628 16.9915 19.3217 16.9125 19.3949 16.8483H20.3109C20.4178 16.9439 20.4922 17.0705 20.5239 17.2104C20.5239 17.2341 20.5239 17.2601 20.5239 17.2838L20.5334 17.2861Z" fill="#CC9933"/>
<path d="M20.3629 15.2151C20.3629 15.475 20.4662 15.7242 20.6499 15.908C20.8337 16.0918 21.083 16.195 21.3428 16.195C21.3928 16.1946 21.4426 16.1906 21.492 16.1832V16.8483H18.2185C18.2501 15.9811 18.6024 15.1566 19.2072 14.5343C19.8119 13.9121 20.6261 13.5364 21.492 13.4801V14.247C21.4426 14.2396 21.3928 14.2356 21.3428 14.2352C21.083 14.2352 20.8337 14.3384 20.6499 14.5222C20.4662 14.706 20.3629 14.9552 20.3629 15.2151Z" fill="#CC9933"/>
<path d="M20.7323 14.8861C20.6785 14.9874 20.65 15.1003 20.6494 15.2151C20.6494 15.3054 20.6673 15.3949 20.7019 15.4783C20.7366 15.5617 20.7873 15.6375 20.8513 15.7013C20.9153 15.7651 20.9913 15.8156 21.0748 15.8499C21.1584 15.8843 21.2479 15.9018 21.3382 15.9015H21.4139C21.5833 15.8789 21.7384 15.7947 21.8495 15.6648V14.7512C21.7861 14.6774 21.7077 14.6182 21.6195 14.5773C21.5313 14.5365 21.4354 14.5151 21.3382 14.5145C21.213 14.5155 21.0904 14.5506 20.9836 14.6161C20.8768 14.6816 20.7899 14.7749 20.7323 14.8861Z" fill="#CC9933"/>
<path d="M35.2275 29.3432H32.7966V35.3883H35.2275V29.3432Z" fill="#010038"/>
<path d="M57.9403 23.0614H47.7295L46.049 25.736H41.1045L50.1201 11.918H55.59L64.5842 25.736H59.5995L57.9403 23.0614ZM56.1391 20.2045L52.8254 14.8979L49.5118 20.2045H56.1391Z" fill="#CC9933"/>
<path d="M66.2056 25.736V18.4838H64.1511V15.4068H66.1961C66.3192 11.7783 68.9725 10.2588 73.3489 10.2588C75.0404 10.2781 76.7274 10.4364 78.3928 10.7322L77.6828 13.5725C76.1925 13.3652 74.6902 13.2569 73.1856 13.2482C70.8542 13.2482 70.0447 13.8139 70.0447 15.3784V15.421H76.4354V18.498H70.0447V25.7502L66.2056 25.736Z" fill="#CC9933"/>
<path d="M77.6733 15.4044H81.0367L81.3397 17.1654C83.4462 16.0719 86.0735 15.1393 88.9375 15.1393V18.5856C86.0404 18.5856 83.8723 18.9288 81.503 19.7809V25.736H77.6733V15.4044Z" fill="#CC9933"/>
<path d="M94.3458 14.0861H90.5186V10.9263H94.3458V14.0861ZM90.5186 15.4044H94.3458V25.736H90.5186V15.4044Z" fill="#CC9933"/>
<path d="M96.5352 11.918H110.434C113.837 11.918 116.209 13.1346 116.209 16.8412C116.209 20.7513 113.842 22.1904 110.434 22.1904H100.646V25.7407H96.5352V11.918ZM100.646 15.4447V18.685H109.967C111.286 18.685 111.953 18.24 111.953 17.0636C111.953 15.8092 111.286 15.4447 109.967 15.4447H100.646Z" fill="#CC9933"/>
<path d="M117.766 15.4044H121.13L121.433 17.1654C123.542 16.0719 126.167 15.1393 129.03 15.1393V18.5856C126.133 18.5856 123.965 18.9288 121.596 19.7809V25.736H117.766V15.4044Z" fill="#CC9933"/>
<path d="M134.448 14.0861H130.619V10.9263H134.448V14.0861ZM130.619 15.4044H134.448V25.736H130.619V15.4044Z" fill="#CC9933"/>
<path d="M152.229 25.736H136.304V23.1016L141.431 20.2613C143.679 19.1465 146.617 18.356 147.873 18.053H136.512V15.4044H152.233V18.0577L147.675 20.6614C145 22.0578 142.103 22.7916 141.009 23.1111H152.233L152.229 25.736Z" fill="#CC9933"/>
<path d="M168.882 22.4744L169.651 25.2295C167.727 25.7171 164.648 26.02 161.994 26.02C156.117 26.02 153.566 24.42 153.566 20.5761C153.566 16.7323 156.442 15.1465 161.751 15.1465C166.674 15.1465 169.895 16.4246 169.895 19.788C169.895 20.2732 169.834 21.1844 169.793 21.4448H157.353C157.699 22.7229 158.996 23.007 162.338 23.007C164.53 23.0127 166.719 22.8345 168.882 22.4744ZM157.334 19.4566H166.106C165.883 18.2187 164.87 17.6933 161.609 17.6933C158.773 17.6933 157.644 18.1193 157.334 19.4566Z" fill="#CC9933"/>
</g>
<defs>
<clipPath id="clip0_130_2837">
<rect width="169.79" height="38.7014" fill="white" transform="translate(0.104736 0.5)"/>
</clipPath>
</defs>
</svg>
