<svg width="196" height="90" viewBox="0 0 196 90" fill="none" xmlns="http://www.w3.org/2000/svg">
<g clip-path="url(#clip0_6_12610)">
<path d="M111.936 21.1503V21.0379L116.258 18.5179L121.225 15.6218L121.29 15.5785L118.653 12.7732L116.267 14.1607L113.786 15.6088L111.949 16.6808V5.65827L111.841 5.54588H108.197V11.8698H104.907V1.4092L102.232 2.96966L101.155 3.59643L97.8098 5.54588L93.055 8.32098V2.96966H89.303V6.53144L88.3737 5.54588L85.9531 2.95235L83.7918 0.678711L82.7457 1.31411L80.7141 2.49416L80.4721 2.63681L80.7141 2.89186L80.7876 2.96966L83.2126 5.56319L88.378 11.0528L89.1604 11.8871H80.7141V11.6364L76.9665 7.65096L75.1726 5.74473L71.8442 7.68122L75.8037 11.8871H69.8732V15.6391H76.9665V21.1676H69.8732V24.9196H76.9665V32.5489H80.7141V24.9023H89.303V28.3387L89.3981 28.4425H89.303V36.2836H101.155V36.906L100.001 37.5803L98.7046 38.3368L93.055 41.6306V45.9531L101.155 41.2329V45.6159L93.055 50.3405V54.663L101.155 49.9385V60.4034L104.907 58.2162L108.197 56.297L111.949 54.1098V43.6751L116.271 41.1594V36.9233L116.207 36.8541L113.942 38.1855L111.936 39.3526V36.2836H116.258V32.4365L123.118 28.4381L127.177 26.0694V21.1503H111.936ZM80.7141 21.1503V17.0958L82.387 18.8723L84.5482 21.1503H80.7141ZM89.2901 20.7181L85.7153 16.9185L84.4834 15.6218H89.303L89.2901 20.7181ZM104.894 15.6088H108.184V18.868L104.894 20.7872V15.6088ZM94.395 11.8568L101.143 7.92761V11.8568H94.395L94.3431 11.8914L94.3129 11.8568H94.395ZM108.184 51.9788L104.894 53.898V47.7902L106.624 46.7744L107.92 46.0223L108.175 45.871L108.184 51.9788ZM108.184 41.5139L105.296 43.2169L104.899 43.446V39.063L105.958 38.4448L108.188 37.1481L108.184 41.5139ZM108.538 26.9771C108.47 27.4018 108.351 27.8168 108.184 28.2133V32.5359H104.894V31.2391C103.667 31.6414 102.335 31.5893 101.143 31.0922V32.5186H93.042V24.7207L93.2106 24.9023H97.9654C97.9654 24.8764 97.9654 24.8504 97.9654 24.8288C98.175 23.9766 98.5923 23.1895 99.1801 22.5378C99.7167 21.9359 100.381 21.4617 101.125 21.1503H93.042V15.6218H101.143V20.865L101.337 21.0725C101.777 20.9102 102.236 20.807 102.703 20.7656C102.876 20.7656 103.057 20.7353 103.239 20.7353C103.727 20.7348 104.213 20.8017 104.683 20.9342L104.916 21.0033C105.05 21.0466 105.18 21.0941 105.309 21.1503C106.397 21.5987 107.308 22.3912 107.903 23.4067C108.024 23.6075 108.129 23.817 108.219 24.0334C108.337 24.3135 108.432 24.6026 108.504 24.898C108.596 25.3006 108.643 25.7125 108.642 26.1256C108.63 26.416 108.595 26.705 108.538 26.9901V26.9771ZM116.254 28.1139L115.662 28.4597L111.945 30.621V24.9023H121.722L116.254 28.1139Z" fill="white"/>
<path d="M104.384 25.702C104.384 25.3007 104.544 24.9159 104.828 24.6322C105.111 24.3485 105.496 24.1891 105.897 24.1891C106.299 24.1891 106.683 24.3485 106.967 24.6322C107.251 24.9159 107.41 25.3007 107.41 25.702C107.41 25.7788 107.402 25.8555 107.389 25.9311H108.642C108.589 24.5724 108.025 23.2839 107.064 22.3224C106.102 21.361 104.814 20.7974 103.455 20.744V25.9311H104.41C104.395 25.8556 104.386 25.7789 104.384 25.702Z" fill="#CC9933"/>
<path d="M104.726 28.9785C104.727 29.1549 104.684 29.3288 104.601 29.4842C104.509 29.652 104.374 29.7922 104.21 29.8902C104.045 29.9883 103.858 30.0406 103.667 30.0418H103.567C103.305 30.0161 103.062 29.8908 102.889 29.6917V30.2752V31.5374C101.582 31.4524 100.351 30.8958 99.4239 29.9712C98.4968 29.0465 97.9371 27.8167 97.8487 26.5103H98.8688C98.8622 26.588 98.8622 26.6661 98.8688 26.7437C98.8688 27.145 99.0282 27.5298 99.3119 27.8135C99.5957 28.0972 99.9805 28.2566 100.382 28.2566C100.783 28.2566 101.168 28.0972 101.451 27.8135C101.735 27.5298 101.895 27.145 101.895 26.7437C101.894 26.6654 101.887 26.5873 101.873 26.5103H102.906V27.6817V28.2652C103.055 28.0951 103.255 27.9782 103.477 27.9324H103.58H103.693C103.967 27.9402 104.227 28.0533 104.419 28.2481C104.612 28.443 104.722 28.7046 104.726 28.9785Z" fill="#CC9933"/>
<path d="M104.929 26.1429C104.855 25.9809 104.823 25.8029 104.836 25.6253C104.849 25.4477 104.906 25.2762 105.003 25.1265C105.099 24.9767 105.231 24.8536 105.388 24.7684C105.544 24.6831 105.719 24.6385 105.897 24.6386C106.178 24.642 106.446 24.7553 106.644 24.9541C106.842 25.1529 106.954 25.4214 106.956 25.702C106.956 25.8514 106.925 25.9991 106.864 26.1354C106.803 26.2717 106.713 26.3936 106.602 26.493H105.188C105.079 26.3947 104.991 26.2757 104.929 26.1429Z" fill="#CC9933"/>
<path d="M108.633 26.4973C108.542 27.8285 107.962 29.0789 107.004 30.0084C106.047 30.9378 104.78 31.4808 103.446 31.5331V30.4654C103.52 30.4719 103.594 30.4719 103.667 30.4654C104.068 30.4654 104.453 30.306 104.737 30.0223C105.02 29.7386 105.18 29.3538 105.18 28.9525C105.18 28.5513 105.02 28.1665 104.737 27.8828C104.453 27.599 104.068 27.4396 103.667 27.4396C103.594 27.4332 103.52 27.4332 103.446 27.4396V26.4627L108.633 26.4973Z" fill="#CC9933"/>
<path d="M101.406 26.6097C101.408 26.6486 101.408 26.6875 101.406 26.7264C101.412 26.9927 101.317 27.2514 101.14 27.4508C100.964 27.6503 100.719 27.7759 100.454 27.8026C100.189 27.8294 99.9233 27.7552 99.7104 27.595C99.4976 27.4348 99.353 27.2003 99.3054 26.9382C99.2916 26.8685 99.2844 26.7975 99.2838 26.7264C99.2838 26.577 99.3153 26.4293 99.3764 26.293C99.4375 26.1567 99.5267 26.0348 99.6383 25.9354H101.052C101.219 26.0809 101.334 26.2765 101.38 26.493C101.383 26.5304 101.383 26.568 101.38 26.6054L101.406 26.6097Z" fill="#CC9933"/>
<path d="M101.142 23.411C101.142 23.8123 101.302 24.1971 101.586 24.4808C101.869 24.7645 102.254 24.9239 102.655 24.9239C102.732 24.9304 102.808 24.9304 102.884 24.9239V25.9527H97.8314C97.885 24.6169 98.4308 23.3481 99.3636 22.3905C100.296 21.4329 101.551 20.8542 102.884 20.7656V21.95C102.808 21.9457 102.732 21.9457 102.655 21.95C102.263 21.9498 101.886 22.102 101.604 22.3746C101.321 22.6472 101.156 23.0188 101.142 23.411Z" fill="#CC9933"/>
<path d="M101.722 22.9269C101.633 23.0886 101.588 23.2707 101.591 23.4551C101.594 23.6396 101.645 23.82 101.74 23.9785C101.834 24.137 101.968 24.2682 102.129 24.359C102.289 24.4497 102.471 24.497 102.655 24.496H102.755C103.014 24.4655 103.253 24.3428 103.429 24.1502V22.7367C103.317 22.6073 103.174 22.5072 103.015 22.4451C102.855 22.383 102.682 22.3608 102.512 22.3804C102.342 22.3999 102.179 22.4607 102.037 22.5575C101.896 22.6542 101.78 22.784 101.7 22.9355L101.722 22.9269Z" fill="#CC9933"/>
<path d="M124.095 45.227H120.343V54.5594H124.095V45.227Z" fill="white"/>
<path d="M25.6967 84.8085H10.1744L7.61543 88.8718H0.0985107L13.8053 67.8814H22.1219L35.7985 88.889H28.221L25.6967 84.8085ZM22.9562 80.486L17.9334 72.4158L12.8846 80.486H22.9562Z" fill="#CC9933"/>
<path d="M38.2623 88.8718V77.8449H35.1544V73.1636H38.2623C38.4482 67.6523 42.4811 65.3398 49.1379 65.3398C51.709 65.3661 54.2737 65.6032 56.8061 66.0487L55.7298 70.3712C53.4636 70.0573 51.1792 69.8927 48.8915 69.8785C45.347 69.8785 44.1367 70.743 44.1367 73.1117V73.1722H53.8581V77.8536H44.1151V88.8804L38.2623 88.8718Z" fill="#CC9933"/>
<path d="M55.6952 73.1636H60.8088L61.2713 75.8436C64.4743 74.1794 68.477 72.7616 72.8211 72.7616V78.0005C68.4165 78.0005 65.1227 78.5236 61.5177 79.816V88.8718H55.6952V73.1636Z" fill="#CC9933"/>
<path d="M81.047 71.1623H75.2245V66.3556H81.047V71.1623ZM75.2245 73.1636H81.047V88.8717H75.2245V73.1636Z" fill="#CC9933"/>
<path d="M84.371 67.8814H105.504C110.691 67.8814 114.279 69.7315 114.279 75.3681C114.279 81.3116 110.678 83.4988 105.504 83.4988H90.6257V88.889H84.371V67.8814ZM90.6257 73.2414V78.1734H104.795C106.796 78.1734 107.821 77.4948 107.821 75.7052C107.821 73.799 106.805 73.2414 104.795 73.2414H90.6257Z" fill="#CC9933"/>
<path d="M116.652 73.1636H121.765L122.228 75.8436C125.431 74.1794 129.434 72.7616 133.778 72.7616V78.0005C129.373 78.0005 126.075 78.5236 122.474 79.816V88.8718H116.652V73.1636Z" fill="#CC9933"/>
<path d="M141.999 71.1623H136.177V66.3556H141.999V71.1623ZM136.177 73.1636H141.999V88.8717H136.177V73.1636Z" fill="#CC9933"/>
<path d="M169.045 88.8718H144.839V84.8691L152.62 80.5465C156.035 78.8521 160.504 77.6504 162.415 77.1922H145.124V73.155H169.028V77.1922L162.112 81.1344C158.049 83.2568 153.644 84.3677 151.98 84.8604H169.045V88.8718Z" fill="#CC9933"/>
<path d="M194.363 83.9138L195.534 88.1024C192.608 88.8415 187.926 89.304 183.889 89.304C174.959 89.304 171.077 86.8704 171.077 81.0177C171.077 75.165 175.451 72.7616 183.522 72.7616C191.004 72.7616 195.901 74.7024 195.901 79.816C195.901 80.5552 195.811 81.9427 195.75 82.3447H176.835C177.362 84.2855 179.333 84.7135 184.412 84.7135C187.745 84.7236 191.074 84.4561 194.363 83.9138ZM176.804 79.3232H190.144C189.802 77.4472 188.264 76.6433 183.306 76.6433C178.992 76.6433 177.267 77.2916 176.804 79.3232Z" fill="#CC9933"/>
</g>
<defs>
<clipPath id="clip0_6_12610">
<rect width="195.803" height="88.608" fill="white" transform="translate(0.0985107 0.695984)"/>
</clipPath>
</defs>
</svg>
