<svg width="72" height="72" viewBox="0 0 72 72" fill="none" xmlns="http://www.w3.org/2000/svg">
<path d="M36.0214 46.4486C31.0035 46.4486 25.9863 46.4486 20.9699 46.4486C19.0808 46.4486 18.0806 45.4552 18.0806 43.5752C18.0806 36.9417 18.0806 30.3082 18.0806 23.6748C18.0806 21.7993 19.0808 20.8172 20.9767 20.8081C21.4311 20.7852 21.8863 20.7852 22.3407 20.8081C23.0386 20.8786 23.2068 20.5603 23.2 19.917C23.1727 17.4778 23.1841 15.0408 23.1887 12.6015C23.2023 6.65005 27.6284 1.34191 33.4981 0.234818C40.8658 -1.15644 47.8334 3.77888 48.7405 11.2148C49.0383 13.645 48.8201 16.1388 48.8291 18.6053C48.8291 20.7922 48.8292 20.7922 51.0024 20.799C52.9529 20.799 53.9297 21.772 53.9327 23.718C53.9327 30.3226 53.9327 36.9273 53.9327 43.532C53.9327 45.4643 52.9484 46.4395 50.9933 46.4395L36.0214 46.4486ZM35.9532 20.8059C38.1924 20.8059 40.4293 20.7763 42.6662 20.8218C43.4323 20.8377 43.6347 20.574 43.6188 19.8443C43.5756 17.8619 43.5983 15.8774 43.6074 13.895C43.6196 12.9609 43.5274 12.0284 43.3323 11.1148C42.9043 9.32099 41.832 7.74699 40.3194 6.69205C38.8068 5.6371 36.9592 5.17476 35.128 5.39292C31.7522 5.77256 28.8764 8.58917 28.5354 11.9332C28.2649 14.6475 28.4809 17.3664 28.3922 20.0807C28.3695 20.7331 28.7037 20.8172 29.2333 20.8127C31.4794 20.7968 33.7163 20.8059 35.9532 20.8059ZM38.4538 33.5954C38.4266 32.3065 37.2331 31.1425 35.9691 31.1698C34.7052 31.1971 33.5162 32.3928 33.5435 33.6704C33.5708 34.948 34.7666 36.1211 36.0328 36.0938C37.299 36.0665 38.4879 34.8639 38.4584 33.5954H38.4538Z" fill="#010038"/>
<path d="M7.87122 56.1647C7.87122 55.4282 7.8553 54.6893 7.87122 53.9528C7.89123 53.2755 8.17436 52.6326 8.66053 52.1606C9.14671 51.6886 9.79766 51.4245 10.4753 51.4245C11.1529 51.4245 11.8038 51.6886 12.29 52.1606C12.7762 52.6326 13.0593 53.2755 13.0793 53.9528C13.1036 55.4819 13.1036 57.0126 13.0793 58.5448C13.068 59.1882 13.2657 59.2268 13.7454 58.8904C14.6547 58.2629 15.564 57.6423 16.5075 57.0536C17.9169 56.1692 19.5219 56.4534 20.3357 57.6992C21.1495 58.9449 20.804 60.5271 19.4264 61.4819C18.0488 62.4367 16.6984 63.3301 15.3208 64.2099C14.7911 64.5463 14.6388 64.7714 15.1912 65.2533C15.9551 65.9353 16.6575 66.6741 17.3622 67.4107C18.458 68.5473 18.483 70.1818 17.4418 71.223C16.4006 72.2642 14.7684 72.2414 13.6295 71.1412C12.7111 70.2546 11.8093 69.3521 10.9243 68.4337C10.5901 68.0859 10.3537 68.0927 10.0149 68.4337C9.14881 69.3316 8.26222 70.2114 7.36882 71.0798C6.18898 72.2323 4.55903 72.2801 3.50422 71.2162C2.44941 70.1523 2.49715 68.5223 3.64744 67.3516C4.34079 66.64 5.01141 65.908 5.75933 65.2556C6.30492 64.7759 6.16397 64.5486 5.63202 64.2099C4.22258 63.3127 2.83057 62.3859 1.45598 61.4296C0.307966 60.6317 -0.0853156 59.4201 0.35343 58.2357C0.933121 56.6762 2.71311 56.0442 4.21803 56.924C5.24556 57.5219 6.22081 58.2107 7.20287 58.8836C7.67344 59.2041 7.88486 59.2018 7.86894 58.5448C7.84621 57.7537 7.86894 56.9581 7.87122 56.1647Z" fill="#CC9933"/>
<path d="M33.4025 56.1692C33.4025 55.4327 33.3866 54.6939 33.4025 53.9573C33.421 53.2799 33.7027 52.6364 34.1878 52.1633C34.673 51.6901 35.3234 51.4247 36.001 51.4232C36.6787 51.4217 37.3302 51.6843 37.8175 52.1553C38.3047 52.6263 38.5892 53.2686 38.6106 53.946C38.6364 55.4766 38.6364 57.0073 38.6106 58.538C38.6106 59.1632 38.7788 59.22 39.2721 58.8904C40.1815 58.2629 41.0908 57.6423 42.0342 57.0536C43.4459 56.167 45.0486 56.4466 45.8647 57.6946C46.6808 58.9427 46.3375 60.5226 44.9554 61.4751C43.6755 62.3662 42.3661 63.2142 41.0703 64.0803C40.161 64.685 40.161 64.6827 40.9021 65.4193C41.5659 66.0808 42.2365 66.7332 42.8844 67.4084C43.9801 68.5451 44.0097 70.1796 42.9685 71.2207C41.9273 72.2619 40.2951 72.246 39.1585 71.148C38.2401 70.2614 37.3383 69.3589 36.4533 68.4405C36.1214 68.0972 35.8849 68.0859 35.5439 68.4405C34.6801 69.3384 33.7935 70.2182 32.9001 71.0889C31.718 72.2392 30.0903 72.2937 29.0355 71.2321C27.9807 70.1705 28.0216 68.5382 29.1696 67.3675C29.8834 66.6378 30.5882 65.8967 31.3429 65.2101C31.7975 64.7896 31.7043 64.5804 31.2315 64.2758C29.8039 63.3544 28.3891 62.411 26.9873 61.4456C25.8642 60.6681 25.4596 59.4974 25.8506 58.3312C26.3848 56.7285 28.2126 56.0442 29.747 56.9353C30.7746 57.5309 31.7498 58.2243 32.7319 58.8927C33.1865 59.2041 33.4275 59.2405 33.4025 58.5653C33.3707 57.7583 33.4025 56.9626 33.4025 56.1692Z" fill="#CC9933"/>
<path d="M58.9225 56.1238C58.9225 55.3872 58.902 54.6484 58.9225 53.9119C58.9289 53.5781 59.0016 53.249 59.1361 52.9435C59.2707 52.638 59.4645 52.3622 59.7064 52.1322C59.9483 51.9022 60.2334 51.7224 60.5453 51.6033C60.8571 51.4842 61.1895 51.4282 61.5231 51.4385C62.969 51.4385 64.0988 52.482 64.1283 53.9073C64.1602 55.4645 64.1488 57.0263 64.1283 58.5835C64.1283 59.1723 64.3034 59.22 64.7535 58.9108C65.6628 58.2857 66.5721 57.6651 67.5155 57.074C68.9386 56.1647 70.5231 56.4307 71.3574 57.6605C72.2213 58.9336 71.8575 60.5271 70.4481 61.5024C69.1182 62.4117 67.777 63.321 66.413 64.1872C65.8629 64.5372 65.6992 64.7782 66.2766 65.2829C67.0404 65.9649 67.7429 66.7014 68.4453 67.4425C69.5297 68.5792 69.5274 70.2273 68.4681 71.2548C67.4087 72.2824 65.8265 72.2392 64.7171 71.1753C63.7957 70.2917 62.8939 69.3892 62.0119 68.4678C61.6527 68.0904 61.4072 68.0904 61.048 68.4678C60.1864 69.3771 59.2976 70.2478 58.4019 71.1162C57.2289 72.2528 55.5785 72.2778 54.5373 71.1934C53.4961 70.1091 53.5643 68.5291 54.6782 67.3834C55.3875 66.6491 56.0922 65.908 56.8492 65.2238C57.3448 64.7691 57.2334 64.5577 56.7288 64.2372C55.3216 63.3278 53.9303 62.4026 52.5527 61.4547C51.4161 60.6749 50.9978 59.5246 51.366 58.3539C51.4866 57.9752 51.6914 57.6289 51.9653 57.3409C52.2391 57.053 52.5747 56.8309 52.9467 56.6915C53.3188 56.5521 53.7177 56.4989 54.1133 56.536C54.509 56.5731 54.891 56.6996 55.2307 56.9058C56.2627 57.4946 57.2243 58.2038 58.2269 58.8472C58.4042 58.9608 58.5747 59.2223 58.8179 59.0745C58.9975 58.9563 58.9111 58.7085 58.9134 58.5176C58.9134 57.7219 58.9134 56.9262 58.9134 56.1351L58.9225 56.1238Z" fill="#CC9933"/>
</svg>
