<svg width="21" height="20" viewBox="0 0 21 20" fill="none" xmlns="http://www.w3.org/2000/svg">
<path d="M10.4642 1.66666C8.28086 1.66666 6.50586 3.44166 6.50586 5.62499C6.50586 7.76666 8.18086 9.49999 10.3642 9.57499C10.4309 9.56666 10.4975 9.56666 10.5475 9.57499C10.5642 9.57499 10.5725 9.57499 10.5892 9.57499C10.5975 9.57499 10.5975 9.57499 10.6059 9.57499C12.7392 9.49999 14.4142 7.76666 14.4225 5.62499C14.4225 3.44166 12.6475 1.66666 10.4642 1.66666Z" fill="#CC9933"/>
<path d="M14.6977 11.7917C12.3727 10.2417 8.58099 10.2417 6.23932 11.7917C5.18099 12.5 4.59766 13.4583 4.59766 14.4833C4.59766 15.5083 5.18099 16.4583 6.23099 17.1583C7.39766 17.9417 8.93099 18.3333 10.4643 18.3333C11.9977 18.3333 13.531 17.9417 14.6977 17.1583C15.7477 16.45 16.331 15.5 16.331 14.4667C16.3227 13.4417 15.7477 12.4917 14.6977 11.7917Z" fill="#CC9933"/>
</svg>
