<svg width="21" height="20" viewBox="0 0 21 20" fill="none" xmlns="http://www.w3.org/2000/svg">
<path d="M18.389 2.61722C18.3405 2.50014 18.2689 2.3904 18.1741 2.29502C18.1727 2.2936 18.1712 2.29219 18.1698 2.29078C17.989 2.11106 17.7399 2 17.4648 2H13.4648C12.9126 2 12.4648 2.44772 12.4648 3C12.4648 3.55228 12.9126 4 13.4648 4H15.0506L11.7577 7.29289C11.3672 7.68342 11.3672 8.31658 11.7577 8.70711C12.1483 9.09763 12.7814 9.09763 13.172 8.70711L16.4648 5.41421V7C16.4648 7.55228 16.9126 8 17.4648 8C18.0171 8 18.4648 7.55228 18.4648 7V3C18.4648 2.86441 18.4379 2.73512 18.389 2.61722Z" fill="#676767"/>
<path d="M2.46484 3C2.46484 2.44772 2.91256 2 3.46484 2H5.61772C6.10656 2 6.52375 2.35341 6.60411 2.8356L7.34342 7.27147C7.4156 7.70451 7.1969 8.13397 6.80424 8.3303L5.2561 9.10437C6.3724 11.8783 8.58652 14.0924 11.3605 15.2087L12.1345 13.6606C12.3309 13.2679 12.7603 13.0492 13.1934 13.1214L17.6292 13.8607C18.1114 13.9411 18.4648 14.3583 18.4648 14.8471V17C18.4648 17.5523 18.0171 18 17.4648 18H15.4648C8.28514 18 2.46484 12.1797 2.46484 5V3Z" fill="#676767"/>
</svg>
