<svg width="17" height="16" viewBox="0 0 17 16" fill="none" xmlns="http://www.w3.org/2000/svg">
<path d="M5.70081 14.7667C3.93414 14.7667 2.49414 13.3333 2.49414 11.56V9.66668C2.49414 9.22001 2.93414 8.92001 3.35414 9.06668C3.52747 9.12668 3.70081 9.16668 3.88081 9.19335C3.96081 9.20668 4.04081 9.22001 4.12081 9.22001C4.22081 9.23335 4.32747 9.24001 4.42747 9.24001C5.16747 9.24001 5.90081 8.96668 6.48081 8.49335C7.03414 8.96668 7.74747 9.24001 8.50747 9.24001C9.26747 9.24001 9.97414 8.98001 10.5275 8.50001C11.1008 8.96668 11.8208 9.24001 12.5541 9.24001C12.6675 9.24001 12.7875 9.23335 12.8941 9.22001C12.9741 9.21335 13.0408 9.20668 13.1141 9.19335C13.3141 9.16668 13.4941 9.11335 13.6741 9.05335C14.0875 8.91335 14.5208 9.22001 14.5208 9.65335V11.56C14.5208 13.3267 13.0875 14.7667 11.3141 14.7667H5.70081Z" fill="#CC9933"/>
<path d="M15.1539 5.72667L14.9672 3.95334C14.7006 2.02 13.8206 1.23334 11.9472 1.23334H5.04722C3.16722 1.23334 2.29389 2.02 2.02055 3.97334L1.84722 5.73334C1.78055 6.42 1.96722 7.08667 2.37389 7.60667C2.86055 8.24 3.60722 8.6 4.44055 8.6C5.24722 8.6 6.02055 8.19334 6.51389 7.54667C6.94722 8.19334 7.68722 8.6 8.51389 8.6C9.34055 8.6 10.0672 8.21334 10.5072 7.57334C11.0006 8.20667 11.7672 8.6 12.5606 8.6C13.4139 8.6 14.1806 8.22 14.6606 7.55334C15.0472 7.04 15.2206 6.39334 15.1539 5.72667ZM9.50055 5.15334H7.50055C7.22722 5.15334 7.00055 4.93334 7.00055 4.65334C7.00055 4.38 7.22722 4.15334 7.50055 4.15334H9.50055C9.77389 4.15334 10.0006 4.38 10.0006 4.65334C10.0006 4.93334 9.77389 5.15334 9.50055 5.15334Z" fill="#CC9933"/>
</svg>
