<svg width="142" height="64" viewBox="0 0 142 64" fill="none" xmlns="http://www.w3.org/2000/svg">
<path d="M81.1067 14.7738V14.6926L84.2415 12.8724L87.8434 10.7806L87.8905 10.7494L85.9782 8.72317L84.2478 9.72536L82.4485 10.7713L81.1162 11.5455V3.58418L81.0378 3.50301H78.3952V8.07064H76.0096V0.515151L74.0691 1.64224L73.2886 2.09495L70.8622 3.50301L67.414 5.50741V1.64224H64.693V4.21485L64.019 3.50301L62.2635 1.62974L60.6961 -0.0124664L59.9375 0.446474L58.4641 1.2988L58.2886 1.40184L58.4641 1.58605L58.5174 1.64224L60.276 3.51551L64.0221 7.48058L64.5895 8.08315H58.4641V7.90206L55.7462 5.02347L54.4453 3.64663L52.0315 5.04533L54.903 8.08315H50.6021V10.7931H55.7462V14.7863H50.6021V17.4963H55.7462V23.0068H58.4641V17.4838H64.693V19.9659L64.7619 20.0408H64.693V25.7043H73.2886V26.1539L72.4516 26.6409L71.5111 27.1873L67.414 29.5663V32.6884L73.2886 29.2791V32.4449L67.414 35.8574V38.9795L73.2886 35.567V43.1256L76.0096 41.5458L78.3952 40.1596L81.1162 38.5798V31.0431L84.251 29.226V26.1664L84.2039 26.1164L82.5613 27.078L81.1067 27.921V25.7043H84.2415V22.9256L89.2165 20.0377L92.16 18.3268V14.7738H81.1067ZM58.4641 14.7738V11.8453L59.6773 13.1285L61.2447 14.7738H58.4641ZM64.6836 14.4616L62.0911 11.7173L61.1977 10.7806H64.693L64.6836 14.4616ZM76.0002 10.7713H78.3857V13.1253L76.0002 14.5115V10.7713ZM68.3857 8.06129L73.2792 5.22329V8.06129H68.3857L68.3481 8.08625L68.3262 8.06129H68.3857ZM78.3857 37.0407L76.0002 38.4269V34.0153L77.2541 33.2816L78.1945 32.7384L78.3795 32.6291L78.3857 37.0407ZM78.3857 29.482L76.2917 30.7121L76.0033 30.8776V27.7118L76.7713 27.2653L78.3889 26.3287L78.3857 29.482ZM78.6428 18.9824C78.593 19.2892 78.5067 19.5889 78.3857 19.8753V22.9974H76.0002V22.0608C75.1097 22.3513 74.1441 22.3137 73.2792 21.9546V22.9849H67.4046V17.3527L67.5268 17.4838H70.9751C70.9751 17.4651 70.9751 17.4463 70.9751 17.4307C71.1271 16.8152 71.4297 16.2467 71.856 15.776C72.2451 15.3412 72.7272 14.9988 73.2666 14.7738H67.4046V10.7806H73.2792V14.5677L73.4202 14.7176C73.7391 14.6004 74.0722 14.5258 74.4108 14.4959C74.5362 14.4959 74.6679 14.4741 74.7995 14.4741C75.1535 14.4737 75.5059 14.522 75.8466 14.6177L76.0158 14.6677C76.113 14.6989 76.2071 14.7332 76.3011 14.7738C77.0901 15.0976 77.7508 15.6701 78.182 16.4035C78.2694 16.5486 78.3459 16.6999 78.4108 16.8562C78.4965 17.0585 78.5656 17.2673 78.6177 17.4807C78.6848 17.7715 78.7184 18.069 78.718 18.3674C78.709 18.5771 78.6839 18.7859 78.6428 18.9918V18.9824ZM84.2384 19.8035L83.809 20.0533L81.113 21.6143V17.4838H88.2039L84.2384 19.8035Z" fill="white"/>
<path d="M75.63 18.0614C75.63 17.7716 75.7456 17.4936 75.9514 17.2887C76.1572 17.0838 76.4362 16.9686 76.7272 16.9686C77.0182 16.9686 77.2973 17.0838 77.503 17.2887C77.7088 17.4936 77.8244 17.7716 77.8244 18.0614C77.824 18.1169 77.8187 18.1723 77.8087 18.2269H78.7178C78.6791 17.2455 78.2704 16.3148 77.5731 15.6204C76.8759 14.9259 75.9414 14.5189 74.9561 14.4803V18.2269H75.6489C75.6378 18.1723 75.6315 18.117 75.63 18.0614Z" fill="#CC9933"/>
<path d="M75.8781 20.4279C75.8789 20.5554 75.8477 20.681 75.7872 20.7932C75.7206 20.9144 75.6228 21.0157 75.5037 21.0865C75.3846 21.1573 75.2487 21.1951 75.1101 21.196H75.038C74.8475 21.1774 74.6714 21.0869 74.5458 20.9431V21.3646V22.2762C73.5982 22.2148 72.7053 21.8128 72.033 21.145C71.3607 20.4771 70.9547 19.5888 70.8906 18.6452H71.6304C71.6257 18.7013 71.6257 18.7577 71.6304 18.8138C71.6304 19.1036 71.746 19.3816 71.9518 19.5865C72.1576 19.7914 72.4366 19.9066 72.7276 19.9066C73.0186 19.9066 73.2977 19.7914 73.5034 19.5865C73.7092 19.3816 73.8248 19.1036 73.8248 18.8138C73.8244 18.7573 73.8191 18.7009 73.8091 18.6452H74.5583V19.4913V19.9128C74.6663 19.7899 74.8116 19.7055 74.9721 19.6724H75.0474H75.1289C75.3274 19.678 75.5161 19.7597 75.6557 19.9004C75.7953 20.0412 75.8749 20.2301 75.8781 20.4279Z" fill="#CC9933"/>
<path d="M76.0255 18.3798C75.9719 18.2628 75.9487 18.1343 75.9581 18.006C75.9674 17.8777 76.0089 17.7538 76.0788 17.6457C76.1487 17.5376 76.2447 17.4486 76.3581 17.387C76.4715 17.3255 76.5985 17.2933 76.7277 17.2934C76.9311 17.2958 77.1255 17.3776 77.2691 17.5212C77.4127 17.6648 77.4941 17.8587 77.4957 18.0614C77.4957 18.1693 77.4728 18.276 77.4285 18.3744C77.3842 18.4729 77.3195 18.5609 77.2386 18.6327H76.2136C76.1346 18.5617 76.0706 18.4758 76.0255 18.3798Z" fill="#CC9933"/>
<path d="M78.712 18.6359C78.6454 19.5973 78.2246 20.5005 77.5303 21.1718C76.836 21.8432 75.9171 22.2353 74.9502 22.2731V21.5019C75.0034 21.5066 75.0569 21.5066 75.1101 21.5019C75.4011 21.5019 75.6801 21.3868 75.8859 21.1819C76.0917 20.977 76.2073 20.699 76.2073 20.4092C76.2073 20.1194 76.0917 19.8415 75.8859 19.6365C75.6801 19.4316 75.4011 19.3165 75.1101 19.3165C75.0569 19.3118 75.0034 19.3118 74.9502 19.3165V18.6109L78.712 18.6359Z" fill="#CC9933"/>
<path d="M73.4703 18.717C73.4719 18.7451 73.4719 18.7732 73.4703 18.8013C73.4744 18.9937 73.4056 19.1805 73.2776 19.3246C73.1496 19.4686 72.9717 19.5594 72.7795 19.5787C72.5873 19.598 72.3949 19.5444 72.2406 19.4287C72.0862 19.313 71.9814 19.1436 71.9468 18.9543C71.9368 18.9039 71.9316 18.8527 71.9312 18.8013C71.9311 18.6934 71.954 18.5867 71.9983 18.4883C72.0426 18.3898 72.1073 18.3018 72.1882 18.23H73.2133C73.3343 18.3351 73.4179 18.4764 73.4515 18.6327C73.4533 18.6598 73.4533 18.6869 73.4515 18.7139L73.4703 18.717Z" fill="#CC9933"/>
<path d="M73.2792 16.4067C73.2792 16.6965 73.3948 16.9744 73.6005 17.1793C73.8063 17.3843 74.0854 17.4994 74.3764 17.4994C74.4316 17.5041 74.4872 17.5041 74.5425 17.4994V18.2425H70.8779C70.9168 17.2776 71.3126 16.3612 71.9891 15.6696C72.6656 14.9779 73.5751 14.5599 74.5425 14.4959V15.3514C74.4872 15.3483 74.4317 15.3483 74.3764 15.3514C74.0918 15.3512 73.8183 15.4612 73.6135 15.6581C73.4088 15.855 73.2889 16.1234 73.2792 16.4067Z" fill="#CC9933"/>
<path d="M73.6994 16.057C73.635 16.1738 73.6023 16.3053 73.6046 16.4385C73.6069 16.5717 73.6441 16.702 73.7125 16.8166C73.7809 16.9311 73.8782 17.0258 73.9946 17.0913C74.1111 17.1569 74.2428 17.191 74.3766 17.1903H74.4487C74.6365 17.1683 74.8101 17.0796 74.9377 16.9406V15.9196C74.8562 15.8261 74.753 15.7538 74.6372 15.709C74.5213 15.6641 74.3962 15.6481 74.2727 15.6622C74.1492 15.6764 74.031 15.7203 73.9284 15.7902C73.8258 15.86 73.7418 15.9538 73.6838 16.0632L73.6994 16.057Z" fill="#CC9933"/>
<path d="M89.9251 32.1639H87.2041V38.9046H89.9251V32.1639Z" fill="white"/>
<path d="M18.5643 60.753H7.30721L5.45141 63.6878H0L9.94044 48.5269H15.9718L25.8903 63.7003H20.395L18.5643 60.753ZM16.5768 57.6309L12.9342 51.8019L9.27273 57.6309H16.5768Z" fill="#CC9933"/>
<path d="M27.6773 63.6878V55.7233H25.4233V52.3421H27.6773C27.8121 48.3614 30.7368 46.6911 35.5644 46.6911C37.4291 46.71 39.289 46.8813 41.1255 47.2031L40.345 50.3252C38.7015 50.0985 37.0448 49.9796 35.3857 49.9693C32.8152 49.9693 31.9374 50.5937 31.9374 52.3046V52.3483H38.9876V55.7295H31.9218V63.694L27.6773 63.6878Z" fill="#CC9933"/>
<path d="M40.3198 52.3421H44.0283L44.3637 54.2778C46.6866 53.0758 49.5894 52.0517 52.7399 52.0517V55.8357C49.5455 55.8357 47.1568 56.2135 44.5424 57.147V63.6878H40.3198V52.3421Z" fill="#CC9933"/>
<path d="M58.7055 50.8965H54.4829V47.4247H58.7055V50.8965ZM54.4829 52.3421H58.7055V63.6878H54.4829V52.3421Z" fill="#CC9933"/>
<path d="M61.1162 48.5269H76.4422C80.204 48.5269 82.8059 49.8631 82.8059 53.9343C82.8059 58.2272 80.1946 59.807 76.4422 59.807H65.6523V63.7003H61.1162V48.5269ZM65.6523 52.3983V55.9606H75.9281C77.3795 55.9606 78.1225 55.4704 78.1225 54.1779C78.1225 52.801 77.3858 52.3983 75.9281 52.3983H65.6523Z" fill="#CC9933"/>
<path d="M84.5269 52.3421H88.2353L88.5708 54.2778C90.8936 53.0758 93.7965 52.0517 96.9469 52.0517V55.8357C93.7526 55.8357 91.3607 56.2135 88.7494 57.147V63.6878H84.5269V52.3421Z" fill="#CC9933"/>
<path d="M102.909 50.8965H98.6865V47.4247H102.909V50.8965ZM98.6865 52.3421H102.909V63.6878H98.6865V52.3421Z" fill="#CC9933"/>
<path d="M122.524 63.6878H104.969V60.7967L110.611 57.6746C113.088 56.4508 116.329 55.5828 117.715 55.2519H105.176V52.3358H122.511V55.2519L117.495 58.0992C114.549 59.6322 111.354 60.4346 110.147 60.7905H122.524V63.6878Z" fill="#CC9933"/>
<path d="M140.884 60.1068L141.734 63.1321C139.611 63.666 136.217 64 133.289 64C126.812 64 123.997 62.2423 123.997 58.0149C123.997 53.7876 127.169 52.0517 133.022 52.0517C138.448 52.0517 142 53.4535 142 57.147C142 57.6809 141.934 58.6831 141.89 58.9734H128.173C128.555 60.3753 129.985 60.6843 133.668 60.6843C136.085 60.6916 138.499 60.4985 140.884 60.1068ZM128.151 56.7911H137.825C137.577 55.4361 136.461 54.8554 132.865 54.8554C129.737 54.8554 128.486 55.3237 128.151 56.7911Z" fill="#CC9933"/>
</svg>
