<svg width="21" height="20" viewBox="0 0 21 20" fill="none" xmlns="http://www.w3.org/2000/svg">
<path d="M10.4648 2C11.0171 2 11.4648 2.44772 11.4648 3V4C11.4648 4.55228 11.0171 5 10.4648 5C9.91256 5 9.46484 4.55228 9.46484 4V3C9.46484 2.44772 9.91256 2 10.4648 2Z" fill="#676767"/>
<path d="M14.4648 10C14.4648 12.2091 12.674 14 10.4648 14C8.2557 14 6.46484 12.2091 6.46484 10C6.46484 7.79086 8.2557 6 10.4648 6C12.674 6 14.4648 7.79086 14.4648 10Z" fill="#676767"/>
<path d="M14.0004 14.9497L14.7075 15.6568C15.0981 16.0473 15.7312 16.0473 16.1218 15.6568C16.5123 15.2663 16.5123 14.6331 16.1218 14.2426L15.4146 13.5355C15.0241 13.145 14.391 13.145 14.0004 13.5355C13.6099 13.926 13.6099 14.5592 14.0004 14.9497Z" fill="#676767"/>
<path d="M16.1217 4.34309C16.5122 4.73362 16.5122 5.36678 16.1217 5.75731L15.4146 6.46441C15.024 6.85494 14.3909 6.85494 14.0003 6.46441C13.6098 6.07389 13.6098 5.44072 14.0003 5.0502L14.7074 4.34309C15.098 3.95257 15.7311 3.95257 16.1217 4.34309Z" fill="#676767"/>
<path d="M17.4648 11C18.0171 11 18.4648 10.5523 18.4648 10C18.4648 9.44772 18.0171 9 17.4648 9H16.4648C15.9126 9 15.4648 9.44772 15.4648 10C15.4648 10.5523 15.9126 11 16.4648 11H17.4648Z" fill="#676767"/>
<path d="M10.4648 15C11.0171 15 11.4648 15.4477 11.4648 16V17C11.4648 17.5523 11.0171 18 10.4648 18C9.91256 18 9.46484 17.5523 9.46484 17V16C9.46484 15.4477 9.91256 15 10.4648 15Z" fill="#676767"/>
<path d="M5.51515 6.46443C5.90568 6.85496 6.53884 6.85496 6.92937 6.46443C7.31989 6.07391 7.31989 5.44074 6.92937 5.05022L6.22226 4.34311C5.83174 3.95259 5.19857 3.95259 4.80805 4.34311C4.41752 4.73363 4.41752 5.3668 4.80805 5.75732L5.51515 6.46443Z" fill="#676767"/>
<path d="M6.92927 14.9497L6.22217 15.6568C5.83164 16.0473 5.19848 16.0473 4.80795 15.6568C4.41743 15.2663 4.41743 14.6331 4.80795 14.2426L5.51506 13.5355C5.90559 13.145 6.53875 13.145 6.92927 13.5355C7.3198 13.926 7.3198 14.5592 6.92927 14.9497Z" fill="#676767"/>
<path d="M4.46484 11C5.01713 11 5.46484 10.5523 5.46484 10C5.46484 9.44772 5.01713 9 4.46484 9H3.46484C2.91256 9 2.46484 9.44772 2.46484 10C2.46484 10.5523 2.91256 11 3.46484 11H4.46484Z" fill="#676767"/>
</svg>
