<svg width="21" height="20" viewBox="0 0 21 20" fill="none" xmlns="http://www.w3.org/2000/svg">
<path d="M18.3397 11.3667V12.2C18.3397 12.425 18.1647 12.6083 17.9314 12.6167H16.7147C16.2731 12.6167 15.8731 12.2917 15.8397 11.8583C15.8147 11.6 15.9147 11.3583 16.0814 11.1917C16.2314 11.0333 16.4397 10.95 16.6647 10.95H17.9231C18.1647 10.9583 18.3397 11.1417 18.3397 11.3667Z" fill="#676767"/>
<path d="M15.4559 10.575C15.0392 10.9833 14.8392 11.5917 15.0059 12.225C15.2225 13 15.9809 13.4917 16.7809 13.4917H17.5059C17.9642 13.4917 18.3392 13.8667 18.3392 14.325V14.4833C18.3392 16.2083 16.9309 17.6167 15.2059 17.6167H5.63919C3.91419 17.6167 2.50586 16.2083 2.50586 14.4833V8.875C2.50586 7.85 2.99753 6.94167 3.75586 6.375C4.28086 5.975 4.93086 5.74167 5.63919 5.74167H15.2059C16.9309 5.74167 18.3392 7.15 18.3392 8.875V9.24167C18.3392 9.7 17.9642 10.075 17.5059 10.075H16.6559C16.1892 10.075 15.7642 10.2583 15.4559 10.575Z" fill="#676767"/>
<path d="M13.9647 4.01666C14.1897 4.24166 13.9981 4.59166 13.6814 4.59166L7.2814 4.58332C6.91473 4.58332 6.72306 4.13332 6.98973 3.87499L8.33973 2.51666C9.4814 1.38332 11.3314 1.38332 12.4731 2.51666L13.9314 3.99166C13.9397 3.99999 13.9564 4.00832 13.9647 4.01666Z" fill="#676767"/>
</svg>
