<svg width="341" height="318" viewBox="0 0 341 318" fill="none" xmlns="http://www.w3.org/2000/svg">
<path d="M244.013 317.746C270.973 317.746 292.827 314.432 292.827 310.343C292.827 306.254 270.973 302.939 244.013 302.939C217.054 302.939 195.199 306.254 195.199 310.343C195.199 314.432 217.054 317.746 244.013 317.746Z" fill="#FFBA49" fill-opacity="0.85"/>
<path opacity="0.5" d="M244.013 317.746C270.973 317.746 292.827 314.432 292.827 310.343C292.827 306.254 270.973 302.939 244.013 302.939C217.054 302.939 195.199 306.254 195.199 310.343C195.199 314.432 217.054 317.746 244.013 317.746Z" fill="white"/>
<path d="M95.2186 306.979C115.486 306.979 131.916 303.664 131.916 299.575C131.916 295.486 115.486 292.172 95.2186 292.172C74.9513 292.172 58.5215 295.486 58.5215 299.575C58.5215 303.664 74.9513 306.979 95.2186 306.979Z" fill="#FFBA49" fill-opacity="0.85"/>
<path opacity="0.5" d="M95.2186 306.979C115.486 306.979 131.916 303.664 131.916 299.575C131.916 295.486 115.486 292.172 95.2186 292.172C74.9513 292.172 58.5215 295.486 58.5215 299.575C58.5215 303.664 74.9513 306.979 95.2186 306.979Z" fill="white"/>
<path d="M77.3762 280.349L96.062 272.573C94.7571 270.433 93.4522 271.445 91.7834 267.983C90.8957 266.208 91.6768 263.35 90.5584 261.059C89.6707 259.186 86.91 257.997 85.8447 255.849C84.8771 253.913 85.5784 251.028 84.5309 248.942C83.4835 246.856 80.7938 245.827 79.7463 243.794C78.6988 241.761 79.3823 238.903 78.326 236.905C77.2696 234.908 74.5089 233.807 73.4526 231.837C72.3962 229.866 72.9555 226.91 71.8725 224.984C70.7895 223.057 67.94 221.939 66.8482 220.084C65.6232 218.006 66.0759 215.068 64.9485 213.302C63.5726 211.153 60.7054 210.372 59.5425 208.863C57.3588 206.023 56.187 202.898 55.104 203.111C54.0211 203.324 54.962 206.466 55.5568 210.212C55.8586 212.077 54.456 214.651 55.0774 217.145C55.5745 219.151 58.0245 220.82 58.6992 223.111C59.2939 225.161 58.1044 227.869 58.8057 230.079C59.507 232.289 61.9747 233.701 62.6938 235.858C63.4128 238.015 62.2854 240.705 63.0133 242.826C63.7413 244.948 66.2978 246.43 67.0346 248.516C67.7714 250.602 66.7328 253.416 67.4784 255.476C68.2241 257.535 70.8428 259.097 71.5796 261.113C72.4051 263.341 71.3843 266.11 72.1122 268.054C72.9999 270.416 75.6008 271.854 76.2843 273.638C77.7667 277.535 75.6807 277.464 76.9057 280.588L77.3762 280.349Z" fill="#2E353A" fill-opacity="0.9"/>
<path d="M57.2524 209.404L85.0371 276.15" stroke="white" stroke-width="0.360849" stroke-miterlimit="10"/>
<path d="M63.0845 215.192L61.1316 219.08L57.2612 216.799" stroke="white" stroke-width="0.360849" stroke-miterlimit="10"/>
<path d="M67.9135 226.804L65.9694 230.701L62.0991 228.419" stroke="white" stroke-width="0.360849" stroke-miterlimit="10"/>
<path d="M72.4673 237.73L70.5233 241.627L66.644 239.346" stroke="white" stroke-width="0.360849" stroke-miterlimit="10"/>
<path d="M77.8823 250.727L75.9294 254.624L72.0591 252.342" stroke="white" stroke-width="0.360849" stroke-miterlimit="10"/>
<path d="M83.3505 263.864L81.4065 267.761L77.5361 265.48" stroke="white" stroke-width="0.360849" stroke-miterlimit="10"/>
<path d="M75.2632 275.191L105.746 274.224C105.045 270.513 102.675 271.241 102.196 265.48C101.947 262.568 104.521 258.884 104.166 255.067C103.873 251.925 100.669 248.8 100.314 245.205C99.9943 241.965 102.524 238.272 102.16 234.775C101.805 231.472 98.5562 228.392 98.1745 224.966C97.7928 221.539 100.269 217.864 99.8611 214.5C99.4528 211.135 96.1417 208.1 95.6979 204.735C95.254 201.371 97.633 197.527 97.1359 194.243C96.621 190.763 93.2301 187.843 92.6975 184.638C92.0849 181.087 94.2953 177.164 93.6473 174.092C92.8572 170.32 89.2088 167.683 88.4099 164.913C86.8653 159.747 86.8742 154.714 85.232 154.439C83.5898 154.164 83.2347 159.081 82.0896 164.629C81.5126 167.417 78.1482 170.328 77.7044 174.145C77.3404 177.235 79.897 180.892 79.6129 184.469C79.3555 187.683 76.2397 190.861 76.0621 194.34C75.8757 197.625 78.6009 201.149 78.45 204.575C78.2991 208.002 75.2899 211.171 75.1833 214.553C75.0768 217.935 77.8464 221.379 77.802 224.717C77.7576 228.055 74.7572 231.464 74.704 234.757C74.6507 238.237 77.5091 241.654 77.4736 244.885C77.4736 248.436 74.5265 251.827 74.5176 254.961C74.5176 258.751 77.3937 262.16 77.4026 265.054C77.4026 271.321 74.5087 270.114 74.562 275.165L75.2632 275.191Z" fill="#2E353A" fill-opacity="0.9"/>
<path d="M84.8418 164.505L88.3127 273.371" stroke="white" stroke-width="0.543628" stroke-miterlimit="10"/>
<path d="M89.9637 175.77L85.1347 180.209L80.9004 174.927" stroke="white" stroke-width="0.543628" stroke-miterlimit="10"/>
<path d="M90.5672 194.713L85.7382 199.161L81.5039 193.879" stroke="white" stroke-width="0.543628" stroke-miterlimit="10"/>
<path d="M91.1356 212.538L86.3065 216.976L82.0723 211.694" stroke="white" stroke-width="0.543628" stroke-miterlimit="10"/>
<path d="M91.8098 233.736L86.9808 238.183L82.7554 232.901" stroke="white" stroke-width="0.543628" stroke-miterlimit="10"/>
<path d="M92.4935 255.165L87.6645 259.612L83.4302 254.33" stroke="white" stroke-width="0.543628" stroke-miterlimit="10"/>
<path d="M93.6209 206.715C95.1833 207.789 99.3909 208.491 99.3998 208.491C99.4087 208.491 99.027 205.579 98.9826 205.393C98.4322 203.289 96.142 199.552 93.7186 199.418C93.3148 199.406 92.9129 199.479 92.5391 199.632C92.1654 199.785 91.828 200.015 91.5491 200.308C91.2703 200.6 91.0561 200.948 90.9206 201.328C90.7851 201.709 90.7312 202.114 90.7626 202.516C90.8336 204.247 92.2805 205.792 93.6209 206.715Z" fill="#2E353A" fill-opacity="0.9"/>
<path d="M135.813 215.849C135.813 215.849 137.118 213.186 137.18 213.035C137.881 210.985 138.067 206.599 136.088 205.144C135.758 204.911 135.382 204.751 134.986 204.673C134.59 204.595 134.181 204.602 133.788 204.692C133.394 204.783 133.024 204.955 132.702 205.198C132.379 205.441 132.111 205.749 131.916 206.102C131.028 207.576 131.383 209.653 131.987 211.162C132.741 212.929 135.813 215.849 135.813 215.849Z" fill="#2E353A" fill-opacity="0.9"/>
<path d="M151.267 203.093C148.941 202.383 145.488 205.082 144.246 206.866C144.139 207.017 142.728 209.618 142.772 209.627H142.825C142.275 210.044 141.698 210.515 141.05 211.021C139.905 211.979 138.609 213.08 137.286 214.367C135.845 215.737 134.485 217.19 133.212 218.717C131.78 220.423 130.503 222.253 129.395 224.185V224.256C129.545 223.564 129.892 221.593 129.901 221.451C130.034 219.285 129.013 215.015 126.758 214.127C126.377 213.989 125.971 213.932 125.567 213.961C125.163 213.99 124.769 214.105 124.412 214.297C124.055 214.488 123.742 214.754 123.495 215.075C123.248 215.396 123.071 215.766 122.977 216.16C122.515 217.811 123.412 219.711 124.388 221.016C125.498 222.472 128.986 224.354 129.27 224.505C128.19 226.511 127.244 228.587 126.439 230.718C125.968 231.952 125.551 233.204 125.098 234.473C125.205 233.87 125.302 233.319 125.302 233.248C125.435 231.082 124.415 226.813 122.169 225.925C121.789 225.787 121.384 225.732 120.982 225.761C120.579 225.79 120.187 225.904 119.831 226.095C119.475 226.286 119.163 226.55 118.916 226.869C118.669 227.188 118.492 227.556 118.396 227.949C117.926 229.6 118.822 231.5 119.799 232.804C120.775 234.109 123.74 235.778 124.53 236.204L124.051 237.669C123.296 240.004 122.559 242.347 121.769 244.62C121.485 245.419 121.183 246.2 120.882 246.972C120.97 246.439 121.05 245.978 121.059 245.916C121.192 243.741 120.171 239.48 117.917 238.592C117.537 238.453 117.132 238.396 116.729 238.425C116.326 238.454 115.933 238.567 115.577 238.758C115.22 238.95 114.909 239.214 114.662 239.534C114.415 239.854 114.238 240.223 114.144 240.616C113.682 242.267 114.57 244.167 115.555 245.472C116.541 246.777 119.213 248.286 120.136 248.801C119.808 249.582 119.47 250.381 119.115 251.126C118.858 251.632 118.645 252.138 118.361 252.635C118.077 253.133 117.819 253.621 117.553 254.1C117.002 254.988 116.434 255.964 115.875 256.852C115.493 257.464 115.121 258.041 114.739 258.627C115.023 257.828 115.555 256.266 115.626 256.133C115.961 254.253 115.808 252.318 115.183 250.514C115.234 250.304 115.264 250.09 115.271 249.875C115.298 249.472 115.239 249.068 115.099 248.689C114.959 248.31 114.741 247.965 114.459 247.676C114.177 247.387 113.837 247.161 113.461 247.012C113.086 246.863 112.683 246.795 112.28 246.812C109.857 246.981 107.602 250.745 107.087 252.848C107.087 252.973 106.874 254.358 106.767 255.236C106.767 254.713 106.767 254.207 106.714 253.665C106.714 252.6 106.59 251.535 106.519 250.39C106.457 249.839 106.403 249.28 106.341 248.721C106.279 248.161 106.181 247.576 106.102 246.999C105.889 245.658 105.604 244.336 105.285 242.968C106.226 242.968 109.537 242.738 110.993 242.01C112.449 241.282 114.091 239.959 114.41 238.273C114.498 237.878 114.501 237.47 114.42 237.074C114.338 236.679 114.175 236.304 113.94 235.976C113.704 235.648 113.402 235.373 113.054 235.169C112.705 234.965 112.317 234.837 111.916 234.793C109.493 234.589 106.705 237.971 105.871 239.968C105.818 240.101 105.383 241.601 105.152 242.436C104.956 241.628 104.77 240.82 104.548 240.004C103.9 237.669 103.172 235.317 102.453 232.964L101.814 230.807C102.142 230.807 106.093 230.656 107.726 229.84C109.173 229.121 110.824 227.789 111.135 226.102C111.223 225.709 111.228 225.3 111.148 224.905C111.068 224.509 110.905 224.135 110.671 223.806C110.436 223.478 110.135 223.203 109.786 222.999C109.438 222.795 109.051 222.667 108.649 222.623C106.226 222.418 103.43 225.801 102.595 227.807C102.533 227.958 101.903 230.124 101.77 230.683C101.308 229.094 100.882 227.514 100.474 225.934C99.9441 223.805 99.5556 221.643 99.3108 219.462C99.4617 219.462 103.581 219.329 105.258 218.495C106.705 217.776 108.356 216.444 108.667 214.758C108.756 214.364 108.76 213.956 108.68 213.56C108.6 213.164 108.438 212.79 108.203 212.462C107.968 212.133 107.667 211.858 107.319 211.654C106.97 211.45 106.583 211.322 106.181 211.278C103.758 211.074 100.962 214.456 100.127 216.453C100.074 216.586 99.5948 218.229 99.3818 219.027H99.2486C99.053 216.827 99.053 214.614 99.2486 212.414C99.3463 211.207 99.506 210.053 99.6836 208.934C100.456 208.988 103.98 209.201 105.569 208.615C107.158 208.029 108.871 206.919 109.368 205.277C109.499 204.895 109.548 204.489 109.511 204.086C109.474 203.684 109.353 203.293 109.156 202.941C108.958 202.588 108.688 202.281 108.364 202.04C108.039 201.798 107.668 201.628 107.273 201.54C104.885 201.07 101.743 204.123 100.696 206.023C100.633 206.129 100.172 207.239 99.8079 208.056C99.8966 207.559 99.9765 207.035 100.074 206.555C100.429 204.78 100.864 203.12 101.264 201.682C101.494 200.865 101.716 200.129 101.938 199.445C102.719 199.099 105.862 197.67 106.98 196.462C108.099 195.255 109.129 193.435 108.818 191.74C108.756 191.344 108.612 190.966 108.396 190.629C108.179 190.292 107.895 190.004 107.561 189.783C107.226 189.563 106.85 189.414 106.455 189.348C106.06 189.281 105.655 189.298 105.267 189.396C102.941 190.08 101.557 194.234 101.494 196.409C101.494 196.596 101.752 199.534 101.796 199.516C101.574 200.173 101.335 200.874 101.104 201.655C100.669 203.085 100.216 204.709 99.8079 206.52C99.3604 208.457 99.0285 210.42 98.8137 212.396C98.5553 214.609 98.4988 216.84 98.645 219.063C98.6407 219.089 98.6407 219.116 98.645 219.143C98.3787 218.486 97.5886 216.657 97.5087 216.524C96.4346 214.642 93.2301 211.633 90.86 212.139C90.4675 212.235 90.0995 212.412 89.7799 212.659C89.4602 212.906 89.196 213.218 89.0044 213.573C88.8128 213.929 88.698 214.321 88.6674 214.724C88.6369 215.126 88.6913 215.531 88.8271 215.912C89.3509 217.545 91.1529 218.655 92.6797 219.187C94.4107 219.791 98.3609 219.436 98.6716 219.4C98.8708 221.662 99.2237 223.907 99.728 226.12C100.003 227.407 100.332 228.703 100.678 229.99C100.429 229.422 100.207 228.925 100.172 228.854C99.0888 226.972 95.8932 223.972 93.5141 224.478C93.1209 224.572 92.7521 224.749 92.4317 224.996C92.1113 225.242 91.8466 225.554 91.6547 225.91C91.4629 226.266 91.3483 226.658 91.3184 227.062C91.2885 227.465 91.3441 227.87 91.4813 228.251C92.0051 229.884 93.8071 230.985 95.3428 231.526C96.8785 232.068 100.269 231.828 101.157 231.757C101.299 232.245 101.423 232.742 101.565 233.231C102.231 235.601 102.906 237.962 103.492 240.288C103.705 241.113 103.873 241.93 104.051 242.747C103.838 242.249 103.652 241.859 103.616 241.761C102.533 239.879 99.3374 236.879 96.9584 237.385C96.5659 237.481 96.1979 237.658 95.8783 237.905C95.5587 238.152 95.2945 238.463 95.1028 238.819C94.9112 239.175 94.7964 239.567 94.7659 239.97C94.7353 240.372 94.7897 240.777 94.9256 241.158C95.4493 242.791 97.2513 243.901 98.787 244.433C100.323 244.966 103.385 244.762 104.442 244.673C104.601 245.516 104.761 246.359 104.868 247.185C104.939 247.744 105.036 248.286 105.072 248.854C105.107 249.422 105.161 249.972 105.205 250.532C105.258 251.597 105.312 252.698 105.329 253.736C105.329 254.464 105.329 255.156 105.329 255.849C105.134 255.032 104.717 253.434 104.664 253.301C103.882 251.277 101.175 247.824 98.7515 247.975C98.3492 248.01 97.9588 248.129 97.6054 248.325C97.252 248.52 96.9436 248.787 96.7002 249.11C96.4567 249.432 96.2835 249.801 96.1919 250.195C96.1003 250.588 96.0923 250.996 96.1683 251.393C96.4435 253.088 98.0502 254.455 99.4883 255.219C101.059 256.053 104.868 256.31 105.338 256.337C105.338 257.491 105.338 258.61 105.338 259.666C105.285 262.986 105.125 265.791 104.974 267.868L106.581 268.188C106.687 266.057 106.794 263.137 106.785 259.675C106.785 258.503 106.785 257.26 106.714 255.973C107.915 255.75 109.1 255.453 110.265 255.085C111.232 256.648 114.064 258.805 114.428 259.08C113.798 260.048 113.176 260.98 112.582 261.85C110.718 264.557 109.031 266.785 107.779 268.436L109.555 268.774C110.735 267.158 112.218 265.09 113.789 262.649C114.437 261.672 115.103 260.616 115.777 259.524C116.212 259.701 119.736 261.166 121.521 261.113C123.145 261.06 125.196 260.545 126.19 259.142C126.434 258.821 126.607 258.453 126.699 258.06C126.792 257.668 126.8 257.261 126.725 256.865C126.65 256.469 126.492 256.093 126.262 255.762C126.032 255.431 125.736 255.152 125.391 254.943C123.269 253.745 119.319 255.645 117.721 257.109C117.624 257.198 116.709 258.254 116.141 258.885C116.417 258.432 116.683 257.997 116.958 257.535C117.517 256.648 118.041 255.698 118.609 254.704L119.381 253.212C119.657 252.724 119.879 252.165 120.127 251.641C120.686 250.407 121.192 249.129 121.672 247.833C122.479 248.321 125.347 249.99 126.998 250.185C128.649 250.381 130.717 250.185 131.907 248.952C132.198 248.671 132.426 248.333 132.578 247.959C132.729 247.584 132.8 247.182 132.786 246.779C132.772 246.375 132.673 245.979 132.495 245.616C132.318 245.253 132.066 244.932 131.756 244.673C129.847 243.164 125.649 244.442 123.846 245.658C123.74 245.729 122.542 246.741 121.894 247.309C122.178 246.528 122.462 245.756 122.728 244.948C123.474 242.64 124.166 240.279 124.867 237.926C125.08 237.207 125.302 236.488 125.524 235.778C125.808 235.947 129.173 238.006 130.984 238.228C132.599 238.424 134.703 238.228 135.892 236.994C136.183 236.714 136.412 236.376 136.563 236.001C136.715 235.627 136.786 235.225 136.772 234.821C136.757 234.418 136.658 234.022 136.481 233.659C136.303 233.296 136.051 232.975 135.742 232.716C133.833 231.207 129.634 232.485 127.832 233.701C127.699 233.79 125.977 235.254 125.56 235.645C126.039 234.065 126.536 232.494 127.095 230.967C127.828 228.901 128.694 226.884 129.687 224.931C129.821 225.011 133.327 227.176 135.182 227.398C136.798 227.603 138.902 227.398 140.091 226.165C140.382 225.884 140.611 225.546 140.762 225.172C140.914 224.797 140.985 224.395 140.97 223.992C140.956 223.588 140.857 223.192 140.68 222.829C140.502 222.466 140.25 222.145 139.94 221.886C138.032 220.386 133.833 221.664 132.031 222.871C131.916 222.951 130.602 224.061 129.989 224.647L129.883 224.558C130.939 222.618 132.166 220.776 133.549 219.054C134.295 218.104 135.067 217.225 135.83 216.391C136.443 216.853 139.266 218.974 140.917 219.365C142.568 219.755 144.61 219.764 145.932 218.672C146.252 218.425 146.515 218.113 146.706 217.758C146.897 217.402 147.011 217.01 147.04 216.607C147.069 216.204 147.014 215.8 146.876 215.42C146.739 215.04 146.523 214.693 146.243 214.403C144.512 212.698 140.207 213.515 138.254 214.509C138.147 214.571 137.144 215.237 136.425 215.743C136.771 215.37 137.126 214.98 137.473 214.633C138.769 213.329 140.029 212.201 141.156 211.225C141.796 210.665 142.39 210.177 142.932 209.733C143.775 209.875 147.175 210.426 148.782 210.026C150.388 209.627 152.253 208.686 152.918 207.106C153.101 206.738 153.203 206.335 153.217 205.925C153.232 205.514 153.158 205.105 153.002 204.725C152.846 204.346 152.61 204.004 152.311 203.722C152.012 203.441 151.656 203.226 151.267 203.093Z" fill="#2E353A" fill-opacity="0.9"/>
<path d="M129.306 267.504H63.2354V276.248H129.306V267.504Z" fill="#2E353A" fill-opacity="0.9"/>
<path d="M118.92 301.387H73.6122L67.9487 275.28H124.583L118.92 301.387Z" fill="#2E353A" fill-opacity="0.9"/>
<path d="M63.7947 135.202L63.1289 198.175C63.1289 198.175 60.4659 199.515 53.0803 199.515C45.6947 199.515 43.0316 198.175 43.0316 198.175L45.6947 172.716C45.6947 172.716 36.3296 170.709 36.3296 168.046C36.3296 165.383 57.0926 91.7051 57.0926 91.7051C57.0926 91.7051 67.8159 110.409 63.7947 135.202Z" fill="#FFBA49" fill-opacity="0.85" stroke="#2E353A" stroke-opacity="0.9" stroke-miterlimit="10"/>
<path d="M45.7036 172.707L54.3852 132.583" stroke="#2E353A" stroke-opacity="0.9" stroke-miterlimit="10"/>
<path d="M49.0591 91.6513C49.0591 91.6513 61.1139 107.727 62.4543 114.429C63.7947 121.131 63.7947 135.201 63.7947 135.201C67.7259 125.34 70.2077 114.962 71.1626 104.39C72.503 87.6389 59.1077 78.9307 59.1077 78.9307L49.0591 91.6513Z" fill="#2E353A" fill-opacity="0.9" stroke="#2E353A" stroke-opacity="0.9" stroke-miterlimit="10"/>
<path d="M275.588 135.202L276.254 198.175C276.254 198.175 278.917 199.515 286.303 199.515C293.688 199.515 296.351 198.175 296.351 198.175L293.688 172.716C293.688 172.716 303.054 170.709 303.054 168.046C303.054 165.383 282.282 91.7051 282.282 91.7051C282.282 91.7051 271.567 110.409 275.588 135.202Z" fill="#FFBA49" fill-opacity="0.85" stroke="#2E353A" stroke-opacity="0.9" stroke-miterlimit="10"/>
<path d="M293.67 172.707L285.619 126.05" stroke="#2E353A" stroke-opacity="0.9" stroke-miterlimit="10"/>
<path d="M290.324 91.6513C290.324 91.6513 278.261 107.727 276.92 114.429C275.58 121.132 275.589 135.193 275.589 135.193C271.652 125.333 269.167 114.954 268.212 104.381C266.871 87.6301 280.276 78.9219 280.276 78.9219L290.324 91.6513Z" fill="#2E353A" fill-opacity="0.9" stroke="#2E353A" stroke-opacity="0.9" stroke-miterlimit="10"/>
<path d="M290.226 91.6516C253.711 70.0559 212.066 58.6629 169.643 58.6629C127.219 58.6629 85.5744 70.0559 49.059 91.6516L27.9142 55.8954C26.3963 53.3566 27.8254 49.6816 31.1543 47.8529C73.4743 24.1948 121.15 11.7734 169.634 11.7734C218.118 11.7734 265.793 24.1948 308.113 47.8529C311.433 49.7082 312.871 53.3566 311.353 55.8954L290.226 91.6516Z" fill="#FFBA49" fill-opacity="0.85"/>
<path d="M290.226 91.6516C253.711 70.0559 212.066 58.6629 169.643 58.6629C127.219 58.6629 85.5744 70.0559 49.059 91.6516L27.9142 55.8954C26.3963 53.3566 27.8254 49.6816 31.1543 47.8529C73.4744 24.1948 121.15 11.7734 169.634 11.7734C218.118 11.7734 265.793 24.1948 308.113 47.8529C311.433 49.7082 312.871 53.3566 311.353 55.8954L290.226 91.6516Z" stroke="#2E353A" stroke-opacity="0.9" stroke-miterlimit="10"/>
<path d="M85.4443 69.0612C84.4148 69.3909 83.5044 69.4217 82.7129 69.1537C81.9125 68.8579 81.1666 68.2531 80.4752 67.3395L65.0779 47.2836C64.2317 46.1741 63.9626 45.0945 64.2707 44.0448C64.5976 42.9584 65.5262 42.1701 67.0566 41.6799C68.086 41.3502 68.9731 41.3421 69.7179 41.6558C70.4537 41.9417 71.1534 42.5459 71.817 43.4684L84.0111 60.1326L82.0495 60.7609L82.7518 39.9661C82.8116 38.8118 83.0579 37.9046 83.4907 37.2444C83.9146 36.5565 84.5857 36.0654 85.5039 35.7713C86.4221 35.4772 87.2396 35.4915 87.9565 35.8141C88.6645 36.1089 89.3686 36.727 90.069 37.6684L102.291 54.2775L100.622 54.8122L101.032 34.111C101.036 32.9745 101.241 32.0807 101.646 31.4294C102.07 30.7415 102.796 30.2326 103.826 29.9029C105.106 29.4929 106.181 29.6395 107.05 30.3428C107.938 31.0092 108.347 32.0443 108.275 33.4479L107.325 58.7857C107.284 59.9032 107.024 60.8149 106.544 61.5207C106.084 62.1898 105.338 62.6892 104.309 63.0189C103.252 63.3575 102.327 63.3929 101.536 63.1248C100.763 62.8201 100.031 62.2108 99.3398 61.2972L88.1614 46.6546L89.2048 46.3204L88.5019 64.8146C88.4331 65.941 88.1729 66.8527 87.7212 67.5496C87.2606 68.2186 86.5016 68.7225 85.4443 69.0612Z" fill="#2E353A" fill-opacity="0.9"/>
<path d="M116.722 59.6416C115.376 59.93 114.272 59.8073 113.409 59.2735C112.568 58.7049 112.007 57.7621 111.725 56.4451L106.985 34.3268C106.703 33.0097 106.832 31.934 107.371 31.0996C107.934 30.2304 108.888 29.6516 110.234 29.3632L124.793 26.2434C125.824 26.0225 126.652 26.1145 127.278 26.5195C127.904 26.9244 128.321 27.6136 128.529 28.5871C128.744 29.5892 128.652 30.4175 128.253 31.072C127.848 31.6978 127.131 32.1211 126.1 32.342L114.976 34.7256L116.21 40.4806L126.388 38.2995C127.39 38.0848 128.204 38.1799 128.83 38.5848C129.485 38.9836 129.919 39.6841 130.134 40.6862C130.349 41.6883 130.239 42.5053 129.806 43.1373C129.401 43.7631 128.697 44.1834 127.695 44.3981L117.516 46.5793L118.851 52.8067L129.974 50.4231C131.005 50.2023 131.836 50.3086 132.468 50.7422C133.094 51.1471 133.511 51.8363 133.72 52.8098C133.935 53.8119 133.84 54.6259 133.435 55.2517C133.03 55.8775 132.312 56.3009 131.281 56.5218L116.722 59.6416Z" fill="#2E353A" fill-opacity="0.9"/>
<path d="M138.973 55.5416C137.7 55.7087 136.657 55.4926 135.842 54.8934C135.053 54.2615 134.575 53.3092 134.408 52.0365L131.446 29.4756C131.275 28.174 131.491 27.1306 132.094 26.3452C132.697 25.5599 133.635 25.0837 134.907 24.9165C136.209 24.7456 137.238 24.9636 137.994 25.5704C138.78 26.1734 139.258 27.1257 139.429 28.4273L142.049 48.385L152.636 46.9949C153.735 46.8506 154.612 47.0297 155.266 47.5322C155.946 48.002 156.356 48.772 156.496 49.8422C156.637 50.9124 156.441 51.7766 155.91 52.4349C155.407 53.0893 154.606 53.4887 153.507 53.633L138.973 55.5416Z" fill="#2E353A" fill-opacity="0.9"/>
<path d="M171.841 53.1702C168.425 53.2925 165.467 52.7405 162.968 51.5144C160.468 50.2883 158.518 48.5017 157.119 46.1545C155.748 43.8063 155.006 41.0263 154.891 37.8146C154.805 35.4204 155.092 33.2321 155.752 31.2497C156.441 29.2663 157.461 27.5487 158.813 26.0971C160.193 24.6444 161.878 23.517 163.866 22.715C165.883 21.8827 168.161 21.421 170.701 21.3301C172.045 21.282 173.437 21.393 174.879 21.663C176.35 21.9027 177.651 22.3093 178.782 22.8827C179.615 23.2914 180.205 23.8258 180.55 24.4858C180.895 25.1459 181.022 25.8284 180.93 26.5333C180.867 27.2372 180.642 27.8738 180.253 28.4432C179.864 29.0126 179.352 29.4109 178.717 29.6383C178.081 29.8365 177.376 29.7594 176.604 29.407C175.713 29.0296 174.826 28.7544 173.943 28.5813C173.088 28.3781 172.193 28.2931 171.259 28.3266C169.449 28.3914 167.943 28.7961 166.742 29.5407C165.569 30.2551 164.699 31.2803 164.133 32.6161C163.567 33.9519 163.318 35.5834 163.387 37.5104C163.456 39.4375 163.821 41.0616 164.482 42.3827C165.143 43.6747 166.084 44.6496 167.306 45.3075C168.556 45.9351 170.087 46.2166 171.897 46.1518C172.656 46.1246 173.47 46.0077 174.34 45.8012C175.209 45.5655 176.059 45.228 176.891 44.789C177.754 44.3781 178.524 44.2482 179.201 44.3993C179.908 44.5494 180.476 44.8799 180.903 45.3909C181.36 45.9007 181.659 46.504 181.801 47.2005C181.942 47.8679 181.864 48.5431 181.567 49.2261C181.299 49.9081 180.793 50.4671 180.048 50.903C179.048 51.5528 177.795 52.08 176.29 52.4847C174.813 52.8884 173.33 53.1169 171.841 53.1702Z" fill="#2E353A" fill-opacity="0.9"/>
<path d="M196.271 54.1299C193.145 53.8485 190.458 52.944 188.209 51.4162C185.964 49.8593 184.291 47.8238 183.192 45.3097C182.122 42.7983 181.731 39.9503 182.017 36.7657C182.233 34.3699 182.794 32.2262 183.701 30.3344C184.637 28.4453 185.854 26.8613 187.353 25.5825C188.882 24.3064 190.643 23.3899 192.637 22.833C194.634 22.2469 196.801 22.059 199.138 22.2694C202.264 22.5508 204.937 23.454 207.156 24.9791C209.404 26.5068 211.078 28.5277 212.177 31.0418C213.279 33.5266 213.685 36.3759 213.396 39.5897C213.18 41.9855 212.604 44.1279 211.669 46.0171C210.762 47.9088 209.543 49.5074 208.012 50.8128C206.513 52.0916 204.765 53.024 202.768 53.6101C200.774 54.167 198.608 54.3402 196.271 54.1299ZM196.878 47.3809C198.427 47.5202 199.774 47.2734 200.921 46.6402C202.068 46.0071 202.995 45.0303 203.703 43.7097C204.411 42.3891 204.852 40.7647 205.025 38.8364C205.286 35.944 204.845 33.6365 203.704 31.9139C202.564 30.1913 200.839 29.2261 198.531 29.0184C197.012 28.8817 195.664 29.1285 194.488 29.759C193.344 30.3629 192.418 31.3252 191.71 32.6457C191.005 33.9371 190.564 35.5615 190.388 37.519C190.128 40.4115 190.567 42.7336 191.705 44.4854C192.846 46.208 194.57 47.1731 196.878 47.3809Z" fill="#2E353A" fill-opacity="0.9"/>
<path d="M214.149 56.5351C213.013 56.2607 212.209 55.7357 211.735 54.96C211.289 54.1911 211.204 53.2387 211.478 52.1027L217.189 28.4601C217.47 27.2957 218.01 26.4942 218.807 26.0556C219.611 25.5886 220.609 25.4991 221.802 25.7873C222.796 26.0274 223.529 26.4148 224.001 26.9496C224.508 27.4629 224.897 28.218 225.167 29.215L230.354 47.8707L228.863 47.5106L241.951 33.2693C242.675 32.5124 243.366 32.018 244.023 31.786C244.715 31.5324 245.558 31.5257 246.552 31.7658C247.688 32.0402 248.479 32.5619 248.925 33.3307C249.405 34.078 249.505 35.0339 249.224 36.1983L243.513 59.8409C243.238 60.9769 242.728 61.7852 241.98 62.266C241.233 62.7467 240.277 62.8464 239.113 62.5652C237.977 62.2908 237.172 61.7657 236.698 60.99C236.252 60.2211 236.167 59.2687 236.441 58.1327L239.981 43.4786L240.876 43.6947L231.136 53.9658C230.587 54.4945 230.048 54.8602 229.518 55.0628C229.017 55.2723 228.397 55.2879 227.659 55.1095C226.949 54.938 226.404 54.6412 226.025 54.219C225.646 53.7969 225.348 53.2288 225.129 52.5149L221.12 38.8774L222.1 39.1141L218.55 53.8109C218.275 54.9469 217.764 55.7552 217.017 56.236C216.27 56.7167 215.314 56.8164 214.149 56.5351Z" fill="#2E353A" fill-opacity="0.9"/>
<path d="M249.911 66.0742C248.63 65.5786 247.776 64.8719 247.348 63.9544C246.958 63.0201 247.005 61.9263 247.49 60.6729L255.637 39.625C256.122 38.3717 256.818 37.5446 257.725 37.1438C258.67 36.7263 259.783 36.7654 261.063 37.2611L274.918 42.6239C275.899 43.0036 276.54 43.5335 276.841 44.2138C277.141 44.8941 277.112 45.6974 276.754 46.6238C276.384 47.5774 275.854 48.2181 275.164 48.546C274.483 48.8466 273.653 48.8071 272.672 48.4274L262.087 44.3301L259.967 49.8067L269.653 53.5559C270.607 53.925 271.234 54.4497 271.534 55.13C271.862 55.8208 271.842 56.643 271.472 57.5967C271.103 58.5503 270.565 59.1721 269.857 59.4622C269.177 59.7628 268.36 59.7285 267.407 59.3594L257.72 55.6102L255.427 61.5363L266.012 65.6335C266.993 66.0132 267.628 66.5568 267.918 67.2643C268.219 67.9446 268.19 68.7479 267.831 69.6743C267.462 70.6279 266.938 71.255 266.257 71.5556C265.577 71.8562 264.746 71.8167 263.766 71.437L249.911 66.0742Z" fill="#2E353A" fill-opacity="0.9"/>
<path d="M246.525 133.071C246.525 133.071 235.234 124.727 229.81 120.644C224.386 116.56 215.092 104.843 212.767 99.6942C211.616 97.0436 210.324 94.4568 208.896 91.9447C208.896 91.9447 209.97 86.7694 209.97 85.4912C209.97 84.2129 208.932 82.5263 208.275 81.4433C207.946 80.9018 205.612 77.8038 205.612 80.165C205.612 82.0114 206.721 82.9346 206.721 84.0442C205.227 83.2187 203.996 81.9878 203.171 80.4935C201.875 78.0967 201.324 77.1646 200.579 77.7239C199.256 78.7181 200.951 81.2746 200.951 81.2746C200.951 81.2746 200.579 77.7239 198.732 78.3097C197.667 78.6293 199.105 81.6386 199.842 82.9346C200.579 84.2306 199.469 82.0469 199.655 84.2306C199.789 85.8551 201.644 89.8497 203.357 91.8115C203.978 92.5305 205.425 92.3086 205.576 92.5572C206.127 93.4449 212.048 107.169 216.113 114.013C220.179 120.857 222.593 122.89 225.922 126.218C229.251 129.547 233.689 135.282 237.569 138.051C241.448 140.821 243.49 139.72 245.709 137.865C247.928 136.01 248.256 134.953 246.525 133.071Z" fill="white" stroke="#2E353A" stroke-opacity="0.9" stroke-linecap="round" stroke-linejoin="round"/>
<path d="M206.659 84.0352C206.659 84.0352 204.99 87.1865 205.772 88.4736" stroke="#2E353A" stroke-opacity="0.9" stroke-linecap="round" stroke-linejoin="round"/>
<path d="M200.925 81.2656L202.407 84.0352" stroke="#2E353A" stroke-opacity="0.9" stroke-linecap="round" stroke-linejoin="round"/>
<path d="M202.585 90.3294C201.311 88.7129 200.196 86.9767 199.256 85.1453C198.519 83.2989 199.079 79.2333 200.188 79.9701C201.298 80.7069 200.925 84.7814 200.925 84.7814L203.144 87.3645" fill="white"/>
<path d="M202.585 90.3294C201.311 88.7129 200.196 86.9767 199.256 85.1453C198.519 83.2989 199.079 79.2333 200.188 79.9701C201.298 80.7069 200.925 84.7814 200.925 84.7814L203.144 87.3645" stroke="#2E353A" stroke-opacity="0.9" stroke-linecap="round" stroke-linejoin="round"/>
<path d="M248.914 110.009C248.914 110.009 243.241 107.941 244.271 100.715C245.301 93.4893 251.497 97.1022 251.497 97.1022C251.497 97.1022 245.283 88.8378 257.95 87.0358C270.618 85.2338 279.903 96.5873 283.001 109.228C286.099 121.869 266.472 123.165 269.313 132.725C272.153 142.286 283.258 153.142 281.447 166.289C279.636 179.435 261.572 186.706 253.308 179.711C245.043 172.716 241.688 161.904 246.366 152.068C251.044 142.232 253.592 130.639 254.879 125.437C256.166 120.235 248.914 110.009 248.914 110.009Z" fill="#2E353A" fill-opacity="0.9" stroke="#2E353A" stroke-opacity="0.9" stroke-linecap="round" stroke-linejoin="round"/>
<path d="M269.224 119.668C261.457 116.561 257.462 103.911 257.462 96.8095C257.462 89.708 267.448 93.2588 267.448 93.2588C267.448 93.2588 257.684 95.0342 262.566 104.577C267.448 114.119 276.103 117.004 280.542 114.119" stroke="white" stroke-width="0.75" stroke-linecap="round" stroke-linejoin="round"/>
<path d="M267.67 126.547C267.67 126.547 260.79 128.766 262.788 137.421C264.785 146.076 280.098 156.95 275.659 168.046C271.221 179.142 263.454 183.581 254.133 180.252" stroke="white" stroke-width="0.75" stroke-linecap="round" stroke-linejoin="round"/>
<path d="M264.341 128.322C264.341 128.322 256.796 131.429 255.908 142.525C255.02 153.621 264.119 163.164 259.903 168.712C255.686 174.26 248.807 173.594 246.587 170.266" stroke="white" stroke-width="0.75" stroke-linecap="round" stroke-linejoin="round"/>
<path d="M247.112 122.144C247.112 122.144 247.884 124.984 245.336 129.378C242.788 133.772 241.466 134.793 241.466 134.793L250.76 134.021L256.699 123.173C256.699 123.173 247.626 123.954 247.112 122.144Z" fill="white" stroke="#2E353A" stroke-opacity="0.9" stroke-linecap="round" stroke-linejoin="round"/>
<path d="M256.406 98.1318C256.406 98.1318 247.369 106.396 245.558 113.622C243.747 120.848 246.073 125.499 249.437 125.499C252.802 125.499 259.761 122.659 259.761 122.659C259.761 122.659 261.829 124.434 263.889 123.44C264.478 123.155 264.981 122.717 265.345 122.172C265.708 121.628 265.92 120.996 265.957 120.342C265.957 120.342 251.754 106.396 256.406 98.1318Z" fill="white" stroke="#2E353A" stroke-opacity="0.9" stroke-linecap="round" stroke-linejoin="round"/>
<path d="M252.58 110.533C251.958 111.323 251.213 111.767 250.902 111.527C250.591 111.287 250.84 110.453 251.461 109.663C252.082 108.873 252.828 108.429 253.13 108.668C253.432 108.908 253.192 109.743 252.58 110.533Z" fill="#2E353A" fill-opacity="0.9"/>
<path d="M256.876 115.034C256.263 115.833 255.509 116.277 255.198 116.037C254.887 115.797 255.145 114.963 255.757 114.173C256.37 113.383 257.124 112.93 257.435 113.17C257.746 113.409 257.488 114.244 256.876 115.034Z" fill="#2E353A" fill-opacity="0.9"/>
<path d="M252.171 112.22C251.117 112.591 250.103 113.067 249.144 113.64C248.336 114.244 249.748 115.051 249.748 115.051" stroke="#2E353A" stroke-opacity="0.9" stroke-width="0.75" stroke-linecap="round" stroke-linejoin="round"/>
<path d="M247.324 117.066C247.469 117.723 247.824 118.314 248.335 118.752C248.846 119.189 249.485 119.448 250.156 119.49C251.424 119.68 252.718 119.392 253.787 118.682" stroke="#2E353A" stroke-opacity="0.9" stroke-width="0.75" stroke-linecap="round" stroke-linejoin="round"/>
<path d="M252.375 105.358C253.017 105.257 253.673 105.413 254.201 105.792C254.729 106.171 255.087 106.742 255.198 107.382" stroke="#2E353A" stroke-opacity="0.9" stroke-width="0.75" stroke-linecap="round" stroke-linejoin="round"/>
<path d="M257.018 110.408C257.018 110.408 260.445 111.615 259.441 114.243" stroke="#2E353A" stroke-opacity="0.9" stroke-width="0.75" stroke-linecap="round" stroke-linejoin="round"/>
<path d="M223.144 298.705C223.144 298.705 218.368 301.892 216.77 302.682C215.172 303.472 208.417 304.67 208.213 306.463C208.009 308.257 211.595 309.251 215.581 309.251C219.566 309.251 224.333 309.251 226.721 309.65C229.109 310.05 230.707 310.84 231.701 308.257C232.695 305.673 231.098 298.9 231.098 298.9C231.098 298.9 226.925 300.498 223.144 298.705Z" fill="#FFBA49" fill-opacity="0.85" stroke="#2E353A" stroke-opacity="0.9" stroke-linecap="round" stroke-linejoin="round"/>
<path d="M224.928 227.859C224.928 227.859 222.149 240.793 222.149 244.974C222.149 249.155 223.738 276.22 224.138 283.775C224.331 288.773 223.998 293.777 223.144 298.706C223.144 298.706 226.526 300.295 227.919 300.295C229.313 300.295 231.097 298.901 231.097 298.901C231.097 298.901 235.083 281.387 235.083 272.039C235.083 262.692 235.873 257.313 235.083 251.339C234.293 245.364 231.532 234.428 232.491 230.442C233.45 226.457 227.919 221.885 224.928 227.859Z" fill="#2E353A" fill-opacity="0.9" stroke="#2E353A" stroke-opacity="0.9" stroke-linecap="round" stroke-linejoin="round"/>
<path d="M224.901 170.71C224.901 170.71 221.51 193.665 221.51 210.7C221.51 227.735 228.745 248.143 230.547 250.984C232.349 253.824 248.105 282.221 251.718 288.16C254.275 292.663 256.391 297.401 258.039 302.31C259.299 302.698 260.596 302.956 261.909 303.082C263.205 303.082 265.007 301.538 265.007 301.538C265.007 301.538 256.627 268.791 253.272 260.278C249.916 251.765 242.975 245.045 241.173 241.725C239.371 238.405 238.589 225.454 238.589 225.454C238.589 225.454 249.171 208.676 251.017 199.64C252.863 190.603 247.884 180.474 245.815 176.924C244.463 174.503 243.257 172.004 242.202 169.44C242.202 169.44 231.364 175.85 224.901 170.71Z" fill="#2E353A" fill-opacity="0.9" stroke="#2E353A" stroke-opacity="0.9" stroke-linecap="round" stroke-linejoin="round"/>
<path d="M244.528 161.389C244.528 161.389 250.982 141.513 252.518 136.862C254.053 132.21 251.736 130.408 244.768 131.181C237.8 131.953 225.665 137.394 225.15 143.315C224.635 149.236 226.926 152.609 226.926 155.45C226.926 158.291 222.842 170.709 225.949 173.266C229.056 175.823 238.856 175.041 241.697 171.491C244.537 167.94 244.528 161.389 244.528 161.389Z" fill="#FFBA49" fill-opacity="0.85" stroke="#2E353A" stroke-opacity="0.9" stroke-linecap="round" stroke-linejoin="round"/>
<path d="M246.526 133.071C246.9 136.319 246.1 139.594 244.271 142.303C241.173 147.203 234.205 145.401 234.719 139.977C235.234 134.554 241.803 130.053 246.526 133.071Z" fill="white" stroke="#2E353A" stroke-opacity="0.9" stroke-linecap="round" stroke-linejoin="round"/>
<path d="M242.123 140.759C242.962 140.625 243.762 140.305 244.462 139.823C245.163 139.341 245.747 138.709 246.172 137.972C246.598 137.236 246.853 136.413 246.92 135.566C246.988 134.718 246.865 133.866 246.561 133.071C246.369 132.524 246.035 132.037 245.594 131.659C245.153 131.282 244.62 131.028 244.049 130.923C239.61 130.151 220.294 131.696 215.385 131.181C210.476 130.666 191.897 119.303 186.979 114.918C182.061 110.533 180.268 108.207 180.268 106.396C180.268 104.585 178.972 100.458 177.943 99.1706C176.913 97.8834 175.102 95.2914 175.102 95.2914C175.102 95.2914 173.327 95.2914 173.557 96.33C173.978 97.4896 174.494 98.612 175.102 99.6855C175.102 99.6855 169.936 96.5874 168.648 95.247C168.519 95.0685 168.354 94.9191 168.164 94.8082C167.973 94.6974 167.762 94.6276 167.543 94.6033C167.324 94.5791 167.102 94.6009 166.892 94.6675C166.682 94.734 166.488 94.8437 166.323 94.9896L169.163 98.0876C169.163 98.0876 168.906 100.156 170.939 103.511C172.476 105.803 174.398 107.812 176.62 109.45C176.62 109.45 186.944 121.585 194.693 128.296C202.443 135.007 209.66 139.143 216.122 140.173C221.821 141.132 230.716 142.845 242.123 140.759Z" fill="white" stroke="#2E353A" stroke-opacity="0.9" stroke-linecap="round" stroke-linejoin="round"/>
<path d="M258.075 302.309C258.075 302.309 253.991 306.668 251.204 308.452C248.417 310.236 244.83 311.444 245.434 313.033C246.038 314.622 253.423 314.426 256.974 314.222C260.525 314.018 267.715 310.671 268.913 309.846C270.112 309.02 265.043 301.537 265.043 301.537C265.043 301.537 261.164 303.721 258.075 302.309Z" fill="#FFBA49" fill-opacity="0.85" stroke="#2E353A" stroke-opacity="0.9" stroke-linecap="round" stroke-linejoin="round"/>
<path d="M257.018 314.222C260.569 314.027 267.759 310.672 268.957 309.846C269.286 309.624 269.126 308.879 268.735 307.929C264.693 309.933 260.425 311.447 256.024 312.438C250.2 313.681 246.898 313.095 245.416 312.625C245.411 312.763 245.432 312.902 245.478 313.033C246.028 314.622 253.387 314.427 257.018 314.222Z" fill="#2E353A" fill-opacity="0.9" stroke="#2E353A" stroke-opacity="0.9" stroke-linecap="round" stroke-linejoin="round"/>
<path d="M231.701 308.301C231.879 307.774 231.977 307.224 231.994 306.668C230.414 307.946 229.269 307.343 226.721 307.503C223.535 307.707 222.345 307.707 215.776 307.707C213.205 307.77 210.644 307.346 208.231 306.455C208.235 306.473 208.235 306.491 208.231 306.508C208.035 308.284 211.613 309.296 215.599 309.296C219.584 309.296 224.351 309.296 226.739 309.695C229.127 310.095 230.707 310.84 231.701 308.301Z" fill="#2E353A" fill-opacity="0.9" stroke="#2E353A" stroke-opacity="0.9" stroke-linecap="round" stroke-linejoin="round"/>
<path d="M238.589 225.418C238.589 225.418 239.326 213.132 240.684 210.7C242.042 208.268 245.274 205.027 247.431 203.137" stroke="white" stroke-width="0.75" stroke-linecap="round" stroke-linejoin="round"/>
</svg>
