<svg width="17" height="17" viewBox="0 0 17 17" fill="none" xmlns="http://www.w3.org/2000/svg">
<path fill-rule="evenodd" clip-rule="evenodd" d="M8.39813 14.4438C11.869 14.4438 14.6826 11.6301 14.6826 8.15932C14.6826 4.6885 11.869 1.87484 8.39813 1.87484C4.92731 1.87484 2.11365 4.6885 2.11365 8.15932C2.11365 11.6301 4.92731 14.4438 8.39813 14.4438ZM11.3103 7.60385L8.95361 5.24716C8.64683 4.94038 8.14944 4.94038 7.84266 5.24716C7.53588 5.55394 7.53588 6.05133 7.84266 6.35811L8.8583 7.37376L6.04145 7.37376C5.6076 7.37376 5.25589 7.72547 5.25589 8.15932C5.25589 8.59317 5.6076 8.94488 6.04145 8.94488H8.8583L7.84266 9.96053C7.53588 10.2673 7.53588 10.7647 7.84266 11.0715C8.14944 11.3783 8.64683 11.3783 8.95361 11.0715L11.3103 8.7148C11.6171 8.40802 11.6171 7.91063 11.3103 7.60385Z" fill="#CC9933"/>
</svg>
