<svg width="14" height="15" viewBox="0 0 14 15" fill="none" xmlns="http://www.w3.org/2000/svg">
<path fill-rule="evenodd" clip-rule="evenodd" d="M12.1994 9.96625L11.7509 6.3527C11.4776 5.06328 10.7043 4.53265 9.9671 4.53265H4.0435C3.29596 4.53265 2.49687 5.02613 2.26487 6.3527L1.81119 9.96625C1.44 12.6194 2.80619 13.2827 4.58998 13.2827H9.42578C11.2044 13.2827 12.5294 12.3222 12.1994 9.96625ZM5.30658 7.53599C5.02185 7.53599 4.79104 7.29842 4.79104 7.00536C4.79104 6.71231 5.02185 6.47474 5.30658 6.47474C5.59131 6.47474 5.82213 6.71231 5.82213 7.00536C5.82213 7.29842 5.59131 7.53599 5.30658 7.53599ZM8.16785 7.00536C8.16785 7.29842 8.39867 7.53599 8.68339 7.53599C8.96812 7.53599 9.19894 7.29842 9.19894 7.00536C9.19894 6.71231 8.96812 6.47474 8.68339 6.47474C8.39867 6.47474 8.16785 6.71231 8.16785 7.00536Z" fill="#130F26"/>
<path opacity="0.4" d="M9.90147 4.40099C9.9033 4.44624 9.8946 4.49129 9.87606 4.53263H9.03775C9.02151 4.4906 9.01291 4.44602 9.01234 4.40099C9.01234 3.28245 8.10246 2.37569 6.98006 2.37569C5.85766 2.37569 4.94778 3.28245 4.94778 4.40099C4.95547 4.44454 4.95547 4.48909 4.94778 4.53263H4.08914C4.08145 4.48909 4.08145 4.44454 4.08914 4.40099C4.15438 2.84441 5.43962 1.61597 7.00292 1.61597C8.56623 1.61597 9.85147 2.84441 9.91671 4.40099H9.90147Z" fill="#130F26"/>
</svg>
