<svg width="111" height="51" viewBox="0 0 111 51" fill="none" xmlns="http://www.w3.org/2000/svg">
<rect x="0.374634" y="0.685059" width="110" height="50" rx="4" fill="white"/>
<path d="M4.09086 26.0162L2.21765 27.8698L0.344414 26.0162L2.21765 24.1623L4.09086 26.0162ZM8.6607 21.4938L11.8719 24.692L13.7452 22.8382L10.534 19.6399L8.6607 17.7861L6.78748 19.6399L3.55565 22.8382L5.42888 24.692L8.6607 21.4938ZM15.1039 24.1623L13.2306 26.0162L15.1039 27.8698L16.9769 26.0162L15.1039 24.1623ZM8.6607 30.5181L5.44947 27.3403L3.55565 29.1939L6.7669 32.3719L8.64011 34.2258L10.5134 32.3719L13.7452 29.1939L11.8719 27.3403L8.6607 30.5181ZM8.6607 27.8698L10.534 26.0162L8.6607 24.1623L6.78748 26.0162L8.6607 27.8698ZM28.4838 28.0532V28.0329C28.4838 26.8309 27.8252 26.2198 26.7753 25.8125C27.434 25.4457 27.9693 24.8752 27.9693 23.8568V23.8363C27.9693 22.4103 26.8165 21.4938 24.964 21.4938H20.7234V30.5181H25.0668C27.1254 30.5181 28.4838 29.7034 28.4838 28.0532ZM25.9725 24.2031C25.9725 24.8752 25.4168 25.1604 24.5317 25.1604H22.6791V23.2455H24.6551C25.4991 23.2455 25.9725 23.5716 25.9725 24.1826V24.2031ZM26.4872 27.8087C26.4872 28.4811 25.9519 28.7866 25.0668 28.7866H22.6791V26.8106H25.0051C26.0344 26.8106 26.4872 27.1772 26.4872 27.7885V27.8087ZM32.6834 30.5181V21.4938H30.6865V30.5181H32.6834ZM43.4697 30.5181V21.4938H41.4937V27.0551L37.2119 21.4938H35.3592V30.5181H37.3355V24.7939L41.7612 30.5386H43.4697V30.5181ZM54.5855 30.5181L50.6743 21.4325H48.8219L44.9107 30.5181H46.9487L47.7926 28.5013H51.6419L52.4859 30.5181H54.5855ZM50.9421 26.7495H48.513L49.7276 23.816L50.9421 26.7495ZM64.137 30.5181V21.4938H62.1607V27.0551L57.8792 21.4938H56.0265V30.5181H58.0028V24.7939L62.4285 30.5386H64.137V30.5181ZM74.5117 29.0718L73.2354 27.7885C72.515 28.4403 71.8769 28.8476 70.8477 28.8476C69.2831 28.8476 68.2127 27.5643 68.2127 26.0162V25.9957C68.2127 24.4476 69.3244 23.1845 70.8477 23.1845C71.7533 23.1845 72.4739 23.5716 73.1737 24.2031L74.45 22.7363C73.606 21.9011 72.5767 21.3511 70.8477 21.3511C68.0482 21.3511 66.0925 23.4492 66.0925 26.0162V26.0365C66.0925 28.6237 68.0893 30.6812 70.7652 30.6812C72.515 30.6812 73.5649 30.0699 74.5117 29.0718ZM83.0544 30.5181V28.7458H78.1142V26.8514H82.4163V25.0791H78.1142V23.2455H82.9927V21.4733H76.1174V30.4978H83.0544V30.5181Z" fill="#F0B90B"/>
<path d="M92.0988 24.5276C92.0988 22.6896 90.7705 21.507 88.6683 21.507H85.109V30.5049H86.6952V27.6128H88.4879C90.4738 27.6128 92.0988 26.5587 92.0988 24.5276ZM90.4869 24.5663C90.4869 25.5303 89.7389 26.1859 88.5393 26.1859H86.6952V22.9467H88.5393C89.7258 22.9467 90.4869 23.4994 90.4869 24.5663Z" fill="#1E2026"/>
<path d="M97.5407 21.4748H96.0704L92.0983 30.5369H93.7233L94.6519 28.3645H98.9206L99.8361 30.5369H101.513L97.5407 21.4748ZM98.3401 26.9635H95.2322L96.7796 23.3643L98.3401 26.9635Z" fill="#1E2026"/>
<path d="M106.222 26.9184L109.807 21.507H107.989L105.435 25.4918L102.908 21.507H101.038L104.623 26.9571V30.5049H106.222V26.9184Z" fill="#1E2026"/>
</svg>
