<svg width="21" height="21" viewBox="0 0 21 21" fill="none" xmlns="http://www.w3.org/2000/svg">
<path opacity="0.4" fill-rule="evenodd" clip-rule="evenodd" d="M5.42554 17.9583C5.42554 17.2583 5.9922 16.6917 6.6922 16.6917C7.38387 16.6917 7.95054 17.2583 7.95054 17.9583C7.95054 18.65 7.38387 19.2167 6.6922 19.2167C5.9922 19.2167 5.42554 18.65 5.42554 17.9583ZM14.8005 17.9583C14.8005 17.2583 15.3672 16.6917 16.0672 16.6917C16.7589 16.6917 17.3255 17.2583 17.3255 17.9583C17.3255 18.65 16.7589 19.2167 16.0672 19.2167C15.3672 19.2167 14.8005 18.65 14.8005 17.9583Z" fill="#B4B4B5"/>
<path fill-rule="evenodd" clip-rule="evenodd" d="M17.3257 6.09205C17.834 6.09205 18.1674 6.26705 18.5007 6.65039C18.834 7.03372 18.8924 7.58372 18.8174 8.08289L18.0257 13.5496C17.8757 14.6004 16.9757 15.3746 15.9174 15.3746H6.8257C5.71737 15.3746 4.8007 14.5246 4.70903 13.4254L3.94237 4.34122L2.68403 4.12455C2.3507 4.06622 2.11737 3.74122 2.1757 3.40789C2.23403 3.06622 2.55903 2.84122 2.9007 2.89122L4.8882 3.19122C5.17153 3.24205 5.37987 3.47455 5.40487 3.75789L5.5632 5.62455C5.5882 5.89205 5.80487 6.09205 6.07153 6.09205H17.3257ZM12.2757 10.4246H14.584C14.934 10.4246 15.209 10.1412 15.209 9.79955C15.209 9.44955 14.934 9.17455 14.584 9.17455H12.2757C11.9257 9.17455 11.6507 9.44955 11.6507 9.79955C11.6507 10.1412 11.9257 10.4246 12.2757 10.4246Z" fill="#B4B4B5"/>
</svg>
