<svg width="17" height="18" viewBox="0 0 17 18" fill="none" xmlns="http://www.w3.org/2000/svg">
<path opacity="0.4" fill-rule="evenodd" clip-rule="evenodd" d="M3.42554 15.9583C3.42554 15.2583 3.9922 14.6917 4.6922 14.6917C5.38387 14.6917 5.95054 15.2583 5.95054 15.9583C5.95054 16.65 5.38387 17.2167 4.6922 17.2167C3.9922 17.2167 3.42554 16.65 3.42554 15.9583ZM12.8005 15.9583C12.8005 15.2583 13.3672 14.6917 14.0672 14.6917C14.7589 14.6917 15.3255 15.2583 15.3255 15.9583C15.3255 16.65 14.7589 17.2167 14.0672 17.2167C13.3672 17.2167 12.8005 16.65 12.8005 15.9583Z" fill="#B4B4B5"/>
<path fill-rule="evenodd" clip-rule="evenodd" d="M15.3257 4.09205C15.834 4.09205 16.1674 4.26705 16.5007 4.65039C16.834 5.03372 16.8924 5.58372 16.8174 6.08289L16.0257 11.5496C15.8757 12.6004 14.9757 13.3746 13.9174 13.3746H4.8257C3.71737 13.3746 2.8007 12.5246 2.70903 11.4254L1.94237 2.34122L0.684033 2.12455C0.3507 2.06622 0.117367 1.74122 0.1757 1.40789C0.234033 1.06622 0.559033 0.841219 0.9007 0.891219L2.8882 1.19122C3.17153 1.24205 3.37987 1.47455 3.40487 1.75789L3.5632 3.62455C3.5882 3.89205 3.80487 4.09205 4.07153 4.09205H15.3257ZM10.2757 8.42455H12.584C12.934 8.42455 13.209 8.14122 13.209 7.79955C13.209 7.44955 12.934 7.17455 12.584 7.17455H10.2757C9.9257 7.17455 9.6507 7.44955 9.6507 7.79955C9.6507 8.14122 9.9257 8.42455 10.2757 8.42455Z" fill="#B4B4B5"/>
</svg>
