<svg width="25" height="25" viewBox="0 0 25 25" fill="none" xmlns="http://www.w3.org/2000/svg">
<rect x="1.09918" y="0.75" width="23.5" height="23.5" rx="11.75" fill="white"/>
<rect x="1.09918" y="0.75" width="23.5" height="23.5" rx="11.75" stroke="#CC9933" stroke-width="0.5"/>
<path fill-rule="evenodd" clip-rule="evenodd" d="M17.3058 14.6574L16.9214 11.56C16.6872 10.4548 16.0243 10 15.3924 10H10.315C9.67429 10 8.98935 10.423 8.7905 11.56L8.40163 14.6574C8.08347 16.9315 9.25449 17.5 10.7834 17.5H14.9284C16.453 17.5 17.5886 16.6768 17.3058 14.6574ZM11.3977 12.5743C11.1536 12.5743 10.9558 12.3707 10.9558 12.1195C10.9558 11.8683 11.1536 11.6646 11.3977 11.6646C11.6417 11.6646 11.8396 11.8683 11.8396 12.1195C11.8396 12.3707 11.6417 12.5743 11.3977 12.5743ZM13.8502 12.1195C13.8502 12.3707 14.048 12.5743 14.2921 12.5743C14.5361 12.5743 14.734 12.3707 14.734 12.1195C14.734 11.8683 14.5361 11.6646 14.2921 11.6646C14.048 11.6646 13.8502 11.8683 13.8502 12.1195Z" fill="#CC9933"/>
<path opacity="0.4" d="M15.3361 9.88716C15.3377 9.92594 15.3302 9.96456 15.3143 10H14.5958C14.5819 9.96397 14.5745 9.92576 14.574 9.88716C14.574 8.92841 13.7941 8.15119 12.8321 8.15119C11.87 8.15119 11.0901 8.92841 11.0901 9.88716C11.0967 9.92449 11.0967 9.96267 11.0901 10H10.3541C10.3475 9.96267 10.3475 9.92449 10.3541 9.88716C10.41 8.55295 11.5117 7.5 12.8517 7.5C14.1916 7.5 15.2933 8.55295 15.3492 9.88716H15.3361Z" fill="#CC9933"/>
<rect x="24.8492" y="9.68872" width="9.19256" height="9.18883" rx="4.59442" transform="rotate(-180 24.8492 9.68872)" fill="#219653"/>
<g clip-path="url(#clip0_2680_2026)">
<path opacity="0.4" d="M20.5695 6.10142L20.6574 7.0847C20.6668 7.1425 20.6636 7.20167 20.6479 7.25811C20.6322 7.31454 20.6044 7.36689 20.5664 7.41153C20.5285 7.45617 20.4813 7.49203 20.4281 7.51662C20.3749 7.54122 20.3169 7.55396 20.2583 7.55396C20.1996 7.55396 20.1417 7.54122 20.0884 7.51662C20.0352 7.49203 19.988 7.45617 19.9501 7.41153C19.9121 7.36689 19.8843 7.31454 19.8686 7.25811C19.8529 7.20167 19.8497 7.1425 19.8592 7.0847L19.947 6.10142C19.947 6.01755 19.9803 5.93711 20.0397 5.87781C20.0991 5.8185 20.1796 5.78518 20.2635 5.78518C20.3475 5.78518 20.4281 5.8185 20.4874 5.87781C20.5468 5.93711 20.5802 6.01755 20.5802 6.10142" fill="white"/>
<path d="M20.5535 2.79276L20.6892 2.92032C21.1267 3.3809 21.4861 3.90958 21.7534 4.48559C21.7977 4.58739 21.8281 4.69464 21.8439 4.8045C21.8438 4.8886 21.8237 4.97148 21.7853 5.04633C21.7316 5.14262 21.6474 5.21835 21.5459 5.26159C21.4523 5.28993 21.3573 5.31299 21.2612 5.33068C20.9264 5.37846 20.5884 5.39979 20.2503 5.39446C19.9222 5.39723 19.5942 5.37858 19.2685 5.33865C19.1483 5.31704 19.03 5.28595 18.9147 5.24564C18.8359 5.20559 18.7694 5.14484 18.7226 5.06993C18.6757 4.99502 18.6502 4.90877 18.6487 4.82044L18.6487 4.8045C18.6675 4.68114 18.7042 4.56118 18.7577 4.44839C19.0271 3.88396 19.3865 3.36699 19.8219 2.91766C19.8684 2.87074 19.9182 2.82722 19.9709 2.78745C20.0524 2.72687 20.1513 2.69424 20.2529 2.69443C20.3621 2.69308 20.4686 2.72763 20.5562 2.79276" fill="white"/>
</g>
<defs>
<clipPath id="clip0_2680_2026">
<rect width="3.19256" height="4.78883" fill="white" transform="translate(21.8492 7.48877) rotate(-180)"/>
</clipPath>
</defs>
</svg>
