<svg width="15" height="15" viewBox="0 0 15 15" fill="none" xmlns="http://www.w3.org/2000/svg">
<path d="M0.973248 6.13696C0.973248 6.13696 7.16475 11.4297 14.2751 6.13696C14.2751 6.13696 15.2816 12.994 8.25858 14.344C8.25858 14.344 2.23774 14.5769 1.35614 10.1336C0.755025 7.1013 0.273163 8.5934 0.973248 6.13696Z" fill="#CC9933"/>
<circle cx="7.62203" cy="7.37932" r="6.67725" stroke="white" stroke-width="0.785559"/>
<g clip-path="url(#clip0_2000_16560)">
<path d="M8.23798 6.86687C8.23798 6.8247 8.25473 6.78425 8.28456 6.75443C8.31438 6.72461 8.35483 6.70785 8.397 6.70785C8.43918 6.70785 8.47962 6.72461 8.50945 6.75443C8.53927 6.78425 8.55602 6.8247 8.55602 6.86687C8.55662 6.87493 8.55662 6.88302 8.55602 6.89107H8.68739C8.68214 6.74751 8.62274 6.61126 8.52112 6.50972C8.4195 6.40817 8.28321 6.34887 8.13965 6.34372V6.89107H8.2399C8.23866 6.88307 8.23802 6.87498 8.23798 6.86687Z" fill="#CC9933"/>
<path d="M8.27357 7.21054C8.27312 7.22926 8.26811 7.24759 8.25897 7.26393C8.24939 7.28156 8.23524 7.29628 8.21801 7.30655C8.20077 7.31683 8.18109 7.32227 8.16103 7.32232H8.14912C8.12135 7.31887 8.09586 7.30517 8.07768 7.28391V7.34613V7.47903C7.94033 7.46997 7.81093 7.41142 7.71346 7.31423C7.61599 7.21705 7.55707 7.08782 7.54761 6.9505H7.65516C7.65438 6.95855 7.65438 6.96665 7.65516 6.9747C7.65516 7.01687 7.67191 7.05732 7.70173 7.08714C7.73156 7.11697 7.772 7.13372 7.81418 7.13372C7.85635 7.13372 7.8968 7.11697 7.92662 7.08714C7.95644 7.05732 7.9732 7.01687 7.9732 6.9747C7.97321 6.96658 7.97244 6.95847 7.97089 6.9505H8.0796V7.07457V7.13564C8.09546 7.11786 8.11659 7.10561 8.1399 7.10069H8.15066H8.16256C8.19178 7.10078 8.21978 7.11235 8.24054 7.1329C8.26131 7.15345 8.27317 7.18133 8.27357 7.21054Z" fill="#CC9933"/>
<path d="M8.29561 6.91288C8.28882 6.89839 8.2853 6.88259 8.28528 6.86658C8.28538 6.83712 8.29716 6.80889 8.31803 6.78809C8.3389 6.76729 8.36716 6.75562 8.39663 6.75562C8.41916 6.75557 8.44118 6.76238 8.45975 6.77515C8.47832 6.78792 8.49256 6.80604 8.50057 6.8271C8.50859 6.84817 8.51001 6.87117 8.50463 6.89305C8.49925 6.91494 8.48734 6.93467 8.47048 6.94962H8.32278C8.3113 6.93937 8.30205 6.92686 8.29561 6.91288Z" fill="#CC9933"/>
<path d="M8.6847 6.95081C8.67513 7.09069 8.61417 7.22209 8.51355 7.31973C8.41293 7.41738 8.27976 7.47436 8.13965 7.47972V7.36795C8.14732 7.36854 8.15502 7.36854 8.1627 7.36795C8.20487 7.36795 8.24532 7.35119 8.27514 7.32137C8.30496 7.29155 8.32172 7.2511 8.32172 7.20893C8.32172 7.16675 8.30496 7.1263 8.27514 7.09648C8.24532 7.06666 8.20487 7.04991 8.1627 7.04991C8.15502 7.0493 8.14732 7.0493 8.13965 7.04991V6.95081H8.6847Z" fill="#CC9933"/>
<path d="M7.92472 6.96263C7.92511 6.96671 7.92511 6.97081 7.92472 6.97488C7.92484 6.9935 7.92028 7.01186 7.91146 7.02826C7.90265 7.04467 7.88986 7.0586 7.87427 7.06879C7.85867 7.07897 7.84078 7.08508 7.82221 7.08656C7.80364 7.08804 7.785 7.08484 7.768 7.07725C7.75099 7.06966 7.73616 7.05792 7.72486 7.04311C7.71356 7.02831 7.70615 7.01091 7.70332 6.9925C7.70049 6.97409 7.70232 6.95527 7.70864 6.93775C7.71497 6.92023 7.72559 6.90458 7.73952 6.89223H7.88761C7.90884 6.90999 7.92251 6.93516 7.92587 6.96263H7.92472Z" fill="#CC9933"/>
<path d="M7.89695 6.62662C7.89695 6.64748 7.90107 6.66814 7.90906 6.68741C7.91706 6.70668 7.92878 6.72419 7.94355 6.73892C7.95832 6.75366 7.97586 6.76534 7.99515 6.77329C8.01444 6.78124 8.03511 6.7853 8.05597 6.78525C8.06402 6.78601 8.07212 6.78601 8.08017 6.78525V6.89319H7.54895C7.5537 6.75216 7.61069 6.61793 7.70886 6.51656C7.80703 6.4152 7.93937 6.35394 8.08017 6.34468V6.46913C8.07211 6.46856 8.06403 6.46856 8.05597 6.46913C8.01406 6.46913 7.97385 6.48567 7.94407 6.51516C7.91429 6.54465 7.89736 6.58471 7.89695 6.62662Z" fill="#CC9933"/>
<path d="M7.95753 6.5729C7.9484 6.58985 7.94382 6.60889 7.94424 6.62815C7.94466 6.6474 7.95007 6.66622 7.95994 6.68276C7.96981 6.6993 7.98381 6.713 8.00055 6.72251C8.0173 6.73203 8.03623 6.73704 8.05549 6.73705H8.0574H8.06773C8.09518 6.73362 8.12033 6.71995 8.13814 6.69879V6.55185C8.12629 6.53851 8.11139 6.52823 8.09472 6.52188C8.07804 6.51552 8.06008 6.51328 8.04236 6.51535C8.02463 6.51741 8.00767 6.52372 7.9929 6.53374C7.97813 6.54376 7.966 6.55719 7.95753 6.5729Z" fill="#CC9933"/>
<path d="M9.03287 6.38947V6.37755L9.48717 6.11274L10.0095 5.80833L10.0156 5.80488L9.73815 5.5097L9.48717 5.65575L9.22581 5.80949L9.03364 5.9221V4.75907L9.02249 4.74715H8.63814V5.41246H8.29223V4.31399L8.0105 4.47619L7.89751 4.54229L7.54583 4.74715L7.04618 5.03887V4.47619H6.65068V4.85208L6.55344 4.74715L6.29977 4.47619L6.07339 4.23712L5.96232 4.30208L5.749 4.42622L5.72325 4.44121L5.749 4.46811L5.7563 4.47619L6.01151 4.74715L6.55498 5.32367L6.63723 5.4113H5.749V5.38478L5.35428 4.96738L5.16595 4.76675L4.81581 4.97007L5.23205 5.41246H4.60864V5.80718H5.35428V6.38947H4.60864V6.78304H5.35428V7.58556H5.749V6.78304H6.65068V7.14471L6.66068 7.15547H6.65068V7.98028H7.89751V8.04601L7.77605 8.11673L7.63999 8.1959L7.04541 8.54181V8.9988L7.89751 8.50338V8.9646L7.04541 9.46041V9.91739L7.89751 9.42082V10.5216L8.29185 10.291L8.63776 10.0892L9.03249 9.85859V8.75897L9.48678 8.49377V8.04831L9.47987 8.04101L9.24119 8.18014L9.03249 8.30198V7.98028H9.48678V7.57595L10.2086 7.15547L10.6356 6.90642V6.38947H9.03287ZM5.749 6.38947V5.96207L5.92503 6.14887L6.15026 6.38947H5.749ZM6.65068 6.34565L6.27479 5.94593L6.14603 5.80718H6.65068V6.34565ZM8.29185 5.80757H8.63776V6.15002L8.29185 6.3518V5.80757ZM7.188 5.41246L7.89751 4.9989V5.41246H7.188L7.18224 5.41592L7.17916 5.41246H7.188ZM8.63814 9.63259L8.29223 9.83438V9.19059L8.47557 9.08375L8.61162 9.00457L8.63853 8.98881L8.63814 9.63259ZM8.63814 8.53182L8.33374 8.70939L8.29185 8.7336V8.27277L8.40369 8.20782L8.63814 8.07099V8.53182ZM8.67658 7.00289C8.66906 7.04746 8.65615 7.09095 8.63814 7.13241V7.58556H8.29223V7.45104C8.2354 7.46962 8.17599 7.47909 8.1162 7.47909C8.04122 7.47935 7.96696 7.46445 7.89789 7.43528V7.58556H7.04541V6.76421L7.06347 6.78304H7.56312C7.56358 6.78044 7.56422 6.77787 7.56505 6.77535C7.58646 6.68953 7.62769 6.60992 7.68543 6.54291C7.74316 6.4759 7.8158 6.42335 7.89751 6.38947H7.04541V5.80718H7.89751V6.35872L7.91788 6.38063C7.9813 6.35738 8.04827 6.34529 8.11582 6.34488C8.16777 6.34471 8.21951 6.35169 8.26955 6.36564L8.29377 6.37294C8.30799 6.37755 8.32183 6.38293 8.33528 6.38832C8.44889 6.43599 8.54387 6.51937 8.60586 6.62584C8.6184 6.64695 8.62944 6.66891 8.63891 6.69157C8.66841 6.76135 8.68332 6.83642 8.68273 6.91218C8.68271 6.94307 8.68027 6.97392 8.67543 7.00442L8.67658 7.00289ZM9.48832 7.11819L9.42567 7.15663L9.03479 7.38454V6.78304H10.0656L9.48832 7.11819Z" fill="white"/>
<path d="M10.3116 8.92084H9.91687V9.90246H10.3116V8.92084Z" fill="white"/>
</g>
<defs>
<clipPath id="clip0_2000_16560">
<rect width="6.02696" height="6.28447" fill="white" transform="translate(4.60864 4.23712)"/>
</clipPath>
</defs>
</svg>
