<svg width="111" height="51" viewBox="0 0 111 51" fill="none" xmlns="http://www.w3.org/2000/svg">
<rect x="0.374634" y="0.685059" width="110" height="49.859" rx="4" fill="white"/>
<path fill-rule="evenodd" clip-rule="evenodd" d="M41.8125 21.3848H41.7857C41.6518 21.3848 41.558 21.5053 41.558 21.6392V28.8839C41.558 29.0446 41.6919 29.1383 41.8125 29.1383C41.9731 29.1383 42.0669 29.0044 42.0669 28.8839V21.666C42.0669 21.5053 41.9731 21.3848 41.8125 21.3848ZM39.6431 21.7597H34.9159C34.8784 21.7595 34.8412 21.7673 34.8068 21.7824C34.7725 21.7975 34.7417 21.8196 34.7164 21.8474C34.6912 21.8752 34.672 21.908 34.6603 21.9436C34.6485 21.9793 34.6443 22.017 34.6481 22.0543H34.6213V28.9241C34.6213 29.0848 34.7418 29.2053 34.9025 29.2053C35.0498 29.2053 35.1838 29.0848 35.2105 28.9241V25.8173H39.2145C39.3752 25.8173 39.469 25.6834 39.469 25.5629C39.469 25.4022 39.3351 25.3084 39.2145 25.3084H35.1704V22.2954H39.6431C39.8038 22.2954 39.8975 22.1615 39.8975 22.041C39.8975 21.9204 39.8038 21.7597 39.6431 21.7597ZM48.3876 23.7416C48.5215 23.7416 48.642 23.8354 48.642 23.9961H48.6286V28.9375H48.6554C48.6554 29.0714 48.5617 29.1919 48.401 29.1919C48.2671 29.1919 48.1465 29.0982 48.1465 28.9375V28.1608C47.7716 28.8839 46.9949 29.3124 46.178 29.2857C44.8389 29.2857 44.022 28.3483 44.022 27.0761V23.9961C44.022 23.8622 44.1559 23.7416 44.2765 23.7416C44.4104 23.7416 44.5309 23.8354 44.5309 23.9961V26.9823C44.5309 28.1072 45.1603 28.817 46.2584 28.817C47.2895 28.8437 48.1332 28.0403 48.1332 27.0091V23.9961C48.1332 23.8622 48.2269 23.7416 48.3876 23.7416ZM53.1415 24.2505C53.2754 24.2505 53.3959 24.1568 53.3959 24.0363C53.3959 23.9023 53.2754 23.7818 53.1415 23.7818H51.414V22.2954C51.414 22.1615 51.2801 22.041 51.1596 22.041H51.1328C51.0123 22.041 50.9185 22.1749 50.9185 22.2954V23.7818H50.3293C50.1954 23.7818 50.0749 23.8756 50.0749 23.9961C50.0749 24.13 50.2088 24.2505 50.3293 24.2505H50.9185V27.759C50.9185 28.75 51.6015 29.2187 52.4184 29.2187C52.6594 29.2187 52.9406 29.1919 53.1951 29.0982C53.2888 29.0714 53.3558 28.9777 53.3558 28.8839C53.3558 28.7634 53.262 28.6697 53.1415 28.6697C52.954 28.7366 52.7264 28.7634 52.5121 28.7634C51.8559 28.7634 51.414 28.4822 51.414 27.7055V24.2505H53.1415ZM57.6678 24.0363C57.6678 24.1568 57.5339 24.2505 57.4133 24.2505H55.6859V27.7055C55.6859 28.4822 56.1278 28.7634 56.7839 28.7634C57.0116 28.7634 57.2259 28.7366 57.4133 28.6697C57.5339 28.6697 57.6276 28.7634 57.6276 28.8839C57.6276 28.9777 57.5606 29.0714 57.4669 29.0982C57.2259 29.1919 56.9446 29.2187 56.6902 29.2187C55.8733 29.2187 55.1904 28.75 55.1904 27.759V24.2505H54.6012C54.4672 24.2505 54.3467 24.1166 54.3467 23.9961C54.3467 23.8756 54.4806 23.7818 54.6012 23.7818H55.1904V22.2954C55.1904 22.1615 55.2841 22.041 55.4046 22.041H55.4314C55.5653 22.041 55.6859 22.1749 55.6859 22.2954V23.7818H57.4133C57.5472 23.7818 57.6678 23.9157 57.6678 24.0363ZM61.1763 23.6345C59.7033 23.6345 58.6052 24.8799 58.6052 26.4601V26.5003C58.6052 28.201 59.8238 29.3258 61.27 29.3258C62.0601 29.3526 62.8368 29.0446 63.3725 28.4554C63.4394 28.3884 63.4662 28.3349 63.4662 28.2679C63.4662 28.134 63.3323 28.0135 63.2118 28.0135C63.1448 28.0135 63.0779 28.0537 63.0511 28.0804C62.6092 28.5491 61.953 28.8303 61.2968 28.8303C60.2389 28.8303 59.2613 28.0537 59.1676 26.7145H63.426C63.56 26.7145 63.6805 26.5806 63.6805 26.4601C63.6805 24.8799 62.7163 23.6345 61.1763 23.6345ZM67.872 23.7149C66.9078 23.7818 66.0641 24.438 65.716 25.3352V24.0229C65.716 23.889 65.582 23.7684 65.4615 23.7684C65.3008 23.7684 65.2071 23.8622 65.1803 24.0229V29.0044C65.1803 29.1383 65.3142 29.2589 65.4347 29.2589C65.5954 29.2589 65.6892 29.1651 65.716 29.0044V27.0091C65.716 25.2683 66.7069 24.4246 67.872 24.3041H67.8987C68.0594 24.3041 68.1532 24.1434 68.1532 24.0229C68.1532 23.8354 68.0326 23.7149 67.872 23.7149ZM75.6389 24.0496C75.7327 23.6881 76.0407 23.4336 76.4156 23.4336C76.8307 23.4336 77.1387 23.755 77.1521 24.1702V24.197C77.1521 24.277 77.1228 24.3767 77.0976 24.4624C77.0933 24.4771 77.0891 24.4913 77.0852 24.505L75.6791 28.5491C75.5854 28.9777 75.2104 29.2589 74.7685 29.2589H74.7015C74.2998 29.2589 73.9248 28.9777 73.8311 28.5759L72.9205 25.7102L72.0099 28.5759C71.8893 28.9777 71.5412 29.2589 71.1394 29.2589H71.0725C70.644 29.2321 70.2958 28.9509 70.202 28.5491L68.796 24.5317C68.7558 24.4112 68.729 24.2773 68.729 24.1568C68.729 23.755 69.0504 23.4069 69.4521 23.4069H69.4789C69.8539 23.4069 70.1619 23.6747 70.2556 24.0229L71.126 26.9154L72.0367 24.0496C72.1304 23.6479 72.4786 23.3935 72.8803 23.3935H72.974C73.3758 23.3935 73.724 23.6747 73.8177 24.0496L74.7283 26.9422L75.6389 24.0496ZM80.433 23.4336C79.8036 23.4069 79.201 23.5274 78.6118 23.7149C78.3574 23.8086 78.21 24.063 78.2368 24.3309C78.2368 24.6924 78.5448 24.9736 78.9198 24.9469C78.9734 24.9469 79.0671 24.9469 79.1341 24.9201C79.509 24.7862 79.884 24.7594 80.2589 24.7594C81.0758 24.7594 81.4775 25.1076 81.4775 25.7905V25.8843C81.0356 25.737 80.5669 25.67 80.0982 25.67C78.7457 25.67 77.8083 26.2592 77.8083 27.5046C77.8083 28.6295 78.7189 29.2455 79.7501 29.2455C80.4062 29.2857 81.0356 29.0044 81.4775 28.5357C81.5043 28.9375 81.8525 29.2187 82.2542 29.2187C82.6827 29.2187 83.0309 28.8839 83.0309 28.442V25.8977C83.0577 25.2415 82.8434 24.5853 82.4015 24.0898C81.9328 23.6881 81.3034 23.4336 80.433 23.4336ZM88.6017 23.4069C88.2535 23.4069 87.9455 23.6211 87.8518 23.9693L86.5796 27.2636L85.361 23.9961C85.2673 23.6613 84.9593 23.4069 84.5843 23.4069C84.1826 23.4069 83.8344 23.7149 83.8076 24.1568C83.8076 24.2773 83.8344 24.4112 83.9014 24.5317L85.6556 28.5491C85.7895 28.9509 86.1243 29.2321 86.5662 29.2589H86.66C87.0617 29.2321 87.4367 28.9777 87.5974 28.5759L89.2847 24.5585C89.3516 24.438 89.3784 24.3041 89.3784 24.1836V24.1568C89.3784 23.755 89.0436 23.4069 88.6017 23.4069ZM92.9941 29.2589C91.4273 29.3526 90.0881 28.134 90.0212 26.5806H89.9944V26.353C89.9944 24.7326 91.1594 23.3935 92.82 23.3935C94.3198 23.3533 95.5384 24.5317 95.5384 25.9378V26.0583C95.5786 26.4601 95.2572 26.8083 94.8555 26.835H91.6281C91.7219 27.518 92.3245 27.9867 93.0075 27.9599C93.4226 27.9867 93.8243 27.8394 94.1725 27.585C94.2662 27.4912 94.4269 27.4644 94.5475 27.4644C94.8956 27.4644 95.1768 27.7323 95.1768 28.0804V28.1072C95.1768 28.2947 95.1233 28.4554 94.9626 28.5759C94.4001 29.0446 93.7172 29.2589 92.9941 29.2589ZM61.136 24.1167C60.0646 24.1167 59.221 25.0273 59.1273 26.2057H63.0777C63.0107 25.1076 62.3546 24.1167 61.136 24.1167ZM80.2052 28.1073C80.9551 28.1341 81.4908 27.7591 81.4908 27.1431V26.8351C81.1828 26.7146 80.8078 26.6208 80.4596 26.6208C79.7767 26.6208 79.3348 26.9288 79.3348 27.3975V27.4243C79.3348 27.8528 79.7097 28.1073 80.2052 28.1073ZM91.6146 25.8977C91.7351 25.1478 92.177 24.6791 92.8332 24.6791C93.4894 24.6791 93.9313 25.1746 94.025 25.8977H91.6146Z" fill="#10112B"/>
<path fill-rule="evenodd" clip-rule="evenodd" d="M26.8813 24.4381C29.064 22.7508 33.5769 16.7515 26.5331 17.8094C23.4531 18.2513 18.9536 21.0099 18.0296 24.1703C17.5609 23.3266 17.0386 22.5097 16.4628 21.7197C15.6192 20.635 14.655 21.4652 15.5924 22.5901C18.2573 25.804 20.1053 29.6607 20.1053 33.5442C20.3329 31.6158 19.9847 29.259 19.1679 26.9557C19.583 27.0762 20.0249 27.1431 20.4266 27.1431C21.8729 29.3259 24.0557 31.1873 26.5331 32.0578C28.7962 32.9014 31.7959 32.4059 30.5773 29.0447C29.9211 27.2101 28.3811 25.5897 26.8813 24.4381ZM27.1893 18.5861C31.0995 18.1844 26.908 22.6838 25.5287 23.5275C24.2432 22.7508 22.6496 22.0678 21.0828 22.2553C22.2077 20.9162 24.9395 18.8405 27.1893 18.5861ZM26.4661 30.2901C24.6181 29.7946 22.904 28.4287 21.6453 27.0226C22.6764 26.8351 23.6807 26.4602 24.6181 25.9379C24.9663 25.7906 25.3145 25.563 25.6225 25.3487C26.7206 26.2861 27.8454 27.5181 28.2874 28.9242C28.7159 30.4508 27.5374 30.5713 26.4661 30.2901ZM24.1491 24.2773C23.2653 23.7149 22.1136 23.1525 21.0423 23.2462C19.663 23.3801 19.9576 25.0005 21.3905 24.9871C22.368 24.9335 23.3054 24.6791 24.1491 24.2773Z" fill="#EBA12A"/>
</svg>
