<svg width="16" height="16" viewBox="0 0 16 16" fill="none" xmlns="http://www.w3.org/2000/svg">
<path fill-rule="evenodd" clip-rule="evenodd" d="M10.8875 0.875486C11.3608 0.875486 11.8333 0.942236 12.2825 1.09299C15.0508 1.99299 16.0483 5.03049 15.215 7.68549C14.7425 9.04224 13.97 10.2805 12.9583 11.2922C11.51 12.6947 9.92076 13.9397 8.21001 15.0122L8.02251 15.1255L7.82751 15.0047C6.11076 13.9397 4.51251 12.6947 3.05076 11.2847C2.04576 10.273 1.27251 9.04224 0.792512 7.68549C-0.0549876 5.03049 0.942513 1.99299 3.74076 1.07724C3.95826 1.00224 4.18251 0.949736 4.40751 0.920486H4.49751C4.70826 0.889736 4.91751 0.875486 5.12751 0.875486H5.21001C5.68251 0.889736 6.14001 0.972236 6.58326 1.12299H6.62751C6.65751 1.13724 6.68001 1.15299 6.69501 1.16724C6.86076 1.22049 7.01751 1.28049 7.16751 1.36299L7.45251 1.49049C7.52138 1.52722 7.59868 1.58334 7.66548 1.63184C7.70781 1.66257 7.74592 1.69024 7.77501 1.70799C7.78725 1.71521 7.79969 1.72247 7.81223 1.72979C7.87654 1.76733 7.94353 1.80643 8.00001 1.84974C8.83326 1.21299 9.84501 0.867986 10.8875 0.875486ZM12.8825 6.27549C13.19 6.26724 13.4525 6.02049 13.475 5.70474V5.61549C13.4975 4.56474 12.8608 3.61299 11.8925 3.24549C11.585 3.13974 11.2475 3.30549 11.135 3.62049C11.03 3.93549 11.195 4.28049 11.51 4.39224C11.9908 4.57224 12.3125 5.04549 12.3125 5.56974V5.59299C12.2983 5.76474 12.35 5.93049 12.455 6.05799C12.56 6.18549 12.7175 6.25974 12.8825 6.27549Z" fill="#CC9933"/>
</svg>
