<svg width="21" height="21" viewBox="0 0 21 21" fill="none" xmlns="http://www.w3.org/2000/svg">
<path d="M8.11982 18.1197V15.5639C8.1198 14.9163 8.64643 14.3902 9.29874 14.3861H11.6939C12.3491 14.3861 12.8803 14.9134 12.8803 15.5639V18.1122C12.8802 18.674 13.3367 19.1305 13.9025 19.1345H15.5366C16.2997 19.1365 17.0323 18.8369 17.5727 18.3018C18.113 17.7667 18.4167 17.0402 18.4167 16.2825V9.02277C18.4167 8.41072 18.1434 7.83016 17.6706 7.43748L12.1192 3.02979C11.1488 2.25883 9.76285 2.28374 8.8212 3.08905L3.38922 7.43748C2.89399 7.81858 2.598 8.40086 2.58337 9.02277V16.2751C2.58337 17.8543 3.87286 19.1345 5.46352 19.1345H7.06028C7.33268 19.1365 7.59461 19.0305 7.78793 18.8399C7.98126 18.6494 8.08998 18.3901 8.08997 18.1197H8.11982Z" fill="#CC9933"/>
</svg>
