<svg width="17" height="14" viewBox="0 0 17 14" fill="none" xmlns="http://www.w3.org/2000/svg">
<path opacity="0.4" d="M9.95882 4.88713V3.20392C9.62839 3.20392 9.35437 2.93774 9.35437 2.61676V0.61257C9.35437 0.345606 9.13677 0.13501 8.86275 0.13501H3.326C1.58519 0.13501 0.166748 1.51211 0.166748 3.20392V5.23082C0.166748 5.38818 0.231223 5.53692 0.344053 5.64653C0.456883 5.75535 0.61001 5.81798 0.771197 5.81798C1.3837 5.81798 1.85115 6.24074 1.85115 6.79659C1.85115 7.37671 1.37565 7.83861 0.779256 7.84565C0.448824 7.84565 0.166748 8.07269 0.166748 8.4015V10.4065C0.166748 12.0975 1.58519 13.4676 3.31794 13.4676H8.86275C9.13677 13.4676 9.35437 13.2554 9.35437 12.99V11.2982C9.35437 10.9702 9.62839 10.711 9.95882 10.711V9.193C9.62839 9.193 9.35437 8.92604 9.35437 8.60584V5.47429C9.35437 5.15331 9.62839 4.88713 9.95882 4.88713" fill="#B4B4B5"/>
<path d="M15.1489 6.797C15.1489 7.37634 15.6325 7.83824 16.2208 7.84607C16.5513 7.84607 16.8333 8.07311 16.8333 8.39409V10.4061C16.8333 12.0979 15.423 13.468 13.6821 13.468H11.0548C10.7888 13.468 10.5632 13.2558 10.5632 12.9896V11.2986C10.5632 10.9698 10.2972 10.7114 9.95874 10.7114V9.19342C10.2972 9.19342 10.5632 8.92645 10.5632 8.60625V5.47471C10.5632 5.15294 10.2972 4.88754 9.95874 4.88754V3.20356C10.2972 3.20356 10.5632 2.93738 10.5632 2.61639V0.612987C10.5632 0.346023 10.7888 0.134644 11.0548 0.134644H13.6821C15.423 0.134644 16.8333 1.50469 16.8333 3.19573V5.1686C16.8333 5.32518 16.7689 5.47471 16.656 5.58353C16.5432 5.69313 16.3901 5.75577 16.2289 5.75577C15.6325 5.75577 15.1489 6.22628 15.1489 6.797" fill="#B4B4B5"/>
</svg>
