<svg width="17" height="18" viewBox="0 0 17 18" fill="none" xmlns="http://www.w3.org/2000/svg">
<path d="M6.1197 16.1197V13.5639C6.11968 12.9163 6.64631 12.3902 7.29861 12.3861H9.69376C10.349 12.3861 10.8801 12.9134 10.8801 13.5639V13.5639V16.1122C10.8801 16.674 11.3366 17.1305 11.9024 17.1345H13.5364C14.2996 17.1365 15.0322 16.8369 15.5726 16.3018C16.1129 15.7667 16.4166 15.0402 16.4166 14.2825V7.02277C16.4166 6.41072 16.1433 5.83016 15.6704 5.43748L10.1191 1.02979C9.14868 0.258831 7.76273 0.283736 6.82108 1.08905L1.3891 5.43748C0.893869 5.81858 0.597879 6.40086 0.583252 7.02277V14.2751C0.583252 15.8543 1.87274 17.1345 3.4634 17.1345H5.06016C5.33256 17.1365 5.59449 17.0305 5.78781 16.8399C5.98113 16.6494 6.08986 16.3901 6.08985 16.1197H6.1197Z" fill="#B4B4B5"/>
</svg>
