<svg width="21" height="21" viewBox="0 0 21 21" fill="none" xmlns="http://www.w3.org/2000/svg">
<path opacity="0.4" d="M11.9587 8.88713V7.20392C11.6283 7.20392 11.3542 6.93774 11.3542 6.61676V4.61257C11.3542 4.34561 11.1366 4.13501 10.8626 4.13501H5.32588C3.58507 4.13501 2.16663 5.51211 2.16663 7.20392V9.23082C2.16663 9.38818 2.2311 9.53692 2.34393 9.64653C2.45676 9.75535 2.60989 9.81798 2.77107 9.81798C3.38358 9.81798 3.85102 10.2407 3.85102 10.7966C3.85102 11.3767 3.37552 11.8386 2.77913 11.8457C2.4487 11.8457 2.16663 12.0727 2.16663 12.4015V14.4065C2.16663 16.0975 3.58507 17.4676 5.31782 17.4676H10.8626C11.1366 17.4676 11.3542 17.2554 11.3542 16.99V15.2982C11.3542 14.9702 11.6283 14.711 11.9587 14.711V13.193C11.6283 13.193 11.3542 12.926 11.3542 12.6058V9.47429C11.3542 9.15331 11.6283 8.88713 11.9587 8.88713Z" fill="#B4B4B5"/>
<path d="M17.1489 10.797C17.1489 11.3763 17.6325 11.8382 18.2208 11.8461C18.5513 11.8461 18.8333 12.0731 18.8333 12.3941V14.4061C18.8333 16.0979 17.423 17.468 15.6821 17.468H13.0548C12.7888 17.468 12.5632 17.2558 12.5632 16.9896V15.2986C12.5632 14.9698 12.2972 14.7114 11.9587 14.7114V13.1934C12.2972 13.1934 12.5632 12.9265 12.5632 12.6063V9.47471C12.5632 9.15294 12.2972 8.88754 11.9587 8.88754V7.20356C12.2972 7.20356 12.5632 6.93738 12.5632 6.61639V4.61299C12.5632 4.34602 12.7888 4.13464 13.0548 4.13464H15.6821C17.423 4.13464 18.8333 5.50469 18.8333 7.19573V9.1686C18.8333 9.32518 18.7689 9.47471 18.656 9.58353C18.5432 9.69313 18.3901 9.75577 18.2289 9.75577C17.6325 9.75577 17.1489 10.2263 17.1489 10.797Z" fill="#B4B4B5"/>
</svg>
