<svg width="25" height="25" viewBox="0 0 25 25" fill="none" xmlns="http://www.w3.org/2000/svg">
<g clip-path="url(#clip0_2510_2973)">
<path d="M12.6843 23.8712C19.1564 23.8712 24.4031 18.6245 24.4031 12.1524C24.4031 5.68036 19.1564 0.433693 12.6843 0.433693C6.21224 0.433693 0.965576 5.68036 0.965576 12.1524C0.965576 18.6245 6.21224 23.8712 12.6843 23.8712Z" fill="url(#paint0_linear_2510_2973)"/>
<path opacity="0.49" d="M24.3978 11.8125L18.7432 6.15788C17.9234 5.34694 16.8195 5.04478 15.6947 4.98914H9.67386C8.54886 5.04478 7.44514 5.3468 6.62534 6.15788C5.81337 6.96122 5.50034 8.05988 5.44409 9.174V15.1309C5.50034 16.245 5.81342 17.3437 6.62534 18.147L12.3443 23.8659C12.4572 23.8691 12.5705 23.8712 12.6843 23.8712C19.1563 23.8712 24.403 18.6245 24.403 12.1524C24.403 12.0387 24.401 11.9254 24.3978 11.8125ZM9.74989 17.9585C8.98672 17.9375 8.12154 17.7475 7.57779 17.1668C7.01276 16.563 6.80239 15.8336 6.77759 15.0177C6.77759 15.0177 6.73953 10.7193 6.77759 9.28711C6.79925 8.47121 7.01276 7.74183 7.57779 7.13813C8.12154 6.55716 8.98672 6.36736 9.74989 6.34641C11.2164 6.30614 14.1517 6.30614 15.6183 6.34641C16.3814 6.36736 17.2466 6.55735 17.7904 7.13813C18.3554 7.74183 18.5689 8.47121 18.5906 9.28711V9.35935L17.0544 7.82302C16.9836 7.75218 16.8995 7.69598 16.8069 7.65764C16.7144 7.6193 16.6152 7.59956 16.515 7.59956C16.4148 7.59956 16.3156 7.61929 16.223 7.65763C16.1305 7.69596 16.0464 7.75216 15.9755 7.823C15.9047 7.89384 15.8485 7.97794 15.8101 8.07049C15.7718 8.16305 15.7521 8.26225 15.7521 8.36244C15.7521 8.56477 15.8324 8.75882 15.9755 8.90189L18.5907 11.5171V12.6645L15.3815 9.45521C14.6653 8.74376 13.6964 8.34522 12.6869 8.34688C11.6774 8.34855 10.7098 8.7503 9.99598 9.46411C9.28217 10.1779 8.88042 11.1456 8.87875 12.155C8.87709 13.1645 9.27564 14.1335 9.98708 14.8496L13.1255 17.9881C11.8851 17.9911 10.5815 17.9813 9.74989 17.9585Z" fill="url(#paint1_linear_2510_2973)"/>
<path d="M19.9245 9.174C19.8682 8.05988 19.5552 6.96122 18.7432 6.15788C17.9234 5.34694 16.8196 5.04478 15.6947 4.98914H9.67386C8.54886 5.04478 7.44514 5.3468 6.62534 6.15788C5.81337 6.96122 5.50034 8.05988 5.44409 9.174V15.1308C5.50034 16.245 5.81342 17.3437 6.62534 18.147C7.44514 18.9579 8.549 19.26 9.67386 19.3157H15.6947C16.8197 19.26 17.9234 18.9581 18.7432 18.147C19.5552 17.3437 19.8682 16.245 19.9244 15.1308L19.9245 9.174ZM6.77801 9.28716C6.79967 8.47121 7.01319 7.74183 7.57822 7.13813C8.12197 6.55716 8.98714 6.36736 9.75031 6.34641C11.2168 6.30619 14.1522 6.30619 15.6187 6.34641C16.3819 6.36736 17.247 6.55735 17.7908 7.13813C18.3558 7.74183 18.5693 8.47121 18.591 9.28716V15.0177C18.5693 15.8337 18.3558 16.563 17.7908 17.1668C17.247 17.7477 16.3819 17.9375 15.6187 17.9585C14.1522 17.9987 11.2168 17.9987 9.75031 17.9585C8.98714 17.9375 8.12197 17.7475 7.57822 17.1668C7.01319 16.563 6.80281 15.8336 6.77801 15.0177C6.77801 15.0177 6.73972 10.7193 6.77801 9.28716Z" fill="white"/>
<path d="M16.5151 9.12534C16.9364 9.12534 17.278 8.78379 17.278 8.36245C17.278 7.94112 16.9364 7.59956 16.5151 7.59956C16.0938 7.59956 15.7522 7.94112 15.7522 8.36245C15.7522 8.78379 16.0938 9.12534 16.5151 9.12534Z" fill="white"/>
<path d="M12.6843 8.33794C11.9299 8.33794 11.1924 8.56166 10.5651 8.98079C9.93785 9.39993 9.44895 9.99566 9.16024 10.6927C8.87153 11.3897 8.79599 12.1566 8.94316 12.8965C9.09034 13.6365 9.45363 14.3161 9.98709 14.8496C10.5205 15.3831 11.2002 15.7464 11.9401 15.8936C12.6801 16.0407 13.447 15.9652 14.144 15.6765C14.841 15.3878 15.4368 14.8989 15.8559 14.2716C16.275 13.6444 16.4988 12.9069 16.4988 12.1524C16.4988 11.6515 16.4001 11.1555 16.2084 10.6927C16.0167 10.2299 15.7358 9.8094 15.3816 9.45519C15.0274 9.10098 14.6069 8.82 14.1441 8.62831C13.6813 8.43661 13.1853 8.33794 12.6843 8.33794ZM12.6843 14.6134C12.1976 14.6134 11.7218 14.4691 11.3171 14.1986C10.9124 13.9282 10.597 13.5439 10.4107 13.0942C10.2245 12.6445 10.1757 12.1497 10.2707 11.6723C10.3656 11.195 10.6 10.7565 10.9442 10.4123C11.2884 10.0681 11.7268 9.83375 12.2042 9.73879C12.6816 9.64384 13.1764 9.69257 13.6261 9.87883C14.0758 10.0651 14.4601 10.3805 14.7305 10.7852C15.0009 11.1899 15.1453 11.6657 15.1453 12.1524C15.1453 12.8051 14.886 13.4311 14.4245 13.8926C13.963 14.3541 13.337 14.6134 12.6843 14.6134Z" fill="white"/>
</g>
<defs>
<linearGradient id="paint0_linear_2510_2973" x1="4.3979" y1="20.4389" x2="20.9707" y2="3.86602" gradientUnits="userSpaceOnUse">
<stop stop-color="#D6B43D"/>
<stop offset="0.051" stop-color="#DBA93F"/>
<stop offset="0.143" stop-color="#E88A45"/>
<stop offset="0.164" stop-color="#EB8246"/>
<stop offset="0.211" stop-color="#E7774D"/>
<stop offset="0.294" stop-color="#DD5860"/>
<stop offset="0.31" stop-color="#DB5164"/>
<stop offset="0.464" stop-color="#D2466C"/>
<stop offset="0.567" stop-color="#C93B73"/>
<stop offset="0.607" stop-color="#CB3179"/>
<stop offset="0.733" stop-color="#A23394"/>
<stop offset="0.856" stop-color="#7F35AB"/>
<stop offset="0.91" stop-color="#7D35AB"/>
<stop offset="0.94" stop-color="#7537AA"/>
<stop offset="0.964" stop-color="#673AA9"/>
<stop offset="0.985" stop-color="#533DA8"/>
<stop offset="1" stop-color="#4041A6"/>
</linearGradient>
<linearGradient id="paint1_linear_2510_2973" x1="6.6575" y1="6.12567" x2="20.9706" y2="20.4389" gradientUnits="userSpaceOnUse">
<stop stop-color="#1D1D1B"/>
<stop offset="0.369" stop-color="#1D1D1B" stop-opacity="0.856"/>
<stop offset="0.75" stop-color="#1D1D1B" stop-opacity="0.429"/>
<stop offset="1" stop-color="#1D1D1B" stop-opacity="0"/>
</linearGradient>
<clipPath id="clip0_2510_2973">
<rect width="24" height="24" fill="white" transform="translate(0.684326 0.152443)"/>
</clipPath>
</defs>
</svg>
