<svg width="19" height="19" viewBox="0 0 19 19" fill="none" xmlns="http://www.w3.org/2000/svg">
<g clip-path="url(#clip0_2000_16583)">
<path d="M17.8906 6.0576L16.3244 4.49244C16.1938 4.62307 16.0387 4.7267 15.868 4.79739C15.6974 4.86809 15.5144 4.90448 15.3297 4.90448C15.1449 4.90448 14.962 4.86809 14.7913 4.79739C14.6207 4.7267 14.4656 4.62307 14.3349 4.49244C14.0711 4.22862 13.9229 3.8708 13.9229 3.49769C13.9229 3.12459 14.0711 2.76677 14.3349 2.50295L14.0537 2.21959L6.89307 9.37916H15.5654L17.8924 7.05217C17.9576 6.98676 18.0093 6.90914 18.0445 6.82375C18.0797 6.73836 18.0977 6.64688 18.0976 6.55452C18.0974 6.46216 18.079 6.37073 18.0435 6.28547C18.008 6.20021 17.9561 6.12278 17.8906 6.0576Z" fill="#EFDFC0"/>
<path d="M3.64746 11.6014L11.2061 4.0428L14.7832 7.62382L7.22461 15.1824L3.64746 11.6014Z" fill="white"/>
<path d="M16.6904 13.7034C16.6904 13.3336 16.8361 12.9786 17.0959 12.7154C17.3558 12.4522 17.7089 12.3019 18.0787 12.2972C18.0434 12.1419 17.9563 12.0032 17.8319 11.9038C17.7074 11.8044 17.5528 11.7503 17.3936 11.7502H1.50293C1.34364 11.7503 1.18911 11.8044 1.06463 11.9038C0.940144 12.0032 0.853096 12.1419 0.817734 12.2972C1.1907 12.2996 1.54744 12.45 1.80948 12.7154C2.07152 12.9808 2.2174 13.3395 2.21502 13.7124C2.21264 14.0854 2.0622 14.4421 1.7968 14.7042C1.5314 14.9662 1.17277 15.1121 0.799805 15.1097V17.3245C0.799805 17.511 0.873884 17.6899 1.00575 17.8217C1.13761 17.9536 1.31645 18.0277 1.50293 18.0277H17.3936C17.58 18.0277 17.7589 17.9536 17.8907 17.8217C18.0226 17.6899 18.0967 17.511 18.0967 17.3245V15.1097C17.912 15.1097 17.7291 15.0733 17.5585 15.0027C17.3879 14.932 17.2329 14.8284 17.1023 14.6978C16.9717 14.5672 16.8681 14.4122 16.7975 14.2416C16.7268 14.071 16.6904 13.8881 16.6904 13.7034Z" fill="#CC9933"/>
<path d="M4.10425 11.1724H14.7917V16.2349H4.10425V11.1724Z" fill="white"/>
<path d="M17.3933 9.02792H16.4125L18.139 7.30104C18.2369 7.20311 18.3146 7.08683 18.3676 6.95886C18.4207 6.83088 18.4479 6.69372 18.4479 6.5552C18.4479 6.41669 18.4207 6.27952 18.3676 6.15155C18.3146 6.02358 18.2369 5.9073 18.139 5.80936L16.5728 4.24315C16.5068 4.17725 16.4174 4.14022 16.3242 4.14022C16.231 4.14022 16.1416 4.17725 16.0757 4.24315C15.9784 4.34389 15.862 4.42424 15.7333 4.47951C15.6046 4.53479 15.4662 4.56388 15.3262 4.5651C15.1862 4.56631 15.0473 4.53963 14.9177 4.4866C14.788 4.43357 14.6703 4.35525 14.5713 4.25623C14.4722 4.1572 14.3939 4.03944 14.3409 3.90982C14.2879 3.78021 14.2612 3.64133 14.2624 3.50129C14.2636 3.36124 14.2927 3.22285 14.348 3.09417C14.4032 2.9655 14.4836 2.84912 14.5843 2.75183C14.6502 2.6859 14.6873 2.59649 14.6873 2.50327C14.6873 2.41005 14.6502 2.32064 14.5843 2.25472L13.0181 0.688506C12.9202 0.59055 12.8039 0.512846 12.6759 0.459832C12.548 0.406818 12.4108 0.379532 12.2723 0.379532C12.1338 0.379532 11.9966 0.406818 11.8686 0.459832C11.7407 0.512846 11.6244 0.59055 11.5264 0.688506L5.72144 6.49667C5.65551 6.56264 5.6185 6.65209 5.61853 6.74535C5.61857 6.83861 5.65564 6.92803 5.72161 6.99395C5.78758 7.05988 5.87703 7.09689 5.97029 7.09686C6.06355 7.09682 6.15298 7.05975 6.2189 6.99378L12.0239 1.18562C12.0898 1.11971 12.1792 1.08268 12.2725 1.08268C12.3657 1.08268 12.4551 1.11971 12.521 1.18562L13.8633 2.52788C13.6392 2.86592 13.5389 3.27104 13.5795 3.67457C13.62 4.07809 13.7987 4.4552 14.0855 4.74197C14.3723 5.02873 14.7494 5.20752 15.1529 5.24803C15.5564 5.28853 15.9616 5.18826 16.2996 4.96421L17.6419 6.30647C17.7078 6.3724 17.7448 6.46181 17.7448 6.55503C17.7448 6.64825 17.7078 6.73766 17.6419 6.80358L15.4179 9.02792H13.8777L15.0329 7.87268C15.0988 7.80676 15.1359 7.71735 15.1359 7.62413C15.1359 7.53091 15.0988 7.4415 15.0329 7.37558L11.4519 3.79597C11.386 3.73006 11.2966 3.69303 11.2033 3.69303C11.1101 3.69303 11.0207 3.73006 10.9548 3.79597L5.72144 9.02792H1.50269C1.22297 9.02792 0.954701 9.13904 0.756909 9.33683C0.559117 9.53462 0.447998 9.80289 0.447998 10.0826L0.447998 12.2975C0.447998 12.3907 0.485038 12.4801 0.550968 12.546C0.616899 12.612 0.70632 12.649 0.799561 12.649C1.07928 12.649 1.34754 12.7601 1.54534 12.9579C1.74313 13.1557 1.85425 13.424 1.85425 13.7037C1.85425 13.9834 1.74313 14.2517 1.54534 14.4495C1.34754 14.6473 1.07928 14.7584 0.799561 14.7584C0.70632 14.7584 0.616899 14.7954 0.550968 14.8614C0.485038 14.9273 0.447998 15.0167 0.447998 15.11L0.447998 17.3248C0.447998 17.6045 0.559117 17.8728 0.756909 18.0706C0.954701 18.2684 1.22297 18.3795 1.50269 18.3795H17.3933C17.673 18.3795 17.9413 18.2684 18.1391 18.0706C18.3369 17.8728 18.448 17.6045 18.448 17.3248V15.11C18.448 15.0167 18.411 14.9273 18.345 14.8614C18.2791 14.7954 18.1897 14.7584 18.0964 14.7584C17.8167 14.7584 17.5485 14.6473 17.3507 14.4495C17.1529 14.2517 17.0417 13.9834 17.0417 13.7037C17.0417 13.424 17.1529 13.1557 17.3507 12.9579C17.5485 12.7601 17.8167 12.649 18.0964 12.649C18.1897 12.649 18.2791 12.612 18.345 12.546C18.411 12.4801 18.448 12.3907 18.448 12.2975V10.0826C18.448 9.80289 18.3369 9.53462 18.1391 9.33683C17.9413 9.13904 17.673 9.02792 17.3933 9.02792ZM11.2033 4.54163L14.2858 7.62413L12.8824 9.02792H11.4902L12.521 7.99714C12.5546 7.96471 12.5814 7.92591 12.5998 7.88302C12.6182 7.84013 12.6279 7.794 12.6283 7.74732C12.6287 7.70064 12.6198 7.65434 12.6022 7.61114C12.5845 7.56793 12.5584 7.52868 12.5254 7.49567C12.4924 7.46266 12.4531 7.43656 12.4099 7.41888C12.3667 7.4012 12.3204 7.39231 12.2737 7.39271C12.227 7.39312 12.1809 7.40282 12.138 7.42124C12.0951 7.43967 12.0563 7.46645 12.0239 7.50003L10.4957 9.02792H6.71706L11.2033 4.54163ZM17.7449 11.981C17.3475 12.0617 16.9903 12.2773 16.7336 12.5913C16.477 12.9052 16.3369 13.2982 16.3369 13.7037C16.3369 14.1092 16.477 14.5022 16.7336 14.8161C16.9903 15.1301 17.3475 15.3457 17.7449 15.4264V17.3248C17.7449 17.418 17.7078 17.5075 17.6419 17.5734C17.576 17.6393 17.4866 17.6764 17.3933 17.6764H1.50269C1.40945 17.6764 1.32002 17.6393 1.25409 17.5734C1.18816 17.5075 1.15112 17.418 1.15112 17.3248V15.4264C1.54849 15.3457 1.90574 15.1301 2.16235 14.8161C2.41896 14.5022 2.55914 14.1092 2.55914 13.7037C2.55914 13.2982 2.41896 12.9052 2.16235 12.5913C1.90574 12.2773 1.54849 12.0617 1.15112 11.981V10.0826C1.15112 9.98937 1.18816 9.89994 1.25409 9.83401C1.32002 9.76808 1.40945 9.73104 1.50269 9.73104H17.3933C17.4866 9.73104 17.576 9.76808 17.6419 9.83401C17.7078 9.89994 17.7449 9.98937 17.7449 10.0826V11.981Z" fill="black"/>
<path d="M5.96765 14.8987H12.9286C13.0218 14.8987 13.1112 14.8617 13.1772 14.7957C13.2431 14.7298 13.2802 14.6404 13.2802 14.5471C13.2802 14.4539 13.2431 14.3645 13.1772 14.2985C13.1112 14.2326 13.0218 14.1956 12.9286 14.1956H5.96765C5.87441 14.1956 5.78499 14.2326 5.71906 14.2985C5.65313 14.3645 5.61609 14.4539 5.61609 14.5471C5.61609 14.6404 5.65313 14.7298 5.71906 14.7957C5.78499 14.8617 5.87441 14.8987 5.96765 14.8987Z" fill="black"/>
<path d="M14.792 10.8207H4.10449C4.01125 10.8207 3.92183 10.8577 3.8559 10.9237C3.78997 10.9896 3.75293 11.079 3.75293 11.1723V16.2348C3.75293 16.328 3.78997 16.4174 3.8559 16.4833C3.92183 16.5493 4.01125 16.5863 4.10449 16.5863H5.5691C5.66234 16.5863 5.75176 16.5493 5.81769 16.4833C5.88362 16.4174 5.92066 16.328 5.92066 16.2348C5.92066 16.1415 5.88362 16.0521 5.81769 15.9862C5.75176 15.9202 5.66234 15.8832 5.5691 15.8832H4.45605V11.5238H14.4404V15.8832H8.73316C8.63992 15.8832 8.5505 15.9202 8.48457 15.9862C8.41864 16.0521 8.3816 16.1415 8.3816 16.2348C8.3816 16.328 8.41864 16.4174 8.48457 16.4833C8.5505 16.5493 8.63992 16.5863 8.73316 16.5863H14.792C14.8852 16.5863 14.9747 16.5493 15.0406 16.4833C15.1065 16.4174 15.1436 16.328 15.1436 16.2348V11.1723C15.1436 11.079 15.1065 10.9896 15.0406 10.9237C14.9747 10.8577 14.8852 10.8207 14.792 10.8207Z" fill="black"/>
</g>
<defs>
<clipPath id="clip0_2000_16583">
<rect width="18" height="18" fill="white" transform="translate(0.447998 0.379318)"/>
</clipPath>
</defs>
</svg>
