<svg width="17" height="18" viewBox="0 0 17 18" fill="none" xmlns="http://www.w3.org/2000/svg">
<path opacity="0.4" d="M11.8962 0.467896H14.7178C15.8864 0.467896 16.8333 1.42277 16.8333 2.6012V5.44667C16.8333 6.62509 15.8864 7.57997 14.7178 7.57997H11.8962C10.7276 7.57997 9.78076 6.62509 9.78076 5.44667V2.6012C9.78076 1.42277 10.7276 0.467896 11.8962 0.467896" fill="#B4B4B5"/>
<path fill-rule="evenodd" clip-rule="evenodd" d="M2.28206 0.467896H5.1037C6.27226 0.467896 7.21914 1.42277 7.21914 2.6012V5.44667C7.21914 6.62509 6.27226 7.57997 5.1037 7.57997H2.28206C1.11351 7.57997 0.166626 6.62509 0.166626 5.44667V2.6012C0.166626 1.42277 1.11351 0.467896 2.28206 0.467896ZM2.28206 10.0225H5.1037C6.27226 10.0225 7.21914 10.9774 7.21914 12.1558V15.0013C7.21914 16.1789 6.27226 17.1346 5.1037 17.1346H2.28206C1.11351 17.1346 0.166626 16.1789 0.166626 15.0013V12.1558C0.166626 10.9774 1.11351 10.0225 2.28206 10.0225ZM14.7179 10.0225H11.8962C10.7277 10.0225 9.78078 10.9774 9.78078 12.1558V15.0013C9.78078 16.1789 10.7277 17.1346 11.8962 17.1346H14.7179C15.8864 17.1346 16.8333 16.1789 16.8333 15.0013V12.1558C16.8333 10.9774 15.8864 10.0225 14.7179 10.0225Z" fill="#B4B4B5"/>
</svg>
