<svg width="15" height="18" viewBox="0 0 15 18" fill="none" xmlns="http://www.w3.org/2000/svg">
<path d="M13.9746 8.50567C13.3658 7.7948 13.0892 7.17877 13.0892 6.13219V5.77634C13.0892 4.41251 12.7753 3.53378 12.0928 2.65506C11.041 1.29039 9.27028 0.467896 7.53682 0.467896H7.4631C5.76609 0.467896 4.05085 1.25262 2.98079 2.5619C2.26107 3.45825 1.91073 4.37474 1.91073 5.77634V6.13219C1.91073 7.17877 1.65233 7.7948 1.02537 8.50567C0.564049 9.02939 0.416626 9.70249 0.416626 10.431C0.416626 11.1603 0.655981 11.851 1.13635 12.4125C1.76331 13.0856 2.64867 13.5153 3.55309 13.59C4.8625 13.7394 6.17191 13.7957 7.50037 13.7957C8.82801 13.7957 10.1374 13.7017 11.4477 13.59C12.3512 13.5153 13.2366 13.0856 13.8636 12.4125C14.3431 11.851 14.5833 11.1603 14.5833 10.431C14.5833 9.70249 14.4359 9.02939 13.9746 8.50567" fill="#B4B4B5"/>
<path opacity="0.4" d="M9.17384 14.8249C8.75725 14.7359 6.21876 14.7359 5.80217 14.8249C5.44603 14.9072 5.06091 15.0985 5.06091 15.5181C5.08162 15.9185 5.316 16.2718 5.64067 16.4959L5.63984 16.4967C6.05974 16.8241 6.55253 17.0322 7.06851 17.1069C7.34348 17.1447 7.62342 17.143 7.90833 17.1069C8.42348 17.0322 8.91627 16.8241 9.33617 16.4967L9.33535 16.4959C9.66001 16.2718 9.89439 15.9185 9.9151 15.5181C9.9151 15.0985 9.52998 14.9072 9.17384 14.8249" fill="#B4B4B5"/>
</svg>
