<svg width="111" height="50" viewBox="0 0 111 50" fill="none" xmlns="http://www.w3.org/2000/svg">
<rect x="0.374634" y="0.685059" width="110" height="49" rx="4" fill="white"/>
<g clip-path="url(#clip0_2379_38404)">
<path d="M23.6488 18.5631H11.7634C11.3643 18.5631 11.0243 18.9031 11.0243 19.3171V20.6623C11.0243 21.0762 11.3643 21.4162 11.7634 21.4162H23.6488C24.0628 21.4162 24.388 21.0762 24.4028 20.6623V19.3319C24.4028 18.9031 24.0628 18.5631 23.6488 18.5631ZM23.6488 26.0285H11.7634C11.5712 26.0285 11.3791 26.1024 11.246 26.2502C11.0982 26.3981 11.0243 26.5755 11.0243 26.7824V28.1277C11.0243 28.5416 11.3643 28.8816 11.7634 28.8816H23.6488C24.0628 28.8816 24.388 28.5564 24.4028 28.1277V26.7824C24.388 26.3537 24.0628 26.0285 23.6488 26.0285ZM18.46 29.7538H11.7634C11.5712 29.7538 11.3791 29.8277 11.246 29.9755C11.113 30.1234 11.0243 30.3007 11.0243 30.5077V31.853C11.0243 32.2669 11.3643 32.6069 11.7634 32.6069H18.4453C18.8592 32.6069 19.1844 32.2669 19.1844 31.8677V30.5225C19.1992 30.079 18.874 29.739 18.46 29.7538ZM24.4028 22.2884H11.7634C11.5712 22.2884 11.3791 22.3623 11.246 22.5102C11.113 22.658 11.0243 22.8354 11.0243 23.0424V24.3876C11.0243 24.8015 11.3643 25.1415 11.7634 25.1415H24.388C24.8019 25.1415 25.1271 24.8015 25.1271 24.3876V23.0424C25.1419 22.6284 24.8019 22.3032 24.4028 22.2884Z" fill="#00C3F7"/>
<path d="M38.2244 21.5788C37.8548 21.1944 37.4261 20.8988 36.9383 20.6918C36.4504 20.4848 35.933 20.3814 35.4009 20.3814C34.8835 20.3666 34.3808 20.4848 33.9078 20.7066C33.5973 20.8544 33.3165 21.0614 33.0799 21.3127V21.0761C33.0799 20.9579 33.0356 20.8396 32.9617 20.7509C32.8878 20.6622 32.7695 20.6031 32.6365 20.6031H30.9956C30.8773 20.6031 30.759 20.6474 30.6851 20.7509C30.5964 20.8396 30.5521 20.9579 30.5669 21.0761V32.1337C30.5669 32.252 30.6112 32.3703 30.6851 32.459C30.7738 32.5477 30.8773 32.592 30.9956 32.592H32.6808C32.7991 32.592 32.9026 32.5477 32.9912 32.459C33.0799 32.3851 33.1391 32.2668 33.1243 32.1337V28.3493C33.3608 28.6154 33.6713 28.8076 34.0113 28.9259C34.4548 29.0885 34.913 29.1772 35.3861 29.1772C35.9183 29.1772 36.4504 29.0737 36.9383 28.8667C37.4261 28.6598 37.8696 28.3641 38.2392 27.9798C38.6235 27.5806 38.9192 27.1076 39.1261 26.5902C39.3627 26.0136 39.4662 25.3928 39.4514 24.7719C39.4662 24.151 39.3479 23.5301 39.1261 22.9388C38.9044 22.451 38.6087 21.9779 38.2244 21.5788ZM36.7165 25.5849C36.6278 25.8215 36.4948 26.0284 36.3174 26.2206C35.9774 26.5902 35.4896 26.7971 34.9869 26.7971C34.7356 26.7971 34.4843 26.7528 34.2478 26.6345C34.0261 26.531 33.8191 26.398 33.6417 26.2206C33.4643 26.0432 33.3313 25.8215 33.2426 25.5849C33.0504 25.0823 33.0504 24.5353 33.2426 24.0327C33.3313 23.7962 33.4791 23.5892 33.6417 23.4118C33.8191 23.2345 34.0261 23.0866 34.2478 22.9831C34.4843 22.8797 34.7356 22.8205 34.9869 22.8205C35.253 22.8205 35.4896 22.8649 35.7409 22.9831C35.9626 23.0866 36.1696 23.2197 36.3322 23.3971C36.5096 23.5745 36.6278 23.7814 36.7313 24.0179C36.9087 24.5353 36.8939 25.0823 36.7165 25.5849ZM48.4837 20.6179H46.8132C46.695 20.6179 46.5767 20.6622 46.5028 20.7509C46.4141 20.8396 46.3698 20.9579 46.3698 21.0909V21.2979C46.1628 21.0466 45.8967 20.8544 45.6158 20.7214C45.1576 20.4996 44.6549 20.3961 44.1523 20.3961C43.0732 20.3961 42.0532 20.8248 41.2844 21.5788C40.8853 21.9779 40.5749 22.451 40.3679 22.9684C40.1314 23.5449 40.0131 24.1658 40.0279 24.8014C40.0131 25.4223 40.1314 26.0432 40.3679 26.6345C40.5897 27.1519 40.8853 27.625 41.2844 28.0241C42.0384 28.7928 43.0732 29.2215 44.1375 29.2215C44.6402 29.2363 45.1428 29.118 45.601 28.8963C45.8819 28.7485 46.1628 28.5563 46.3698 28.3198V28.5415C46.3698 28.6598 46.4141 28.778 46.5028 28.8667C46.5915 28.9406 46.695 28.9998 46.8132 28.9998H48.4837C48.602 28.9998 48.7202 28.9554 48.7941 28.8667C48.8828 28.778 48.9272 28.6598 48.9272 28.5415V21.1057C48.9272 20.9875 48.8828 20.8692 48.8089 20.7805C48.7202 20.677 48.602 20.6179 48.4837 20.6179ZM46.2219 25.5849C46.1332 25.8215 46.0002 26.0284 45.8228 26.2206C45.6454 26.398 45.4532 26.5458 45.2315 26.6493C44.7584 26.871 44.2115 26.871 43.7384 26.6493C43.5167 26.5458 43.3097 26.398 43.1323 26.2206C42.9549 26.0432 42.8219 25.8215 42.7332 25.5849C42.5558 25.0823 42.5558 24.5353 42.7332 24.0327C42.8219 23.7962 42.9549 23.604 43.1323 23.4118C43.3097 23.2345 43.5019 23.0866 43.7384 22.9831C44.2115 22.7614 44.7584 22.7614 45.2167 22.9831C45.4384 23.0866 45.6454 23.2197 45.808 23.3971C45.9706 23.5745 46.1037 23.7814 46.2071 24.0179C46.4141 24.5353 46.4141 25.0823 46.2219 25.5849ZM65.1292 24.5797C64.8927 24.3727 64.6118 24.1953 64.3162 24.0771C64.0057 23.944 63.6657 23.8553 63.3405 23.7814L62.0692 23.5301C61.744 23.471 61.5074 23.3823 61.3892 23.2788C61.2857 23.2049 61.2118 23.0866 61.2118 22.9536C61.2118 22.8205 61.2857 22.7023 61.4483 22.5988C61.67 22.4805 61.9066 22.4214 62.1579 22.4362C62.4831 22.4362 62.8083 22.5101 63.104 22.6284C63.3996 22.7614 63.6805 22.8944 63.9466 23.0718C64.3162 23.3084 64.6414 23.264 64.8631 22.9979L65.4692 22.3031C65.5875 22.1849 65.6466 22.037 65.6614 21.8744C65.6466 21.697 65.5579 21.5492 65.4249 21.4309C65.1736 21.2092 64.7597 20.9727 64.2127 20.7361C63.6657 20.4996 62.9709 20.3814 62.1579 20.3814C61.6553 20.3666 61.1674 20.4405 60.6944 20.5883C60.2952 20.7214 59.9109 20.9135 59.5709 21.1648C59.2604 21.4014 59.0239 21.697 58.8465 22.0518C58.6839 22.3918 58.5952 22.7614 58.5952 23.131C58.5952 23.8258 58.8022 24.3875 59.2161 24.8014C59.63 25.2154 60.177 25.4962 60.857 25.6293L62.1874 25.9249C62.4683 25.9693 62.764 26.058 63.0301 26.191C63.1779 26.2502 63.2666 26.398 63.2666 26.5606C63.2666 26.7084 63.1927 26.8415 63.0301 26.9597C62.8674 27.078 62.6014 27.1519 62.2466 27.1519C61.8918 27.1519 61.5222 27.078 61.197 26.9154C60.8865 26.7676 60.6057 26.5754 60.3396 26.3536C60.2213 26.2649 60.1031 26.191 59.9552 26.1319C59.8074 26.0875 59.6152 26.1319 59.423 26.2945L58.6987 26.8415C58.4917 26.9893 58.3882 27.2406 58.4474 27.4771C58.4917 27.7284 58.6839 27.965 59.0535 28.2458C59.97 28.8667 61.0639 29.192 62.1727 29.1624C62.6901 29.1624 63.2075 29.1033 63.6953 28.9554C64.124 28.8224 64.5231 28.6302 64.8779 28.3641C65.2031 28.1276 65.4692 27.8171 65.6466 27.4476C65.824 27.0928 65.9127 26.7084 65.9127 26.3093C65.9275 25.9545 65.8536 25.5997 65.7058 25.2745C65.5579 25.038 65.3658 24.7867 65.1292 24.5797ZM72.432 26.6049C72.3581 26.4719 72.225 26.3832 72.0624 26.3536C71.9146 26.3536 71.752 26.398 71.6337 26.4867C71.4267 26.6197 71.1902 26.6936 70.9537 26.7084C70.8798 26.7084 70.7911 26.6936 70.7172 26.6789C70.6285 26.6641 70.5545 26.6197 70.4954 26.5606C70.4215 26.4867 70.3624 26.398 70.318 26.3093C70.2589 26.1615 70.2293 26.0136 70.2441 25.8658V22.8353H72.4024C72.5355 22.8353 72.6537 22.7762 72.7424 22.6875C72.8311 22.5988 72.8902 22.4953 72.8902 22.3623V21.0761C72.8902 20.9431 72.8459 20.8248 72.7424 20.7509C72.6537 20.6622 72.5355 20.6179 72.4172 20.6179H70.2441V18.5483C70.2441 18.43 70.1998 18.297 70.1111 18.2231C70.0224 18.1491 69.9189 18.1048 69.8006 18.09H68.1154C67.9971 18.09 67.8788 18.1344 67.7901 18.2231C67.7014 18.3118 67.6423 18.43 67.6423 18.5483V20.6179H66.6814C66.5632 20.6179 66.4449 20.6622 66.3562 20.7657C66.2823 20.8544 66.2379 20.9727 66.2379 21.0909V22.377C66.2379 22.4953 66.2823 22.6136 66.3562 22.7023C66.4301 22.8057 66.5484 22.8501 66.6814 22.8501H67.6423V26.4571C67.6275 26.8858 67.7162 27.3145 67.8936 27.6989C68.0562 28.0241 68.2632 28.305 68.5441 28.5415C68.8102 28.7632 69.1206 28.9259 69.4606 29.0146C69.8006 29.118 70.1554 29.1772 70.5102 29.1772C70.9685 29.1772 71.4415 29.1033 71.885 28.9554C72.2989 28.8224 72.6685 28.5859 72.9642 28.2754C73.1563 28.0832 73.1711 27.7728 73.0233 27.5511L72.432 26.6049ZM81.5678 20.6179H79.8973C79.7791 20.6179 79.6756 20.6622 79.5869 20.7509C79.4982 20.8396 79.4538 20.9579 79.4538 21.0909V21.2979C79.2469 21.0466 78.9956 20.8544 78.6999 20.7214C78.2416 20.4996 77.739 20.3961 77.2364 20.3961C76.1573 20.3961 75.1372 20.8248 74.3685 21.5788C73.9694 21.9779 73.659 22.451 73.452 22.9684C73.2155 23.5449 73.0972 24.1658 73.112 24.7867C73.0972 25.4075 73.2155 26.0284 73.452 26.6197C73.659 27.1371 73.9842 27.6102 74.3685 28.0093C75.1225 28.778 76.1425 29.2067 77.2216 29.2067C77.7242 29.2215 78.2269 29.1033 78.6851 28.8963C78.9808 28.7485 79.2469 28.5563 79.4538 28.3198V28.5415C79.4538 28.6598 79.4982 28.778 79.5869 28.8519C79.6756 28.9406 79.7791 28.985 79.8973 28.985H81.5678C81.8191 28.985 82.0113 28.7928 82.0113 28.5415V21.1057C82.0113 20.9875 81.9669 20.8692 81.893 20.7805C81.8191 20.677 81.7008 20.6179 81.5678 20.6179ZM79.3208 25.5849C79.2321 25.8215 79.099 26.0284 78.9217 26.2206C78.7443 26.398 78.5521 26.5458 78.3303 26.6493C78.0938 26.7528 77.8425 26.8119 77.5764 26.8119C77.3103 26.8119 77.0738 26.7528 76.8373 26.6493C76.6155 26.5458 76.4086 26.398 76.2312 26.2206C76.0538 26.0432 75.9207 25.8215 75.8468 25.5849C75.6694 25.0823 75.6694 24.5353 75.8468 24.0327C75.9355 23.7962 76.0686 23.5892 76.2312 23.4118C76.4086 23.2345 76.6155 23.0866 76.8373 22.9831C77.0738 22.8797 77.3251 22.8205 77.5764 22.8205C77.8277 22.8205 78.079 22.8649 78.3303 22.9831C78.5521 23.0866 78.7443 23.2197 78.9217 23.3971C79.099 23.5745 79.2321 23.7814 79.3208 24.0179C79.513 24.5206 79.513 25.0823 79.3208 25.5849ZM90.7332 26.4867L89.7723 25.7475C89.5949 25.5997 89.4175 25.5554 89.2697 25.6145C89.1366 25.6736 89.0184 25.7623 88.9149 25.8658C88.7079 26.1171 88.4566 26.3389 88.1905 26.531C87.8949 26.6936 87.5844 26.7823 87.2592 26.7528C86.8748 26.7528 86.5201 26.6493 86.2096 26.4276C85.8992 26.2058 85.6626 25.9102 85.5444 25.5406C85.4557 25.2893 85.4113 25.038 85.4113 24.7867C85.4113 24.5206 85.4557 24.2693 85.5444 24.0032C85.6331 23.7666 85.7513 23.5597 85.9287 23.3823C86.1061 23.2049 86.2983 23.0571 86.5201 22.9684C86.7566 22.8649 87.0079 22.8057 87.274 22.8057C87.5992 22.791 87.9244 22.8797 88.2053 23.0423C88.4862 23.2197 88.7227 23.4414 88.9297 23.7075C89.0184 23.811 89.1366 23.8997 89.2697 23.9588C89.4175 24.0179 89.5949 23.9736 89.7723 23.8258L90.7332 23.1014C90.8514 23.0275 90.9401 22.9092 90.9845 22.7762C91.0436 22.6284 91.0288 22.4657 90.9401 22.3327C90.5706 21.7562 90.0679 21.2831 89.4618 20.9431C88.8262 20.5883 88.0723 20.3961 87.2296 20.3961C86.6383 20.3961 86.047 20.5144 85.4853 20.7361C84.9531 20.9579 84.48 21.2683 84.0809 21.6675C83.6817 22.0666 83.3565 22.5397 83.1348 23.0718C82.6765 24.1806 82.6765 25.4223 83.1348 26.531C83.3565 27.0484 83.667 27.5363 84.0809 27.9206C84.9235 28.7485 86.047 29.192 87.2296 29.192C88.0723 29.192 88.8262 28.9998 89.4618 28.645C90.0679 28.305 90.5853 27.8319 90.9549 27.2406C91.0288 27.1076 91.0436 26.945 90.9993 26.8119C90.9401 26.6936 90.8514 26.5754 90.7332 26.4867ZM99.6325 28.2163L96.9863 24.3432L99.2481 21.357C99.3516 21.224 99.3959 21.0318 99.3368 20.8692C99.2925 20.7509 99.189 20.6327 98.9081 20.6327H97.1194C97.0159 20.6327 96.9124 20.6622 96.8237 20.7066C96.7055 20.7657 96.6168 20.8544 96.5576 20.9579L94.7541 23.4858H94.3254V17.5135C94.3254 17.3952 94.2811 17.2769 94.1924 17.1883C94.1037 17.0996 94.0002 17.0552 93.8819 17.0552H92.2115C92.0932 17.0552 91.9749 17.0996 91.8862 17.1883C91.7975 17.2769 91.7532 17.3804 91.7532 17.5135V28.5267C91.7532 28.6598 91.7975 28.7632 91.8862 28.8519C91.9749 28.9406 92.0932 28.985 92.2115 28.985H93.8819C94.0002 28.985 94.1185 28.9406 94.1924 28.8519C94.2811 28.7632 94.3254 28.645 94.3254 28.5267V25.6145H94.7985L96.7646 28.6302C96.8829 28.8519 97.1046 28.985 97.3411 28.985H99.2185C99.4994 28.985 99.6177 28.8519 99.6768 28.7337C99.7507 28.5563 99.7359 28.3641 99.6325 28.2163ZM57.9743 20.6179H56.0969C55.9491 20.6179 55.816 20.6622 55.7125 20.7657C55.6238 20.8544 55.5647 20.9579 55.5351 21.0761L54.1455 26.2206H53.8055L52.3273 21.0761C52.2977 20.9727 52.2533 20.8692 52.1794 20.7657C52.0907 20.6622 51.9725 20.6031 51.8394 20.6031H49.9324C49.6811 20.6031 49.5333 20.677 49.4594 20.8544C49.415 21.0022 49.415 21.1648 49.4594 21.3127L51.8246 28.5563C51.869 28.6598 51.9133 28.778 52.002 28.8519C52.0907 28.9406 52.2238 28.985 52.3568 28.985H53.3621L53.2734 29.2215L53.0516 29.8867C52.9777 30.0937 52.8594 30.2711 52.682 30.4041C52.5194 30.5224 52.3273 30.5963 52.1203 30.5815C51.9429 30.5815 51.7803 30.5372 51.6177 30.4781C51.4551 30.4041 51.3072 30.3154 51.1742 30.212C51.0559 30.1233 50.9081 30.0789 50.7455 30.0789H50.7307C50.5533 30.0937 50.3907 30.1824 50.302 30.345L49.7107 31.2172C49.4742 31.6016 49.6072 31.8381 49.755 31.9711C50.0803 32.2668 50.4498 32.4885 50.8638 32.6216C51.322 32.7842 51.7951 32.8581 52.2681 32.8581C53.1255 32.8581 53.8351 32.6216 54.3821 32.1633C54.9438 31.6607 55.3725 31.0102 55.5795 30.2711L58.3291 21.3127C58.3882 21.1501 58.403 20.9875 58.3439 20.8396C58.3291 20.7361 58.2256 20.6179 57.9743 20.6179Z" fill="#011B33"/>
</g>
<defs>
<clipPath id="clip0_2379_38404">
<rect width="100.527" height="-15.8029" fill="white" transform="matrix(-1 0 0 -1 105.651 17.0552)"/>
</clipPath>
</defs>
</svg>
