<svg width="31" height="47" viewBox="0 0 31 47" fill="none" xmlns="http://www.w3.org/2000/svg">
<path d="M15.1408 27L15.1408 26.5H15.1408L15.1408 27ZM5 21.5577L4.50006 21.5502L4.49772 21.705L4.58334 21.8341L5 21.5577ZM25.2817 21.5577L25.6984 21.8341L25.784 21.705L25.7816 21.5502L25.2817 21.5577ZM15.1408 3.5C17.6703 3.5 19.7113 5.54093 19.7113 8.07042H20.7113C20.7113 4.98865 18.2226 2.5 15.1408 2.5V3.5ZM19.7113 8.07042C19.7113 10.5999 17.6703 12.6408 15.1408 12.6408V13.6408C18.2226 13.6408 20.7113 11.1522 20.7113 8.07042H19.7113ZM15.1408 12.6408C12.6113 12.6408 10.5704 10.5999 10.5704 8.07042H9.57041C9.57041 11.1522 12.0591 13.6408 15.1408 13.6408V12.6408ZM10.5704 8.07042C10.5704 5.54093 12.6113 3.5 15.1408 3.5V2.5C12.0591 2.5 9.57041 4.98865 9.57041 8.07042H10.5704ZM15.1408 26.5C11.2297 26.5 7.57865 24.5406 5.41666 21.2813L4.58334 21.8341C6.9306 25.3727 10.8945 27.5 15.1408 27.5L15.1408 26.5ZM5.49994 21.5653C5.50991 20.904 5.84489 20.2784 6.47245 19.6902C7.10211 19.1002 7.99222 18.5826 9.01476 18.1549C11.0619 17.2987 13.519 16.8521 15.1408 16.8521V15.8521C13.3824 15.8521 10.7945 16.3266 8.6289 17.2324C7.5451 17.6857 6.53697 18.2593 5.78865 18.9606C5.0382 19.6638 4.51544 20.5297 4.50006 21.5502L5.49994 21.5653ZM15.1408 16.8521C16.7541 16.8521 19.2113 17.2986 21.2608 18.155C22.2845 18.5827 23.1762 19.1004 23.8072 19.6906C24.4362 20.2789 24.7718 20.9045 24.7817 21.5653L25.7816 21.5502C25.7662 20.5293 25.242 19.6633 24.4903 18.9603C23.7407 18.2591 22.731 17.6855 21.6463 17.2323C19.4789 16.3267 16.891 15.8521 15.1408 15.8521V16.8521ZM24.865 21.2813C22.703 24.5406 19.052 26.5 15.1408 26.5L15.1408 27.5C19.3872 27.5 23.3511 25.3727 25.6984 21.8341L24.865 21.2813Z" fill="#9B9B9B"/>
<path d="M5.43 38.07C5.43 38.65 5.23 39.1333 4.83 39.52C4.43667 39.9 3.83333 40.09 3.02 40.09H1.68V43H0.77V36.03H3.02C3.80667 36.03 4.40333 36.22 4.81 36.6C5.22333 36.98 5.43 37.47 5.43 38.07ZM3.02 39.34C3.52667 39.34 3.9 39.23 4.14 39.01C4.38 38.79 4.5 38.4767 4.5 38.07C4.5 37.21 4.00667 36.78 3.02 36.78H1.68V39.34H3.02ZM7.47102 38.41C7.63102 38.0967 7.85768 37.8533 8.15102 37.68C8.45102 37.5067 8.81435 37.42 9.24102 37.42V38.36H9.00102C7.98102 38.36 7.47102 38.9133 7.47102 40.02V43H6.56102V37.52H7.47102V38.41ZM12.6815 43.09C12.1682 43.09 11.7015 42.9733 11.2815 42.74C10.8682 42.5067 10.5415 42.1767 10.3015 41.75C10.0682 41.3167 9.95148 40.8167 9.95148 40.25C9.95148 39.69 10.0715 39.1967 10.3115 38.77C10.5582 38.3367 10.8915 38.0067 11.3115 37.78C11.7315 37.5467 12.2015 37.43 12.7215 37.43C13.2415 37.43 13.7115 37.5467 14.1315 37.78C14.5515 38.0067 14.8815 38.3333 15.1215 38.76C15.3682 39.1867 15.4915 39.6833 15.4915 40.25C15.4915 40.8167 15.3648 41.3167 15.1115 41.75C14.8648 42.1767 14.5282 42.5067 14.1015 42.74C13.6748 42.9733 13.2015 43.09 12.6815 43.09ZM12.6815 42.29C13.0082 42.29 13.3148 42.2133 13.6015 42.06C13.8882 41.9067 14.1182 41.6767 14.2915 41.37C14.4715 41.0633 14.5615 40.69 14.5615 40.25C14.5615 39.81 14.4748 39.4367 14.3015 39.13C14.1282 38.8233 13.9015 38.5967 13.6215 38.45C13.3415 38.2967 13.0382 38.22 12.7115 38.22C12.3782 38.22 12.0715 38.2967 11.7915 38.45C11.5182 38.5967 11.2982 38.8233 11.1315 39.13C10.9648 39.4367 10.8815 39.81 10.8815 40.25C10.8815 40.6967 10.9615 41.0733 11.1215 41.38C11.2882 41.6867 11.5082 41.9167 11.7815 42.07C12.0548 42.2167 12.3548 42.29 12.6815 42.29ZM18.918 38.27H17.768V43H16.858V38.27H16.148V37.52H16.858V37.13C16.858 36.5167 17.0146 36.07 17.328 35.79C17.648 35.5033 18.158 35.36 18.858 35.36V36.12C18.458 36.12 18.1746 36.2 18.008 36.36C17.848 36.5133 17.768 36.77 17.768 37.13V37.52H18.918V38.27ZM20.449 36.63C20.2757 36.63 20.129 36.57 20.009 36.45C19.889 36.33 19.829 36.1833 19.829 36.01C19.829 35.8367 19.889 35.69 20.009 35.57C20.129 35.45 20.2757 35.39 20.449 35.39C20.6157 35.39 20.7557 35.45 20.869 35.57C20.989 35.69 21.049 35.8367 21.049 36.01C21.049 36.1833 20.989 36.33 20.869 36.45C20.7557 36.57 20.6157 36.63 20.449 36.63ZM20.889 37.52V43H19.979V37.52H20.889ZM23.3499 35.6V43H22.4399V35.6H23.3499ZM29.9009 40.05C29.9009 40.2233 29.8909 40.4067 29.8709 40.6H25.4909C25.5242 41.14 25.7075 41.5633 26.0409 41.87C26.3809 42.17 26.7909 42.32 27.2709 42.32C27.6642 42.32 27.9909 42.23 28.2509 42.05C28.5175 41.8633 28.7042 41.6167 28.8109 41.31H29.7909C29.6442 41.8367 29.3509 42.2667 28.9109 42.6C28.4709 42.9267 27.9242 43.09 27.2709 43.09C26.7509 43.09 26.2842 42.9733 25.8709 42.74C25.4642 42.5067 25.1442 42.1767 24.9109 41.75C24.6775 41.3167 24.5609 40.8167 24.5609 40.25C24.5609 39.6833 24.6742 39.1867 24.9009 38.76C25.1275 38.3333 25.4442 38.0067 25.8509 37.78C26.2642 37.5467 26.7375 37.43 27.2709 37.43C27.7909 37.43 28.2509 37.5433 28.6509 37.77C29.0509 37.9967 29.3575 38.31 29.5709 38.71C29.7909 39.1033 29.9009 39.55 29.9009 40.05ZM28.9609 39.86C28.9609 39.5133 28.8842 39.2167 28.7309 38.97C28.5775 38.7167 28.3675 38.5267 28.1009 38.4C27.8409 38.2667 27.5509 38.2 27.2309 38.2C26.7709 38.2 26.3775 38.3467 26.0509 38.64C25.7309 38.9333 25.5475 39.34 25.5009 39.86H28.9609Z" fill="#9B9B9B"/>
</svg>
