<svg width="18" height="18" viewBox="0 0 18 18" fill="none" xmlns="http://www.w3.org/2000/svg">
<path d="M12.1048 2.21997L5.33234 4.46997C0.779844 5.99247 0.779844 8.47497 5.33234 9.98997L7.34234 10.6575L8.00984 12.6675C9.52484 17.22 12.0148 17.22 13.5298 12.6675L15.7873 5.90247C16.7923 2.86497 15.1423 1.20747 12.1048 2.21997ZM12.3448 6.25497L9.49484 9.11997C9.38234 9.23247 9.23984 9.28497 9.09734 9.28497C8.95484 9.28497 8.81234 9.23247 8.69984 9.11997C8.48234 8.90247 8.48234 8.54247 8.69984 8.32497L11.5498 5.45997C11.7673 5.24247 12.1273 5.24247 12.3448 5.45997C12.5623 5.67747 12.5623 6.03747 12.3448 6.25497Z" fill="#676767"/>
</svg>
