<svg width="30" height="47" viewBox="0 0 30 47" fill="none" xmlns="http://www.w3.org/2000/svg">
<path d="M4.98 43.07C4.52 43.07 4.10667 42.99 3.74 42.83C3.38 42.6633 3.09667 42.4367 2.89 42.15C2.68333 41.8567 2.57667 41.52 2.57 41.14H3.54C3.57333 41.4667 3.70667 41.7433 3.94 41.97C4.18 42.19 4.52667 42.3 4.98 42.3C5.41333 42.3 5.75333 42.1933 6 41.98C6.25333 41.76 6.38 41.48 6.38 41.14C6.38 40.8733 6.30667 40.6567 6.16 40.49C6.01333 40.3233 5.83 40.1967 5.61 40.11C5.39 40.0233 5.09333 39.93 4.72 39.83C4.26 39.71 3.89 39.59 3.61 39.47C3.33667 39.35 3.1 39.1633 2.9 38.91C2.70667 38.65 2.61 38.3033 2.61 37.87C2.61 37.49 2.70667 37.1533 2.9 36.86C3.09333 36.5667 3.36333 36.34 3.71 36.18C4.06333 36.02 4.46667 35.94 4.92 35.94C5.57333 35.94 6.10667 36.1033 6.52 36.43C6.94 36.7567 7.17667 37.19 7.23 37.73H6.23C6.19667 37.4633 6.05667 37.23 5.81 37.03C5.56333 36.8233 5.23667 36.72 4.83 36.72C4.45 36.72 4.14 36.82 3.9 37.02C3.66 37.2133 3.54 37.4867 3.54 37.84C3.54 38.0933 3.61 38.3 3.75 38.46C3.89667 38.62 4.07333 38.7433 4.28 38.83C4.49333 38.91 4.79 39.0033 5.17 39.11C5.63 39.2367 6 39.3633 6.28 39.49C6.56 39.61 6.8 39.8 7 40.06C7.2 40.3133 7.3 40.66 7.3 41.1C7.3 41.44 7.21 41.76 7.03 42.06C6.85 42.36 6.58333 42.6033 6.23 42.79C5.87667 42.9767 5.46 43.07 4.98 43.07ZM11.3591 37.42C11.7725 37.42 12.1458 37.51 12.4791 37.69C12.8125 37.8633 13.0725 38.1267 13.2591 38.48C13.4525 38.8333 13.5491 39.2633 13.5491 39.77V43H12.6491V39.9C12.6491 39.3533 12.5125 38.9367 12.2391 38.65C11.9658 38.3567 11.5925 38.21 11.1191 38.21C10.6391 38.21 10.2558 38.36 9.96914 38.66C9.68914 38.96 9.54914 39.3967 9.54914 39.97V43H8.63914V35.6H9.54914V38.3C9.72914 38.02 9.97581 37.8033 10.2891 37.65C10.6091 37.4967 10.9658 37.42 11.3591 37.42ZM17.4256 43.09C16.9123 43.09 16.4456 42.9733 16.0256 42.74C15.6123 42.5067 15.2856 42.1767 15.0456 41.75C14.8123 41.3167 14.6956 40.8167 14.6956 40.25C14.6956 39.69 14.8156 39.1967 15.0556 38.77C15.3023 38.3367 15.6356 38.0067 16.0556 37.78C16.4756 37.5467 16.9456 37.43 17.4656 37.43C17.9856 37.43 18.4556 37.5467 18.8756 37.78C19.2956 38.0067 19.6256 38.3333 19.8656 38.76C20.1123 39.1867 20.2356 39.6833 20.2356 40.25C20.2356 40.8167 20.109 41.3167 19.8556 41.75C19.609 42.1767 19.2723 42.5067 18.8456 42.74C18.419 42.9733 17.9456 43.09 17.4256 43.09ZM17.4256 42.29C17.7523 42.29 18.059 42.2133 18.3456 42.06C18.6323 41.9067 18.8623 41.6767 19.0356 41.37C19.2156 41.0633 19.3056 40.69 19.3056 40.25C19.3056 39.81 19.219 39.4367 19.0456 39.13C18.8723 38.8233 18.6456 38.5967 18.3656 38.45C18.0856 38.2967 17.7823 38.22 17.4556 38.22C17.1223 38.22 16.8156 38.2967 16.5356 38.45C16.2623 38.5967 16.0423 38.8233 15.8756 39.13C15.709 39.4367 15.6256 39.81 15.6256 40.25C15.6256 40.6967 15.7056 41.0733 15.8656 41.38C16.0323 41.6867 16.2523 41.9167 16.5256 42.07C16.799 42.2167 17.099 42.29 17.4256 42.29ZM22.3421 38.53C22.5221 38.2167 22.7888 37.9567 23.1421 37.75C23.5021 37.5367 23.9188 37.43 24.3921 37.43C24.8788 37.43 25.3188 37.5467 25.7121 37.78C26.1121 38.0133 26.4254 38.3433 26.6521 38.77C26.8788 39.19 26.9921 39.68 26.9921 40.24C26.9921 40.7933 26.8788 41.2867 26.6521 41.72C26.4254 42.1533 26.1121 42.49 25.7121 42.73C25.3188 42.97 24.8788 43.09 24.3921 43.09C23.9254 43.09 23.5121 42.9867 23.1521 42.78C22.7988 42.5667 22.5288 42.3033 22.3421 41.99V45.6H21.4321V37.52H22.3421V38.53ZM26.0621 40.24C26.0621 39.8267 25.9788 39.4667 25.8121 39.16C25.6454 38.8533 25.4188 38.62 25.1321 38.46C24.8521 38.3 24.5421 38.22 24.2021 38.22C23.8688 38.22 23.5588 38.3033 23.2721 38.47C22.9921 38.63 22.7654 38.8667 22.5921 39.18C22.4254 39.4867 22.3421 39.8433 22.3421 40.25C22.3421 40.6633 22.4254 41.0267 22.5921 41.34C22.7654 41.6467 22.9921 41.8833 23.2721 42.05C23.5588 42.21 23.8688 42.29 24.2021 42.29C24.5421 42.29 24.8521 42.21 25.1321 42.05C25.4188 41.8833 25.6454 41.6467 25.8121 41.34C25.9788 41.0267 26.0621 40.66 26.0621 40.24Z" fill="#9B9B9B"/>
<path d="M3 5.4H2.5V5.9H3V5.4ZM5.4 5.4L5.85176 5.18573L5.71624 4.9H5.4V5.4ZM9.72 14.508L10.1579 14.7493L10.2815 14.5251L10.1718 14.2937L9.72 14.508ZM8.1 17.448L8.53417 17.6961L8.53792 17.6893L8.1 17.448ZM24.6 21V21.5H25.1V21H24.6ZM24.6 18.6H25.1V18.1H24.6V18.6ZM10.404 18.3L9.91893 18.1787L9.904 18.2384V18.3H10.404ZM10.44 18.156L10.0023 17.9143L9.97075 17.9714L9.95493 18.0347L10.44 18.156ZM11.52 16.2V15.7H11.2249L11.0823 15.9583L11.52 16.2ZM22.56 14.964L22.1222 14.7225L22.1216 14.7236L22.56 14.964ZM26.856 7.176L27.2938 7.41751L27.2958 7.41379L26.856 7.176ZM25.8 5.4L25.8012 4.9H25.8V5.4ZM8.052 5.4L7.59949 5.61268L7.73453 5.9H8.052V5.4ZM6.924 3L7.37651 2.78732L7.24147 2.5H6.924V3ZM10.2 21.7C8.60061 21.7 7.31201 23.0071 7.31201 24.6H8.31201C8.31201 23.5529 9.15941 22.7 10.2 22.7V21.7ZM7.31201 24.6C7.31201 26.1929 8.60061 27.5 10.2 27.5V26.5C9.15941 26.5 8.31201 25.6471 8.31201 24.6H7.31201ZM10.2 27.5C11.7962 27.5 13.1 26.1961 13.1 24.6H12.1C12.1 25.6439 11.2439 26.5 10.2 26.5V27.5ZM13.1 24.6C13.1 23.0039 11.7962 21.7 10.2 21.7V22.7C11.2439 22.7 12.1 23.5561 12.1 24.6H13.1ZM2.5 3V5.4H3.5V3H2.5ZM3 5.9H5.4V4.9H3V5.9ZM4.94824 5.61427L9.26824 14.7223L10.1718 14.2937L5.85176 5.18573L4.94824 5.61427ZM9.28208 14.2667L7.66208 17.2067L8.53792 17.6893L10.1579 14.7493L9.28208 14.2667ZM7.66588 17.1999C7.43007 17.6126 7.3 18.0943 7.3 18.6H8.3C8.3 18.2657 8.38593 17.9554 8.53412 17.6961L7.66588 17.1999ZM7.3 18.6C7.3 20.1961 8.60386 21.5 10.2 21.5V20.5C9.15614 20.5 8.3 19.6439 8.3 18.6H7.3ZM10.2 21.5H24.6V20.5H10.2V21.5ZM25.1 21V18.6H24.1V21H25.1ZM24.6 18.1H10.704V19.1H24.6V18.1ZM10.704 18.1C10.8121 18.1 10.904 18.1919 10.904 18.3H9.904C9.904 18.7441 10.2599 19.1 10.704 19.1V18.1ZM10.8891 18.4213L10.9251 18.2773L9.95493 18.0347L9.91893 18.1787L10.8891 18.4213ZM10.8777 18.3977L11.9577 16.4417L11.0823 15.9583L10.0023 17.9143L10.8777 18.3977ZM11.52 16.7H20.46V15.7H11.52V16.7ZM20.46 16.7C21.5457 16.7 22.5041 16.1058 22.9984 15.2044L22.1216 14.7236C21.7999 15.3102 21.1744 15.7 20.46 15.7V16.7ZM22.9978 15.2055L27.2938 7.4175L26.4182 6.9345L22.1222 14.7225L22.9978 15.2055ZM27.2958 7.41379C27.5809 6.88649 27.5679 6.24816 27.2615 5.73293L26.402 6.244C26.5285 6.4568 26.5339 6.72043 26.4162 6.93821L27.2958 7.41379ZM27.2615 5.73293C26.9552 5.2177 26.4006 4.90138 25.8012 4.9L25.7988 5.9C26.0464 5.90057 26.2755 6.03121 26.402 6.244L27.2615 5.73293ZM25.8 4.9H8.052V5.9H25.8V4.9ZM8.50451 5.18732L7.37651 2.78732L6.47149 3.21268L7.59949 5.61268L8.50451 5.18732ZM6.924 2.5H3V3.5H6.924V2.5ZM22.2 21.7C20.6006 21.7 19.312 23.0071 19.312 24.6H20.312C20.312 23.5529 21.1594 22.7 22.2 22.7V21.7ZM19.312 24.6C19.312 26.1929 20.6006 27.5 22.2 27.5V26.5C21.1594 26.5 20.312 25.6471 20.312 24.6H19.312ZM22.2 27.5C23.7962 27.5 25.1 26.1961 25.1 24.6H24.1C24.1 25.6439 23.2439 26.5 22.2 26.5V27.5ZM25.1 24.6C25.1 23.0039 23.7962 21.7 22.2 21.7V22.7C23.2439 22.7 24.1 23.5561 24.1 24.6H25.1Z" fill="#9B9B9B"/>
</svg>
