<svg width="25" height="25" viewBox="0 0 25 25" fill="none" xmlns="http://www.w3.org/2000/svg">
<rect x="1.09918" y="0.75" width="23.5" height="23.5" rx="11.75" fill="white"/>
<rect x="1.09918" y="0.75" width="23.5" height="23.5" rx="11.75" stroke="#CC9933" stroke-width="0.5"/>
<path fill-rule="evenodd" clip-rule="evenodd" d="M17.3058 14.6574L16.9214 11.56C16.6872 10.4548 16.0243 10 15.3924 10H10.315C9.67429 10 8.98935 10.423 8.7905 11.56L8.40163 14.6574C8.08347 16.9315 9.25449 17.5 10.7834 17.5H14.9284C16.453 17.5 17.5886 16.6768 17.3058 14.6574ZM11.3977 12.5743C11.1536 12.5743 10.9558 12.3707 10.9558 12.1195C10.9558 11.8683 11.1536 11.6646 11.3977 11.6646C11.6417 11.6646 11.8396 11.8683 11.8396 12.1195C11.8396 12.3707 11.6417 12.5743 11.3977 12.5743ZM13.8502 12.1195C13.8502 12.3707 14.048 12.5743 14.2921 12.5743C14.5361 12.5743 14.734 12.3707 14.734 12.1195C14.734 11.8683 14.5361 11.6646 14.2921 11.6646C14.048 11.6646 13.8502 11.8683 13.8502 12.1195Z" fill="#CC9933"/>
<path opacity="0.4" d="M15.3361 9.88716C15.3377 9.92594 15.3302 9.96456 15.3143 10H14.5958C14.5819 9.96397 14.5745 9.92576 14.574 9.88716C14.574 8.92841 13.7941 8.15119 12.8321 8.15119C11.87 8.15119 11.0901 8.92841 11.0901 9.88716C11.0967 9.92449 11.0967 9.96267 11.0901 10H10.3541C10.3475 9.96267 10.3475 9.92449 10.3541 9.88716C10.41 8.55295 11.5117 7.5 12.8517 7.5C14.1916 7.5 15.2933 8.55295 15.3492 9.88716H15.3361Z" fill="#CC9933"/>
<rect x="15.6567" y="0.5" width="9.19256" height="9.18883" rx="4.59442" fill="#EB5757"/>
<g clip-path="url(#clip0_2680_2570)">
<path opacity="0.4" d="M19.9364 4.0873L19.8486 3.10402C19.8391 3.04622 19.8424 2.98705 19.858 2.93061C19.8737 2.87418 19.9015 2.82183 19.9395 2.77719C19.9775 2.73255 20.0246 2.69669 20.0778 2.6721C20.1311 2.6475 20.189 2.63477 20.2476 2.63477C20.3063 2.63477 20.3643 2.6475 20.4175 2.6721C20.4707 2.69669 20.5179 2.73255 20.5558 2.77719C20.5938 2.82183 20.6216 2.87418 20.6373 2.93061C20.653 2.98705 20.6562 3.04622 20.6467 3.10402L20.559 4.0873C20.559 4.17117 20.5256 4.25161 20.4662 4.31092C20.4068 4.37022 20.3263 4.40354 20.2424 4.40354C20.1584 4.40354 20.0779 4.37022 20.0185 4.31092C19.9591 4.25161 19.9257 4.17117 19.9257 4.0873" fill="white"/>
<path d="M19.9524 7.39596L19.8167 7.2684C19.3793 6.80782 19.0198 6.27914 18.7525 5.70313C18.7083 5.60133 18.6778 5.49408 18.662 5.38422C18.6621 5.30012 18.6822 5.21724 18.7206 5.14239C18.7743 5.0461 18.8585 4.97037 18.9601 4.92713C19.0536 4.89879 19.1486 4.87573 19.2447 4.85804C19.5795 4.81026 19.9175 4.78893 20.2557 4.79426C20.5838 4.79149 20.9118 4.81014 21.2374 4.85007C21.3576 4.87168 21.4759 4.90277 21.5912 4.94308C21.67 4.98313 21.7365 5.04388 21.7834 5.11879C21.8302 5.1937 21.8558 5.27995 21.8573 5.36828V5.38422C21.8384 5.50758 21.8017 5.62754 21.7482 5.74033C21.4788 6.30476 21.1194 6.82173 20.684 7.27106C20.6376 7.31798 20.5878 7.3615 20.535 7.40127C20.4535 7.46185 20.3546 7.49448 20.253 7.49429C20.1438 7.49564 20.0373 7.46109 19.9497 7.39596" fill="white"/>
</g>
<defs>
<clipPath id="clip0_2680_2570">
<rect width="3.19256" height="4.78883" fill="white" transform="translate(18.6567 2.69995)"/>
</clipPath>
</defs>
</svg>
