<svg width="14" height="15" viewBox="0 0 14 15" fill="none" xmlns="http://www.w3.org/2000/svg">
<path d="M10.452 8.80267C10.3009 8.94909 10.2315 9.16084 10.2659 9.3685L10.7845 12.2385C10.8283 12.4818 10.7256 12.7279 10.522 12.8685C10.3225 13.0143 10.0571 13.0318 9.83953 12.9152L7.25594 11.5677C7.16611 11.5198 7.06636 11.4942 6.96428 11.4913H6.80619C6.75136 11.4994 6.69769 11.5169 6.64869 11.5438L4.06453 12.8977C3.93678 12.9618 3.79211 12.9846 3.65036 12.9618C3.30503 12.8965 3.07461 12.5675 3.13119 12.2204L3.65036 9.35042C3.68478 9.141 3.61536 8.92809 3.46428 8.77934L1.35786 6.73767C1.18169 6.56675 1.12044 6.31009 1.20094 6.0785C1.27911 5.8475 1.47861 5.67892 1.71953 5.641L4.61869 5.22042C4.83919 5.19767 5.03286 5.0635 5.13203 4.86517L6.40953 2.246C6.43986 2.18767 6.47894 2.134 6.52619 2.0885L6.57869 2.04767C6.60611 2.01734 6.63761 1.99225 6.67261 1.97184L6.73619 1.9485L6.83536 1.90767H7.08094C7.30028 1.93042 7.49336 2.06167 7.59428 2.25767L8.88869 4.86517C8.98203 5.05592 9.16344 5.18834 9.37286 5.22042L12.272 5.641C12.517 5.676 12.7218 5.84517 12.8029 6.0785C12.8793 6.31242 12.8134 6.56909 12.6337 6.73767L10.452 8.80267Z" fill="#676767"/>
</svg>
