<svg width="14" height="15" viewBox="0 0 14 15" fill="none" xmlns="http://www.w3.org/2000/svg">
<path fill-rule="evenodd" clip-rule="evenodd" d="M11.5272 7.44986C11.5272 7.9244 11.9169 8.3105 12.3958 8.3105C12.6373 8.3105 12.8333 8.50471 12.8333 8.74401V10.3046C12.8333 11.6248 11.7495 12.6993 10.4165 12.6993H3.58338C2.25046 12.6993 1.16663 11.6248 1.16663 10.3046V8.74401C1.16663 8.50471 1.36263 8.3105 1.60413 8.3105C2.08304 8.3105 2.47271 7.9244 2.47271 7.44986C2.47271 6.98746 2.09938 6.63892 1.60413 6.63892C1.48804 6.63892 1.37663 6.59326 1.29496 6.51234C1.21271 6.43084 1.16663 6.32044 1.16663 6.20542L1.16721 4.59337C1.16721 3.27321 2.25163 2.19928 3.58396 2.19928H10.416C11.7483 2.19928 12.8327 3.27321 12.8327 4.59337L12.8333 6.15513C12.8333 6.27015 12.7872 6.38055 12.705 6.46205C12.6233 6.54297 12.5119 6.58863 12.3958 6.58863C11.9169 6.58863 11.5272 6.97474 11.5272 7.44986ZM8.31331 7.87898L9.00106 7.20931C9.12064 7.09381 9.16206 6.92406 9.11014 6.76598C9.05881 6.60848 8.92464 6.49648 8.76248 6.47373L7.81223 6.33489L7.38698 5.47389C7.31406 5.32573 7.16589 5.23356 7.00081 5.23298H6.99964C6.83514 5.23298 6.68698 5.32514 6.61289 5.47331L6.18764 6.33489L5.23914 6.47314C5.07523 6.49648 4.94106 6.60848 4.88914 6.76598C4.83781 6.92406 4.87923 7.09381 4.99823 7.20931L5.68598 7.87898L5.52381 8.82573C5.49581 8.98964 5.56173 9.15123 5.69589 9.24864C5.77173 9.30348 5.85981 9.33148 5.94906 9.33148C6.01731 9.33148 6.08614 9.31398 6.14914 9.28073L6.99964 8.83389L7.84839 9.28014C7.99539 9.35831 8.16981 9.34606 8.30339 9.24806C8.43814 9.15123 8.50406 8.98964 8.47606 8.82573L8.31331 7.87898Z" fill="#CC9933"/>
<path opacity="0.4" d="M9.00111 7.2093L8.31336 7.87897L8.47611 8.82572C8.50411 8.98964 8.43819 9.15122 8.30345 9.24805C8.16986 9.34605 7.99545 9.3583 7.84844 9.28014L6.99969 8.83389L6.14919 9.28072C6.08619 9.31397 6.01736 9.33147 5.94911 9.33147C5.85986 9.33147 5.77178 9.30347 5.69594 9.24864C5.56178 9.15122 5.49586 8.98964 5.52386 8.82572L5.68603 7.87897L4.99828 7.2093C4.87928 7.0938 4.83786 6.92405 4.88919 6.76597C4.94111 6.60847 5.07528 6.49647 5.23919 6.47314L6.18769 6.33489L6.61294 5.4733C6.68703 5.32514 6.83519 5.23297 6.99969 5.23297H7.00086C7.16594 5.23355 7.31411 5.32572 7.38703 5.47389L7.81228 6.33489L8.76253 6.47372C8.9247 6.49647 9.05886 6.60847 9.1102 6.76597C9.16211 6.92405 9.1207 7.0938 9.00111 7.2093Z" fill="#CC9933"/>
</svg>
