<svg width="25" height="25" viewBox="0 0 25 25" fill="none" xmlns="http://www.w3.org/2000/svg">
<rect x="1.09918" y="0.75" width="23.5" height="23.5" rx="11.75" fill="white"/>
<rect x="1.09918" y="0.75" width="23.5" height="23.5" rx="11.75" stroke="#CC9933" stroke-width="0.5"/>
<path fill-rule="evenodd" clip-rule="evenodd" d="M16.7297 12.5005C16.7297 12.9072 17.0637 13.2382 17.4742 13.2382C17.6812 13.2382 17.8492 13.4047 17.8492 13.6098V14.9474C17.8492 16.079 16.9202 17 15.7777 17H9.92068C8.77818 17 7.84918 16.079 7.84918 14.9474V13.6098C7.84918 13.4047 8.01718 13.2382 8.22418 13.2382C8.63468 13.2382 8.96868 12.9072 8.96868 12.5005C8.96868 12.1042 8.64868 11.8054 8.22418 11.8054C8.12468 11.8054 8.02918 11.7663 7.95918 11.6969C7.88868 11.6271 7.84918 11.5324 7.84918 11.4338L7.84968 10.0521C7.84968 8.92051 8.77918 8 9.92118 8H15.7772C16.9192 8 17.8487 8.92051 17.8487 10.0521L17.8492 11.3907C17.8492 11.4893 17.8097 11.5839 17.7392 11.6538C17.6692 11.7232 17.5737 11.7623 17.4742 11.7623C17.0637 11.7623 16.7297 12.0933 16.7297 12.5005ZM13.9749 12.8683L14.5644 12.2943C14.6669 12.1953 14.7024 12.0498 14.6579 11.9143C14.6139 11.7793 14.4989 11.6833 14.3599 11.6638L13.5454 11.5448L13.1809 10.8068C13.1184 10.6798 12.9914 10.6008 12.8499 10.6003H12.8489C12.7079 10.6003 12.5809 10.6793 12.5174 10.8063L12.1529 11.5448L11.3399 11.6633C11.1994 11.6833 11.0844 11.7793 11.0399 11.9143C10.9959 12.0498 11.0314 12.1953 11.1334 12.2943L11.7229 12.8683L11.5839 13.6798C11.5599 13.8203 11.6164 13.9588 11.7314 14.0423C11.7964 14.0893 11.8719 14.1133 11.9484 14.1133C12.0069 14.1133 12.0659 14.0983 12.1199 14.0698L12.8489 13.6868L13.5764 14.0693C13.7024 14.1363 13.8519 14.1258 13.9664 14.0418C14.0819 13.9588 14.1384 13.8203 14.1144 13.6798L13.9749 12.8683Z" fill="#CC9933"/>
<path opacity="0.4" d="M14.5644 12.2943L13.9749 12.8683L14.1144 13.6798C14.1384 13.8203 14.0819 13.9588 13.9664 14.0418C13.8519 14.1258 13.7024 14.1363 13.5764 14.0693L12.8489 13.6868L12.1199 14.0698C12.0659 14.0983 12.0069 14.1133 11.9484 14.1133C11.8719 14.1133 11.7964 14.0893 11.7314 14.0423C11.6164 13.9588 11.5599 13.8203 11.5839 13.6798L11.7229 12.8683L11.1334 12.2943C11.0314 12.1953 10.9959 12.0498 11.0399 11.9143C11.0844 11.7793 11.1994 11.6833 11.3399 11.6633L12.1529 11.5448L12.5174 10.8063C12.5809 10.6793 12.7079 10.6003 12.8489 10.6003H12.8499C12.9914 10.6008 13.1184 10.6798 13.1809 10.8068L13.5454 11.5448L14.3599 11.6638C14.4989 11.6833 14.6139 11.7793 14.6579 11.9143C14.7024 12.0498 14.6669 12.1953 14.5644 12.2943Z" fill="#CC9933"/>
<rect x="15.6567" y="0.5" width="9.19256" height="9.18883" rx="4.59442" fill="#EB5757"/>
<g clip-path="url(#clip0_2680_1899)">
<path opacity="0.4" d="M19.9364 4.0873L19.8486 3.10402C19.8391 3.04622 19.8424 2.98705 19.858 2.93061C19.8737 2.87418 19.9015 2.82183 19.9395 2.77719C19.9775 2.73255 20.0246 2.69669 20.0778 2.6721C20.1311 2.6475 20.189 2.63477 20.2476 2.63477C20.3063 2.63477 20.3643 2.6475 20.4175 2.6721C20.4707 2.69669 20.5179 2.73255 20.5558 2.77719C20.5938 2.82183 20.6216 2.87418 20.6373 2.93061C20.653 2.98705 20.6562 3.04622 20.6467 3.10402L20.559 4.0873C20.559 4.17117 20.5256 4.25161 20.4662 4.31092C20.4068 4.37022 20.3263 4.40354 20.2424 4.40354C20.1584 4.40354 20.0779 4.37022 20.0185 4.31092C19.9591 4.25161 19.9257 4.17117 19.9257 4.0873" fill="white"/>
<path d="M19.9524 7.39596L19.8167 7.2684C19.3793 6.80782 19.0198 6.27914 18.7525 5.70313C18.7083 5.60133 18.6778 5.49408 18.662 5.38422C18.6621 5.30012 18.6822 5.21724 18.7206 5.14239C18.7743 5.0461 18.8585 4.97037 18.9601 4.92713C19.0536 4.89879 19.1486 4.87573 19.2447 4.85804C19.5795 4.81026 19.9175 4.78893 20.2557 4.79426C20.5838 4.79149 20.9118 4.81014 21.2374 4.85007C21.3576 4.87168 21.4759 4.90277 21.5912 4.94308C21.67 4.98313 21.7365 5.04388 21.7834 5.11879C21.8302 5.1937 21.8558 5.27995 21.8573 5.36828V5.38422C21.8384 5.50758 21.8017 5.62754 21.7482 5.74033C21.4788 6.30476 21.1194 6.82173 20.684 7.27106C20.6376 7.31798 20.5878 7.3615 20.535 7.40127C20.4535 7.46185 20.3546 7.49448 20.253 7.49429C20.1438 7.49564 20.0373 7.46109 19.9497 7.39596" fill="white"/>
</g>
<defs>
<clipPath id="clip0_2680_1899">
<rect width="3.19256" height="4.78883" fill="white" transform="translate(18.6567 2.69995)"/>
</clipPath>
</defs>
</svg>
