<svg width="19" height="19" viewBox="0 0 19 19" fill="none" xmlns="http://www.w3.org/2000/svg">
<path d="M11.698 4.33145V5.83145M11.698 8.83145V10.3315M11.698 13.3315V14.8315M4.198 4.33145C3.36957 4.33145 2.698 5.00302 2.698 5.83145V8.08145C3.52643 8.08145 4.198 8.75302 4.198 9.58145C4.198 10.4099 3.52643 11.0815 2.698 11.0815V13.3315C2.698 14.1599 3.36957 14.8315 4.198 14.8315H14.698C15.5264 14.8315 16.198 14.1599 16.198 13.3315V11.0815C15.3696 11.0815 14.698 10.4099 14.698 9.58145C14.698 8.75302 15.3696 8.08145 16.198 8.08145V5.83145C16.198 5.00302 15.5264 4.33145 14.698 4.33145H4.198Z" stroke="#111827" stroke-width="1.5" stroke-linecap="round" stroke-linejoin="round"/>
</svg>
