<svg width="18" height="18" viewBox="0 0 18 18" fill="none" xmlns="http://www.w3.org/2000/svg">
<path fill-rule="evenodd" clip-rule="evenodd" d="M13.3928 15.3129C14.7975 15.3129 15.9367 14.1744 15.9375 12.7696V12.7681V10.7431C15.0098 10.7431 14.2583 9.99162 14.2575 9.06387C14.2575 8.13687 15.009 7.38462 15.9368 7.38462H15.9375V5.35962C15.939 3.95412 14.8013 2.81412 13.3965 2.81262H13.392H4.608C3.2025 2.81262 2.06325 3.95112 2.0625 5.35662V5.35737V7.44987C2.958 7.41837 3.70875 8.11887 3.74025 9.01437C3.741 9.03087 3.74175 9.04737 3.74175 9.06387C3.7425 9.99012 2.99325 10.7416 2.067 10.7431H2.0625V12.7681C2.06175 14.1729 3.201 15.3129 4.60575 15.3129H4.6065H13.3928Z" stroke="#8E8E8E" stroke-width="1.5" stroke-linecap="round" stroke-linejoin="round"/>
<path fill-rule="evenodd" clip-rule="evenodd" d="M9.27869 6.7974L9.74069 7.73265C9.78569 7.82415 9.87269 7.8879 9.97394 7.9029L11.0067 8.05365C11.2624 8.09115 11.3637 8.40465 11.1792 8.5839L10.4322 9.3114C10.3587 9.38265 10.3257 9.4854 10.3422 9.58665L10.5184 10.6141C10.5619 10.8684 10.2957 11.0619 10.0677 10.9419L9.14444 10.4566C9.05369 10.4086 8.94569 10.4086 8.85494 10.4566L7.93244 10.9419C7.70369 11.0619 7.43744 10.8684 7.48094 10.6141L7.65719 9.58665C7.67444 9.4854 7.64069 9.38265 7.56719 9.3114L6.82094 8.5839C6.63644 8.40465 6.73769 8.09115 6.99269 8.05365L8.02544 7.9029C8.12669 7.8879 8.21444 7.82415 8.25944 7.73265L8.72069 6.7974C8.83469 6.5664 9.16469 6.5664 9.27869 6.7974Z" stroke="#8E8E8E" stroke-width="1.5" stroke-linecap="round" stroke-linejoin="round"/>
</svg>
