<svg width="94" height="95" viewBox="0 0 94 95" fill="none" xmlns="http://www.w3.org/2000/svg">
<g clip-path="url(#clip0_3106_4818)">
<path d="M54.8094 2.20496H11.0762C7.626 2.20496 4.82861 5.00234 4.82861 8.45255V86.5475C4.82861 89.9977 7.626 92.7951 11.0762 92.7951H54.8094C58.2596 92.7951 61.057 89.9977 61.057 86.5475V8.45255C61.057 5.00234 58.2596 2.20496 54.8094 2.20496Z" fill="#B0B0C1"/>
<path d="M14.2 92.7951H11.0762C7.626 92.7951 4.82861 89.9977 4.82861 86.5475V8.45255C4.82861 5.00234 7.626 2.20496 11.0762 2.20496H14.2C10.7498 2.20496 7.95241 5.00234 7.95241 8.45255V86.5475C7.95241 89.9977 10.7498 92.7951 14.2 92.7951Z" fill="#3D9AE2"/>
<path d="M61.057 82.3773V84.47C60.035 84.8697 58.9925 85.2136 57.9332 85.5011C55.389 86.199 52.7617 86.5513 50.1237 86.5475C37.717 86.5544 26.6166 78.8379 22.3001 67.2053C17.9835 55.5734 21.3635 42.4841 30.7715 34.3955C22.2574 44.2778 21.1973 58.5622 28.1602 69.5931C35.1224 80.6233 48.4733 85.8115 61.057 82.3773Z" fill="#3D9AE2"/>
<path d="M45.4381 2.20496V6.89065C45.4328 8.61347 44.0372 10.0091 42.3143 10.0145H23.5716C21.8487 10.0091 20.4531 8.61347 20.4478 6.89065V2.20496H45.4381Z" fill="#FF9811"/>
<path d="M82.9239 53.7476C82.9239 67.1298 73.9674 78.8555 61.0574 82.3774C58.5132 83.0752 55.8858 83.4275 53.2479 83.4237C36.8578 83.4237 23.5718 70.1377 23.5718 53.7476C23.5718 37.3576 36.8578 24.0716 53.2479 24.0716C55.8858 24.0678 58.5132 24.4201 61.0574 25.1179C73.9674 28.6398 82.9239 40.3655 82.9239 53.7476Z" fill="#CC9933"/>
<path d="M22.0098 14.7002H25.1336V17.824H22.0098V14.7002Z" fill="black"/>
<path d="M28.2573 14.7002H31.3811V17.824H28.2573V14.7002Z" fill="black"/>
<path d="M34.5049 14.7002H37.6287V17.824H34.5049V14.7002Z" fill="black"/>
<path d="M40.7524 14.7002H43.8762V17.824H40.7524V14.7002Z" fill="black"/>
<path d="M84.4853 53.7476C84.467 40.1115 75.6211 28.0571 62.6188 23.9495V8.45256C62.6134 4.14132 59.1205 0.648405 54.8093 0.643066H11.0761C6.76486 0.648405 3.27194 4.14132 3.2666 8.45256V86.5475C3.27194 90.8587 6.76486 94.3517 11.0761 94.357H54.8093C59.1205 94.3517 62.6134 90.8587 62.6188 86.5475V83.5457C75.6211 79.4381 84.467 67.3837 84.4853 53.7476ZM81.3615 53.7476C81.3615 69.2743 68.7741 81.8618 53.2474 81.8618C37.7207 81.8618 25.1332 69.2743 25.1332 53.7476C25.1332 38.2209 37.7207 25.6334 53.2474 25.6334C68.7672 25.6518 81.3432 38.2278 81.3615 53.7476ZM22.0094 3.76686H43.876V6.89066C43.876 7.75321 43.1766 8.45256 42.3141 8.45256H23.5713C22.7087 8.45256 22.0094 7.75321 22.0094 6.89066V3.76686ZM59.495 86.5475C59.495 89.1352 57.3969 91.2332 54.8093 91.2332H11.0761C8.48844 91.2332 6.3904 89.1352 6.3904 86.5475V8.45256C6.3904 5.8649 8.48844 3.76686 11.0761 3.76686H18.8856V6.89066C18.8856 9.47832 20.9836 11.5764 23.5713 11.5764H42.3141C44.9017 11.5764 46.9998 9.47832 46.9998 6.89066V3.76686H54.8093C57.3969 3.76686 59.495 5.8649 59.495 8.45256V23.1343C47.0837 20.6145 34.3787 25.8371 27.3281 36.3585C20.2782 46.8792 20.2782 60.616 27.3281 71.1367C34.3787 81.6582 47.0837 86.8808 59.495 84.361V86.5475Z" fill="black"/>
<path d="M27.9561 26.0354L30.35 24.0273L32.358 26.4205L29.9633 28.4285L27.9561 26.0354Z" fill="black"/>
<path d="M23.5273 30.8499L25.5354 28.4568L27.9286 30.464L25.9213 32.858L23.5273 30.8499Z" fill="black"/>
<path d="M20.0044 36.3563L21.5655 33.6527L24.2691 35.2138L22.708 37.9174L20.0044 36.3563Z" fill="black"/>
<path d="M17.4878 42.3941L18.5563 39.4587L21.4917 40.5264L20.4232 43.4618L17.4878 42.3941Z" fill="black"/>
<path d="M16.0601 48.7774L16.6023 45.7009L19.6788 46.2432L19.1366 49.3197L16.0601 48.7774Z" fill="black"/>
<path d="M15.7617 52.1857H18.8855V55.3095H15.7617V52.1857Z" fill="black"/>
<path d="M16.0601 58.7185L19.1358 58.1763L19.6781 61.2521L16.6023 61.7943L16.0601 58.7185Z" fill="black"/>
<path d="M17.4873 65.0996L20.4227 64.0319L21.4912 66.9673L18.5558 68.035L17.4873 65.0996Z" fill="black"/>
<path d="M20.0044 71.1383L22.708 69.5764L24.2699 72.2799L21.5663 73.8418L20.0044 71.1383Z" fill="black"/>
<path d="M23.5273 76.6461L25.9213 74.6388L27.9286 77.032L25.5354 79.0393L23.5273 76.6461Z" fill="black"/>
<path d="M27.9565 81.4599L29.9631 79.0659L32.3585 81.074L30.3513 83.4679L27.9565 81.4599Z" fill="black"/>
<path d="M33.1533 85.4318L34.7152 82.7259L37.4203 84.2878L35.8584 86.9937L33.1533 85.4318Z" fill="black"/>
<path d="M78.5669 30.4633L80.9601 28.456L82.9674 30.8492L80.5742 32.8572L78.5669 30.4633Z" fill="black"/>
<path d="M82.2261 35.2131L84.9297 33.6519L86.4908 36.3555L83.7872 37.9174L82.2261 35.2131Z" fill="black"/>
<path d="M85.0024 40.5264L87.9379 39.4587L89.0056 42.3941L86.0701 43.4618L85.0024 40.5264Z" fill="black"/>
<path d="M86.8169 46.2417L89.8926 45.6994L90.4349 48.7752L87.3591 49.3174L86.8169 46.2417Z" fill="black"/>
<path d="M87.6094 52.1857H90.7332V55.3095H87.6094V52.1857Z" fill="black"/>
<path d="M86.8179 61.2528L87.3601 58.1763L90.4366 58.7185L89.8944 61.7951L86.8179 61.2528Z" fill="black"/>
<path d="M85.0024 66.9666L86.0701 64.0312L89.0056 65.0996L87.9379 68.035L85.0024 66.9666Z" fill="black"/>
<path d="M82.2251 72.2807L83.787 69.5764L86.4906 71.1383L84.9287 73.8418L82.2251 72.2807Z" fill="black"/>
<path d="M78.5811 77.0526L80.5891 74.6602L82.9823 76.6682L80.9735 79.0614L78.5811 77.0526Z" fill="black"/>
<path d="M76.676 13.1382H79.7998V10.0144H82.9236V6.89064H79.7998V3.76685H76.676V6.89064H73.5522V10.0144H76.676V13.1382Z" fill="black"/>
<path d="M65.7427 16.2621H75.1141V19.3859H65.7427V16.2621Z" fill="black"/>
<path d="M73.5522 22.5096H82.9236V25.6334H73.5522V22.5096Z" fill="black"/>
<path d="M75.1143 81.8618H71.9905V84.9856H68.8667V88.1094H71.9905V91.2332H75.1143V88.1094H78.2381V84.9856H75.1143V81.8618Z" fill="black"/>
<path d="M51.9688 37.4636L55.7683 42.8906L58.3285 41.0961L56.489 38.4673C63.516 39.9552 68.6226 46.0441 68.8636 53.2229C69.1054 60.4017 64.4197 66.8194 57.5086 68.7763L58.3582 71.7812C66.5734 69.4421 72.1674 61.8439 71.9623 53.3045C71.7564 44.7652 65.8031 37.4445 57.485 35.5028L59.5716 34.0424L57.7771 31.486L52.3493 35.2878C51.6439 35.7827 51.473 36.7574 51.9688 37.4636Z" fill="black"/>
<path d="M50.7273 64.6047L48.1671 66.3992L50.0066 69.028C42.9872 67.534 37.8889 61.4488 37.6472 54.2762C37.4062 47.1035 42.0835 40.6889 48.987 38.7266L48.1374 35.7217C39.9221 38.0615 34.3281 45.6598 34.5333 54.1991C34.7392 62.7385 40.6924 70.0583 49.0106 72L46.924 73.4605L48.7185 76.0093L54.1463 72.2075C54.8532 71.7133 55.0248 70.7386 54.5299 70.0317L50.7273 64.6047Z" fill="black"/>
</g>
<defs>
<clipPath id="clip0_3106_4818">
<rect width="93.7139" height="93.7139" fill="white" transform="translate(0.143066 0.643066)"/>
</clipPath>
</defs>
</svg>
