<svg width="24" height="20" viewBox="0 0 24 20" fill="none" xmlns="http://www.w3.org/2000/svg">
<path d="M4.28585 4.5332C4.05853 4.5332 3.84051 4.61921 3.67976 4.7723C3.51902 4.92539 3.42871 5.13303 3.42871 5.34953C3.42871 5.56603 3.51902 5.77367 3.67976 5.92676C3.84051 6.07985 4.05853 6.16586 4.28585 6.16586H8.85728C9.08461 6.16586 9.30263 6.07985 9.46337 5.92676C9.62412 5.77367 9.71443 5.56603 9.71443 5.34953C9.71443 5.13303 9.62412 4.92539 9.46337 4.7723C9.30263 4.61921 9.08461 4.5332 8.85728 4.5332H4.28585Z" fill="#CC9933"/>
<path fill-rule="evenodd" clip-rule="evenodd" d="M21.9292 5.62594C21.8584 5.62158 21.7806 5.62158 21.7006 5.62158H18.5315C15.9361 5.62158 13.7144 7.51111 13.7144 9.97532C13.7144 12.4395 15.9361 14.3291 18.5315 14.3291H21.7006C21.7806 14.3291 21.8584 14.3291 21.9292 14.3247C22.9841 14.2638 23.9166 13.5008 23.9955 12.4341C24.0001 12.3644 24.0001 12.2893 24.0001 12.2197V7.73097C24.0001 7.66131 24.0001 7.58621 23.9955 7.51655C23.9166 6.44988 22.9841 5.68798 21.9292 5.62594ZM18.2526 11.1367C18.9201 11.1367 19.4618 10.6164 19.4618 9.97532C19.4618 9.33315 18.9201 8.81396 18.2526 8.81396C17.5841 8.81396 17.0412 9.33424 17.0412 9.97532C17.0412 10.6175 17.5841 11.1367 18.2526 11.1367Z" fill="#CC9933"/>
<path opacity="0.5" d="M21.8743 5.6238C21.8743 4.33836 21.824 2.95931 20.9623 1.9721C20.878 1.87539 20.7892 1.78241 20.696 1.69346C19.84 0.879307 18.7554 0.517947 17.416 0.345974C16.1131 0.179443 14.4503 0.179443 12.3497 0.179443H9.936C7.83543 0.179443 6.17143 0.179443 4.86857 0.345974C3.52914 0.517947 2.44457 0.879307 1.58857 1.69346C0.733714 2.50869 0.354286 3.54162 0.173714 4.81727C-5.10897e-08 6.05808 0 7.64176 0 9.6423V9.7642C0 11.7647 1.36239e-07 13.3495 0.174857 14.5892C0.355429 15.8649 0.734857 16.8978 1.58971 17.713C2.44571 18.5272 3.53029 18.8886 4.86971 19.0605C6.17257 19.2271 7.83543 19.2271 9.936 19.2271H12.3497C14.4503 19.2271 16.1143 19.2271 17.416 19.0605C18.7554 18.8886 19.84 18.5272 20.696 17.713C20.9237 17.4955 21.1253 17.2546 21.2971 16.9947C21.8114 16.211 21.8731 15.251 21.8731 14.328L21.7017 14.3291H18.5314C15.936 14.3291 13.7143 12.4396 13.7143 9.97536C13.7143 7.51114 15.936 5.62162 18.5314 5.62162H21.7006C21.76 5.62162 21.8194 5.62162 21.8743 5.6238Z" fill="#CC9933"/>
</svg>
