<svg width="25" height="25" viewBox="0 0 25 25" fill="none" xmlns="http://www.w3.org/2000/svg">
<g clip-path="url(#clip0_2510_2967)">
<path d="M20.3918 23.7435C15.27 24.29 10.1046 24.29 4.98275 23.7435C3.98814 23.6385 3.05958 23.1957 2.35188 22.489C1.64418 21.7823 1.20009 20.8544 1.09366 19.8599C0.547229 14.7381 0.547229 9.57264 1.09366 4.45081C1.1987 3.4562 1.64148 2.52764 2.34819 1.81993C3.0549 1.11223 3.98284 0.668148 4.9773 0.56172C10.0991 0.0152849 15.2646 0.0152849 20.3864 0.56172C21.381 0.666752 22.3096 1.10953 23.0173 1.81624C23.725 2.52295 24.1691 3.45089 24.2755 4.44536C24.8219 9.56719 24.8219 14.7326 24.2755 19.8544C24.1705 20.8491 23.7277 21.7776 23.021 22.4853C22.3142 23.193 21.3863 23.6371 20.3918 23.7435Z" fill="#E60000"/>
<path d="M24.6845 13.1302C24.6545 15.3747 24.5181 17.6179 24.2754 19.8597C24.1694 20.8534 23.7262 21.7809 23.0195 22.4875C22.3129 23.1942 21.3855 23.6374 20.3917 23.7434C18.1399 23.9834 15.8863 24.1197 13.6308 24.1524L6.139 16.6524C5.584 6.50426 19.0595 7.51608 19.0595 7.51608L24.6845 13.1302Z" fill="#B50000"/>
<path d="M19.834 8.54427C19.534 7.62108 18.5412 7.06199 17.6276 6.93381C14.3414 6.58472 11.0274 6.58472 7.74124 6.93381C6.8276 7.06199 5.83214 7.61563 5.53487 8.54427C5.06715 10.9274 5.06715 13.3788 5.53487 15.762C5.83487 16.6838 6.8276 17.2443 7.74124 17.3724C11.0274 17.7215 14.3414 17.7215 17.6276 17.3724C18.5412 17.2443 19.5367 16.6906 19.834 15.762C20.3017 13.3788 20.3017 10.9274 19.834 8.54427ZM10.8899 15.027V9.2779L15.5699 12.1524C13.9921 13.122 12.4608 14.0615 10.8899 15.027Z" fill="white"/>
</g>
<defs>
<clipPath id="clip0_2510_2967">
<rect width="24" height="24" fill="white" transform="translate(0.684326 0.152443)"/>
</clipPath>
</defs>
</svg>
